<?xml version="1.0" encoding="UTF-8" standalone="no"?>
<!-- Created with Inkscape (http://www.inkscape.org/) -->

<svg
   xmlns:dc="http://purl.org/dc/elements/1.1/"
   xmlns:cc="http://creativecommons.org/ns#"
   xmlns:rdf="http://www.w3.org/1999/02/22-rdf-syntax-ns#"
   xmlns:svg="http://www.w3.org/2000/svg"
   xmlns="http://www.w3.org/2000/svg"
   xmlns:sodipodi="http://sodipodi.sourceforge.net/DTD/sodipodi-0.dtd"
   xmlns:inkscape="http://www.inkscape.org/namespaces/inkscape"
   version="1.1"
   id="svg2"
   xml:space="preserve"
   width="979.82129"
   height="709.24841"
   viewBox="0 0 979.82131 709.24841"
   sodipodi:docname="agrirouter-overview-4.svg"
   inkscape:version="0.92.5 (2060ec1f9f, 2020-04-08)"><metadata
     id="metadata8"><rdf:RDF><cc:Work
         rdf:about=""><dc:format>image/svg+xml</dc:format><dc:type
           rdf:resource="http://purl.org/dc/dcmitype/StillImage" /><dc:title></dc:title></cc:Work></rdf:RDF></metadata><defs
     id="defs6"><clipPath
       clipPathUnits="userSpaceOnUse"
       id="clipPath154"><path
         d="m 4963.59,2627.64 c 166.13,0 300.81,134.68 300.81,300.82 0,166.13 -134.68,300.82 -300.81,300.82 -166.14,0 -300.82,-134.69 -300.82,-300.82 0,-166.14 134.68,-300.82 300.82,-300.82 z"
         id="path152"
         inkscape:connector-curvature="0" /></clipPath></defs><sodipodi:namedview
     pagecolor="#ffffff"
     bordercolor="#666666"
     borderopacity="1"
     objecttolerance="10"
     gridtolerance="10"
     guidetolerance="10"
     inkscape:pageopacity="0"
     inkscape:pageshadow="2"
     inkscape:window-width="1920"
     inkscape:window-height="1017"
     id="namedview4"
     showgrid="false"
     inkscape:zoom="0.70644822"
     inkscape:cx="418.86905"
     inkscape:cy="458.47972"
     inkscape:window-x="-8"
     inkscape:window-y="114"
     inkscape:window-maximized="1"
     inkscape:current-layer="g208" /><g
     id="g10"
     inkscape:groupmode="layer"
     inkscape:label="ink_ext_XXXXXX"
     transform="matrix(1.3333333,0,0,-1.3333333,-171.284,765.13065)"><path
       inkscape:connector-curvature="0"
       id="path14"
       style="fill:#c2c3c3;fill-opacity:1;fill-rule:nonzero;stroke:none;stroke-width:0.1"
       d="m 630.124,172.307 h -27.51 c -0.887,0 -1.607,0.72 -1.607,1.607 0,0.887 0.72,1.606 1.607,1.606 h 27.51 c 4.34,0 4.466,4.009 4.466,4.466 V 490.41 c 0,6.073 5.023,7.678 7.678,7.678 h 219.455 c 0.886,0 1.606,-0.719 1.606,-1.607 0,-0.887 -0.72,-1.606 -1.606,-1.606 H 642.268 c -0.738,-0.009 -4.465,-0.267 -4.465,-4.465 V 179.986 c 0,-2.656 -1.605,-7.679 -7.679,-7.679" /><path
       inkscape:connector-curvature="0"
       id="path16"
       style="fill:#ffffff;fill-opacity:1;fill-rule:nonzero;stroke:none;stroke-width:0.1"
       d="m 604.522,463.686 c 0,59.736 -48.427,108.162 -108.164,108.162 -59.737,0 -108.163,-48.426 -108.163,-108.162 0,-0.764 0.013,-1.523 0.028,-2.283 -0.007,-0.19 -0.028,-0.376 -0.028,-0.567 V 123.598 c 0,-8.5 6.953,-15.453 15.451,-15.453 H 589.07 c 8.498,0 15.452,6.953 15.452,15.453 v 337.238 c 0,0.191 -0.022,0.377 -0.029,0.567 0.016,0.76 0.029,1.519 0.029,2.283" /><path
       inkscape:connector-curvature="0"
       id="path18"
       style="fill:none;stroke:#c2c3c3;stroke-width:4;stroke-linecap:butt;stroke-linejoin:miter;stroke-miterlimit:10;stroke-dasharray:none;stroke-opacity:1"
       d="m 604.522,463.686 c 0,59.736 -48.427,108.162 -108.164,108.162 -59.737,0 -108.163,-48.426 -108.163,-108.162 0,-0.764 0.013,-1.523 0.028,-2.283 -0.007,-0.19 -0.028,-0.376 -0.028,-0.567 V 123.598 c 0,-8.5 6.953,-15.453 15.451,-15.453 H 589.07 c 8.498,0 15.452,6.953 15.452,15.453 v 337.238 c 0,0.191 -0.022,0.377 -0.029,0.567 0.016,0.76 0.029,1.519 0.029,2.283 z" /><path
       inkscape:connector-curvature="0"
       id="path20"
       style="fill:#c2c3c3;fill-opacity:1;fill-rule:nonzero;stroke:none;stroke-width:0.1"
       d="m 432.548,190.927 c -4.43,0 -8.033,3.603 -8.033,8.033 0,4.429 3.603,8.032 8.033,8.032 4.429,0 8.032,-3.603 8.032,-8.032 0,-4.43 -3.603,-8.033 -8.032,-8.033 z m 0,12.852 c -2.658,0 -4.82,-2.161 -4.82,-4.819 0,-2.658 2.162,-4.82 4.82,-4.82 2.657,0 4.819,2.162 4.819,4.82 0,2.658 -2.162,4.819 -4.819,4.819" /><path
       inkscape:connector-curvature="0"
       id="path22"
       style="fill:#c2c3c3;fill-opacity:1;fill-rule:nonzero;stroke:none;stroke-width:0.1"
       d="m 432.548,142.431 c -4.43,0 -8.033,3.603 -8.033,8.033 0,4.429 3.603,8.032 8.033,8.032 4.429,0 8.032,-3.603 8.032,-8.032 0,-4.43 -3.603,-8.033 -8.032,-8.033 z m 0,12.852 c -2.658,0 -4.82,-2.162 -4.82,-4.819 0,-2.658 2.162,-4.82 4.82,-4.82 2.657,0 4.819,2.162 4.819,4.82 0,2.657 -2.162,4.819 -4.819,4.819" /><path
       inkscape:connector-curvature="0"
       id="path24"
       style="fill:none;stroke:#c2c3c3;stroke-width:3.21300006;stroke-linecap:butt;stroke-linejoin:miter;stroke-miterlimit:4;stroke-dasharray:none;stroke-opacity:1"
       d="m 412.549,226.047 c -3.354,0 -6.072,-2.718 -6.072,-6.072 v -89.876 c 0,-3.353 2.718,-6.072 6.072,-6.072 h 167.619 c 3.353,0 6.072,2.719 6.072,6.072 v 89.876 c 0,3.354 -2.719,6.072 -6.072,6.072 z" /><path
       inkscape:connector-curvature="0"
       id="path26"
       style="fill:#c2c3c3;fill-opacity:1;fill-rule:nonzero;stroke:none;stroke-width:0.1"
       d="m 541.054,202.261 c 0.54,0 1.047,-0.21 1.429,-0.591 0.786,-0.788 0.786,-2.069 0,-2.856 -0.382,-0.382 -0.889,-0.592 -1.429,-0.592 -0.539,0 -1.046,0.21 -1.428,0.592 -0.787,0.787 -0.787,2.068 0,2.856 0.382,0.381 0.889,0.591 1.428,0.591 m 0,1.071 c -0.791,0 -1.581,-0.302 -2.185,-0.905 -1.207,-1.207 -1.207,-3.164 0,-4.37 0.604,-0.603 1.394,-0.906 2.185,-0.906 0.792,0 1.582,0.303 2.186,0.906 1.207,1.206 1.207,3.163 0,4.37 -0.604,0.603 -1.394,0.905 -2.186,0.905" /><path
       inkscape:connector-curvature="0"
       id="path28"
       style="fill:#c2c3c3;fill-opacity:1;fill-rule:nonzero;stroke:none;stroke-width:0.1"
       d="m 550.326,202.261 c 0.538,0 1.046,-0.21 1.428,-0.591 0.787,-0.788 0.787,-2.069 0,-2.856 -0.382,-0.382 -0.89,-0.592 -1.428,-0.592 -0.54,0 -1.047,0.21 -1.429,0.592 -0.786,0.787 -0.786,2.068 0,2.856 0.382,0.381 0.889,0.591 1.429,0.591 m 0,1.071 c -0.792,0 -1.583,-0.302 -2.186,-0.905 -1.207,-1.207 -1.207,-3.164 0,-4.37 0.603,-0.603 1.394,-0.906 2.186,-0.906 0.79,0 1.581,0.303 2.185,0.906 1.207,1.206 1.207,3.163 0,4.37 -0.604,0.603 -1.395,0.905 -2.185,0.905" /><path
       inkscape:connector-curvature="0"
       id="path30"
       style="fill:#c2c3c3;fill-opacity:1;fill-rule:nonzero;stroke:none;stroke-width:0.1"
       d="m 559.597,202.261 c 0.539,0 1.047,-0.21 1.427,-0.591 0.788,-0.788 0.788,-2.069 0,-2.856 -0.38,-0.382 -0.888,-0.592 -1.427,-0.592 -0.54,0 -1.047,0.21 -1.428,0.592 -0.787,0.787 -0.787,2.068 0,2.856 0.381,0.381 0.888,0.591 1.428,0.591 m 0,1.071 c -0.791,0 -1.582,-0.302 -2.185,-0.905 -1.207,-1.207 -1.207,-3.164 0,-4.37 0.603,-0.603 1.394,-0.906 2.185,-0.906 0.791,0 1.581,0.303 2.185,0.906 1.207,1.206 1.207,3.163 0,4.37 -0.604,0.603 -1.394,0.905 -2.185,0.905" /><path
       inkscape:connector-curvature="0"
       id="path32"
       style="fill:none;stroke:#c2c3c3;stroke-width:3.21300006;stroke-linecap:butt;stroke-linejoin:miter;stroke-miterlimit:4;stroke-dasharray:none;stroke-opacity:1"
       d="m 460.393,210.644 c -1.677,0 -3.036,-1.359 -3.036,-3.036 v -65.142 c 0,-1.676 1.359,-3.036 3.036,-3.036 h 107.95 c 1.676,0 3.036,1.36 3.036,3.036 v 65.142 c 0,1.677 -1.36,3.036 -3.036,3.036 z" /><path
       inkscape:connector-curvature="0"
       id="path34"
       style="fill:none;stroke:#c2c3c3;stroke-width:3.21300006;stroke-linecap:butt;stroke-linejoin:miter;stroke-miterlimit:4;stroke-dasharray:none;stroke-opacity:1"
       d="M 456.823,189.775 H 571.58" /><path
       inkscape:connector-curvature="0"
       id="path36"
       style="fill:#c2c3c3;fill-opacity:1;fill-rule:nonzero;stroke:none;stroke-width:0.1"
       d="m 426.121,197.353 h -63.183 c -6.073,0 -7.678,5.024 -7.678,7.679 V 490.41 c 0,4.198 -3.728,4.456 -4.476,4.465 H 130.07 c -0.888,0 -1.607,0.719 -1.607,1.606 0,0.888 0.719,1.607 1.607,1.607 h 220.724 c 2.656,0 7.679,-1.605 7.679,-7.678 V 205.032 c 0.009,-0.738 0.267,-4.466 4.465,-4.466 h 63.183 c 0.888,0 1.607,-0.719 1.607,-1.606 0,-0.887 -0.719,-1.607 -1.607,-1.607" /><path
       inkscape:connector-curvature="0"
       id="path38"
       style="fill:#c2c3c3;fill-opacity:1;fill-rule:nonzero;stroke:none;stroke-width:0.1"
       d="m 426.121,148.857 h -85.193 c -6.073,0 -7.678,5.022 -7.678,7.678 v 152.446 c 0,4.198 -3.728,4.456 -4.475,4.465 H 130.07 c -0.888,0 -1.607,0.719 -1.607,1.606 0,0.888 0.719,1.607 1.607,1.607 h 198.714 c 2.656,0 7.679,-1.605 7.679,-7.678 V 156.535 c 0.009,-0.737 0.267,-4.465 4.465,-4.465 h 85.193 c 0.888,0 1.607,-0.72 1.607,-1.606 0,-0.887 -0.719,-1.607 -1.607,-1.607" /><path
       inkscape:connector-curvature="0"
       id="path40"
       style="fill:none;stroke:#c2c3c3;stroke-width:3.47004008;stroke-linecap:butt;stroke-linejoin:miter;stroke-miterlimit:4;stroke-dasharray:none;stroke-opacity:1"
       d="m 274.116,248.434 c -5.432,0 -9.836,-4.404 -9.836,-9.836 v -31.611 c 0,-5.432 4.404,-9.836 9.836,-9.836 h 31.611 c 5.432,0 9.836,4.404 9.836,9.836 v 31.611 c 0,5.432 -4.404,9.836 -9.836,9.836 z" /><path
       inkscape:connector-curvature="0"
       id="path42"
       style="fill:#c2c3c3;fill-opacity:1;fill-rule:nonzero;stroke:none;stroke-width:0.1"
       d="m 291.872,229.607 c 1.063,-0.31 2.019,-0.828 2.867,-1.5 1.647,-1.346 2.656,-3.261 2.868,-5.332 0.108,-1.345 -0.106,-2.741 -0.689,-3.986 l 0.743,-0.31 c 0.637,1.346 0.903,2.846 0.795,4.347 -0.212,2.277 -1.327,4.401 -3.132,5.9 -0.956,0.776 -2.018,1.347 -3.186,1.656 l -0.266,-0.775" /><path
       inkscape:connector-curvature="0"
       id="path44"
       style="fill:#c2c3c3;fill-opacity:1;fill-rule:nonzero;stroke:none;stroke-width:0.1"
       d="m 299.043,216.632 1.938,-1.087 -0.401,-0.672 -1.936,1.086 0.399,0.673" /><path
       inkscape:connector-curvature="0"
       id="path46"
       style="fill:#c2c3c3;fill-opacity:1;fill-rule:nonzero;stroke:none;stroke-width:0.1"
       d="m 300.063,219.371 2.162,-0.564 -0.207,-0.749 -2.162,0.562 0.207,0.751" /><path
       inkscape:connector-curvature="0"
       id="path48"
       style="fill:#c2c3c3;fill-opacity:1;fill-rule:nonzero;stroke:none;stroke-width:0.1"
       d="m 300.345,221.481 h 2.238 v 0.776 h -2.238 v -0.776" /><path
       inkscape:connector-curvature="0"
       id="path50"
       style="fill:#c2c3c3;fill-opacity:1;fill-rule:nonzero;stroke:none;stroke-width:0.1"
       d="m 300.083,224.377 -0.207,0.75 2.162,0.563 0.207,-0.749 -2.162,-0.564" /><path
       inkscape:connector-curvature="0"
       id="path52"
       style="fill:#c2c3c3;fill-opacity:1;fill-rule:nonzero;stroke:none;stroke-width:0.1"
       d="m 299.038,227.073 -0.4,0.673 1.939,1.086 0.399,-0.671 -1.938,-1.088" /><path
       inkscape:connector-curvature="0"
       id="path54"
       style="fill:#c2c3c3;fill-opacity:1;fill-rule:nonzero;stroke:none;stroke-width:0.1"
       d="m 297.28,229.452 -0.565,0.549 1.583,1.537 0.565,-0.549 -1.583,-1.537" /><path
       inkscape:connector-curvature="0"
       id="path56"
       style="fill:#c2c3c3;fill-opacity:1;fill-rule:nonzero;stroke:none;stroke-width:0.1"
       d="m 294.278,231.659 1.119,1.882 0.693,-0.388 -1.119,-1.882 -0.693,0.388" /><path
       inkscape:connector-curvature="0"
       id="path58"
       style="fill:#c2c3c3;fill-opacity:1;fill-rule:nonzero;stroke:none;stroke-width:0.1"
       d="m 292.266,232.491 -0.773,0.201 0.579,2.1 0.772,-0.201 -0.578,-2.1" /><path
       inkscape:connector-curvature="0"
       id="path60"
       style="fill:#c2c3c3;fill-opacity:1;fill-rule:nonzero;stroke:none;stroke-width:0.1"
       d="m 289.314,235.507 c -3.782,0 -7.299,-1.397 -9.91,-3.986 -2.663,-2.536 -4.102,-5.951 -4.102,-9.574 0,-3.623 1.439,-7.038 4.102,-9.574 2.611,-2.536 6.128,-3.985 9.858,-3.985 3.73,0 7.245,1.396 9.856,3.985 l 0.268,0.258 -8.473,8.28 c 0.214,0.311 0.32,0.673 0.32,1.036 0,0.517 -0.215,0.983 -0.586,1.346 -0.267,0.258 -0.64,0.413 -1.013,0.518 l 0.054,11.644 z m 1.119,-13.56 c 0,-0.31 -0.106,-0.622 -0.374,-0.827 -0.426,-0.415 -1.225,-0.415 -1.704,0 -0.214,0.207 -0.373,0.517 -0.373,0.827 0,0.31 0.107,0.622 0.373,0.828 0.215,0.207 0.533,0.363 0.852,0.363 0.32,0 0.64,-0.104 0.852,-0.363 0.269,-0.206 0.374,-0.518 0.374,-0.828" /><path
       inkscape:connector-curvature="0"
       id="path62"
       style="fill:#c2c3c3;fill-opacity:1;fill-rule:nonzero;stroke:none;stroke-width:0.1"
       d="m 289.209,204.358 c -3.933,0 -7.705,1.228 -10.907,3.549 -3.879,2.851 -6.377,6.976 -7.037,11.62 -0.666,4.686 0.573,9.327 3.489,13.069 3.416,4.385 8.859,7.002 14.559,7.002 2.148,0 4.255,-0.366 6.261,-1.087 1.09,-0.352 2.218,-0.881 3.327,-1.563 l 0.572,-0.352 -1.141,-1.796 -0.582,0.345 c -1.083,0.641 -2.007,1.082 -2.907,1.389 -1.772,0.645 -3.619,0.969 -5.509,0.969 -5.005,0 -9.788,-2.308 -12.793,-6.176 -2.58,-3.359 -3.67,-7.447 -3.065,-11.51 0.563,-4.115 2.756,-7.742 6.179,-10.221 2.808,-2.055 6.14,-3.141 9.637,-3.141 5.059,0 9.703,2.247 12.742,6.164 4.238,5.412 4.323,12.695 0.364,18.186 l -0.328,-1.776 -2.145,0.415 0.929,5.076 5.254,-0.907 -0.428,-2.085 -1.348,0.232 c 4.287,-6.162 4.111,-14.324 -0.613,-20.41 -3.398,-4.378 -8.822,-6.992 -14.51,-6.992" /><path
       inkscape:connector-curvature="0"
       id="path64"
       style="fill:#777777;fill-opacity:1;fill-rule:nonzero;stroke:none;stroke-width:0.1"
       d="m 144.182,406.226 c 0,-1.221 -1.013,-2.209 -2.265,-2.209 -1.251,0 -2.265,0.988 -2.265,2.209 0,1.222 1.014,2.211 2.265,2.211 1.252,0 2.265,-0.989 2.265,-2.211 m 44.041,3.823 c -0.685,0.184 -1.407,-0.037 -1.817,-0.604 -0.331,-0.409 -0.405,-1.045 -0.19,-1.504 0.242,-0.548 0.83,-0.986 1.45,-0.966 0.634,-0.018 1.241,0.337 1.521,0.888 0.193,0.414 0.22,1.027 -0.037,1.423 -0.174,0.388 -0.575,0.583 -0.927,0.763 z m 17.65,-9.355 h -6.136 c -2.586,-3.796 -7.004,-6.3 -12.025,-6.3 -7.973,0 -14.435,6.307 -14.435,14.086 0,7.78 6.462,14.086 14.435,14.086 7.972,0 14.434,-6.306 14.434,-14.086 0,-1.05 -0.126,-2.07 -0.35,-3.055 h 4.077 z m -10.488,7.785 c 0,4.137 -3.436,7.489 -7.673,7.489 -4.24,0 -7.674,-3.352 -7.674,-7.489 0,-4.136 3.434,-7.489 7.674,-7.489 4.237,0 7.673,3.353 7.673,7.489 z m -41.8,-4.191 v 0 c -0.946,-5.46 -5.803,-9.622 -11.668,-9.622 -6.543,0 -11.847,5.176 -11.847,11.561 0,2.877 1.084,5.503 2.867,7.527 v 0 0 c 0.263,0.298 0.541,0.581 0.833,0.852 0.032,0.029 0.065,0.057 0.097,0.086 0.262,0.237 0.533,0.462 0.815,0.675 0.059,0.045 0.118,0.087 0.179,0.131 0.26,0.189 0.527,0.367 0.803,0.535 0.084,0.051 0.168,0.101 0.253,0.15 0.258,0.149 0.523,0.287 0.794,0.417 0.106,0.051 0.211,0.102 0.318,0.15 0.259,0.114 0.524,0.217 0.792,0.314 0.124,0.044 0.245,0.091 0.37,0.132 0.264,0.085 0.534,0.156 0.806,0.223 0.133,0.034 0.265,0.072 0.4,0.101 0.285,0.06 0.576,0.103 0.869,0.143 0.125,0.017 0.248,0.042 0.375,0.056 0.419,0.044 0.844,0.069 1.276,0.069 6.544,0 11.847,-5.177 11.847,-11.561 0,-0.34 -0.019,-0.675 -0.051,-1.006 -0.028,-0.315 -0.074,-0.625 -0.128,-0.932 z m -5.221,1.938 c 0,3.474 -2.887,6.291 -6.447,6.291 -3.561,0 -6.446,-2.817 -6.446,-6.291 0,-3.472 2.885,-6.29 6.446,-6.29 3.56,0 6.447,2.818 6.447,6.29 z m 51.124,12.445 c 0,0 -3.504,5.347 -11.776,5.173 -8.68,-0.181 -15.745,-6.892 -15.745,-15.364 0,-1.455 0.222,-2.857 0.61,-4.192 h -3.276 -14.392 c 0.098,0.634 0.166,1.278 0.166,1.939 0,7.079 -5.902,12.839 -13.158,12.839 -3.537,0 -6.746,-1.375 -9.113,-3.599 0.007,0.151 0.014,0.304 0.027,0.479 0.243,3.503 0.777,7.445 2.989,8.363 4.215,1.754 14.64,2.074 14.64,2.074 l 4.708,0.142 c 0.284,0.202 0.9,0.561 1.737,0.571 0.048,0 0.112,10e-4 0.173,10e-4 0.383,0.19 0.995,0.466 1.768,0.713 v 8.416 h 0.507 c 0,0.027 0,0.625 -0.018,1.298 -0.018,0.625 -0.417,0.828 -0.417,0.828 0,0 -0.36,1.409 0.145,1.462 1.133,0.119 1.571,-1.902 1.571,-1.902 v -1.686 h 0.466 v -7.927 c 0.524,0.058 -0.541,0.081 0.018,0.043 0.124,-0.009 1.847,-0.02 1.952,-0.033 l 1.467,9.636 -0.665,0.001 -0.327,0.536 v 0 c -0.346,0.325 -0.681,0.603 -1.095,1.279 -0.039,0.064 -0.064,0.231 0.295,0.258 6.489,0.817 22.942,0.299 22.942,0.299 0,0 0.706,0.069 0.74,-0.587 0.036,-0.653 0.036,-1.1 0.036,-1.1 l -1.771,-0.718 2.569,-10.877 c 0,0 0.642,0.01 1.594,-0.078 0.36,-0.02 0.804,-0.071 1.338,-0.17 0.993,-0.163 2.111,-0.431 3.143,-0.876 0.046,-0.019 0.084,-0.036 0.128,-0.056 0.259,-0.094 0.525,-0.194 0.804,-0.304 0.995,-0.393 4.189,-0.445 4.189,-0.445 v -0.002 h 0.435 v -2.538 h -0.437 l -0.031,0.012 c 0,0 0.408,-0.557 0.978,-0.764 0.571,-0.206 1.159,-0.747 0.636,-1.225 -0.522,-0.478 -0.55,-1.919 -0.55,-1.919 z m -22.567,6.511 -0.767,12.135 h -9.398 c -0.16,-1.06 -1.97,-12.954 -1.985,-13.048 v -9.052 h 3.774 c 0.915,3.28 2.986,6.253 5.881,8.418 0.782,0.584 1.62,1.097 2.495,1.547 z m 8.635,2.061 c -0.265,1.29 -1.877,9.154 -2.066,10.074 h -5.972 l 0.789,-11.947 c 2.232,1.083 4.707,1.734 7.249,1.873" /><path
       inkscape:connector-curvature="0"
       id="path66"
       style="fill:#777777;fill-opacity:1;fill-rule:nonzero;stroke:none;stroke-width:0.1"
       d="m 334.183,425.036 v -4.922 l -35.646,-0.04 v 4.936 l 0.734,0.645 h 34.245 z m -35.506,5.968 v -4.659 l 0.239,0.21 h 34.969 l 0.387,-0.359 v 4.808 z m 28.301,-18.867 h 3.962 v -3.235 l -7.202,-0.366 -4.148,-4.611 h -6.442 l -3.511,3.892 -4.719,-0.24 v -9.82 h 18.823 v -2.911 h -18.823 v -0.452 h -2.984 v 19.592 h 2.137 l -4.682,5.189 33.956,0.038 z m -21.239,0 -0.821,0.91 v -0.91 z m 16.055,-12.222 v 2.288 h -3.206 v -2.288 z m 4.161,0 v 2.288 h -3.559 v -2.288 z m -7.969,0 v 2.288 h -3.257 v -2.288 z m -7.693,0 v 2.288 h -3.481 v -2.288 z m 3.834,0 v 2.288 h -3.233 v -2.288 h 3.233" /><path
       inkscape:connector-curvature="0"
       id="path68"
       style="fill:#c2c3c3;fill-opacity:1;fill-rule:nonzero;stroke:none;stroke-width:0.1"
       d="m 250.388,406.173 c 0,-6.505 5.403,-11.779 12.069,-11.779 6.666,0 12.07,5.274 12.07,11.779 0,6.504 -5.404,11.777 -12.07,11.777 -6.666,0 -12.069,-5.273 -12.069,-11.777 z m 4.223,0 c 0,4.228 3.514,7.654 7.846,7.654 4.333,0 7.845,-3.426 7.845,-7.654 0,-4.229 -3.512,-7.656 -7.845,-7.656 -4.332,0 -7.846,3.427 -7.846,7.656 z m -43.825,29.406 c -0.026,-0.187 0.107,-0.359 0.298,-0.385 l 0.549,-0.078 -0.04,-0.2 34.095,-6.471 c -1.117,-0.027 -1.957,-0.068 -2.385,-0.127 -3.19,-0.445 -7.072,-3.342 -10.905,-4.847 -3.831,-1.504 -4.065,-1.687 -4.065,-1.687 0,0 -2.63,-0.827 -2.578,-3.28 0.051,-2.452 -0.209,-4.474 2.484,-4.474 h 6.357 2.569 l -0.91,-2.109 v 0 c -0.824,0.241 -1.737,0.445 -2.478,0.445 -1.822,0 -7.08,-0.889 -7.08,-0.889 h -7.152 c -1.681,0 -2.943,-1.095 -2.943,-1.095 v -0.821 l -2.033,-0.342 c 0,0 -1.262,0 -1.262,-0.41 0,-0.411 1.192,0 1.192,0 l 2.032,-0.411 h 5.89 l 3.435,-1.574 h 12.619 v 1.574 h 11.029 c 1.085,6.025 6.474,10.621 12.953,10.621 7.259,0 13.165,-5.763 13.165,-12.846 0,-0.601 -0.057,-1.187 -0.14,-1.766 h 0.85 v 5.038 c 0.143,-0.061 0.301,-0.097 0.47,-0.097 0.601,0 2.361,1.67 2.361,2.2 l 0.203,8.134 c 0,0.31 -0.673,1.077 -1.351,1.661 l 0.981,1.273 h 1.074 v 0.398 h 1.754 c 0.271,0 0.49,0.286 0.49,0.636 0,0.349 -0.219,0.635 -0.49,0.635 h -1.754 v 0.463 h 2.969 v -0.463 c 0,-0.189 0.157,-0.342 0.351,-0.342 0.193,0 0.35,0.153 0.35,0.342 v 0.622 l 5.663,-0.772 c 0.183,-0.062 0.428,-0.124 0.645,-0.124 0.138,0 0.264,0.025 0.356,0.089 0.101,0.071 0.159,0.183 0.159,0.306 0,0.13 -0.005,0.245 -0.906,0.452 0.053,0.492 0.145,1.376 0.145,1.481 0.028,0.097 0.075,0.29 -0.052,0.49 -0.125,0.196 -0.372,0.33 -0.777,0.421 -0.217,0.048 -1.849,0.271 -4.181,0.58 v 4.306 l -1.31,1.323 h -2.15 v -1.969 h -1.262 v 4.042 l -3.738,-0.678 v 2.983 h -1.216 v -7.16 h -3.037 v -1.195 c -1.1,0.142 -2.145,0.276 -3.098,0.398 l -1.147,1.048 c -0.051,0.045 -0.114,0.076 -0.182,0.087 l -17.113,2.781 -0.011,-0.068 -0.757,0.092 c -0.036,0.124 -0.144,0.222 -0.283,0.243 l -5.212,0.772 -0.058,0.086 -0.096,-0.063 -21.213,3.145 -0.038,0.035 c -0.087,0.08 -0.219,0.096 -0.325,0.041 l -0.032,-0.018 -10.743,1.593 -0.105,-0.676 1.048,-0.155 -0.369,-2.935 -0.538,0.102 -0.038,-0.194 -0.59,0.075 c -0.187,0.024 -0.366,-0.105 -0.393,-0.292 z m 72.954,-8.596 h 1.052 v 0.296 c 2.3,-0.305 3.857,-0.519 4.056,-0.563 0.374,-0.083 0.426,-0.176 0.426,-0.177 0.002,-0.01 -0.007,-0.046 -0.013,-0.069 -0.009,-0.037 -0.019,-0.081 -0.019,-0.131 -0.002,-0.085 -0.075,-0.795 -0.136,-1.366 -0.979,0.192 -2.622,0.453 -5.366,0.836 z m -3.67,0.915 c 0.43,-0.057 0.851,-0.111 1.262,-0.165 v -0.75 h 1.707 v 0 -1.077 c -0.883,0.122 -1.866,0.255 -2.969,0.401 z m 0,2.779 h 1.262 v -2.392 c -0.413,0.054 -0.834,0.109 -1.262,0.164 z m -39.598,4.03 -3.764,-1.982 -3.091,2.998 z m 0.664,-0.272 3.118,-2.794 -6.778,0.867 z m 4.633,-2.757 -0.328,-0.189 -0.22,0.028 -3.325,2.979 2.157,-0.319 z m 3.093,1.786 -2.61,-1.507 -1.447,2.108 z m -1.704,-1.619 1.68,-0.266 -0.058,-0.517 -2.097,0.268 -0.118,0.172 z m 1.831,1.056 -0.089,-0.778 -0.988,0.156 z m 0.543,-1.432 2.357,-0.374 -1.135,-0.711 -1.174,0.914 -0.078,-0.096 z m 3.186,-0.505 3.763,-0.596 c 0.146,-0.188 0.276,-0.354 0.41,-0.524 l -0.075,-0.623 c -2.937,0.354 -4.98,0.597 -5.398,0.647 l -0.201,0.155 z m 1.382,1.516 -1.505,-0.942 -3.002,0.475 0.144,1.26 0.699,-0.084 -0.012,-0.068 3.2,-0.519 z m 0.922,-0.234 c 0.349,-0.451 0.667,-0.861 0.967,-1.246 l -2.566,0.406 1.415,0.887 z m 2.093,-0.533 -0.105,-0.875 -0.214,0.034 c -0.306,0.391 -0.609,0.78 -0.897,1.151 z m 11.867,-2.772 -3.582,0.568 c 0.122,0.077 0.241,0.152 0.369,0.232 0.861,-0.11 1.773,-0.227 2.719,-0.348 z m 1.974,-12.505 0.003,-10e-4 0.002,-0.003 c -0.001,0.002 -0.003,0.003 -0.005,0.004 z m -7.117,11.929 0.028,0.18 c 0.258,0.162 0.535,0.336 0.83,0.521 l 5.019,-0.795 0.052,-0.048 c -1.423,0.03 -3.405,0.069 -5.653,0.108 -0.093,0.012 -0.184,0.023 -0.276,0.034 z m -0.278,1.435 -5.997,0.95 0.099,0.824 5.939,-1.51 z m -5.332,-0.75 c -0.243,0.306 -0.496,0.627 -0.754,0.956 l 0.023,0.2 5.98,-0.947 -0.053,-0.338 c -0.228,-0.142 -0.455,-0.283 -0.678,-0.422 -1.613,0.198 -3.138,0.383 -4.518,0.551 z m -4.086,-12.395 0.021,0.021 0.012,0.005 c -0.012,-0.008 -0.022,-0.017 -0.033,-0.026 z m -2.556,-2.558 0.004,0.008 0.011,0.011 c -0.005,-0.006 -0.01,-0.013 -0.015,-0.019 z m -2.223,14.765 1.356,0.849 0.41,-0.32 c 0.039,-0.03 0.086,-0.05 0.136,-0.057 l 6.672,-0.909 c -2.25,0.028 -4.512,0.05 -6.572,0.056 z m -1.826,1.224 1.449,-0.204 c 0.017,-0.002 0.034,-0.003 0.05,-0.003 0.077,0 0.153,0.025 0.215,0.071 0.075,0.057 0.123,0.141 0.134,0.233 l 0.059,0.52 0.811,-0.632 -1.689,-1.058 -0.337,0.064 z m -17.66,2.474 16.913,-2.37 0.663,-0.966 z m -1.804,1.15 4.583,2.156 0.022,-0.003 3.254,-3.158 z m -0.738,0.261 -3.519,3.206 7.858,-1.166 z m -9.431,1.04 4.506,2.374 0.424,-0.063 3.757,-3.422 z m -0.892,0.152 -3.181,3.494 7.657,-1.136 z m -4.117,0.62 0.341,2.703 2.965,-3.257 -1.18,0.151 z m 52.902,-29.612 c 0,-1.802 -1.498,-3.259 -3.342,-3.259 -1.846,0 -3.34,1.457 -3.34,3.259 0,1.8 1.494,3.261 3.34,3.261 1.844,0 3.342,-1.461 3.342,-3.261" /><path
       inkscape:connector-curvature="0"
       id="path70"
       style="fill:#777777;fill-opacity:1;fill-rule:nonzero;stroke:none;stroke-width:0.1"
       d="m 776.878,264.423 c -0.793,-0.791 -0.793,-2.075 0,-2.869 0.792,-0.793 2.076,-0.793 2.87,0 1.085,1.086 2.846,1.086 3.931,0 l 14.11,-14.111 c 0.397,-0.396 0.92,-0.594 1.435,-0.594 0.515,0 1.038,0.198 1.434,0.594 0.793,0.794 0.793,2.078 0,2.871 l -14.109,14.109 c -2.664,2.672 -7.001,2.672 -9.671,0" /><path
       inkscape:connector-curvature="0"
       id="path72"
       style="fill:#777777;fill-opacity:1;fill-rule:nonzero;stroke:none;stroke-width:0.1"
       d="m 806.027,253.658 c 0.523,0 1.039,0.199 1.435,0.595 0.792,0.793 0.792,2.076 0,2.869 l -10.701,10.702 c -2.665,2.664 -7.008,2.664 -9.673,0 -0.791,-0.794 -0.791,-2.077 0,-2.869 0.794,-0.793 2.078,-0.793 2.871,0 1.086,1.086 2.845,1.086 3.931,0 l 10.702,-10.702 c 0.396,-0.396 0.919,-0.595 1.435,-0.595" /><path
       inkscape:connector-curvature="0"
       id="path74"
       style="fill:#777777;fill-opacity:1;fill-rule:nonzero;stroke:none;stroke-width:0.1"
       d="m 816.45,210.692 -0.001,0.001 c -0.396,0.302 -0.864,0.452 -1.379,0.42 -17.099,-1.124 -24.464,8.023 -30.336,15.379 -1.063,1.332 -2.077,2.593 -3.075,3.702 -1.959,2.164 -2.855,4.169 -2.672,5.96 0.086,0.849 0.42,1.554 0.785,2.101 l 10.083,-10.083 c 0.397,-0.396 0.919,-0.594 1.434,-0.594 0.516,0 1.038,0.198 1.436,0.594 0.792,0.793 0.792,2.078 0,2.871 l -34.745,34.743 c -1.086,1.086 -1.086,2.853 0,3.931 1.086,1.087 2.846,1.087 3.932,0 l 29.076,-29.075 c 0.793,-0.794 2.077,-0.794 2.87,0 0.792,0.792 0.792,2.076 0,2.869 l -29.076,29.077 c -2.671,2.671 -7.007,2.663 -9.671,0 -2.663,-2.664 -2.663,-7.008 0,-9.672 l 21.761,-21.76 c -0.825,-1.039 -1.688,-2.552 -1.911,-4.502 -0.342,-3.005 0.903,-6.096 3.694,-9.179 0.919,-1.016 1.887,-2.228 2.916,-3.513 2.941,-3.673 6.663,-8.286 12.13,-11.78 v -6.135 c 0,-2.792 -2.188,-4.962 -4.996,-4.962 h -67.552 c 0.939,2.036 1.682,4.237 2.216,6.575 l 0.699,4.056 c 0.071,0.627 0.143,1.245 0.191,1.887 0.499,7.055 5.516,16.917 8.521,22.806 0.546,1.07 1.031,2.029 1.427,2.829 1.046,2.141 0.444,4.36 -1.514,5.661 -3.361,2.235 -9.79,1.387 -14.015,-3.44 -1.895,-2.166 -3.115,-4.725 -4.297,-7.207 -1.292,-2.711 -2.457,-5.169 -4.328,-6.833 l 0.008,27.861 c 0.004,0 0.009,0.002 0.013,0.003 v 57.83 c 0,2.851 2.188,5.069 4.996,5.069 h 73.64 c 2.808,0 4.991,-2.218 4.991,-5.069 v -41.77 c 1.308,1.926 4.04,3.444 6.238,2.971 l -0.002,48.074 c 0,6.207 -4.99,11.17 -11.232,11.17 H 715.07 c -6.242,0 -11.232,-4.963 -11.232,-11.17 v -64.291 c -5.017,-3.336 -12.912,-9.09 -13.99,-12.921 -0.618,-2.188 -2.196,-9.749 -3.869,-17.756 -1.656,-7.926 -3.717,-17.804 -4.145,-18.93 -4.527,-10.05 -11.716,-17.613 -11.788,-17.693 -0.776,-0.808 -0.746,-2.092 0.063,-2.87 0.809,-0.775 2.093,-0.744 2.87,0.064 0.024,0.024 0.11,0.111 0.214,0.23 1.26,1.356 7.903,8.736 12.35,18.605 0.492,1.093 1.729,6.865 4.423,19.77 1.587,7.586 3.219,15.426 3.806,17.479 0.539,1.926 6.301,6.587 12.254,10.583 l -0.024,-30.766 c 0,-0.665 0.319,-1.284 0.866,-1.663 0.537,-0.381 1.236,-0.477 1.854,-0.246 0.483,0.173 0.912,0.387 1.34,0.609 4.241,2.133 6.23,6.24 7.99,9.917 1.11,2.331 2.156,4.535 3.686,6.28 2.291,2.615 5.415,3.455 7.499,3.138 0.951,-0.144 1.379,-0.5 1.426,-0.602 0,0 0.009,-0.095 -0.095,-0.317 -0.38,-0.786 -0.855,-1.721 -1.394,-2.767 -3.14,-6.168 -8.403,-16.489 -8.958,-24.359 -0.055,-0.731 -0.135,-1.452 -0.223,-2.165 -0.182,-1.403 -0.452,-2.759 -0.791,-4.059 -1.254,-4.803 -3.537,-8.862 -6.644,-11.858 -1.039,-1.008 -2.179,-1.88 -3.4,-2.632 -1.197,-0.745 -2.473,-1.379 -3.829,-1.855 -10.17,-3.591 -13.318,-10.671 -15.015,-14.467 l -0.205,-0.467 -0.151,-0.334 c -0.467,-1.015 -0.022,-2.22 0.999,-2.694 0.262,-0.128 0.556,-0.191 0.832,-0.191 0.769,0 1.507,0.436 1.848,1.181 l 0.388,0.848 c 1.649,3.695 4.13,9.275 12.652,12.295 0.216,0.076 0.421,0.173 0.634,0.255 2.011,-1.912 4.73,-3.094 7.759,-3.094 h 73.64 c 6.243,0 11.233,4.962 11.233,11.168 l -10e-4,13.269 c 0.522,-0.191 1.051,-0.377 1.598,-0.546 l 4.058,-0.983 c 2.703,-0.474 5.66,-0.697 8.949,-0.539 2.094,-1.743 3.949,-3.859 4.908,-5.025 0.397,-0.491 0.983,-0.745 1.568,-0.745 0.452,0 0.913,0.15 1.285,0.46 0.864,0.713 0.992,1.989 0.278,2.853 -1.157,1.411 -3.487,4.083 -6.136,6.135" /><path
       inkscape:connector-curvature="0"
       id="path76"
       style="fill:#777777;fill-opacity:1;fill-rule:nonzero;stroke:none;stroke-width:0.1"
       d="m 839.786,222.944 v -10e-4 c -1.236,0.618 -3.416,1.997 -4.677,4.43 0.54,17.322 -11.414,28.03 -18.58,34.452 -0.65,0.588 -1.269,1.142 -1.776,1.602 l -7.792,7.791 c -2.672,2.665 -7.007,2.665 -9.672,0 -0.791,-0.793 -0.791,-2.075 0,-2.869 0.793,-0.793 2.078,-0.793 2.87,0 1.087,1.086 2.846,1.086 3.932,0 l 7.856,-7.855 c 0.587,-0.54 1.213,-1.103 1.879,-1.696 7.135,-6.398 17.922,-16.069 17.217,-31.771 -0.016,-0.318 0.048,-0.634 0.174,-0.929 1.728,-3.82 4.971,-5.889 6.746,-6.785 0.293,-0.135 0.602,-0.207 0.912,-0.207 0.745,0 1.459,0.414 1.815,1.119 0.507,0.999 0.103,2.219 -0.904,2.719" /><path
       inkscape:connector-curvature="0"
       id="path78"
       style="fill:#777777;fill-opacity:1;fill-rule:nonzero;stroke:none;stroke-width:0.1"
       d="m 238.082,224.123 h -9.02 c -0.329,-0.68 -0.658,-1.357 -0.987,-2.034 h 8.99 v -2.636 h -9.542 l -0.452,0.56 c -0.328,-0.675 -0.651,-1.353 -0.978,-2.029 l 7.537,-9.427 h -11.019 l -4.611,5.771 3.578,3.029 -0.776,1.611 c -0.048,0.098 -0.095,0.196 -0.142,0.295 l -3.941,-3.337 -4.925,6.163 h 7.506 c -0.327,0.678 -0.652,1.356 -0.978,2.034 h -9.047 c -0.564,-0.011 -1.005,-0.457 -1.005,-1.016 v -15.566 c 0,-0.551 0.466,-1.017 1.017,-1.017 h 28.795 c 0.551,0 1.016,0.466 1.016,1.017 v 15.566 c 0,0.55 -0.465,1.016 -1.016,1.016 z m -27.779,-15.566 v 12.14 l 9.707,-12.14 z m 18.843,8.864 h 7.919 v -3.416 h -5.188 z m 7.92,-8.864 h -0.835 l -2.731,3.414 h 3.566 v -3.414" /><path
       inkscape:connector-curvature="0"
       id="path80"
       style="fill:#777777;fill-opacity:1;fill-rule:nonzero;stroke:none;stroke-width:0.1"
       d="m 223.331,215.164 c 0.125,-0.265 0.581,-0.265 0.706,0 2.123,4.484 4.353,8.925 6.456,13.414 0.329,0.864 0.584,2.207 0.584,3.186 -0.022,4.683 -3.811,7.296 -7.405,7.296 -4.07,0 -7.381,-3.154 -7.381,-7.296 0,-0.979 0.257,-2.325 0.583,-3.186 2.144,-4.471 4.304,-8.944 6.457,-13.414 z m 0.353,20.394 c 2.145,0 3.891,-1.746 3.891,-3.892 0,-2.144 -1.746,-3.89 -3.891,-3.89 -2.144,0 -3.891,1.746 -3.891,3.89 0,2.146 1.747,3.892 3.891,3.892" /><path
       inkscape:connector-curvature="0"
       id="path82"
       style="fill:none;stroke:#777777;stroke-width:3.47004008;stroke-linecap:butt;stroke-linejoin:miter;stroke-miterlimit:4;stroke-dasharray:none;stroke-opacity:1"
       d="m 207.879,248.434 c -5.433,0 -9.837,-4.404 -9.837,-9.836 v -31.611 c 0,-5.432 4.404,-9.836 9.837,-9.836 h 31.61 c 5.432,0 9.836,4.404 9.836,9.836 v 31.611 c 0,5.432 -4.404,9.836 -9.836,9.836 z" /><path
       inkscape:connector-curvature="0"
       id="path84"
       style="fill:#777777;fill-opacity:1;fill-rule:nonzero;stroke:none;stroke-width:0.1"
       d="m 741.656,296.622 h -5.011 c -0.182,-0.377 -0.365,-0.754 -0.548,-1.129 h 4.994 v -1.465 h -5.301 l -0.251,0.311 c -0.182,-0.375 -0.362,-0.751 -0.543,-1.127 l 4.187,-5.238 h -6.121 l -2.562,3.206 1.988,1.683 -0.432,0.896 c -0.026,0.054 -0.052,0.109 -0.079,0.163 l -2.189,-1.854 -2.736,3.425 h 4.17 c -0.181,0.376 -0.362,0.753 -0.543,1.129 h -5.027 c -0.313,-0.006 -0.558,-0.254 -0.558,-0.565 v -8.647 c 0,-0.306 0.259,-0.565 0.565,-0.565 h 15.997 c 0.307,0 0.565,0.259 0.565,0.565 v 8.647 c 0,0.307 -0.258,0.565 -0.565,0.565 z m -15.433,-8.648 v 6.745 l 5.393,-6.745 z m 10.469,4.925 h 4.399 v -1.898 h -2.882 z m 4.4,-4.925 h -0.464 l -1.517,1.897 h 1.981 v -1.897" /><path
       inkscape:connector-curvature="0"
       id="path86"
       style="fill:#777777;fill-opacity:1;fill-rule:nonzero;stroke:none;stroke-width:0.1"
       d="m 733.461,291.645 c 0.07,-0.147 0.323,-0.147 0.393,0 1.179,2.491 2.418,4.959 3.587,7.452 0.182,0.48 0.324,1.226 0.324,1.77 -0.012,2.602 -2.118,4.054 -4.114,4.054 -2.261,0 -4.101,-1.753 -4.101,-4.054 0,-0.544 0.143,-1.291 0.324,-1.77 1.191,-2.483 2.391,-4.968 3.587,-7.452 z m 0.196,11.33 c 1.192,0 2.162,-0.97 2.162,-2.162 0,-1.191 -0.97,-2.161 -2.162,-2.161 -1.191,0 -2.161,0.97 -2.161,2.161 0,1.192 0.97,2.162 2.161,2.162" /><path
       inkscape:connector-curvature="0"
       id="path88"
       style="fill:none;stroke:#777777;stroke-width:1.92779994;stroke-linecap:butt;stroke-linejoin:miter;stroke-miterlimit:4;stroke-dasharray:none;stroke-opacity:1"
       d="m 724.877,310.128 c -3.018,0 -5.465,-2.446 -5.465,-5.464 v -17.562 c 0,-3.018 2.447,-5.464 5.465,-5.464 h 17.561 c 3.018,0 5.465,2.446 5.465,5.464 v 17.562 c 0,3.018 -2.447,5.464 -5.465,5.464 z" /><path
       inkscape:connector-curvature="0"
       id="path90"
       style="fill:#777777;fill-opacity:1;fill-rule:nonzero;stroke:none;stroke-width:0.1"
       d="m 145.287,210.27 c -0.598,0 -1.085,0.486 -1.085,1.084 v 21.755 h -2.464 c -0.28,0 -0.507,-0.226 -0.507,-0.507 v -24.798 c 0,-0.28 0.227,-0.507 0.507,-0.507 h 20.029 c 0.28,0 0.507,0.227 0.507,0.507 v 2.466 h -16.987" /><path
       inkscape:connector-curvature="0"
       id="path92"
       style="fill:#777777;fill-opacity:1;fill-rule:nonzero;stroke:none;stroke-width:0.1"
       d="m 145.286,236.659 h 20.03 c 0.279,0 0.506,-0.226 0.506,-0.507 v -24.798 c 0,-0.28 -0.227,-0.507 -0.506,-0.507 h -20.03 c -0.279,0 -0.506,0.227 -0.506,0.507 v 24.798 c 0,0.281 0.227,0.507 0.506,0.507" /><path
       inkscape:connector-curvature="0"
       id="path94"
       style="fill:#777777;fill-opacity:1;fill-rule:nonzero;stroke:none;stroke-width:0.1"
       d="m 173.639,223.185 v 2.614 c 0.008,0.035 0.022,0.069 0.022,0.106 0,0.038 -0.014,0.072 -0.022,0.107 v 2.727 c 0,0.279 -0.226,0.506 -0.506,0.506 h -0.153 v 0.781 c 0,0.417 -0.168,0.794 -0.444,1.07 -0.273,0.274 -0.654,0.444 -1.071,0.444 h -1.859 -0.004 c -0.417,0 -0.796,-0.169 -1.07,-0.444 -0.274,-0.273 -0.445,-0.654 -0.445,-1.07 v -0.781 h -0.148 l -0.003,0.002 c -0.281,0 -0.507,-0.227 -0.507,-0.506 v -16.295 c 0,-0.006 0.005,-0.011 0.005,-0.017 0.002,-0.085 0.029,-0.162 0.068,-0.233 0.005,-0.009 0.003,-0.02 0.009,-0.029 h 0.001 l 2.669,-4.137 0.182,-0.187 c 0.24,-0.145 0.553,-0.068 0.696,0.173 l 2.495,4.143 c 0.005,0.007 0.003,0.019 0.008,0.027 0.045,0.075 0.077,0.158 0.077,0.252 0,0.001 0,0.001 0,0.002 0,0 0,0.001 0,0.001 v 10.531 c 0.008,0.035 0.022,0.069 0.022,0.107 0,0.037 -0.014,0.071 -0.022,0.106 z m -4.537,6.839 c 0,0.138 0.057,0.264 0.149,0.354 0.092,0.092 0.217,0.148 0.355,0.148 h 1.859 c 0.139,0 0.264,-0.056 0.355,-0.148 0.092,-0.09 0.149,-0.216 0.149,-0.354 v -0.779 h -2.867 z m 1.507,-20.795 -1.742,2.703 h 3.369 z" /><path
       inkscape:connector-curvature="0"
       id="path96"
       style="fill:#ffffff;fill-opacity:1;fill-rule:nonzero;stroke:none;stroke-width:0.1"
       d="m 148.331,232.532 c -0.28,0 -0.507,-0.227 -0.507,-0.507 0,-0.28 0.227,-0.507 0.507,-0.507 h 13.943 c 0.281,0 0.506,0.227 0.506,0.507 0,0.28 -0.225,0.507 -0.506,0.507 h -13.943" /><path
       inkscape:connector-curvature="0"
       id="path98"
       style="fill:#ffffff;fill-opacity:1;fill-rule:nonzero;stroke:none;stroke-width:0.1"
       d="m 148.331,229.223 c -0.28,0 -0.507,-0.226 -0.507,-0.506 0,-0.281 0.227,-0.507 0.507,-0.507 h 13.943 c 0.281,0 0.506,0.226 0.506,0.507 0,0.28 -0.225,0.506 -0.506,0.506 h -13.943" /><path
       inkscape:connector-curvature="0"
       id="path100"
       style="fill:#ffffff;fill-opacity:1;fill-rule:nonzero;stroke:none;stroke-width:0.1"
       d="m 148.331,225.914 c -0.28,0 -0.507,-0.226 -0.507,-0.506 0,-0.28 0.227,-0.507 0.507,-0.507 h 13.943 c 0.281,0 0.506,0.227 0.506,0.507 0,0.28 -0.225,0.506 -0.506,0.506 h -13.943" /><path
       inkscape:connector-curvature="0"
       id="path102"
       style="fill:#ffffff;fill-opacity:1;fill-rule:nonzero;stroke:none;stroke-width:0.1"
       d="m 148.331,219.296 c -0.28,0 -0.507,-0.226 -0.507,-0.507 0,-0.279 0.227,-0.505 0.507,-0.505 h 13.943 c 0.281,0 0.506,0.226 0.506,0.505 0,0.281 -0.225,0.507 -0.506,0.507 h -13.943" /><path
       inkscape:connector-curvature="0"
       id="path104"
       style="fill:#ffffff;fill-opacity:1;fill-rule:nonzero;stroke:none;stroke-width:0.1"
       d="m 148.331,215.988 c -0.28,0 -0.507,-0.227 -0.507,-0.507 0,-0.279 0.227,-0.506 0.507,-0.506 h 13.943 c 0.281,0 0.506,0.227 0.506,0.506 0,0.28 -0.225,0.507 -0.506,0.507 h -13.943" /><path
       inkscape:connector-curvature="0"
       id="path106"
       style="fill:#ffffff;fill-opacity:1;fill-rule:nonzero;stroke:none;stroke-width:0.1"
       d="m 149.239,222.605 c -0.279,0 -0.507,-0.227 -0.507,-0.507 0,-0.279 0.228,-0.506 0.507,-0.506 h 4.641 c 0.281,0 0.508,0.227 0.508,0.506 0,0.28 -0.227,0.507 -0.508,0.507 h -4.641" /><path
       inkscape:connector-curvature="0"
       id="path108"
       style="fill:#ffffff;fill-opacity:1;fill-rule:nonzero;stroke:none;stroke-width:0.1"
       d="m 156.722,222.605 c -0.28,0 -0.507,-0.227 -0.507,-0.507 0,-0.279 0.227,-0.506 0.507,-0.506 h 4.641 c 0.28,0 0.507,0.227 0.507,0.506 0,0.28 -0.227,0.507 -0.507,0.507 h -4.641" /><path
       inkscape:connector-curvature="0"
       id="path110"
       style="fill:none;stroke:#777777;stroke-width:3.47004008;stroke-linecap:butt;stroke-linejoin:miter;stroke-miterlimit:4;stroke-dasharray:none;stroke-opacity:1"
       d="m 141.641,247.62 c -5.432,0 -9.836,-4.404 -9.836,-9.837 v -31.61 c 0,-5.433 4.404,-9.837 9.836,-9.837 h 31.61 c 5.433,0 9.837,4.404 9.837,9.837 v 31.61 c 0,5.433 -4.404,9.837 -9.837,9.837 z" /><path
       inkscape:connector-curvature="0"
       id="path112"
       style="fill:#777777;fill-opacity:1;fill-rule:nonzero;stroke:none;stroke-width:0.1"
       d="m 726.902,253.029 c -0.332,0 -0.602,0.271 -0.602,0.603 v 12.086 h -1.37 c -0.155,0 -0.281,-0.125 -0.281,-0.282 v -13.777 c 0,-0.155 0.126,-0.281 0.281,-0.281 h 11.128 c 0.155,0 0.281,0.126 0.281,0.281 v 1.37 h -9.437" /><path
       inkscape:connector-curvature="0"
       id="path114"
       style="fill:#777777;fill-opacity:1;fill-rule:nonzero;stroke:none;stroke-width:0.1"
       d="m 726.902,267.69 h 11.127 c 0.156,0 0.282,-0.125 0.282,-0.281 v -13.777 c 0,-0.156 -0.126,-0.282 -0.282,-0.282 h -11.127 c -0.156,0 -0.281,0.126 -0.281,0.282 v 13.777 c 0,0.156 0.125,0.281 0.281,0.281" /><path
       inkscape:connector-curvature="0"
       id="path116"
       style="fill:#777777;fill-opacity:1;fill-rule:nonzero;stroke:none;stroke-width:0.1"
       d="m 742.654,260.205 v 1.452 c 0.004,0.02 0.012,0.038 0.012,0.059 0,0.021 -0.008,0.039 -0.012,0.059 v 1.515 c 0,0.155 -0.126,0.281 -0.282,0.281 h -0.084 v 0.434 c 0,0.232 -0.094,0.441 -0.247,0.595 -0.152,0.152 -0.363,0.246 -0.595,0.246 h -1.033 -0.002 c -0.232,0 -0.442,-0.094 -0.595,-0.246 -0.152,-0.152 -0.247,-0.364 -0.247,-0.595 v -0.434 h -0.082 l -0.002,0.002 c -0.156,0 -0.281,-0.127 -0.281,-0.282 v -9.052 c 0,-0.003 0.002,-0.007 0.002,-0.01 10e-4,-0.047 0.016,-0.09 0.038,-0.129 0.003,-0.005 0.002,-0.011 0.005,-0.016 v 0 l 1.483,-2.298 0.102,-0.104 c 0.133,-0.081 0.306,-0.038 0.386,0.095 l 1.386,2.302 c 0.003,0.004 0.002,0.01 0.005,0.015 0.025,0.042 0.043,0.088 0.043,0.14 0,0.001 0,0.001 0,0.001 0,10e-4 0,10e-4 0,10e-4 v 5.85 c 0.004,0.02 0.012,0.039 0.012,0.059 0,0.021 -0.008,0.04 -0.012,0.06 z m -2.521,3.799 c 0,0.077 0.032,0.146 0.083,0.197 0.05,0.051 0.12,0.082 0.197,0.082 h 1.033 c 0.077,0 0.146,-0.031 0.197,-0.082 0.051,-0.051 0.083,-0.12 0.083,-0.197 v -0.433 h -1.593 z m 0.837,-11.552 -0.968,1.501 h 1.872 z" /><path
       inkscape:connector-curvature="0"
       id="path118"
       style="fill:#ffffff;fill-opacity:1;fill-rule:nonzero;stroke:none;stroke-width:0.1"
       d="m 728.593,265.397 c -0.155,0 -0.281,-0.126 -0.281,-0.281 0,-0.156 0.126,-0.282 0.281,-0.282 h 7.746 c 0.156,0 0.282,0.126 0.282,0.282 0,0.155 -0.126,0.281 -0.282,0.281 h -7.746" /><path
       inkscape:connector-curvature="0"
       id="path120"
       style="fill:#ffffff;fill-opacity:1;fill-rule:nonzero;stroke:none;stroke-width:0.1"
       d="m 728.593,263.559 c -0.155,0 -0.281,-0.125 -0.281,-0.281 0,-0.156 0.126,-0.282 0.281,-0.282 h 7.746 c 0.156,0 0.282,0.126 0.282,0.282 0,0.156 -0.126,0.281 -0.282,0.281 h -7.746" /><path
       inkscape:connector-curvature="0"
       id="path122"
       style="fill:#ffffff;fill-opacity:1;fill-rule:nonzero;stroke:none;stroke-width:0.1"
       d="m 728.593,261.721 c -0.155,0 -0.281,-0.126 -0.281,-0.282 0,-0.155 0.126,-0.281 0.281,-0.281 h 7.746 c 0.156,0 0.282,0.126 0.282,0.281 0,0.156 -0.126,0.282 -0.282,0.282 h -7.746" /><path
       inkscape:connector-curvature="0"
       id="path124"
       style="fill:#ffffff;fill-opacity:1;fill-rule:nonzero;stroke:none;stroke-width:0.1"
       d="m 728.593,258.044 c -0.155,0 -0.281,-0.125 -0.281,-0.281 0,-0.156 0.126,-0.281 0.281,-0.281 h 7.746 c 0.156,0 0.282,0.125 0.282,0.281 0,0.156 -0.126,0.281 -0.282,0.281 h -7.746" /><path
       inkscape:connector-curvature="0"
       id="path126"
       style="fill:#ffffff;fill-opacity:1;fill-rule:nonzero;stroke:none;stroke-width:0.1"
       d="m 728.593,256.206 c -0.155,0 -0.281,-0.126 -0.281,-0.281 0,-0.155 0.126,-0.282 0.281,-0.282 h 7.746 c 0.156,0 0.282,0.127 0.282,0.282 0,0.155 -0.126,0.281 -0.282,0.281 h -7.746" /><path
       inkscape:connector-curvature="0"
       id="path128"
       style="fill:#ffffff;fill-opacity:1;fill-rule:nonzero;stroke:none;stroke-width:0.1"
       d="m 729.098,259.882 c -0.155,0 -0.282,-0.125 -0.282,-0.281 0,-0.155 0.127,-0.281 0.282,-0.281 h 2.579 c 0.155,0 0.281,0.126 0.281,0.281 0,0.156 -0.126,0.281 -0.281,0.281 h -2.579" /><path
       inkscape:connector-curvature="0"
       id="path130"
       style="fill:#ffffff;fill-opacity:1;fill-rule:nonzero;stroke:none;stroke-width:0.1"
       d="m 733.255,259.882 c -0.155,0 -0.282,-0.125 -0.282,-0.281 0,-0.155 0.127,-0.281 0.282,-0.281 h 2.579 c 0.155,0 0.281,0.126 0.281,0.281 0,0.156 -0.126,0.281 -0.281,0.281 h -2.579" /><path
       inkscape:connector-curvature="0"
       id="path132"
       style="fill:none;stroke:#777777;stroke-width:1.92779994;stroke-linecap:butt;stroke-linejoin:miter;stroke-miterlimit:4;stroke-dasharray:none;stroke-opacity:1"
       d="m 724.877,273.78 c -3.018,0 -5.465,-2.447 -5.465,-5.465 v -17.561 c 0,-3.018 2.447,-5.465 5.465,-5.465 h 17.561 c 3.018,0 5.465,2.447 5.465,5.465 v 17.561 c 0,3.018 -2.447,5.465 -5.465,5.465 z" /><path
       inkscape:connector-curvature="0"
       id="path134"
       style="fill:#777777;fill-opacity:1;fill-rule:nonzero;stroke:none;stroke-width:0.1"
       d="m 695.359,411.591 c 0,-1.754 -1.419,-3.173 -3.176,-3.173 -1.751,0 -3.174,1.419 -3.174,3.173 0,1.755 1.423,3.175 3.174,3.175 1.757,0 3.176,-1.42 3.176,-3.175" /><path
       inkscape:connector-curvature="0"
       id="path136"
       style="fill:#777777;fill-opacity:1;fill-rule:nonzero;stroke:none;stroke-width:0.1"
       d="m 757.093,417.081 c -0.962,0.265 -1.972,-0.052 -2.547,-0.867 -0.464,-0.586 -0.569,-1.5 -0.268,-2.16 0.339,-0.786 1.165,-1.416 2.033,-1.387 0.89,-0.026 1.74,0.483 2.133,1.274 0.269,0.597 0.308,1.476 -0.053,2.045 -0.243,0.557 -0.806,0.838 -1.298,1.095" /><path
       inkscape:connector-curvature="0"
       id="path138"
       style="fill:#777777;fill-opacity:1;fill-rule:nonzero;stroke:none;stroke-width:0.1"
       d="m 792.061,410.44 h -15.943 c 0.312,1.415 0.491,2.879 0.491,4.388 0,11.176 -9.059,20.234 -20.234,20.234 -11.174,0 -20.232,-9.058 -20.232,-20.234 0,-11.174 9.058,-20.234 20.232,-20.234 7.038,0 13.231,3.598 16.857,9.05 h 18.829 z m -35.686,-6.37 c -5.943,0 -10.755,4.815 -10.755,10.757 0,5.942 4.812,10.758 10.755,10.758 5.941,0 10.757,-4.816 10.757,-10.758 0,-5.942 -4.816,-10.757 -10.757,-10.757" /><path
       inkscape:connector-curvature="0"
       id="path140"
       style="fill:#777777;fill-opacity:1;fill-rule:nonzero;stroke:none;stroke-width:0.1"
       d="m 708.54,408.807 c 0.075,0.442 0.139,0.887 0.178,1.341 0.046,0.475 0.074,0.956 0.074,1.443 0,9.172 -7.435,16.607 -16.609,16.607 -0.603,0 -1.2,-0.035 -1.787,-0.099 -0.178,-0.019 -0.35,-0.055 -0.526,-0.079 -0.409,-0.058 -0.818,-0.119 -1.217,-0.206 -0.19,-0.042 -0.375,-0.096 -0.561,-0.145 -0.381,-0.096 -0.759,-0.198 -1.13,-0.321 -0.175,-0.058 -0.345,-0.126 -0.519,-0.19 -0.376,-0.139 -0.747,-0.286 -1.11,-0.451 l -0.446,-0.215 c -0.38,-0.187 -0.751,-0.384 -1.112,-0.599 l -0.355,-0.215 c -0.388,-0.241 -0.763,-0.498 -1.127,-0.769 l -0.25,-0.188 c -0.396,-0.306 -0.775,-0.63 -1.142,-0.969 l -0.137,-0.124 c -0.409,-0.389 -0.8,-0.795 -1.166,-1.223 l -0.002,-10e-4 c -2.498,-2.906 -4.018,-6.679 -4.018,-10.813 0,-9.171 7.435,-16.606 16.605,-16.606 8.223,0 15.031,5.979 16.357,13.822 z m -16.357,-6.252 c -4.991,0 -9.033,4.048 -9.033,9.036 0,4.991 4.042,9.037 9.033,9.037 4.992,0 9.037,-4.046 9.037,-9.037 0,-4.988 -4.045,-9.036 -9.037,-9.036" /><path
       inkscape:connector-curvature="0"
       id="path142"
       style="fill:#777777;fill-opacity:1;fill-rule:nonzero;stroke:none;stroke-width:0.1"
       d="m 771.395,432.224 c 0.733,0.686 -0.091,1.462 -0.891,1.759 -0.8,0.297 -1.372,1.098 -1.372,1.098 l 0.044,-0.018 h 0.612 v 1.388 h -0.61 l 10e-4,0.003 c 0,0 -2.22,0.074 -3.614,0.638 -0.39,0.159 -0.763,0.303 -1.127,0.438 l -0.179,0.081 c -1.448,0.638 -3.014,1.024 -4.406,1.257 -0.749,0.143 -1.37,0.216 -1.876,0.245 -1.332,0.125 -2.234,0.111 -2.234,0.111 l -3.6,17.884 2.482,1.031 c 0,0 0,0.642 -0.051,1.58 -0.047,0.942 -1.036,0.842 -1.036,0.842 0,0 -20.804,0.746 -29.901,-0.428 -0.502,-0.039 -0.467,-0.279 -0.414,-0.371 0.582,-0.972 1.052,-1.37 1.536,-1.837 l 0.459,-0.771 0.931,-10e-4 -2.056,-13.841 c -0.147,0.018 -0.304,0.034 -0.477,0.047 -0.784,0.054 -1.55,0.022 -2.285,-0.062 v 11.387 h -0.652 v 2.421 c 0,0 -0.615,2.904 -2.201,2.733 -0.708,-0.075 -0.205,-2.099 -0.205,-2.099 0,0 0.56,-0.292 0.584,-1.191 0.026,-0.965 0.026,-1.826 0.026,-1.864 h -0.711 v -12.089 c -1.083,-0.356 -1.941,-0.752 -2.478,-1.024 l -0.242,-0.001 c -1.174,-0.015 -2.037,-0.531 -2.436,-0.821 l -8.857,-0.204 c 0,0 -14.612,-0.46 -20.522,-2.978 -3.1,-1.321 -3.848,-6.982 -4.19,-12.014 -0.016,-0.251 -0.026,-0.471 -0.036,-0.687 3.317,3.193 7.816,5.169 12.772,5.169 10.172,0 18.445,-8.274 18.445,-18.444 0,-0.949 -0.095,-1.873 -0.234,-2.784 h 20.175 4.592 c -0.544,1.917 -0.855,3.932 -0.855,6.021 0,12.17 9.9,22.07 22.069,22.07 5.624,0 10.746,-2.131 14.647,-5.606 l -0.399,0.435 -0.067,0.784 0.017,-0.013 c 0,0 0.09,-0.961 0.822,-0.274 z m -31.383,4.373 c -4.059,-3.11 -6.962,-7.379 -8.244,-12.092 h -7.548 v 13.003 c 0.021,0.134 2.557,17.221 2.781,18.744 h 15.433 l 1.074,-17.431 c -1.226,-0.647 -2.401,-1.384 -3.496,-2.224 z m 4.039,2.493 -1.104,17.162 h 8.37 c 0.266,-1.322 2.526,-12.619 2.896,-14.472 -3.563,-0.199 -7.032,-1.134 -10.162,-2.69" /><path
       inkscape:connector-curvature="0"
       id="path144"
       style="fill:#777777;fill-opacity:1;fill-rule:nonzero;stroke:none;stroke-width:0.1"
       d="m 834.691,446.821 v -6.999 l -49.469,-0.056 v 7.019 l 1.019,0.918 h 47.524 z m -49.275,8.488 v -6.625 l 0.332,0.299 48.529,-10e-4 0.536,-0.511 v 6.838 z m 39.276,-26.832 h 5.498 v -4.6 l -9.995,-0.522 -5.756,-6.556 h -8.941 l -4.873,5.535 -6.548,-0.342 v -13.965 h 26.121 v -4.141 h -26.121 v -0.643 h -4.14 v 27.864 h 2.965 l -6.498,7.38 47.124,0.054 z m -29.475,0 -1.14,1.295 v -1.295 z m 22.279,-17.381 v 3.253 h -4.449 v -3.253 z m 5.775,0 v 3.253 h -4.939 v -3.253 z m -11.06,0 v 3.253 h -4.52 v -3.253 z m -10.675,0 v 3.253 h -4.831 v -3.253 z m 5.321,0 v 3.253 h -4.487 v -3.253 h 4.487" /><path
       inkscape:connector-curvature="0"
       id="path146"
       style="fill:#ffffff;fill-opacity:1;fill-rule:nonzero;stroke:none;stroke-width:0.1"
       d="m 496.359,262.764 c 16.613,0 30.081,13.468 30.081,30.082 0,16.613 -13.468,30.082 -30.081,30.082 -16.614,0 -30.082,-13.469 -30.082,-30.082 0,-16.614 13.468,-30.082 30.082,-30.082" /><g
       id="g148"
       transform="scale(0.1)"><g
         clip-path="url(#clipPath154)"
         id="g150"><path
           inkscape:connector-curvature="0"
           id="path156"
           style="fill:#71b790;fill-opacity:1;fill-rule:nonzero;stroke:none"
           d="m 4898.44,2942.63 c -6.69,-2.78 -11.07,-9.31 -11.07,-16.56 0,-9.9 8.02,-17.93 17.94,-17.93 7.25,0 13.78,4.36 16.57,11.05 2.75,6.72 1.22,14.44 -3.9,19.55 -5.13,5.14 -12.85,6.67 -19.54,3.89" /><path
           inkscape:connector-curvature="0"
           id="path158"
           style="fill:#71b790;fill-opacity:1;fill-rule:nonzero;stroke:none"
           d="m 4999.51,2942.77 c -6.71,-2.83 -11.07,-9.41 -11,-16.71 l 0.06,0.01 c 0.09,-9.75 7.96,-17.64 17.7,-17.78 7.29,-0.06 13.87,4.3 16.69,11.01 2.83,6.72 1.29,14.46 -3.84,19.62 -5.16,5.13 -12.89,6.67 -19.61,3.85" /><path
           inkscape:connector-curvature="0"
           id="path160"
           style="fill:#71b790;fill-opacity:1;fill-rule:nonzero;stroke:none"
           d="m 4980.88,2826.22 h -48.84 c -2.15,0 -3.91,-1.76 -3.91,-3.92 v -0.91 c 0,-2.16 1.76,-3.92 3.91,-3.92 h 48.84 c 2.15,0 3.91,1.76 3.91,3.92 v 0.91 c 0,2.16 -1.76,3.92 -3.91,3.92" /><path
           inkscape:connector-curvature="0"
           id="path162"
           style="fill:#71b790;fill-opacity:1;fill-rule:nonzero;stroke:none"
           d="m 4956.46,2859.27 c 12.21,0 21.97,5.96 22.39,6.21 0.9,0.56 1.18,1.75 0.62,2.66 -0.56,0.9 -1.75,1.18 -2.66,0.63 -0.09,-0.06 -9.23,-5.63 -20.35,-5.63 -11.07,0 -20.26,5.57 -20.36,5.63 -0.87,0.55 -2.09,0.27 -2.65,-0.63 -0.56,-0.91 -0.28,-2.1 0.62,-2.66 0.42,-0.25 10.18,-6.21 22.39,-6.21" /><path
           inkscape:connector-curvature="0"
           id="path164"
           style="fill:#71b790;fill-opacity:1;fill-rule:nonzero;stroke:none"
           d="m 5057.55,2781.23 c -0.75,0.25 -1.06,0.81 -1.06,1.44 v 21.17 c 12.15,15.9 21.35,34.06 26.92,53.41 13.9,13.65 20.03,35.13 23.41,47.09 5.32,18.98 10.77,46.53 -4.07,66.25 l -0.62,0.82 c 7.14,34.82 16.08,116.29 -46.02,157.68 7.27,7.39 11.21,17.41 10.96,27.8 -0.12,1 -0.56,1.94 -1.31,2.57 -0.69,0.56 -1.69,0.94 -2.51,0.94 -0.87,0 -78.44,-8.83 -115.87,-1.07 -38.44,7.96 -80.57,-21.29 -89.02,-51.1 -14.53,-1.81 -27.8,-9.32 -36.88,-20.78 -17.02,-20.92 -22.09,-54.17 -15.46,-98.76 0.5,-5.7 1.25,-11.33 2.19,-17.03 l -0.62,-0.82 c -14.84,-19.85 -9.52,-47.4 -4.07,-66.37 3.25,-11.71 9.39,-33.44 23.28,-47.09 h 0.13 c 5.45,-19.48 14.65,-37.7 26.92,-53.79 v -20.79 c 0,-0.13 0.03,-0.26 0.02,-0.48 0,-0.37 -0.15,-0.48 -0.3,-0.55 -0.24,-0.13 -0.53,-0.29 -0.78,-0.29 -6.7,-1.57 -14.4,-3.57 -22.86,-6.07 -1.25,-0.38 -2.44,-0.69 -3.69,-1.07 -20.65,-6.01 -45.07,-14.9 -68.11,-27.61 -3.32,-1.82 -6.57,-3.7 -9.83,-5.64 -4.57,-2.75 -9.07,-5.64 -13.27,-8.7 -1.82,-1.32 -3.76,-2.64 -5.44,-3.95 -3.26,-2.44 -6.45,-5.01 -9.46,-7.64 -1.56,-1.19 -3.13,-2.63 -4.69,-4.13 -0.38,-0.31 -0.76,-0.56 -1.07,-0.94 -2.32,-2.19 -4.63,-4.45 -6.76,-6.89 -0.25,-0.25 -0.5,-0.5 -0.75,-0.75 -0.13,-0.19 -0.25,-0.31 -0.38,-0.44 -13.02,-14.28 61.08,-80.01 56.51,-99.49 h 551.96 c -18.72,79.66 -209.19,161.92 -257.4,173.07 z m -102.54,-74.96 c -32.86,-0.44 -63.91,15.03 -83.38,41.46 8.45,4.88 14.83,12.46 18.15,21.66 8.64,-5.69 17.97,-10.26 27.86,-13.65 24.16,-8.58 50.65,-8.58 74.81,0 9.76,3.51 19.22,8.21 27.79,14.03 3.26,-9.33 9.65,-17.09 18.22,-21.91 -19.47,-26.56 -50.52,-42.03 -83.45,-41.59 z m 97.47,170.39 c -5.19,-32.93 -31.42,-74.08 -71.61,-88.42 -16.72,-6.07 -34.94,-6.07 -51.58,0 -41.95,14.72 -66.49,56.17 -71.43,88.42 -0.25,1.7 -1.7,3.07 -3.38,3.2 -1.94,0 -9.21,3 -17.91,33.94 -6.76,24.17 -3.82,32.87 -1.69,36 1.69,2.07 4.26,3.13 6.82,2.88 h 1.69 c 2.01,-0.12 3.7,1.32 3.82,3.39 0,0.5 4.26,52.6 35.18,71.32 15.47,9.4 35.13,8.9 58.73,-1.12 48.08,-20.67 84.2,-19.29 106.04,-14.34 24.98,-18.42 17.78,-47.85 16.09,-53.67 v -0.75 c -0.37,-1.19 -0.25,-2.38 0.57,-3.51 0.75,-0.94 1.94,-1.44 3.25,-1.32 3.07,0.63 6.2,-0.5 8.26,-2.75 2.26,-3.13 5.2,-11.84 -1.69,-36.01 -8.7,-30.93 -15.84,-33.88 -17.9,-34.19 -1.69,-0.12 -3.01,-1.37 -3.26,-3.07" /></g></g><path
       inkscape:connector-curvature="0"
       id="path166"
       style="fill:none;stroke:#ffffff;stroke-width:0.98687696;stroke-linecap:butt;stroke-linejoin:miter;stroke-miterlimit:4;stroke-dasharray:none;stroke-opacity:1"
       d="m 496.359,262.764 c 16.613,0 30.081,13.468 30.081,30.082 0,16.613 -13.468,30.082 -30.081,30.082 -16.614,0 -30.082,-13.469 -30.082,-30.082 0,-16.614 13.468,-30.082 30.082,-30.082 z" /><path
       inkscape:connector-curvature="0"
       id="path168"
       style="fill:#71b790;fill-opacity:1;fill-rule:nonzero;stroke:none;stroke-width:0.1"
       d="m 145.194,56.4145 c -9.121,0 -16.542,7.4207 -16.542,16.5421 0,9.1215 7.421,16.5422 16.542,16.5422 9.122,0 16.542,-7.4207 16.542,-16.5422 0,-9.1214 -7.42,-16.5421 -16.542,-16.5421 z m 0,30.9043 c -7.919,0 -14.361,-6.443 -14.361,-14.3622 0,-7.9191 6.442,-14.3617 14.361,-14.3617 7.919,0 14.362,6.4426 14.362,14.3617 0,7.9192 -6.443,14.3622 -14.362,14.3622" /><path
       inkscape:connector-curvature="0"
       id="path170"
       style="fill:#71b790;fill-opacity:1;fill-rule:nonzero;stroke:none;stroke-width:0.1"
       d="m 397.697,56.2625 c -9.121,0 -16.542,7.4207 -16.542,16.5426 0,9.1211 7.421,16.5418 16.542,16.5418 9.122,0 16.542,-7.4207 16.542,-16.5418 0,-9.1219 -7.42,-16.5426 -16.542,-16.5426 z m 0,30.9043 c -7.919,0 -14.362,-6.443 -14.362,-14.3617 0,-7.9192 6.443,-14.3617 14.362,-14.3617 7.919,0 14.362,6.4425 14.362,14.3617 0,7.9187 -6.443,14.3617 -14.362,14.3617" /><path
       inkscape:connector-curvature="0"
       id="path172"
       style="fill:#71b790;fill-opacity:1;fill-rule:nonzero;stroke:none;stroke-width:0.1"
       d="m 688.578,56.2625 c -9.123,0 -16.543,7.4207 -16.543,16.5426 0,9.1211 7.42,16.5418 16.543,16.5418 9.121,0 16.542,-7.4207 16.542,-16.5418 0,-9.1219 -7.421,-16.5426 -16.542,-16.5426 z m 0,30.9043 c -7.919,0 -14.362,-6.443 -14.362,-14.3617 0,-7.9192 6.443,-14.3617 14.362,-14.3617 7.92,0 14.361,6.4425 14.361,14.3617 0,7.9187 -6.441,14.3617 -14.361,14.3617" /><g
       id="g174"><text
         id="text178"
         style="font-variant:normal;font-weight:normal;font-size:14.99400043px;font-family:'TT Interphases';-inkscape-font-specification:TTInterphases-Regular;writing-mode:lr-tb;fill:#71b790;fill-opacity:1;fill-rule:nonzero;stroke:none"
         transform="matrix(1,0,0,-1,142.683,67.598)"><tspan
           id="tspan176"
           y="0"
           x="0">1</tspan></text>
<text
         id="text182"
         style="font-variant:normal;font-weight:normal;font-size:17px;font-family:'TT Interphases';-inkscape-font-specification:TTInterphases-Regular;writing-mode:lr-tb;fill:#71b790;fill-opacity:1;fill-rule:nonzero;stroke:none"
         transform="matrix(1,0,0,-1,170.8443,65.71167)"><tspan
           id="tspan180"
           sodipodi:role="line"
           y="0"
           x="0 10.03 19.549999 23.375 32.895 41.990002 48.025002 51.764999 62.305 66.044998 77.433983 87.123985 96.558983 105.99399 115.51398 124.60899">Select &amp; Connect</tspan></text>
<text
         id="text186"
         style="font-variant:normal;font-weight:normal;font-size:14.99400043px;font-family:'TT Interphases';-inkscape-font-specification:TTInterphases-Regular;writing-mode:lr-tb;fill:#71b790;fill-opacity:1;fill-rule:nonzero;stroke:none"
         transform="matrix(1,0,0,-1,393.4613,67.74956)"><tspan
           id="tspan184"
           y="0"
           x="0">2</tspan></text>
<text
         id="text194"
         style="font-variant:normal;font-weight:normal;font-size:17px;font-family:'TT Interphases';-inkscape-font-specification:TTInterphases-Regular;writing-mode:lr-tb;fill:#71b790;fill-opacity:1;fill-rule:nonzero;stroke:none"
         transform="matrix(1,0,0,-1,423.3472,65.71167)"><tspan
           id="tspan188"
           sodipodi:role="line"
           y="0"
           x="0 11.9 19.889999 29.41 33.150002 43.18 49.215 58.055 67.489998 77.519997 86.360001 92.053497 102.0835 105.82349 117.97849 123.67341 133.3634 142.88341 152.8284 160.81841">Use Standard Groups </tspan><tspan
           id="tspan190"
           sodipodi:role="line"
           y="20.4"
           x="0 9.6899996 15.214942 18.954943 22.609941 32.044941 42.074944 45.729942 54.314941 57.969944 67.999939 77.519943 86.35994 90.184944 93.924942 101.91494 111.43494 117.46994 123.50494 127.15994 136.59494 146.53995">or individual settings</tspan><tspan
           id="tspan192"
           sodipodi:role="line"
           y="8.8817842e-16"
           x="290.88 302.52499 311.36499 315.01999 318.845 327.00421 330.7442 343.15421 353.09921 362.6192 368.48389 377.32388 383.35889 387.01389 396.70389">Daily Operation</tspan></text>
<text
         id="text198"
         style="font-variant:normal;font-weight:normal;font-size:14.99400043px;font-family:'TT Interphases';-inkscape-font-specification:TTInterphases-Regular;writing-mode:lr-tb;fill:#71b790;fill-opacity:1;fill-rule:nonzero;stroke:none"
         transform="matrix(1,0,0,-1,684.3038,67.74956)"><tspan
           id="tspan196"
           y="0"
           x="0">3</tspan></text>
</g><g
       id="g200"><text
         id="text206"
         style="font-variant:normal;font-weight:600;font-size:13px;font-family:'TT Interphases';-inkscape-font-specification:TTInterphases-DemiBold;writing-mode:lr-tb;fill:#c2c3c3;fill-opacity:1;fill-rule:nonzero;stroke:none"
         transform="matrix(1,0,0,-1,484.66,171.633)"><tspan
           id="tspan202"
           sodipodi:role="line"
           y="0"
           x="0 8.8400888 16.445089 22.945089 27.885157 35.425156 46.865158 54.405155">Customer</tspan><tspan
           id="tspan204"
           sodipodi:role="line"
           y="19.278099"
           x="-14.7547 -5.9146118 1.6253884 9.1653881 14.235389 19.045477 26.585476 29.900476 32.760475 41.600613 49.140614 56.680614 61.620682 69.160683">Control Center</tspan></text>
</g><g
       id="g208"><text
         id="text212"
         style="font-variant:normal;font-weight:600;font-size:21px;font-family:'TT Interphases';-inkscape-font-specification:TTInterphases-DemiBold;writing-mode:lr-tb;fill:#71b790;fill-opacity:1;fill-rule:nonzero;stroke:none"
         transform="matrix(1,0,0,-1,430.839,239.959)"><tspan
           id="tspan210"
           sodipodi:role="line"
           y="0"
           x="0 18.269941 29.084864 33.704865 45.149864 57.749863 65.939865 71.084862 78.855087 91.035088 103.32009 111.30022 123.48022">my agrirouter</tspan></text>
<text
         id="text224"
         style="font-variant:normal;font-weight:normal;font-size:17px;font-family:'TT Interphases';-inkscape-font-specification:TTInterphases-Regular;writing-mode:lr-tb;fill:#71b790;fill-opacity:1;fill-rule:nonzero;stroke:none"
         transform="matrix(1,0,0,-1,130.0692,508.771)"><tspan
           id="tspan218"
           sodipodi:role="line"
           y="0"
           x="0 14.705 23.545 32.639999 42.16 45.814999 55.25 64.769997">Machines</tspan><tspan
           id="tspan220"
           sodipodi:role="line"
           y="0.87968802"
           x="551.966 563.86603 571.85602 581.37598 585.11603 599.82098 608.66101 617.75598 627.276 630.93103 640.36603 649.88599 657.87598 661.61603 670.45599 679.89099 689.92102 693.1488 703.7738 713.71881 723.66382">Use Machines and Apps</tspan><tspan
           id="tspan222"
           sodipodi:role="line"
           y="182.4677"
           x="0 10.625 20.57 30.514999">Apps</tspan></text>
</g><path
       inkscape:connector-curvature="0"
       id="path226"
       style="fill:#71b790;fill-opacity:1;fill-rule:nonzero;stroke:none;stroke-width:0.1"
       d="m 576.473,465.868 5.749,-5.749 5.624,5.624 c -1.583,48.029 -40.34,86.809 -88.36,88.43 l 5.622,-5.621 -5.743,-5.743 c 41.769,-1.548 75.472,-35.195 77.108,-76.941" /><path
       inkscape:connector-curvature="0"
       id="path228"
       style="fill:#71b790;fill-opacity:1;fill-rule:nonzero;stroke:none;stroke-width:0.1"
       d="m 410.495,471.438 5.742,-5.743 c 1.549,41.768 35.195,75.471 76.941,77.107 l 5.75,5.75 -5.624,5.624 c -48.03,-1.583 -86.81,-40.34 -88.431,-88.36 l 5.622,5.622" /><path
       inkscape:connector-curvature="0"
       id="path230"
       style="fill:#71b790;fill-opacity:1;fill-rule:nonzero;stroke:none;stroke-width:0.1"
       d="m 582.222,453.939 -5.742,5.743 c -0.698,-18.818 -7.913,-35.996 -19.446,-49.345 l -24.496,43.127 h 5.446 c 13.378,0 24.261,10.884 24.261,24.262 0,13.377 -10.883,24.26 -24.261,24.26 h -31.968 c -3.138,0 -5.681,-2.543 -5.681,-5.681 v -52.963 l -32.219,55.804 c -1.014,1.758 -2.89,2.84 -4.919,2.84 -2.03,0 -3.905,-1.082 -4.92,-2.84 l -37.113,-64.282 c -2.869,7.727 -4.582,16.012 -4.921,24.645 l -5.748,5.748 -5.624,-5.624 c 1.583,-48.029 40.34,-86.809 88.359,-88.43 l -5.621,5.621 5.743,5.743 c -28.268,1.047 -52.838,16.8 -66.277,39.812 l 36.122,62.565 37.899,-65.643 c 1.285,-2.226 3.908,-3.313 6.39,-2.647 2.483,0.666 4.21,2.916 4.21,5.488 v 68.483 h 26.288 c 7.114,0 12.9,-5.787 12.9,-12.899 0,-7.113 -5.786,-12.9 -12.9,-12.9 h -15.206 c -2.022,0 -3.891,-1.075 -4.908,-2.823 -1.018,-1.748 -1.03,-3.905 -0.031,-5.663 L 548.7,402.005 c -13.306,-11.493 -30.417,-18.697 -49.162,-19.432 l -5.749,-5.749 5.624,-5.624 c 48.03,1.583 86.81,40.339 88.431,88.361 l -5.622,-5.622" /></g></svg>