<?xml version="1.0" encoding="UTF-8" standalone="no"?>
<!-- Created with Inkscape (http://www.inkscape.org/) -->

<svg
   xmlns:dc="http://purl.org/dc/elements/1.1/"
   xmlns:cc="http://creativecommons.org/ns#"
   xmlns:rdf="http://www.w3.org/1999/02/22-rdf-syntax-ns#"
   xmlns:svg="http://www.w3.org/2000/svg"
   xmlns="http://www.w3.org/2000/svg"
   xmlns:sodipodi="http://sodipodi.sourceforge.net/DTD/sodipodi-0.dtd"
   xmlns:inkscape="http://www.inkscape.org/namespaces/inkscape"
   width="304.28848mm"
   height="173.90933mm"
   viewBox="0 0 304.28848 173.90933"
   version="1.1"
   id="svg4338"
   inkscape:version="0.92.5 (2060ec1f9f, 2020-04-08)"
   sodipodi:docname="message_structure_non-telemetry.svg">
  <defs
     id="defs4332">
    <clipPath
       id="clip0">
      <rect
         id="rect4883"
         height="671"
         width="1165"
         y="33"
         x="21" />
    </clipPath>
    <clipPath
       id="clip1">
      <rect
         id="rect4886"
         height="536"
         width="536"
         y="166"
         x="355" />
    </clipPath>
    <clipPath
       id="clip2">
      <rect
         id="rect4889"
         height="537"
         width="537"
         y="166"
         x="355" />
    </clipPath>
    <clipPath
       id="clip3">
      <rect
         id="rect4892"
         height="537"
         width="537"
         y="166"
         x="355" />
    </clipPath>
  </defs>
  <sodipodi:namedview
     id="base"
     pagecolor="#ffffff"
     bordercolor="#666666"
     borderopacity="1.0"
     inkscape:pageopacity="0.0"
     inkscape:pageshadow="2"
     inkscape:zoom="0.35"
     inkscape:cx="482.1762"
     inkscape:cy="-17.06673"
     inkscape:document-units="mm"
     inkscape:current-layer="layer1"
     showgrid="false"
     inkscape:window-width="1920"
     inkscape:window-height="1017"
     inkscape:window-x="-8"
     inkscape:window-y="114"
     inkscape:window-maximized="1" />
  <metadata
     id="metadata4335">
    <rdf:RDF>
      <cc:Work
         rdf:about="">
        <dc:format>image/svg+xml</dc:format>
        <dc:type
           rdf:resource="http://purl.org/dc/dcmitype/StillImage" />
        <dc:title></dc:title>
      </cc:Work>
    </rdf:RDF>
  </metadata>
  <g
     inkscape:label="Layer 1"
     inkscape:groupmode="layer"
     id="layer1"
     transform="translate(34.97162,29.59157)">
    <g
       id="g5043"
       transform="matrix(0.26458333,0,0,0.26458333,-44.478972,-41.689023)"
       clip-path="url(#clip0)">
      <g
         id="g4907"
         clip-path="url(#clip1)">
        <g
           id="g4905"
           clip-path="url(#clip2)">
          <g
             id="g4903"
             clip-path="url(#clip3)">
            <path
               id="path4897"
               d="m 852.714,425.129 16.342,16.341 16.341,-16.341 C 880.728,287.394 770.073,176.272 632.338,171.603 l 15.875,15.874 -16.342,16.342 c 119.526,5.136 215.707,101.317 220.843,221.31 z"
               inkscape:connector-curvature="0"
               style="fill:#71b790;fill-opacity:0.4" />
            <path
               id="path4899"
               d="m 376.944,408.787 16.342,16.342 C 397.955,305.603 494.136,209.422 614.129,204.286 L 630.47,187.944 614.129,171.603 C 476.861,176.272 365.739,287.394 361.07,425.129 Z"
               inkscape:connector-curvature="0"
               style="fill:#71b790;fill-opacity:0.4" />
            <path
               id="path4901"
               d="m 869.056,459.213 -16.342,-16.342 c -1.867,53.693 -22.878,103.185 -55.561,141.47 L 727.118,460.613 h 15.408 c 38.286,0 69.568,-31.282 69.568,-69.568 0,-38.285 -31.282,-69.568 -69.568,-69.568 h -91.979 c -8.871,0 -16.341,7.471 -16.341,16.342 v 151.742 l -91.98,-160.146 c -2.801,-5.136 -8.404,-7.938 -14.007,-7.938 -5.602,0 -11.205,3.269 -14.006,7.938 L 407.76,513.84 c -8.405,-21.945 -13.074,-45.756 -14.007,-70.502 l -16.342,-16.341 -16.341,16.341 c 4.669,137.735 115.324,248.857 253.059,253.526 L 598.254,680.99 614.596,664.648 C 533.822,661.847 463.321,616.557 424.568,550.725 L 528.219,371.436 636.54,558.195 c 3.735,6.537 11.206,9.338 18.209,7.471 7.004,-1.868 12.14,-8.405 12.14,-15.875 V 353.693 h 75.17 c 20.544,0 36.885,16.809 36.885,36.885 0,20.077 -16.808,36.885 -36.885,36.885 h -43.421 c -5.603,0 -11.206,3.269 -14.007,7.938 -2.802,5.136 -2.802,11.205 0,16.341 l 88.244,155.477 c -38.286,33.15 -87.311,53.694 -141.004,55.562 l -16.341,16.341 16.341,16.341 C 769.606,690.794 880.728,580.139 885.397,442.404 Z"
               inkscape:connector-curvature="0"
               style="fill:#71b790;fill-opacity:0.4" />
          </g>
        </g>
      </g>
      <path
         id="path4909"
         stroke-miterlimit="8"
         d="m 781.005,507.679 277.595,96.335 -33.77,97.307 -277.594,-96.335 z"
         inkscape:connector-curvature="0"
         style="fill:#ffffff;fill-rule:evenodd;stroke:#9dc3e6;stroke-width:2.66667008;stroke-miterlimit:8" />
      <path
         id="path4911"
         stroke-miterlimit="8"
         d="m 737.688,269.145 311.352,-158.41 50.94,100.12 -311.353,158.41 z"
         inkscape:connector-curvature="0"
         style="fill:#ffffff;fill-rule:evenodd;stroke:#9dc3e6;stroke-width:2.66667008;stroke-miterlimit:8" />
      <rect
         id="rect4913"
         stroke-miterlimit="8"
         height="112"
         width="295"
         y="362.5"
         x="176.5"
         style="fill:#ffffff;stroke:#9dc3e6;stroke-width:2.66667008;stroke-miterlimit:8" />
      <rect
         id="rect4915"
         stroke-miterlimit="8"
         height="114"
         width="134"
         y="362.5"
         x="44.500099"
         style="fill:#cde4d9;stroke:#000000;stroke-width:1.33333004;stroke-miterlimit:8" />
      <text
         id="text4919"
         transform="translate(87.1667,412)"
         font-size="24"
         font-weight="400"
         style="font-weight:400;font-size:24px;font-family:Calibri, Calibri_MSFontService, sans-serif">EP 1;<tspan
   id="tspan4917"
   y="29"
   x="-14"
   font-size="24"
   style="font-size:24px">sending</tspan>
</text>
      <rect
         id="rect4921"
         stroke-miterlimit="8"
         height="39"
         width="293"
         y="419.5"
         x="178.5"
         style="fill:#ffffff;stroke:#000000;stroke-width:1.33333004;stroke-miterlimit:8" />
      <path
         id="path4923"
         stroke-miterlimit="8"
         d="m 761.112,317.662 301.978,-154.046 17.8,34.889 -301.98,154.046 z"
         inkscape:connector-curvature="0"
         style="fill:#ffffff;fill-rule:evenodd;stroke:#000000;stroke-width:1.33333004;stroke-miterlimit:8" />
      <path
         id="path4925"
         stroke-miterlimit="8"
         d="M 764.152,555.536 1046.22,656.914 1033.03,693.615 750.961,592.238 Z"
         inkscape:connector-curvature="0"
         style="fill:#ffffff;fill-rule:evenodd;stroke:#000000;stroke-width:1.33333004;stroke-miterlimit:8" />
      <rect
         id="rect4927"
         stroke-miterlimit="8"
         height="30"
         width="92"
         y="423.5"
         x="256.5"
         style="fill:#71b790;stroke:#2f528f;stroke-width:1.33333004;stroke-miterlimit:8" />
      <text
         id="text4929"
         transform="translate(268.013,444)"
         font-size="19"
         font-weight="400"
         style="font-weight:400;font-size:19px;font-family:Calibri, Calibri_MSFontService, sans-serif;fill:#ffffff">TaskData</text>
      <rect
         id="rect4931"
         stroke-miterlimit="8"
         height="39"
         width="293"
         y="380.5"
         x="178.5"
         style="fill:#ffffff;stroke:#000000;stroke-width:1.33333004;stroke-miterlimit:8" />
      <path
         id="path4933"
         stroke-miterlimit="8"
         d="M 361.5,437.25 H 398 v -3.75 l 7.5,7.5 -7.5,7.5 v -3.75 h -36.5 z"
         inkscape:connector-curvature="0"
         style="fill:none;fill-rule:evenodd;stroke:#71b790;stroke-width:1.33333004;stroke-miterlimit:8" />
      <path
         id="path4935"
         stroke-miterlimit="8"
         d="M 745.076,283.76 1054.63,125.851 1072.42,160.74 762.874,318.649 Z"
         inkscape:connector-curvature="0"
         style="fill:#ffffff;fill-rule:evenodd;stroke:#000000;stroke-width:1.33333004;stroke-miterlimit:8" />
      <path
         id="path4937"
         stroke-miterlimit="8"
         d="m 778.198,518.193 283.022,101.721 -13.19,36.701 -283.023,-101.72 z"
         inkscape:connector-curvature="0"
         style="fill:#ffffff;fill-rule:evenodd;stroke:#000000;stroke-width:1.33333004;stroke-miterlimit:8" />
      <rect
         id="rect4939"
         stroke-miterlimit="8"
         height="98"
         width="134"
         y="601.5"
         x="1023.5"
         style="fill:#cde4d9;stroke:#000000;stroke-width:1.33333004;stroke-miterlimit:8" />
      <text
         id="text4945"
         transform="translate(1065.91,643)"
         font-size="24"
         font-weight="400"
         style="font-weight:400;font-size:24px;font-family:Calibri, Calibri_MSFontService, sans-serif">EP 3;<tspan
   id="tspan4941"
   y="29"
   x="-28.52"
   font-size="24"
   style="font-size:24px">subscribed</tspan>
<tspan
   id="tspan4943"
   y="-341"
   x="-524.31299"
   font-size="24"
   style="font-size:24px">EP1</tspan>
</text>
      <rect
         id="rect4947"
         height="39"
         width="56"
         y="497"
         x="520"
         style="fill:#ffffff" />
      <text
         id="text4951"
         transform="translate(529.433,524)"
         font-size="24"
         font-weight="400"
         style="font-weight:400;font-size:24px;font-family:Calibri, Calibri_MSFontService, sans-serif">EP1<tspan
   id="tspan4949"
   y="-220"
   x="134.33299"
   font-size="24"
   style="font-size:24px">EP2</tspan>
</text>
      <path
         id="path4953"
         stroke-miterlimit="8"
         d="M 596.5,293.25 H 633 v -3.75 l 7.5,7.5 -7.5,7.5 v -3.75 h -36.5 z"
         inkscape:connector-curvature="0"
         style="fill:none;fill-rule:evenodd;stroke:#71b790;stroke-width:1.33333004;stroke-miterlimit:8" />
      <path
         id="path4955"
         stroke-miterlimit="8"
         d="M 586.5,512.25 H 623 v -3.75 l 7.5,7.5 -7.5,7.5 v -3.75 h -36.5 z"
         inkscape:connector-curvature="0"
         style="fill:#ffffff;fill-rule:evenodd;stroke:#71b790;stroke-width:1.33333004;stroke-miterlimit:8" />
      <path
         id="path4957"
         transform="matrix(1,0,0,-1,471.5,438.62)"
         d="m 0.0475996,-1.66599 13.1691004,0.37626 13.0851,1.069457 12.8963,1.698533 12.5884,2.32887 12.1444,2.95743 11.6438,3.39874 11.0232,3.9053 10.3387,4.2868 9.5414,4.6759 8.614,5.0672 7.56,5.3366 6.52,5.6247 5.214,5.858 3.958,5.9692 1.399,3.1969 1.054,3.0976 0.671,3.1544 0.195,3.1226 0.188,3 -0.033,-0.2428 0.625,2.9375 -0.049,-0.1802 1,3 -0.06,-0.1529 1.313,2.9375 -0.128,-0.2342 3.812,5.8125 -0.155,-0.2016 5.125,5.6875 -0.151,-0.1471 6.313,5.4375 -0.127,-0.0988 7.438,5.25 -0.116,-0.075 8.5,4.9996 -0.112,-0.06 9.437,4.625 -0.087,-0.039 10.25,4.312 -0.097,-0.037 10.937,3.812 -0.074,-0.024 11.563,3.438 -0.09,-0.024 12.125,2.875 -0.08,-0.017 12.437,2.312 -0.087,-0.013 12.813,1.687 -0.082,-0.009 13,1.063 -0.088,-0.005 4.795,0.137 -0.096,3.332 -4.839,-0.138 -13.085,-1.07 -12.897,-1.698 -12.521,-2.328 -12.21,-2.896 -11.645,-3.461 -11.023,-3.843 -10.342,-4.351 -9.538,-4.674 -8.614,-5.0675 -7.56,-5.3363 -6.453,-5.5587 -5.281,-5.8606 -3.956,-6.0313 -1.401,-3.1347 -1.055,-3.1666 -0.67,-3.1492 -0.195,-3.1226 -0.188,-3 0.033,0.2428 -0.625,-2.9375 0.053,0.1903 -1,-2.9375 0.051,0.1309 -1.313,-3 0.138,0.253 -3.813,-5.75 0.145,0.1871 -5.063,-5.6875 0.156,0.1538 -6.375,-5.5 0.128,0.0997 -7.438,-5.25 0.116,0.075 -8.5,-5 0.112,0.06 -9.4374,-4.625 0.095,0.043 -10.25,-4.25 0.0818,0.0314 -10.9375,-3.875 0.0896,0.0289 -11.5625,-3.375 0.0726,0.01944 -12.0624,-2.9375 0.0911,0.01952 -12.5,-2.3125 0.0856,0.01354 -12.8125,-1.6875 0.0818,0.00873 -13,-1.0625 0.0882,0.00486 -13.1249996,-0.375 z M 270.147,121.841 l 9.853,5.284 -10.139,4.712 z"
         inkscape:connector-curvature="0"
         style="fill:#71b790" />
      <path
         id="path4959"
         d="m 478.538,437.834 13.78,0.313 13.75,0.816 13.503,1.319 13.123,1.821 12.748,2.198 12.257,2.64 11.567,3.017 10.762,3.273 10.025,3.657 8.971,3.854 7.997,4.125 6.771,4.344 5.532,4.503 2.245,2.377 1.911,2.372 1.549,2.424 1.166,2.538 0.703,2.532 0.201,2.471 0.187,2.312 -0.055,-0.311 0.625,2.25 -0.091,-0.25 1.062,2.313 -0.11,-0.202 1.438,2.25 -0.107,-0.148 1.812,2.25 -0.086,-0.099 2.125,2.25 -0.159,-0.148 5.375,4.375 -0.153,-0.11 6.625,4.25 -0.145,-0.083 7.875,4 -0.088,-0.042 8.875,3.875 -0.101,-0.04 9.875,3.562 -0.075,-0.025 10.75,3.313 -0.078,-0.022 11.5,2.937 -0.06,-0.014 12.125,2.625 -0.061,-0.012 12.687,2.25 -0.071,-0.011 13.125,1.75 -0.057,-0.007 13.375,1.313 -0.057,-0.005 13.688,0.875 -0.076,-0.003 5.418,0.099 -0.061,3.332 -5.456,-0.099 -13.754,-0.879 -13.432,-1.318 -13.189,-1.759 -12.753,-2.261 -12.186,-2.639 -11.569,-2.955 -10.827,-3.336 -9.963,-3.594 -8.97,-3.916 -7.993,-4.06 -6.775,-4.346 -5.532,-4.504 -2.245,-2.377 -1.911,-2.372 -1.549,-2.424 -1.166,-2.538 -0.703,-2.532 -0.201,-2.471 -0.187,-2.312 0.055,0.311 -0.625,-2.25 0.092,0.25 -1.063,-2.313 0.11,0.202 -1.437,-2.25 0.106,0.148 -1.812,-2.25 0.086,0.099 -2.125,-2.25 0.159,0.148 -5.375,-4.375 0.153,0.11 -6.625,-4.25 0.135,0.079 -7.875,-4.063 0.107,0.05 -8.875,-3.812 0.086,0.034 -9.937,-3.625 0.086,0.029 -10.687,-3.25 0.064,0.018 -11.5,-3 0.07,0.017 -12.188,-2.625 0.068,0.013 -12.688,-2.188 0.054,0.009 -13.062,-1.813 0.067,0.008 -13.437,-1.312 0.063,0.005 -13.688,-0.813 0.061,0.003 -13.75,-0.313 z m 283.867,94.548 9.907,5.181 -10.089,4.817 z"
         inkscape:connector-curvature="0"
         style="fill:#71b790" />
      <text
         id="text4983"
         transform="translate(223.6,62)"
         font-size="24"
         font-weight="400"
         style="font-weight:400;font-size:24px;font-family:Calibri, Calibri_MSFontService, sans-serif">1<tspan
   id="tspan4961"
   y="0"
   x="12.1667"
   font-size="24"
   style="font-size:24px">:</tspan>
<tspan
   id="tspan4963"
   y="0"
   x="24.1667"
   font-size="24"
   style="font-size:24px">Sending</tspan>
<tspan
   id="tspan4965"
   y="0"
   x="284.59698"
   font-size="24"
   style="font-size:24px">2</tspan>
:<tspan
   id="tspan4967"
   y="0"
   x="308.76401"
   font-size="24"
   style="font-size:24px">Addressing</tspan>
<tspan
   id="tspan4969"
   y="0"
   x="421.617"
   font-size="24"
   style="font-size:24px">and</tspan>
<tspan
   id="tspan4971"
   y="0"
   x="463.95001"
   font-size="24"
   style="font-size:24px">routing</tspan>
<tspan
   id="tspan4973"
   y="0"
   x="735.16699"
   font-size="24"
   style="font-size:24px">3</tspan>
<tspan
   id="tspan4975"
   y="0"
   x="747.33301"
   font-size="24"
   style="font-size:24px">:</tspan>
<tspan
   id="tspan4977"
   y="0"
   x="759.33301"
   font-size="24"
   style="font-size:24px">Receiving</tspan>
<tspan
   id="tspan4979"
   y="156"
   x="-187.66701"
   font-size="24"
   style="font-size:24px">The</tspan>
onion<tspan
   id="tspan4981"
   y="156"
   x="-84.166702"
   font-size="24"
   style="font-size:24px">principle</tspan>
:</text>
      <path
         id="path4985"
         d="m 35.9333,221.3 h 48.75 48.7497 48.75 48.75 v 2 h -48.75 -48.75 -48.7497 -48.75 z"
         inkscape:connector-curvature="0"
         style="fill-rule:evenodd" />
      <text
         id="text4999"
         transform="translate(35.9333,247)"
         font-size="24"
         font-weight="400"
         style="font-weight:400;font-size:24px;font-family:Calibri, Calibri_MSFontService, sans-serif">1.<tspan
   id="tspan4987"
   y="0"
   x="36"
   font-size="24"
   style="font-size:24px">Protocol</tspan>
layer<tspan
   id="tspan4989"
   y="29"
   x="0"
   font-size="24"
   style="font-size:24px">2.</tspan>
<tspan
   id="tspan4991"
   y="29"
   x="36"
   font-size="24"
   style="font-size:24px">Endpoint</tspan>
<tspan
   id="tspan4993"
   y="29"
   x="129.78"
   font-size="24"
   style="font-size:24px">l</tspan>
ayer<tspan
   id="tspan4995"
   y="58"
   x="0"
   font-size="24"
   style="font-size:24px">3.</tspan>
<tspan
   id="tspan4997"
   y="58"
   x="36"
   font-size="24"
   style="font-size:24px">Message</tspan>
layer</text>
      <rect
         id="rect5001"
         stroke-miterlimit="8"
         height="100"
         width="134"
         y="111.5"
         x="1051.5"
         style="fill:#cde4d9;stroke:#000000;stroke-width:1.33333004;stroke-miterlimit:8" />
      <text
         id="text5005"
         transform="translate(1093.67,154)"
         font-size="24"
         font-weight="400"
         style="font-weight:400;font-size:24px;font-family:Calibri, Calibri_MSFontService, sans-serif">EP 2;<tspan
   id="tspan5003"
   y="29"
   x="-26.0133"
   font-size="24"
   style="font-size:24px">addressed</tspan>
</text>
      <path
         id="path5007"
         stroke-miterlimit="8"
         d="M 242.5,269.5 383.333,418.333"
         inkscape:connector-curvature="0"
         style="fill:none;fill-rule:evenodd;stroke:#000000;stroke-width:0.66666698;stroke-miterlimit:8;stroke-dasharray:2.66667, 2" />
      <path
         id="path5009"
         stroke-miterlimit="8"
         d="m 241.5,241.5 154,123"
         inkscape:connector-curvature="0"
         style="fill:none;fill-rule:evenodd;stroke:#000000;stroke-width:0.66666698;stroke-miterlimit:8;stroke-dasharray:2.66667, 2" />
      <path
         id="path5011"
         stroke-miterlimit="8"
         d="m 210.5,299.5 91.833,124"
         inkscape:connector-curvature="0"
         style="fill:none;fill-rule:evenodd;stroke:#000000;stroke-width:0.66666698;stroke-miterlimit:8;stroke-dasharray:2.66667, 2" />
      <path
         id="path5013"
         stroke-miterlimit="8"
         d="m 565.293,406.081 60.244,-69.532 22.673,19.645 -60.243,69.532 z"
         inkscape:connector-curvature="0"
         style="fill:#cde4d9;fill-opacity:0.62745098;fill-rule:evenodd;stroke:#2f528f;stroke-width:1.33333004;stroke-miterlimit:8;stroke-opacity:0.63137297" />
      <path
         id="path5015"
         stroke-miterlimit="8"
         d="m 580.219,439.437 75.632,52.381 -17.08,24.663 -75.633,-52.381 z"
         inkscape:connector-curvature="0"
         style="fill:#cde4d9;fill-opacity:0.62745098;fill-rule:evenodd;stroke:#2f528f;stroke-width:1.33333004;stroke-miterlimit:8;stroke-opacity:0.63137297" />
      <text
         id="text5017"
         transform="translate(653.433,525)"
         font-size="24"
         font-weight="400"
         style="font-weight:400;font-size:24px;font-family:Calibri, Calibri_MSFontService, sans-serif">EP3</text>
      <path
         id="path5019"
         stroke-miterlimit="8"
         d="m 882.595,221.375 81.658,-42.378 13.819,26.628 -81.658,42.378 z"
         inkscape:connector-curvature="0"
         style="fill:#71b790;fill-rule:evenodd;stroke:#2f528f;stroke-width:1.33333004;stroke-miterlimit:8" />
      <text
         id="text5021"
         transform="rotate(-27.427902,930.86616,-1732.8394)"
         font-size="19"
         font-weight="400"
         style="font-weight:400;font-size:19px;font-family:Calibri, Calibri_MSFontService, sans-serif;fill:#ffffff">TaskData</text>
      <path
         id="path5023"
         stroke-miterlimit="8"
         d="m 986.639,180.658 32.251,-17.096 -1.76,-3.313 10.14,3.114 -3.11,10.139 -1.76,-3.313 -32.248,17.095 z"
         inkscape:connector-curvature="0"
         style="fill:none;fill-rule:evenodd;stroke:#70ad47;stroke-width:1.33333004;stroke-miterlimit:8" />
      <path
         id="path5025"
         stroke-miterlimit="8"
         d="m 860.921,555.15 86.434,31.515 -10.276,28.185 -86.434,-31.515 z"
         inkscape:connector-curvature="0"
         style="fill:#71b790;fill-rule:evenodd;stroke:#2f528f;stroke-width:1.33333004;stroke-miterlimit:8" />
      <text
         id="text5027"
         transform="rotate(20.03243,-1206.5828,2738.5111)"
         font-size="19"
         font-weight="400"
         style="font-weight:400;font-size:19px;font-family:Calibri, Calibri_MSFontService, sans-serif;fill:#ffffff">TaskData</text>
      <path
         id="path5029"
         stroke-miterlimit="8"
         d="m 964.8,605.039 34.459,12.035 1.241,-3.54 4.6,9.553 -9.55,4.608 1.236,-3.54 -34.459,-12.035 z"
         inkscape:connector-curvature="0"
         style="fill:none;fill-rule:evenodd;stroke:#70ad47;stroke-width:1.33333004;stroke-miterlimit:8" />
      <text
         id="text5031"
         transform="translate(413.697,448)"
         font-size="19"
         font-weight="400"
         style="font-weight:400;font-size:19px;font-family:Calibri, Calibri_MSFontService, sans-serif;fill:#71b790">INBOX</text>
      <text
         id="text5033"
         transform="rotate(18.976664,-1366.8667,2585.4791)"
         font-size="19"
         font-weight="400"
         style="font-weight:400;font-size:19px;font-family:Calibri, Calibri_MSFontService, sans-serif;fill:#71b790">INBOX</text>
      <text
         id="text5035"
         transform="rotate(-27.797891,1070.5876,-1423.4831)"
         font-size="19"
         font-weight="400"
         style="font-weight:400;font-size:19px;font-family:Calibri, Calibri_MSFontService, sans-serif;fill:#71b790">INBOX</text>
      <text
         id="text5037"
         transform="translate(394.454,406)"
         font-size="19"
         font-weight="400"
         style="font-weight:400;font-size:19px;font-family:Calibri, Calibri_MSFontService, sans-serif;fill:#71b790">OUTBOX</text>
      <text
         id="text5039"
         transform="rotate(-27.080448,1014.796,-1440.9728)"
         font-size="19"
         font-weight="400"
         style="font-weight:400;font-size:19px;font-family:Calibri, Calibri_MSFontService, sans-serif;fill:#71b790">OUTBOX</text>
      <text
         id="text5041"
         transform="rotate(18.997864,-1234.9067,2606.9343)"
         font-size="19"
         font-weight="400"
         style="font-weight:400;font-size:19px;font-family:Calibri, Calibri_MSFontService, sans-serif;fill:#71b790">OUTBOX</text>
    </g>
  </g>
</svg>
