<?xml version="1.0" encoding="UTF-8" standalone="no"?>
<svg
   id="Ebene_1"
   data-name="Ebene 1"
   version="1.1"
   viewBox="0 0 580.4 165.6"
   sodipodi:docname="agrirouter-2_replypowered-RZ.svg"
   inkscape:version="1.2.1 (9c6d41e410, 2022-07-14)"
   xmlns:inkscape="http://www.inkscape.org/namespaces/inkscape"
   xmlns:sodipodi="http://sodipodi.sourceforge.net/DTD/sodipodi-0.dtd"
   xmlns="http://www.w3.org/2000/svg"
   xmlns:svg="http://www.w3.org/2000/svg">
  <sodipodi:namedview
     id="namedview66"
     pagecolor="#ffffff"
     bordercolor="#000000"
     borderopacity="0.25"
     inkscape:showpageshadow="2"
     inkscape:pageopacity="0.0"
     inkscape:pagecheckerboard="0"
     inkscape:deskcolor="#d1d1d1"
     showgrid="false"
     inkscape:zoom="1.4251207"
     inkscape:cx="208.05255"
     inkscape:cy="82.800003"
     inkscape:window-width="1920"
     inkscape:window-height="1129"
     inkscape:window-x="3832"
     inkscape:window-y="9"
     inkscape:window-maximized="1"
     inkscape:current-layer="text44" />
  <defs
     id="defs4">
    <style
       id="style2">
      .cls-1 {
        font-family: TTInterphases-DemiBold, 'TT Interphases';
        font-size: 31px;
        font-weight: 300;
        letter-spacing: 0em;
      }

      .cls-1, .cls-2 {
        fill: #131848;
      }

      .cls-3 {
        fill: #65ae52;
      }

      .cls-3, .cls-4, .cls-5, .cls-2 {
        stroke-width: 0px;
      }

      .cls-4 {
        fill: #004b59;
      }

      .cls-5 {
        fill: #97c19d;
      }
    </style>
  </defs>
  <g
     id="g12">
    <path
       class="cls-5"
       d="M116.5,70l3.5,3.5,3.5-3.5c-1-29.5-24.7-53.3-54.2-54.3l3.4,3.4-3.5,3.5c25.6.9,46.3,21.6,47.3,47.2Z"
       id="path6" />
    <path
       class="cls-5"
       d="M14.6,66.5l3.5,3.5c.9-25.6,21.6-46.3,47.2-47.3l3.5-3.5-3.5-3.5c-29.5,1-53.3,24.7-54.3,54.2l3.4-3.4Z"
       id="path8" />
    <path
       class="cls-5"
       d="M120,77.3l-3.5-3.5c-.4,11.5-4.9,22.1-11.9,30.3l-15-26.5h3.3c8.2,0,14.9-6.7,14.9-14.9s-6.7-14.9-14.9-14.9h-19.6c-1.9,0-3.5,1.6-3.5,3.5v32.5l-19.8-34.2c-.6-1.1-1.8-1.7-3-1.7s-2.4.7-3,1.7l-22.8,39.4c-1.8-4.7-2.8-9.8-3-15.1l-3.5-3.5-3.5,3.5c1,29.5,24.7,53.3,54.2,54.3l-3.4-3.4,3.5-3.5c-17.3-.6-32.4-10.3-40.7-24.4l22.2-38.4,23.3,40.3c.8,1.4,2.4,2,3.9,1.6,1.5-.4,2.6-1.8,2.6-3.4v-42h16.1c4.4,0,7.9,3.6,7.9,7.9s-3.6,7.9-7.9,7.9h-9.3c-1.2,0-2.4.7-3,1.7-.6,1.1-.6,2.4,0,3.5l18.9,33.3c-8.2,7.1-18.7,11.5-30.2,11.9l-3.5,3.5,3.5,3.5c29.5-1,53.3-24.7,54.3-54.2l-3.4,3.4Z"
       id="path10" />
  </g>
  <path
     class="cls-5"
     d="M247,37.9h8.2v8.2h-8.2v-8.2Z"
     id="path14" />
  <path
     class="cls-5"
     d="M516.3,84.1h8.2v8.2h-8.2v-8.2Z"
     id="path16" />
  <path
     class="cls-2"
     d="M150.7,93.1c-2,0-3.8-.3-5.4-.9-1.6-.6-3-1.4-4.1-2.5-1.1-1.1-2-2.3-2.6-3.7-.6-1.4-.9-3-.9-4.8s.3-3.2.9-4.6c.6-1.4,1.5-2.7,2.8-3.8s2.7-1.9,4.5-2.6c1.8-.6,3.8-.9,6.2-.9h9.7v-1.8c0-2.2-.7-3.8-2-5-1.3-1.2-3.2-1.8-5.5-1.8s-3.6.4-4.6,1.3c-1.1.9-1.8,1.9-2.2,3h-8.5c.4-1.6,1.1-3.1,1.9-4.5.9-1.4,1.9-2.6,3.2-3.6,1.3-1,2.8-1.8,4.5-2.4,1.7-.6,3.6-.9,5.7-.9,5.1,0,9,1.2,11.7,3.7,2.7,2.5,4.1,5.9,4.1,10.3v24.8h-7.2l-.7-4.7h-.4c-.4.6-.9,1.3-1.5,1.9-.6.6-1.5,1.2-2.4,1.7-1,.5-2,.9-3.2,1.3-1.2.3-2.5.5-4,.5ZM152.5,85.9c2.9,0,5.2-.7,6.8-2.2,1.7-1.5,2.5-3.5,2.5-6v-1.8h-9.4c-2.4,0-4,.5-5,1.4-1,1-1.5,2.2-1.5,3.6s.5,2.6,1.6,3.6c1.1,1,2.7,1.4,4.9,1.4Z"
     id="path18" />
  <path
     class="cls-2"
     d="M194.1,106.8c-4.9,0-8.7-1.1-11.5-3.3-2.8-2.2-4.7-5.2-5.8-9h8.6c.5,1.6,1.6,2.8,3.1,3.6,1.5.7,3.4,1.1,5.5,1.1s5.2-.7,6.8-2.1c1.7-1.4,2.5-3.3,2.5-5.9v-6.1h-.4c-.9,1.2-2.3,2.4-4.2,3.5-1.9,1.1-4.1,1.6-6.6,1.6s-4.5-.4-6.5-1.2c-2-.8-3.7-2-5.1-3.5-1.4-1.6-2.6-3.5-3.4-5.8-.8-2.3-1.2-4.9-1.2-7.9s.4-5.6,1.2-7.9c.8-2.3,1.9-4.2,3.4-5.8,1.4-1.6,3.1-2.7,5.1-3.5,2-.8,4.1-1.2,6.5-1.2s4.8.5,6.7,1.6c1.9,1.1,3.4,2.3,4.5,3.8h.4l1.1-4.7h6.8v37.1c0,4.9-1.5,8.7-4.5,11.4-3,2.7-7.4,4.1-13.2,4.1ZM193.9,82.7c1.3,0,2.6-.2,3.8-.7,1.2-.5,2.2-1.2,3.1-2.1.9-.9,1.5-2.1,2.1-3.4.5-1.3.8-2.8.8-4.6s-.3-3.3-.8-4.6c-.5-1.3-1.2-2.4-2.1-3.4-.9-.9-1.9-1.6-3.1-2.1-1.2-.5-2.4-.7-3.8-.7-2.7,0-5,.9-6.7,2.8-1.8,1.9-2.6,4.5-2.6,8s.9,6.1,2.7,8c1.8,1.9,4,2.8,6.8,2.8Z"
     id="path20" />
  <path
     class="cls-2"
     d="M219.9,54.2h6.8l1.1,4.7h.4c1.1-1.6,2.4-2.8,4-3.6,1.6-.7,3.3-1.1,5.4-1.1h4.7v7.9h-4c-3.1,0-5.5.8-7.3,2.5-1.8,1.7-2.7,4-2.7,6.8v20.9h-8.3v-38.2Z"
     id="path22" />
  <rect
     class="cls-2"
     x="246.8"
     y="54.2"
     width="8.3"
     height="38.2"
     id="rect24" />
  <path
     class="cls-2"
     d="M263.2,54.2h6.8l1.1,4.7h.4c1.1-1.6,2.4-2.8,4-3.6,1.6-.7,3.3-1.1,5.4-1.1h4.7v7.9h-4c-3.1,0-5.5.8-7.3,2.5-1.8,1.7-2.7,4-2.7,6.8v20.9h-8.3v-38.2Z"
     id="path26" />
  <path
     class="cls-2"
     d="M304.8,93.1c-2.7,0-5.1-.4-7.3-1.3-2.2-.9-4.1-2.2-5.7-3.9-1.6-1.7-2.8-3.7-3.7-6.2-.9-2.4-1.3-5.3-1.3-8.4s.4-6,1.3-8.4c.9-2.4,2.1-4.5,3.7-6.2,1.6-1.7,3.5-3,5.7-3.9,2.2-.9,4.7-1.3,7.3-1.3s5.1.4,7.3,1.3c2.2.9,4.1,2.2,5.7,3.9,1.6,1.7,2.8,3.7,3.7,6.2.9,2.4,1.3,5.3,1.3,8.4s-.4,6-1.3,8.4c-.9,2.4-2.1,4.5-3.7,6.2-1.6,1.7-3.5,3-5.7,3.9-2.2.9-4.7,1.3-7.3,1.3ZM304.8,85.6c1.3,0,2.6-.3,3.8-.8,1.2-.5,2.2-1.3,3.1-2.3.9-1,1.6-2.3,2.1-3.8.5-1.5.8-3.3.8-5.4s-.3-3.9-.8-5.4c-.5-1.5-1.2-2.8-2.1-3.8-.9-1-1.9-1.8-3.1-2.3-1.2-.5-2.4-.8-3.8-.8s-2.6.3-3.8.8c-1.2.5-2.2,1.3-3.1,2.3-.9,1-1.6,2.3-2.1,3.8-.5,1.5-.8,3.3-.8,5.4s.3,3.9.8,5.4c.5,1.5,1.2,2.8,2.1,3.8.9,1,1.9,1.8,3.1,2.3,1.2.5,2.4.8,3.8.8Z"
     id="path28" />
  <path
     class="cls-2"
     d="M343.2,93.1c-2.1,0-4-.4-5.7-1.1-1.7-.7-3.2-1.8-4.4-3.1-1.2-1.3-2.2-3-2.9-4.9-.7-1.9-1-4-1-6.4v-23.4h8.3v22.7c0,2.7.7,4.9,2.2,6.4,1.5,1.5,3.4,2.3,5.7,2.3s2.4-.2,3.4-.7c1-.5,1.9-1.1,2.6-1.9.7-.8,1.3-1.7,1.7-2.8.4-1.1.6-2.2.6-3.4v-22.5h8.3v38.2h-6.8l-1.1-4.7h-.4c-1.1,1.8-2.6,3.2-4.4,4.1-1.8.9-3.9,1.3-6,1.3Z"
     id="path30" />
  <path
     class="cls-2"
     d="M375.7,89.6c-1.9-1.8-2.8-4.4-2.8-7.7v-20.2h-6.1v-7.6h6.1l1.1-10.1h7.2v10.1h9.4v7.6h-9.4v19.1c0,1.1.3,2,1,2.8.7.8,1.7,1.2,2.9,1.2h5.4v7.6h-6.8c-3.5,0-6.1-.9-8-2.8Z"
     id="path32" />
  <path
     class="cls-2"
     d="M412.7,93.1c-2.8,0-5.3-.4-7.6-1.3-2.3-.9-4.2-2.2-5.8-3.9-1.6-1.7-2.8-3.7-3.7-6.2-.9-2.4-1.3-5.3-1.3-8.4s.4-6,1.3-8.4c.9-2.4,2.1-4.5,3.7-6.2,1.6-1.7,3.5-3,5.7-3.9,2.2-.9,4.7-1.3,7.3-1.3s5.4.5,7.7,1.5c2.2,1,4.1,2.4,5.7,4.1,1.5,1.7,2.7,3.7,3.5,6,.8,2.3,1.2,4.7,1.2,7.2s0,1,0,1.4c0,.4,0,.8-.1,1.2,0,.4,0,.7-.1,1h-27c.2,2.9,1.1,5.2,2.8,7,1.7,1.8,4,2.7,6.9,2.7s3.6-.4,4.8-1.2c1.2-.8,2.2-1.8,3.1-3.1h9c-.5,1.6-1.3,3.2-2.2,4.6-1,1.4-2.1,2.7-3.5,3.8-1.4,1.1-3,1.9-4.9,2.6s-4,.9-6.3.9ZM421.7,69.4c-.4-2.4-1.4-4.3-2.9-5.9-1.6-1.6-3.7-2.4-6.4-2.4s-4.6.7-6.2,2.2c-1.6,1.5-2.6,3.5-3.2,6h18.7Z"
     id="path34" />
  <path
     class="cls-2"
     d="M436.7,54.2h6.8l1.1,4.7h.4c1.1-1.6,2.4-2.8,4-3.6,1.6-.7,3.3-1.1,5.4-1.1h4.7v7.9h-4c-3.1,0-5.5.8-7.3,2.5-1.8,1.7-2.7,4-2.7,6.8v20.9h-8.3v-38.2Z"
     id="path36" />
  <path
     class="cls-5"
     d="M474.2,84.5l22.3-20.9c1.2-1.1,2-2.2,2.7-3.3.6-1.1.9-2.4.9-3.9,0-2.2-.7-3.9-2-5.2-1.3-1.3-3.4-2-6.3-2s-4.3.7-5.8,2c-1.5,1.3-2.5,3.1-2.8,5.2h-9c.3-2.2.9-4.2,1.7-6,.8-1.8,2-3.4,3.5-4.8,1.5-1.3,3.2-2.4,5.3-3.2,2.1-.8,4.5-1.2,7.2-1.2s5.4.4,7.6,1.1c2.2.7,4,1.7,5.5,3.1,1.5,1.3,2.6,2.9,3.3,4.7.8,1.8,1.2,3.8,1.2,5.9s-.2,2.6-.5,3.8c-.4,1.2-.8,2.3-1.4,3.3-.6,1.1-1.3,2-2.1,3-.8.9-1.6,1.8-2.4,2.5l-16.6,15.8h23.8v7.9h-36v-7.9Z"
     id="path38" />
  <path
     class="cls-5"
     d="M548,93.1c-3.1,0-5.9-.5-8.5-1.6s-4.8-2.7-6.7-4.9-3.4-4.9-4.4-8.1c-1.1-3.2-1.6-7-1.6-11.3s.5-8.1,1.6-11.3c1.1-3.2,2.5-5.9,4.4-8.1,1.9-2.2,4.1-3.8,6.7-4.9s5.4-1.6,8.5-1.6,5.9.5,8.5,1.6,4.8,2.7,6.7,4.9c1.9,2.2,3.4,4.9,4.4,8.1,1.1,3.2,1.6,7,1.6,11.3s-.5,8.1-1.6,11.3c-1.1,3.2-2.5,5.9-4.4,8.1-1.9,2.2-4.1,3.8-6.7,4.9s-5.4,1.6-8.5,1.6ZM548,84.8c1.6,0,3.2-.3,4.6-1,1.5-.7,2.8-1.8,3.9-3.2,1.1-1.4,2-3.3,2.7-5.5.7-2.2,1-4.8,1-7.9s-.3-5.7-1-7.9c-.7-2.2-1.6-4-2.7-5.5-1.1-1.4-2.4-2.5-3.9-3.2-1.5-.7-3-1-4.6-1s-3.2.3-4.6,1c-1.5.7-2.8,1.8-3.9,3.2-1.1,1.4-2,3.3-2.7,5.5-.7,2.2-1,4.8-1,7.9s.3,5.7,1,7.9c.7,2.2,1.6,4,2.7,5.5,1.1,1.4,2.4,2.5,3.9,3.2,1.5.7,3,1,4.6,1Z"
     id="path40" />
  <g
     aria-label="powered by"
     transform="translate(136.4 140.4)"
     id="text44"
     class="cls-1"
     style="font-weight:300;font-size:31px;font-family:TTInterphases-DemiBold, 'TT Interphases';letter-spacing:0em;fill:#131848">
    <path
       d="M 2.015,-16.43 H 4.96 l 0.465,2.015 H 5.58 q 0.713,-0.93 1.922,-1.612 1.24,-0.713 2.883,-0.713 1.581,0 2.883,0.558 1.302,0.558 2.232,1.643 0.961,1.054 1.488,2.666 0.527,1.581 0.527,3.658 0,2.077 -0.527,3.689 -0.527,1.581 -1.488,2.666 -0.93,1.054 -2.232,1.612 Q 11.966,0.31 10.385,0.31 9.517,0.31 8.773,0.093 8.029,-0.093 7.409,-0.403 6.82,-0.744 6.386,-1.116 5.952,-1.519 5.735,-1.86 H 5.58 V 6.2 H 2.015 Z m 7.75,13.485 q 0.868,0 1.612,-0.31 0.775,-0.341 1.333,-0.992 0.589,-0.651 0.899,-1.643 0.341,-0.992 0.341,-2.325 0,-1.333 -0.341,-2.325 -0.31,-0.992 -0.899,-1.643 -0.558,-0.651 -1.333,-0.961 -0.744,-0.341 -1.612,-0.341 -0.868,0 -1.643,0.341 -0.744,0.31 -1.333,0.961 -0.558,0.651 -0.899,1.643 -0.31,0.992 -0.31,2.325 0,1.333 0.31,2.325 0.341,0.992 0.899,1.643 0.589,0.651 1.333,0.992 0.775,0.31 1.643,0.31 z"
       id="path349" />
    <path
       d="m 27.744986,0.31 q -1.736,0 -3.162,-0.558 -1.426,-0.589 -2.449,-1.674 -1.023,-1.085 -1.581,-2.666 -0.558,-1.581 -0.558,-3.627 0,-2.046 0.558,-3.627 0.558,-1.581 1.581,-2.666 1.023,-1.085 2.449,-1.643 1.426,-0.589 3.162,-0.589 1.736,0 3.162,0.589 1.426,0.558 2.449,1.643 1.023,1.085 1.581,2.666 0.558,1.581 0.558,3.627 0,2.046 -0.558,3.627 -0.558,1.581 -1.581,2.666 -1.023,1.085 -2.449,1.674 -1.426,0.558 -3.162,0.558 z m 0,-3.255 q 0.868,0 1.612,-0.31 0.775,-0.341 1.333,-0.992 0.589,-0.651 0.899,-1.643 0.341,-0.992 0.341,-2.325 0,-1.333 -0.341,-2.325 -0.31,-0.992 -0.899,-1.643 -0.558,-0.651 -1.333,-0.961 -0.744,-0.341 -1.612,-0.341 -0.868,0 -1.643,0.341 -0.744,0.31 -1.333,0.961 -0.558,0.651 -0.899,1.643 -0.31,0.992 -0.31,2.325 0,1.333 0.31,2.325 0.341,0.992 0.899,1.643 0.589,0.651 1.333,0.992 0.775,0.31 1.643,0.31 z"
       id="path351" />
    <path
       d="m 36.889985,-16.43 h 3.72 l 3.1,11.935 h 0.155 l 3.1,-11.935 h 3.875 l 3.1,11.935 h 0.155 l 3.1,-11.935 h 3.72 L 56.419985,0 h -4.34 l -3.1,-11.315 h -0.155 l -3.1,11.315 h -4.34 z"
       id="path353" />
    <path
       d="m 69.873972,0.31 q -1.798,0 -3.255,-0.558 -1.457,-0.589 -2.48,-1.674 -1.023,-1.085 -1.581,-2.666 -0.558,-1.581 -0.558,-3.627 0,-2.046 0.558,-3.627 0.558,-1.581 1.581,-2.666 1.023,-1.085 2.449,-1.643 1.426,-0.589 3.162,-0.589 1.86,0 3.286,0.651 1.457,0.651 2.449,1.767 0.992,1.085 1.488,2.573 0.527,1.457 0.527,3.069 0,0.341 -0.031,0.62 -0.031,0.279 -0.062,0.496 -0.031,0.248 -0.062,0.434 h -11.625 q 0.124,1.86 1.209,3.038 1.116,1.147 2.976,1.147 1.302,0 2.046,-0.527 0.775,-0.527 1.364,-1.333 h 3.875 q -0.341,1.054 -0.961,1.984 -0.62,0.93 -1.519,1.643 -0.899,0.682 -2.108,1.085 -1.209,0.403 -2.728,0.403 z m 3.906,-10.23 q -0.248,-1.519 -1.271,-2.542 -0.992,-1.023 -2.759,-1.023 -1.643,0 -2.666,0.961 -1.023,0.961 -1.364,2.604 z"
       id="path355" />
    <path
       d="m 80.754967,-16.43 h 2.945 l 0.465,2.015 h 0.155 q 0.713,-1.054 1.705,-1.519 1.023,-0.496 2.325,-0.496 h 2.015 v 3.41 h -1.705 q -1.984,0 -3.162,1.085 -1.178,1.085 -1.178,2.945 V 0 h -3.565 z"
       id="path357" />
    <path
       d="m 99.323938,0.31 q -1.798,0 -3.255,-0.558 -1.457,-0.589 -2.48,-1.674 -1.023,-1.085 -1.581,-2.666 -0.558,-1.581 -0.558,-3.627 0,-2.046 0.558,-3.627 0.558,-1.581 1.581,-2.666 1.023,-1.085 2.449,-1.643 1.426,-0.589 3.162,-0.589 1.860002,0 3.286002,0.651 1.457,0.651 2.449,1.767 0.992,1.085 1.488,2.573 0.527,1.457 0.527,3.069 0,0.341 -0.031,0.62 -0.031,0.279 -0.062,0.496 -0.031,0.248 -0.062,0.434 H 95.169938 q 0.124,1.86 1.209,3.038 1.116,1.147 2.976,1.147 1.302002,0 2.046002,-0.527 0.775,-0.527 1.364,-1.333 h 3.875 q -0.341,1.054 -0.961,1.984 -0.62,0.93 -1.519,1.643 -0.899,0.682 -2.108,1.085 -1.209,0.403 -2.728002,0.403 z m 3.906002,-10.23 q -0.248,-1.519 -1.271,-2.542 -0.992,-1.023 -2.759002,-1.023 -1.643,0 -2.666,0.961 -1.023,0.961 -1.364,2.604 z"
       id="path359" />
    <path
       d="m 116.55993,0.31 q -1.581,0 -2.883,-0.558 -1.302,-0.558 -2.263,-1.612 -0.93,-1.085 -1.457,-2.666 -0.527,-1.612 -0.527,-3.689 0,-2.077 0.527,-3.658 0.527,-1.612 1.457,-2.666 0.961,-1.085 2.263,-1.643 1.302,-0.558 2.883,-0.558 0.868,0 1.612,0.217 0.744,0.186 1.333,0.527 0.62,0.31 1.023,0.713 0.434,0.372 0.682,0.713 h 0.155 v -7.13 h 3.565 V 0 h -2.945 l -0.465,-2.015 h -0.155 q -0.713,0.93 -1.953,1.643 -1.209,0.682 -2.852,0.682 z m 0.62,-3.255 q 0.868,0 1.612,-0.31 0.775,-0.341 1.333,-0.992 0.589,-0.651 0.899,-1.643 0.341,-0.992 0.341,-2.325 0,-1.333 -0.341,-2.325 -0.31,-0.992 -0.899,-1.643 -0.558,-0.651 -1.333,-0.961 -0.744,-0.341 -1.612,-0.341 -0.868,0 -1.643,0.341 -0.744,0.31 -1.333,0.961 -0.558,0.651 -0.899,1.643 -0.31,0.992 -0.31,2.325 0,1.333 0.31,2.325 0.341,0.992 0.899,1.643 0.589,0.651 1.333,0.992 0.775,0.31 1.643,0.31 z"
       id="path361" />
    <path
       d="m 144.45994,0.31 q -1.643,0 -2.883,-0.682 -1.209,-0.713 -1.922,-1.643 h -0.155 L 139.03494,0 h -2.945 v -21.7 h 3.565 v 7.13 h 0.155 q 0.217,-0.341 0.651,-0.713 0.434,-0.403 1.023,-0.713 0.62,-0.341 1.364,-0.527 0.744,-0.217 1.612,-0.217 1.581,0 2.883,0.558 1.302,0.558 2.232,1.643 0.961,1.054 1.488,2.666 0.527,1.581 0.527,3.658 0,2.077 -0.527,3.689 -0.527,1.581 -1.488,2.666 -0.93,1.054 -2.232,1.612 -1.302,0.558 -2.883,0.558 z m -0.62,-3.255 q 0.868,0 1.612,-0.31 0.775,-0.341 1.333,-0.992 0.589,-0.651 0.899,-1.643 0.341,-0.992 0.341,-2.325 0,-1.333 -0.341,-2.325 -0.31,-0.992 -0.899,-1.643 -0.558,-0.651 -1.333,-0.961 -0.744,-0.341 -1.612,-0.341 -0.868,0 -1.643,0.341 -0.744,0.31 -1.333,0.961 -0.558,0.651 -0.899,1.643 -0.31,0.992 -0.31,2.325 0,1.333 0.31,2.325 0.341,0.992 0.899,1.643 0.589,0.651 1.333,0.992 0.775,0.31 1.643,0.31 z"
       id="path363" />
    <path
       d="m 159.18494,0 -6.665,-16.43 h 3.875 l 4.495,11.625 h 0.155 l 4.495,-11.625 h 3.875 l -8.99,22.63 h -3.72 z"
       id="path365" />
  </g>
  <g
     id="RUNNING_MAN"
     data-name="RUNNING MAN">
    <g
       id="g50">
      <path
         class="cls-3"
         d="M341,112.5c-2,0-3.6,1.6-3.6,3.6s1.6,3.6,3.6,3.6,3.6-1.6,3.6-3.6-1.6-3.6-3.6-3.6Z"
         id="path46" />
      <path
         class="cls-3"
         d="M333,127.8l4.6-6c.2-.3.3-.7,0-1.1l-1.9-3.1c-.2-.3-.5-.4-.8-.4h-8.3c0,0-4.6,0-4.6,0-.4,0-.5.4-.2.7l1.3,1c.2.1.4.2.6.3l7.9,1.5-9.8,10.6-12.9,1.8c-.4,0-.6.6-.3.9l1.3,1.4c.2.3.6.4,1,.4l12.5-.2c.5,0,.9-.1,1.3-.4l3-1.8,6.3,5c.2.2.4.5.5.8l1.2,8.8c0,.4.4.7.8.7h.6c.5,0,.8-.4.8-.8v-9.8c0-.5-.1-1-.4-1.4l-5.5-7.4,1.2-1.6Z"
         id="path48" />
    </g>
  </g>
  <g
     id="g63">
    <path
       class="cls-4"
       d="M364.4,140.4l-4.3-7.8h-3.4v7.8h-4.7v-21.9h10.3c4.6,0,7.4,3,7.4,7.1s-2.5,5.9-4.8,6.5l5,8.3h-5.4ZM364.9,125.5c0-1.8-1.4-2.9-3.3-2.9h-4.9v5.9h4.9c1.8,0,3.3-1.1,3.3-3Z"
       id="path53" />
    <path
       class="cls-4"
       d="M373.2,140.4v-21.9h15.5v4.1h-10.8v4.6h10.6v4.1h-10.6v5h10.8v4.1h-15.5Z"
       id="path55" />
    <path
       class="cls-4"
       d="M392.3,140.4v-21.9h10.3c4.8,0,7.4,3.2,7.4,7.1s-2.6,7-7.4,7h-5.6v7.8h-4.7ZM405.2,125.5c0-1.8-1.4-3-3.3-3h-4.9v5.9h4.9c1.8,0,3.3-1.1,3.3-2.9Z"
       id="path57" />
    <path
       class="cls-4"
       d="M412.7,140.4v-21.9h4.7v17.8h9.3v4.1h-14Z"
       id="path59" />
    <path
       class="cls-4"
       d="M431.7,140.4v-9l-8.4-12.9h5.3l5.4,8.8,5.4-8.8h5.3l-8.4,12.9v9h-4.7Z"
       id="path61" />
  </g>
</svg>
