<!--?xml version="1.0" encoding="UTF-8" standalone="no"?-->
<!-- Created with Inkscape (http://www.inkscape.org/) -->

<svg xmlns:dc="http://purl.org/dc/elements/1.1/" xmlns:cc="http://creativecommons.org/ns#" xmlns:rdf="http://www.w3.org/1999/02/22-rdf-syntax-ns#" xmlns:svg="http://www.w3.org/2000/svg" xmlns="http://www.w3.org/2000/svg" xmlns:sodipodi="http://sodipodi.sourceforge.net/DTD/sodipodi-0.dtd" xmlns:inkscape="http://www.inkscape.org/namespaces/inkscape" width="344.3222mm" height="145.66794mm" viewBox="0 0 344.3222 145.66794" version="1.1" id="svg8946" inkscape:version="0.92.5 (2060ec1f9f, 2020-04-08)" sodipodi:docname="endpoint.svg">
   <defs id="defs8940">
      <clipPath id="clip0">
         <rect id="rect8948" height="565" width="1307" y="-5" x="-2"/>
      </clipPath>
      <clipPath id="clip1">
         <rect id="rect8951" height="537" width="538" y="19" x="767"/>
      </clipPath>
      <clipPath id="clip2">
         <rect id="rect8954" height="538" width="538" y="19" x="767"/>
      </clipPath>
      <clipPath id="clip3">
         <rect id="rect8957" height="539" width="538" y="18" x="767"/>
      </clipPath>
      <clipPath id="clip0-2">
         <rect id="rect9225" height="565" width="1307" y="-5" x="-2"/>
      </clipPath>
      <clipPath id="clip1-3">
         <rect id="rect9228" height="537" width="538" y="19" x="767"/>
      </clipPath>
      <clipPath id="clip2-2">
         <rect id="rect9231" height="538" width="538" y="19" x="767"/>
      </clipPath>
      <clipPath id="clip3-4">
         <rect id="rect9234" height="539" width="538" y="18" x="767"/>
      </clipPath>
      <clipPath id="clip0-0">
         <rect id="rect9502" height="565" width="1307" y="-5" x="-2"/>
      </clipPath>
      <clipPath id="clip1-4">
         <rect id="rect9505" height="537" width="538" y="19" x="767"/>
      </clipPath>
      <clipPath id="clip2-8">
         <rect id="rect9508" height="538" width="538" y="19" x="767"/>
      </clipPath>
      <clipPath id="clip3-47">
         <rect id="rect9511" height="539" width="538" y="18" x="767"/>
      </clipPath>
      <clipPath id="clip0-9">
         <rect id="rect9779" height="565" width="1307" y="-5" x="-2"/>
      </clipPath>
      <clipPath id="clip1-6">
         <rect id="rect9782" height="537" width="538" y="19" x="767"/>
      </clipPath>
      <clipPath id="clip2-7">
         <rect id="rect9785" height="538" width="538" y="19" x="767"/>
      </clipPath>
      <clipPath id="clip3-2">
         <rect id="rect9788" height="539" width="538" y="18" x="767"/>
      </clipPath>
      <clipPath id="clip0-06">
         <rect id="rect10062" height="565" width="1310" y="-5" x="-5"/>
      </clipPath>
      <clipPath id="clip1-41">
         <rect id="rect10065" height="537" width="538" y="19" x="767"/>
      </clipPath>
      <clipPath id="clip2-6">
         <rect id="rect10068" height="538" width="538" y="19" x="767"/>
      </clipPath>
      <clipPath id="clip3-5">
         <rect id="rect10071" height="539" width="538" y="18" x="767"/>
      </clipPath>
   </defs>
   <sodipodi:namedview id="base" pagecolor="#ffffff" bordercolor="#666666" borderopacity="1.0" inkscape:pageopacity="0.0" inkscape:pageshadow="2" inkscape:zoom="0.35" inkscape:cx="21.830474" inkscape:cy="-26.467107" inkscape:document-units="mm" inkscape:current-layer="layer1" showgrid="false" inkscape:window-width="1920" inkscape:window-height="1017" inkscape:window-x="-8" inkscape:window-y="114" inkscape:window-maximized="1"/>
   <metadata id="metadata8943">
      <rdf:rdf>
         <cc:work rdf:about="">
            <dc:format>image/svg+xml</dc:format>
            <dc:type rdf:resource="http://purl.org/dc/dcmitype/StillImage"/>
            <dc:title/>
         </cc:work>
      </rdf:rdf>
   </metadata>
   <g inkscape:label="Layer 1" inkscape:groupmode="layer" id="layer1" transform="translate(-100.05734,3.8373973)">
      <g id="g10238" transform="matrix(0.26458333,0,0,0.26458333,100.58651,-6.1452667)" clip-path="url(#clip0-06)">
         <g id="g10086" clip-path="url(#clip1-41)">
            <g id="g10084" clip-path="url(#clip2-6)">
               <g id="g10082" clip-path="url(#clip3-5)">
                  <path id="path10076" transform="matrix(1.00176,0,0,1,767,18.9731)" d="m 498.693,259.638 16.373,16.374 16.374,-16.374 C 526.762,121.632 415.889,10.292 277.883,5.6138 l 15.906,15.9058 -16.374,16.3736 C 397.176,43.0391 493.547,139.409 498.693,259.638 Z" inkscape:connector-curvature="0" style="fill:#71b790;fill-opacity:0.4"/>
                  <path id="path10078" transform="matrix(1.00176,0,0,1,767,18.9731)" d="M 21.9874,243.265 38.361,259.638 C 43.0391,139.877 139.409,43.507 259.638,38.361 L 276.012,21.9874 259.638,5.6138 C 122.1,10.292 10.7598,121.632 6.08162,259.638 Z" inkscape:connector-curvature="0" style="fill:#71b790;fill-opacity:0.4"/>
                  <path id="path10080" transform="matrix(1.00176,0,0,1,767,18.9731)" d="m 515.066,293.789 -16.373,-16.374 c -1.872,53.799 -22.923,103.388 -55.67,141.749 L 372.85,295.192 h 15.438 c 38.361,0 69.705,-31.343 69.705,-69.704 0,-38.361 -31.344,-69.705 -69.705,-69.705 h -92.16 c -8.888,0 -16.374,7.485 -16.374,16.374 v 152.04 L 187.595,163.736 c -2.807,-5.146 -8.421,-7.953 -14.035,-7.953 -5.614,0 -11.228,3.275 -14.034,7.953 L 52.8633,348.524 C 44.4426,326.536 39.7644,302.677 38.8288,277.883 L 22.4552,261.51 6.08162,277.883 C 10.7598,415.889 121.632,527.23 259.638,531.908 l -15.905,-15.906 16.373,-16.374 C 179.174,496.821 108.534,451.443 69.7047,385.481 L 173.56,205.839 282.094,392.966 c 3.742,6.55 11.227,9.356 18.244,7.485 7.018,-1.871 12.164,-8.42 12.164,-15.906 V 188.062 h 75.318 c 20.584,0 36.958,16.842 36.958,36.958 0,20.116 -16.842,36.957 -36.958,36.957 h -43.507 c -5.614,0 -11.227,3.275 -14.034,7.953 -2.807,5.146 -2.807,11.228 0,16.374 l 88.417,155.783 c -38.361,33.215 -87.482,53.799 -141.281,55.67 l -16.373,16.374 16.373,16.373 C 415.421,525.826 526.762,414.954 531.44,276.948 Z" inkscape:connector-curvature="0" style="fill:#71b790;fill-opacity:0.4"/>
               </g>
            </g>
         </g>
         <path id="path10088" stroke-miterlimit="8" d="m 697.5,98.5001 h 177.051 c 48.877,0 88.5,39.6229 88.5,88.4999 v 0 H 980.5 L 949.891,216.5 919.282,187 h 17.449 v 0 c 0,-34.341 -27.839,-62.18 -62.18,-62.18 H 697.5 Z" inkscape:connector-curvature="0" style="fill:none;fill-rule:evenodd;stroke:#000000;stroke-width:1.33333004;stroke-miterlimit:8"/>
         <rect id="rect10090" height="377" width="152" y="19" x="0" style="fill:#cde4d9"/>
         <text id="text10092" transform="rotate(-90,216.8,162.2)" font-size="48" font-weight="400" style="font-weight:400;font-size:48px;font-family:Calibri, Calibri_MSFontService, sans-serif;fill:#71b790">Farming
            Software</text>
         <rect id="rect10094" stroke-miterlimit="8" height="424" width="382" y="19" x="0" style="fill:none;stroke:#71b790;stroke-width:4;stroke-miterlimit:8;stroke-dasharray:4, 4"/>
         <text id="text10098" transform="translate(128.575,46)" font-size="24" font-weight="700" style="font-weight:700;font-size:24px;font-family:Calibri, Calibri_MSFontService, sans-serif">Applicaton
            <tspan id="tspan10096" y="0" x="112.573" font-size="24" style="font-size:24px">1</tspan>
         </text>
         <path id="path10100" d="m 128.615,48.7891 h 62.5 62.5 v 2 h -62.5 -62.5 z" inkscape:connector-curvature="0" style="fill-rule:evenodd"/>
         <rect id="rect10102" stroke-miterlimit="8" height="286" width="227" y="80.500099" x="62.500099" style="fill:#a6a6a6;stroke:#71b790;stroke-width:1.33333004;stroke-miterlimit:8"/>
         <text id="text10104" transform="translate(102.31,107)" font-size="24" font-weight="700" style="font-weight:700;font-size:24px;font-family:Calibri, Calibri_MSFontService, sans-serif">App Instance
            1</text>
         <rect id="rect10106" stroke-miterlimit="8" height="67" width="104" y="49.500099" x="907.5" style="fill:#71b790;stroke:#2f528f;stroke-width:1.33333004;stroke-miterlimit:8"/>
         <text id="text10108" transform="translate(921.667,76)" font-size="24" font-weight="400" style="font-weight:400;font-size:24px;font-family:Calibri, Calibri_MSFontService, sans-serif">Routing</text>
         <rect id="rect10110" stroke-miterlimit="8" height="144" width="94" y="222.5" x="907.5" style="fill:#71b790;stroke:#2f528f;stroke-width:1.33333004;stroke-miterlimit:8"/>
         <text id="text10112" transform="translate(930.541,248)" font-size="24" font-weight="400" style="font-weight:400;font-size:24px;font-family:Calibri, Calibri_MSFontService, sans-serif">Feed</text>
         <path id="path10114" d="m 920.5,330.333 c 0,-3.221 15.446,-5.833 34.5,-5.833 19.054,0 34.5,2.612 34.5,5.833 v 23.334 c 0,3.221 -15.446,5.833 -34.5,5.833 -19.054,0 -34.5,-2.612 -34.5,-5.833 z" inkscape:connector-curvature="0" style="fill:#71b790;fill-rule:evenodd"/>
         <path id="path10116" stroke-miterlimit="8" d="m 989.5,330.333 c 0,3.222 -15.446,5.834 -34.5,5.834 -19.054,0 -34.5,-2.612 -34.5,-5.834" inkscape:connector-curvature="0" style="fill:none;fill-rule:evenodd;stroke:#000000;stroke-width:1.33333004;stroke-miterlimit:8"/>
         <path id="path10118" stroke-miterlimit="8" d="m 920.5,330.333 c 0,-3.221 15.446,-5.833 34.5,-5.833 19.054,0 34.5,2.612 34.5,5.833 v 23.334 c 0,3.221 -15.446,5.833 -34.5,5.833 -19.054,0 -34.5,-2.612 -34.5,-5.833 z" inkscape:connector-curvature="0" style="fill:none;fill-rule:evenodd;stroke:#000000;stroke-width:1.33333004;stroke-miterlimit:8"/>
         <text id="text10120" transform="translate(936.458,348)" font-size="13" font-weight="400" style="font-weight:400;font-size:13px;font-family:Calibri, Calibri_MSFontService, sans-serif">MSG n</text>
         <path id="path10122" d="m 920.5,311.333 c 0,-3.221 15.446,-5.833 34.5,-5.833 19.054,0 34.5,2.612 34.5,5.833 v 23.334 c 0,3.221 -15.446,5.833 -34.5,5.833 -19.054,0 -34.5,-2.612 -34.5,-5.833 z" inkscape:connector-curvature="0" style="fill:#71b790;fill-rule:evenodd"/>
         <path id="path10124" stroke-miterlimit="8" d="m 989.5,311.333 c 0,3.222 -15.446,5.834 -34.5,5.834 -19.054,0 -34.5,-2.612 -34.5,-5.834" inkscape:connector-curvature="0" style="fill:none;fill-rule:evenodd;stroke:#000000;stroke-width:1.33333004;stroke-miterlimit:8"/>
         <path id="path10126" stroke-miterlimit="8" d="m 920.5,311.333 c 0,-3.221 15.446,-5.833 34.5,-5.833 19.054,0 34.5,2.612 34.5,5.833 v 23.334 c 0,3.221 -15.446,5.833 -34.5,5.833 -19.054,0 -34.5,-2.612 -34.5,-5.833 z" inkscape:connector-curvature="0" style="fill:none;fill-rule:evenodd;stroke:#000000;stroke-width:1.33333004;stroke-miterlimit:8"/>
         <text id="text10128" transform="translate(933.875,329)" font-size="13" font-weight="400" style="font-weight:400;font-size:13px;font-family:Calibri, Calibri_MSFontService, sans-serif">MSG &#x2026;</text>
         <path id="path10130" d="m 920.5,289.333 c 0,-3.221 15.446,-5.833 34.5,-5.833 19.054,0 34.5,2.612 34.5,5.833 v 23.334 c 0,3.221 -15.446,5.833 -34.5,5.833 -19.054,0 -34.5,-2.612 -34.5,-5.833 z" inkscape:connector-curvature="0" style="fill:#71b790;fill-rule:evenodd"/>
         <path id="path10132" stroke-miterlimit="8" d="m 989.5,289.333 c 0,3.222 -15.446,5.834 -34.5,5.834 -19.054,0 -34.5,-2.612 -34.5,-5.834" inkscape:connector-curvature="0" style="fill:none;fill-rule:evenodd;stroke:#000000;stroke-width:1.33333004;stroke-miterlimit:8"/>
         <path id="path10134" stroke-miterlimit="8" d="m 920.5,289.333 c 0,-3.221 15.446,-5.833 34.5,-5.833 19.054,0 34.5,2.612 34.5,5.833 v 23.334 c 0,3.221 -15.446,5.833 -34.5,5.833 -19.054,0 -34.5,-2.612 -34.5,-5.833 z" inkscape:connector-curvature="0" style="fill:none;fill-rule:evenodd;stroke:#000000;stroke-width:1.33333004;stroke-miterlimit:8"/>
         <text id="text10136" transform="translate(936.542,307)" font-size="13" font-weight="400" style="font-weight:400;font-size:13px;font-family:Calibri, Calibri_MSFontService, sans-serif">MSG 2</text>
         <path id="path10138" d="m 920.5,269.167 c 0,-3.13 15.222,-5.667 34,-5.667 18.778,0 34,2.537 34,5.667 v 22.666 c 0,3.13 -15.222,5.667 -34,5.667 -18.778,0 -34,-2.537 -34,-5.667 z" inkscape:connector-curvature="0" style="fill:#71b790;fill-rule:evenodd"/>
         <path id="path10140" stroke-miterlimit="8" d="m 988.5,269.167 c 0,3.129 -15.222,5.666 -34,5.666 -18.778,0 -34,-2.537 -34,-5.666" inkscape:connector-curvature="0" style="fill:none;fill-rule:evenodd;stroke:#000000;stroke-width:1.33333004;stroke-miterlimit:8"/>
         <path id="path10142" stroke-miterlimit="8" d="m 920.5,269.167 c 0,-3.13 15.222,-5.667 34,-5.667 18.778,0 34,2.537 34,5.667 v 22.666 c 0,3.13 -15.222,5.667 -34,5.667 -18.778,0 -34,-2.537 -34,-5.667 z" inkscape:connector-curvature="0" style="fill:none;fill-rule:evenodd;stroke:#000000;stroke-width:1.33333004;stroke-miterlimit:8"/>
         <text id="text10144" transform="translate(937.865,287)" font-size="13" font-weight="400" style="font-weight:400;font-size:13px;font-family:Calibri, Calibri_MSFontService, sans-serif">MSG1</text>
         <rect id="rect10146" stroke-miterlimit="8" height="107" width="132" y="68.500099" x="551.5" style="fill: #ffffff; stroke: #ff0000; stroke-width: 7; stroke-miterlimit: 8;"/>
         <text id="text10148" transform="translate(590.005,129)" font-size="24" font-weight="400" style="font-weight:400;font-size:24px;font-family:Calibri, Calibri_MSFontService, sans-serif;fill:#71b790">Inbox</text>
         <rect id="rect10150" stroke-miterlimit="8" height="107" width="134" y="252.5" x="549.5" style="fill:#ffffff;stroke:#000000;stroke-width:1.33333004;stroke-miterlimit:8"/>
         <text id="text10152" transform="translate(580.225,313)" font-size="24" font-weight="400" style="font-weight:400;font-size:24px;font-family:Calibri, Calibri_MSFontService, sans-serif;fill:#71b790">Outbox</text>
         <rect id="rect10154" stroke-miterlimit="8" height="513" width="531" y="43" x="538" style="fill:none;stroke:#71b790;stroke-width:4;stroke-miterlimit:8;stroke-dasharray:4, 4"/>
         <text id="text10156" transform="translate(597.278,25)" font-size="24" font-weight="400" style="font-weight:400;font-size:24px;font-family:Calibri, Calibri_MSFontService, sans-serif">Endpoint App
            Instance 1</text>
         <path id="path10158" d="m 597.278,28.192 h 59.5 59.5 59.5 59.5 v 2 h -59.5 -59.5 -59.5 -59.5 z" inkscape:connector-curvature="0" style="fill-rule:evenodd"/>
         <path id="path10160" stroke-miterlimit="8" d="m 697.5,62.0002 h 176 v -9.5001 l 19,19 -19,19 v -9.4999 h -176 z" inkscape:connector-curvature="0" style="fill:none;fill-rule:evenodd;stroke:#000000;stroke-width:1.33333004;stroke-miterlimit:8"/>
         <text id="text10170" transform="translate(752.908,76)" font-size="19" font-weight="400" style="font-weight:400;font-size:19px;font-family:Calibri, Calibri_MSFontService, sans-serif">Messages<tspan id="tspan10162" y="44" x="-46.135502" font-size="19" style="font-size:19px">Command:</tspan>
            <tspan id="tspan10164" y="44" x="41.1978" font-size="19" style="font-size:19px">call</tspan>
            <tspan id="tspan10166" y="44" x="70.711197" font-size="19" style="font-size:19px">for</tspan>
            <tspan id="tspan10168" y="44" x="96.484497" font-size="19" style="font-size:19px">MSGs</tspan>
         </text>
         <path id="path10172" stroke-miterlimit="8" d="m 699.5,143.5 h 136.911 c 24.025,0 43.5,19.476 43.5,43.5 v 0 H 892.5 L 865.295,201.5 838.089,187 h 12.589 v 0 c 0,-7.879 -6.387,-14.267 -14.267,-14.267 H 699.5 Z" inkscape:connector-curvature="0" style="fill:none;fill-rule:evenodd;stroke:#000000;stroke-width:1.33333004;stroke-miterlimit:8"/>
         <text id="text10174" transform="translate(709.058,164)" font-size="19" font-weight="400" style="font-weight:400;font-size:19px;font-family:Calibri, Calibri_MSFontService, sans-serif">Other
            Command</text>
         <path id="path10176" stroke-miterlimit="8" d="m 852,214.5 c 0,-6.904 6.044,-12.5 13.5,-12.5 7.456,0 13.5,5.596 13.5,12.5 0,6.904 -6.044,12.5 -13.5,12.5 -7.456,0 -13.5,-5.596 -13.5,-12.5 z" inkscape:connector-curvature="0" style="fill:#71b790;fill-rule:evenodd;stroke:#000000;stroke-width:4;stroke-miterlimit:8"/>
         <path id="path10178" stroke-miterlimit="8" d="m 879.5,227.5 v 0 c 0,26.297 -21.318,47.615 -47.615,47.615 H 702 V 285.5 L 687.5,262.528 702,239.556 v 10.385 h 129.885 c 12.394,0 22.441,-10.047 22.441,-22.441 v 0 z" inkscape:connector-curvature="0" style="fill:none;fill-rule:evenodd;stroke:#000000;stroke-width:1.33333004;stroke-miterlimit:8"/>
         <path id="path10180" stroke-miterlimit="8" d="M 895.5,327.5 H 703.139 v 12 l -15.639,-24 15.639,-24 v 12 H 895.5 Z" inkscape:connector-curvature="0" style="fill:none;fill-rule:evenodd;stroke:#000000;stroke-width:1.33333004;stroke-miterlimit:8"/>
         <text id="text10184" transform="translate(727.077,268)" font-size="24" font-weight="400" style="font-weight:400;font-size:24px;font-family:Calibri, Calibri_MSFontService, sans-serif">Result<tspan id="tspan10182" y="55" x="9.6770601" font-size="24" style="font-size:24px">Messages</tspan>
         </text>
         <path id="path10186" transform="matrix(1,0,0,-1,289.5,81.4393)" stroke-miterlimit="8" d="M 0,0 249.132,34.9392" inkscape:connector-curvature="0" style="fill:none;fill-rule:evenodd;stroke:#a6a6a6;stroke-width:5.33333015;stroke-miterlimit:8;stroke-dasharray:21.3333, 16"/>
         <path id="path10188" stroke-miterlimit="8" d="M 289.5,366.5 538.632,557.161" inkscape:connector-curvature="0" style="fill:none;fill-rule:evenodd;stroke:#a6a6a6;stroke-width:5.33333015;stroke-miterlimit:8;stroke-dasharray:21.3333, 16"/>
         <path id="path10190" transform="matrix(1,0,0,-1,288.5,141.952)" d="M 0.206952,-2.65862 249.648,16.7583 249.234,22.0755 -0.206952,2.65862 Z M 247.403,11.2341 l 15.331,9.2176 -16.573,6.7341 z" inkscape:connector-curvature="0" style="fill:#a6a6a6"/>
         <path id="path10192" transform="matrix(-1,0,0,1,549.655,305.5)" d="M 0.00950869,-2.66665 244.831,-1.79367 244.812,3.53963 -0.00950869,2.66665 Z M 242.184,-7.13648 258.155,0.920525 242.127,8.86342 Z" inkscape:connector-curvature="0" style="fill:#a6a6a6"/>
         <path id="path10194" d="m 308.199,108.158 210.612,-18.5981 2.842,32.1871 -210.612,18.598 z" inkscape:connector-curvature="0" style="fill:#ffffff;fill-opacity:0.45098003;fill-rule:evenodd"/>
         <text id="text10202" transform="rotate(-5.0463496,1623.541,-3562.761)" font-size="19" font-weight="400" style="font-weight:400;font-size:19px;font-family:Calibri, Calibri_MSFontService, sans-serif">Send <tspan id="tspan10196" y="-0.33363599" x="41.696098" font-size="19" style="font-size:19px">message</tspan>
            <tspan id="tspan10198" y="0.45527199" x="107.473" font-size="19" style="font-size:19px">/</tspan>
            <tspan id="tspan10200" y="0.057305299" x="114.335" font-size="19" style="font-size:19px">command</tspan>
         </text>
         <rect id="rect10204" height="36" width="146" y="267" x="326" style="fill:#ffffff;fill-opacity:0.43137303"/>
         <text id="text10208" transform="translate(335.876,292)" font-size="21" font-weight="400" style="font-weight:400;font-size:21px;font-family:Calibri, Calibri_MSFontService, sans-serif">Receive<tspan id="tspan10206" y="0" x="71.419998" font-size="21" style="font-size:21px">Result</tspan>
         </text>
         <path id="path10210" stroke-miterlimit="8" d="M 1129.5,321.75 H 1047 V 342.5 L 1005.5,301 1047,259.5 v 20.75 h 82.5 z" inkscape:connector-curvature="0" style="fill:#bfbfbf;fill-rule:evenodd;stroke:#8f993e;stroke-width:1.33333004;stroke-miterlimit:8;stroke-dasharray:4, 1.33333"/>
         <path id="path10212" stroke-miterlimit="8" d="m 1011.5,64.2501 h 80.5 v -20.75 l 41.5,41.5 L 1092,126.5 v -20.75 h -80.5 z" inkscape:connector-curvature="0" style="fill:#bfbfbf;fill-rule:evenodd;stroke:#8f993e;stroke-width:1.33333004;stroke-miterlimit:8;stroke-dasharray:4, 1.33333"/>
         <rect id="rect10214" stroke-miterlimit="8" height="513" width="115" y="35.500099" x="1139.5" style="fill:#7f7f7f;stroke:#2f528f;stroke-width:1.33333004;stroke-miterlimit:8"/>
         <text id="text10218" transform="translate(1158.65,285)" font-size="24" font-weight="400" style="font-weight:400;font-size:24px;font-family:Calibri, Calibri_MSFontService, sans-serif;fill:#ffffff">Routing
            <tspan id="tspan10216" y="29" x="8.3200703" font-size="24" style="font-size:24px">tables</tspan>
         </text>
         <rect id="rect10220" stroke-miterlimit="8" height="144" width="145" y="390.5" x="907.5" style="fill:#71b790;stroke:#2f528f;stroke-width:1.33333004;stroke-miterlimit:8"/>
         <text id="text10226" transform="translate(921.601,415)" font-size="21" font-weight="400" style="font-weight:400;font-size:21px;font-family:Calibri, Calibri_MSFontService, sans-serif">Subscri<tspan id="tspan10222" y="0" x="61.726601" font-size="21" style="font-size:21px">p</tspan>
            <tspan id="tspan10224" y="0" x="72.800003" font-size="21" style="font-size:21px">tions</tspan>
         </text>
         <path id="path10228" stroke-miterlimit="8" d="m 1133.5,505.5 h -122.81 c -33.588,0 -60.815,-27.227 -60.815,-60.812 V 401.25 H 932.5 l 34.75,-34.75 34.75,34.75 h -17.375 v 43.438 c 0,14.394 11.669,26.062 26.065,26.062 h 122.81 z" inkscape:connector-curvature="0" style="fill:#71b790;fill-opacity:0.45882401;fill-rule:evenodd;stroke:#000000;stroke-width:2.66667008;stroke-miterlimit:8;stroke-dasharray:10.6667, 8"/>
         <rect id="rect10230" stroke-miterlimit="8" height="35" width="137" y="427.5" x="911.5" style="fill:#bfbfbf;stroke:#000000;stroke-width:1.33333004;stroke-miterlimit:8"/>
         <text id="text10232" transform="translate(951.418,452)" font-size="24" font-weight="400" style="font-weight:400;font-size:24px;font-family:Calibri, Calibri_MSFontService, sans-serif;fill:#ffffff">TMT1</text>
         <rect id="rect10234" stroke-miterlimit="8" height="36" width="137" y="477.5" x="911.5" style="fill:#bfbfbf;stroke:#000000;stroke-width:1.33333004;stroke-miterlimit:8"/>
         <text id="text10236" transform="translate(951.418,503)" font-size="24" font-weight="400" style="font-weight:400;font-size:24px;font-family:Calibri, Calibri_MSFontService, sans-serif;fill:#ffffff">TMT2</text>
      </g>
   </g>
</svg>