<svg width="1280" height="720" xmlns="http://www.w3.org/2000/svg" xmlns:xlink="http://www.w3.org/1999/xlink" overflow="hidden"><defs><clipPath id="clip0"><rect x="0" y="0" width="1280" height="720"/></clipPath></defs><g clip-path="url(#clip0)"><rect x="0" y="0" width="1280" height="720" fill="#FFFFFF"/><path d="M512.5 103 526.25 75.5001 886.75 75.5001 900.5 103 886.75 130.5 526.25 130.5Z" stroke="#71B790" stroke-width="2.66667" stroke-miterlimit="8" fill="#FFFFFF" fill-rule="evenodd"/><text font-family="Aptos,Aptos_MSFontService,sans-serif" font-weight="400" font-size="24" transform="translate(601.782 110)">Already</text><text font-family="Aptos,Aptos_MSFontService,sans-serif" font-weight="400" font-size="24" transform="translate(684.455 110)">onboarded</text><text font-family="Aptos,Aptos_MSFontService,sans-serif" font-weight="400" font-size="24" transform="translate(797.629 110)">?</text><path d="M706 73C706 71.8954 707.567 71 709.5 71 711.433 71 713 71.8954 713 73 713 74.1046 711.433 75 709.5 75 707.567 75 706 74.1046 706 73Z" stroke="#71B790" stroke-width="2" stroke-miterlimit="8" fill="none" fill-rule="evenodd"/><path d="M217.5 181.5 231 154.5 592 154.5 605.5 181.5 592 208.5 231 208.5Z" stroke="#71B790" stroke-width="2.66667" stroke-miterlimit="8" fill="#FFFFFF" fill-rule="evenodd"/><text font-family="Aptos,Aptos_MSFontService,sans-serif" font-weight="400" font-size="24" transform="translate(313.435 174)">Does</text><text font-family="Aptos,Aptos_MSFontService,sans-serif" font-weight="400" font-size="24" transform="translate(372.268 174)">the</text><text font-family="Aptos,Aptos_MSFontService,sans-serif" font-weight="400" font-size="24" transform="translate(410.768 174)">App</text><text font-family="Aptos,Aptos_MSFontService,sans-serif" font-weight="400" font-size="24" transform="translate(456.768 174)">need</text><text font-family="Aptos,Aptos_MSFontService,sans-serif" font-weight="400" font-size="24" transform="translate(336.255 203)">Authorization</text><text font-family="Aptos,Aptos_MSFontService,sans-serif" font-weight="400" font-size="24" transform="translate(473.942 203)">?</text><path d="M411 151.5C411 150.119 412.567 149 414.5 149 416.433 149 418 150.119 418 151.5 418 152.881 416.433 154 414.5 154 412.567 154 411 152.881 411 151.5Z" stroke="#71B790" stroke-width="2" stroke-miterlimit="8" fill="none" fill-rule="evenodd"/><path d="M568.5 236.667C568.5 231.052 573.052 226.5 578.667 226.5L832.333 226.5C837.948 226.5 842.5 231.052 842.5 236.667L842.5 277.333C842.5 282.948 837.948 287.5 832.333 287.5L578.667 287.5C573.052 287.5 568.5 282.948 568.5 277.333Z" stroke="#71B790" stroke-width="2.66667" stroke-miterlimit="8" fill="#FFFFFF" fill-rule="evenodd"/><text font-family="Aptos,Aptos_MSFontService,sans-serif" font-weight="400" font-size="24" transform="translate(597.882 250)">Request Registration</text><text font-family="Aptos,Aptos_MSFontService,sans-serif" font-weight="400" font-size="24" transform="translate(677.109 279)">Code</text><path d="M43.5001 240.167C43.5001 232.067 50.0666 225.5 58.1669 225.5L317.833 225.5C325.934 225.5 332.5 232.067 332.5 240.167L332.5 298.833C332.5 306.933 325.934 313.5 317.833 313.5L58.1669 313.5C50.0666 313.5 43.5001 306.933 43.5001 298.833Z" stroke="#71B790" stroke-width="2.66667" stroke-miterlimit="8" fill="#FFFFFF" fill-rule="evenodd"/><text font-family="Aptos,Aptos_MSFontService,sans-serif" font-weight="400" font-size="24" transform="translate(73.2553 262)">Request</text><text font-family="Aptos,Aptos_MSFontService,sans-serif" font-weight="400" font-size="24" transform="translate(164.115 262)">Authorization</text><text font-family="Aptos,Aptos_MSFontService,sans-serif" font-weight="400" font-size="24" transform="translate(73.382 291)">and Registration Code</text><path d="M251.5 557.667C251.5 552.604 255.604 548.5 260.667 548.5L563.333 548.5C568.396 548.5 572.5 552.604 572.5 557.667L572.5 594.333C572.5 599.396 568.396 603.5 563.333 603.5L260.667 603.5C255.604 603.5 251.5 599.396 251.5 594.333Z" stroke="#71B790" stroke-width="2.66667" stroke-miterlimit="8" fill="#FFFFFF" fill-rule="evenodd"/><text font-family="Aptos,Aptos_MSFontService,sans-serif" font-weight="400" font-size="24" transform="translate(297.335 569)">Store Communication</text><text font-family="Aptos,Aptos_MSFontService,sans-serif" font-weight="400" font-size="24" transform="translate(350.942 598)">Information</text><path d="M858.5 156.834C858.5 151.127 863.127 146.5 868.834 146.5L1245.17 146.5C1250.87 146.5 1255.5 151.127 1255.5 156.834L1255.5 198.166C1255.5 203.874 1250.87 208.5 1245.17 208.5L868.834 208.5C863.127 208.5 858.5 203.874 858.5 198.166Z" stroke="#71B790" stroke-width="2.66667" stroke-miterlimit="8" fill="#FFFFFF" fill-rule="evenodd"/><text font-family="Aptos,Aptos_MSFontService,sans-serif" font-weight="400" font-size="24" transform="translate(908.655 170)">Load</text><text font-family="Aptos,Aptos_MSFontService,sans-serif" font-weight="400" font-size="24" transform="translate(965.049 170)">stored</text><text font-family="Aptos,Aptos_MSFontService,sans-serif" font-weight="400" font-size="24" transform="translate(1036.13 170)">Communication</text><text font-family="Aptos,Aptos_MSFontService,sans-serif" font-weight="400" font-size="24" transform="translate(996.229 199)">Information</text><path d="M300.5 389.167C300.5 384.933 303.933 381.5 308.167 381.5L515.833 381.5C520.068 381.5 523.5 384.933 523.5 389.167L523.5 419.833C523.5 424.068 520.068 427.5 515.833 427.5L308.167 427.5C303.933 427.5 300.5 424.068 300.5 419.833Z" stroke="#71B790" stroke-width="2.66667" stroke-miterlimit="8" fill="#FFFFFF" fill-rule="evenodd"/><text font-family="Aptos,Aptos_MSFontService,sans-serif" font-weight="400" font-size="24" transform="translate(316.348 412)">Onboard</text><text font-family="Aptos,Aptos_MSFontService,sans-serif" font-weight="400" font-size="24" transform="translate(412.522 412)">Endpoint</text><path d="M233.5 466.5C233.5 461.53 237.53 457.5 242.5 457.5L580.5 457.5C585.471 457.5 589.5 461.53 589.5 466.5L589.5 502.5C589.5 507.471 585.471 511.5 580.5 511.5L242.5 511.5C237.53 511.5 233.5 507.471 233.5 502.5Z" stroke="#71B790" stroke-width="2.66667" stroke-miterlimit="8" fill="#FFFFFF" fill-rule="evenodd"/><text font-family="Aptos,Aptos_MSFontService,sans-serif" font-weight="400" font-size="24" transform="translate(283.978 477)">Receive</text><text font-family="Aptos,Aptos_MSFontService,sans-serif" font-weight="400" font-size="24" transform="translate(370.245 477)">Communication</text><text font-family="Aptos,Aptos_MSFontService,sans-serif" font-weight="400" font-size="24" transform="translate(350.945 506)">Information</text><path d="M389 338 411 327 433 338 411 349Z" stroke="#71B790" stroke-width="4" stroke-miterlimit="8" fill="#FFFFFF" fill-rule="evenodd"/><path d="M749 628 771 617 793 628 771 639Z" stroke="#71B790" stroke-width="4" stroke-miterlimit="8" fill="#FFFFFF" fill-rule="evenodd"/><path d="M758 698C758 690.82 763.596 685 770.5 685 777.404 685 783 690.82 783 698 783 705.18 777.404 711 770.5 711 763.596 711 758 705.18 758 698Z" stroke="#000000" stroke-width="4" stroke-miterlimit="8" fill="#71B790" fill-rule="evenodd"/><path d="M0 0 17.4013 18.5929" stroke="#000000" stroke-width="5.33333" stroke-miterlimit="8" fill="#71B790" fill-rule="evenodd" transform="matrix(-1 0 0 1 779.901 689.5)"/><path d="M779.901 708.093 762.5 689.5" stroke="#000000" stroke-width="5.33333" stroke-miterlimit="8" fill="#71B790" fill-rule="evenodd"/><path d="M698 24C698 17.3726 704.044 12 711.5 12 718.956 12 725 17.3726 725 24 725 30.6274 718.956 36 711.5 36 704.044 36 698 30.6274 698 24Z" stroke="#000000" stroke-width="4" stroke-miterlimit="8" fill="#71B790" fill-rule="evenodd"/><path d="M714.167 36.4754 714.37 58.5182 709.037 58.5674 708.833 36.5247ZM719.679 55.8025 711.826 71.8756 703.679 55.9501Z" fill="#71B790"/><path d="M0-2.66667 102.095-2.66667 102.095 34.082 96.762 34.082 96.762 0 99.4287 2.66667 0 2.66667ZM107.429 31.4153 99.4287 47.4153 91.4287 31.4153Z" fill="#71B790" transform="matrix(-1 1.22465e-16 1.22465e-16 1 511.929 103.5)"/><path d="M900.5 100.833 1059.7 100.833 1059.7 133.67 1054.36 133.67 1054.36 103.5 1057.03 106.167 900.5 106.167ZM1065.03 131.003 1057.03 147.003 1049.03 131.003Z" fill="#71B790"/><path d="M0-2.66667 17.0976-2.66667 19.6872 38.4691 14.3644 38.8042 11.9321 0.167541 14.5935 2.66667 0 2.66667ZM17.8733 30.2466 29.1871 44.103 11.3137 44.8402Z" fill="#71B790" transform="matrix(-1 1.22465e-16 1.22465e-16 1 217.687 181.5)"/><path d="M605.5 178.833 708.032 178.833 708.032 212.867 702.698 212.867 702.698 181.5 705.365 184.167 605.5 184.167ZM713.365 210.201 705.365 226.201 697.365 210.201Z" fill="#71B790"/><path d="M708.404 287.5 708.404 340.62 446.833 340.62 446.833 335.286 705.738 335.286 703.071 337.953 703.071 287.5ZM449.5 345.953 433.5 337.953 449.5 329.953Z" fill="#71B790"/><path d="M0-2.66667 27.3466-2.66667 27.3466 188.227 22.0132 188.227 22.0132 0 24.6799 2.66667 0 2.66667ZM32.6799 185.56 24.6799 201.56 16.6799 185.56Z" fill="#71B790" transform="matrix(1.83697e-16 1 1 -1.83697e-16 188.5 313.5)"/><path d="M414.167 349.5 414.167 368.655 408.833 368.655 408.833 349.5ZM419.5 365.989 411.5 381.989 403.5 365.989Z" fill="#71B790"/><path d="M414.167 427.5 414.167 443.692 408.833 443.692 408.833 427.5ZM419.5 441.025 411.5 457.025 403.5 441.025Z" fill="#71B790"/><path d="M414.167 511.5 414.167 535.738 408.833 535.738 408.833 511.5ZM419.5 533.071 411.5 549.071 403.5 533.071Z" fill="#71B790"/><path d="M0-2.66667 27.8902-2.66667 27.8902 324.809 22.5569 324.809 22.5569 0 25.2235 2.66667 0 2.66667ZM33.2235 322.142 25.2235 338.142 17.2235 322.142Z" fill="#71B790" transform="matrix(1.83697e-16 1 1 -1.83697e-16 411.5 603.5)"/><path d="M1059.76 208.5 1059.76 631.177 806.833 631.177 806.833 625.844 1057.09 625.844 1054.43 628.511 1054.43 208.5ZM809.5 636.511 793.5 628.511 809.5 620.511Z" fill="#71B790"/><rect x="358.5" y="75.5001" width="63" height="28" stroke="#71B790" stroke-linejoin="round" stroke-miterlimit="10" fill="none"/><text font-family="Aptos,Aptos_MSFontService,sans-serif" font-weight="400" font-size="24" transform="translate(367.399 102)">No</text><rect x="947.5" y="71.5001" width="67" height="27" stroke="#71B790" stroke-linejoin="round" stroke-miterlimit="10" fill="none"/><text font-family="Aptos,Aptos_MSFontService,sans-serif" font-weight="400" font-size="24" transform="translate(956.203 98)">Yes</text><rect x="623.5" y="149.5" width="63" height="27" stroke="#71B790" stroke-linejoin="round" stroke-miterlimit="10" fill="none"/><text font-family="Aptos,Aptos_MSFontService,sans-serif" font-weight="400" font-size="24" transform="translate(632.49 175)">No</text><rect x="123.5" y="151.5" width="67" height="27" stroke="#71B790" stroke-linejoin="round" stroke-miterlimit="10" fill="none"/><text font-family="Aptos,Aptos_MSFontService,sans-serif" font-weight="400" font-size="24" transform="translate(132.795 178)">Yes</text><path d="M2.66663-0.013639 2.83329 32.5711-2.49997 32.5984-2.66663 0.013639ZM8.15292 29.8772 0.234856 45.9179-7.84687 29.959Z" fill="#71B790" transform="matrix(-1 0 0 1 771.735 639.5)"/></g></svg>