<svg width="1280" height="720" xmlns="http://www.w3.org/2000/svg" xmlns:xlink="http://www.w3.org/1999/xlink" overflow="hidden"><defs><clipPath id="clip0"><rect x="0" y="0" width="1280" height="720"/></clipPath></defs><g clip-path="url(#clip0)"><rect x="0" y="0" width="1280" height="720" fill="#FFFFFF"/><path d="M451.5 44.5001 451.5 360.152" stroke="#000000" stroke-width="3" stroke-linecap="square" stroke-miterlimit="8" stroke-dasharray="9 3" fill="none" fill-rule="evenodd"/><path d="M783.5 39.5001 783.5 360.543" stroke="#000000" stroke-width="3" stroke-linecap="square" stroke-miterlimit="8" stroke-dasharray="9 3" fill="none" fill-rule="evenodd"/><text font-family="Aptos,Aptos_MSFontService,sans-serif" font-weight="700" font-size="24" transform="translate(221.643 45)">Application</text><text font-family="Aptos,Aptos_MSFontService,sans-serif" font-weight="700" font-size="24" transform="translate(351.623 45)">on CU</text><path d="M221.643 46.0097 417.643 46.0097 417.643 47.0097 221.643 47.0097Z" fill-rule="evenodd"/><text font-family="Aptos,Aptos_MSFontService,sans-serif" font-weight="700" font-size="24" transform="translate(838.079 52)">agrirouter</text><text font-family="Aptos,Aptos_MSFontService,sans-serif" font-weight="700" font-size="24" transform="translate(950.692 52)">BackEnd</text><path d="M838.079 52.9799 890.079 52.9799 942.079 52.9799 994.079 52.9799 1046.08 52.9799 1046.08 53.9799 994.079 53.9799 942.079 53.9799 890.079 53.9799 838.079 53.9799Z" fill-rule="evenodd"/><path d="M92 73C92 65.8203 98.0442 60 105.5 60 112.956 60 119 65.8203 119 73 119 80.1797 112.956 86 105.5 86 98.0442 86 92 80.1797 92 73Z" stroke="#000000" stroke-width="4" stroke-miterlimit="8" fill="#71B790" fill-rule="evenodd"/><path d="M40.5001 139.667C40.5001 132.395 46.3951 126.5 53.667 126.5L159.333 126.5C166.605 126.5 172.5 132.395 172.5 139.667L172.5 192.333C172.5 199.605 166.605 205.5 159.333 205.5L53.667 205.5C46.3951 205.5 40.5001 199.605 40.5001 192.333Z" stroke="#71B790" stroke-width="2.66667" stroke-miterlimit="8" fill="#FFFFFF" fill-rule="evenodd"/><text font-family="Aptos,Aptos_MSFontService,sans-serif" font-weight="400" font-size="21" transform="translate(85.7727 160)">Enter</text><text font-family="Aptos,Aptos_MSFontService,sans-serif" font-weight="400" font-size="21" transform="translate(87.4594 185)">TAN</text><path d="M234.5 149C234.5 144.306 238.306 140.5 243 140.5L420 140.5C424.694 140.5 428.5 144.306 428.5 149L428.5 183C428.5 187.694 424.694 191.5 420 191.5L243 191.5C238.306 191.5 234.5 187.694 234.5 183Z" stroke="#71B790" stroke-width="2.66667" stroke-miterlimit="8" fill="#FFFFFF" fill-rule="evenodd"/><text font-family="Aptos,Aptos_MSFontService,sans-serif" font-weight="400" font-size="19" transform="translate(256.062 160)">Create</text><text font-family="Aptos,Aptos_MSFontService,sans-serif" font-weight="400" font-size="19" transform="translate(314.215 160)">onboarding</text><text font-family="Aptos,Aptos_MSFontService,sans-serif" font-weight="400" font-size="19" transform="translate(297.569 183)">Request</text><path d="M172.5 162.833 221.951 162.833 221.951 168.167 172.5 168.167ZM219.284 157.5 235.284 165.5 219.284 173.5Z" fill="#A6A6A6"/><path d="M428.514 162.833 778.341 164.717 778.312 170.051 428.486 168.167ZM775.703 159.37 791.66 167.456 775.617 175.369Z" fill="#A6A6A6"/><path d="M108.167 86.47 108.468 113.3 103.135 113.36 102.834 86.5301ZM113.771 110.573 105.952 126.662 97.7725 110.753Z" fill="#A6A6A6"/><text font-family="Aptos,Aptos_MSFontService,sans-serif" font-weight="700" font-size="24" transform="translate(64.7961 45)">End User</text><path d="M64.7961 46.0097 162.796 46.0097 162.796 47.0097 64.7961 47.0097Z" fill-rule="evenodd"/><path d="M215.5 30.5001 215.5 367.32" stroke="#000000" stroke-width="3" stroke-linecap="square" stroke-miterlimit="8" stroke-dasharray="9 3" fill="none" fill-rule="evenodd"/><path d="M791.5 134.334C791.5 125.037 799.037 117.5 808.334 117.5L991.666 117.5C1000.96 117.5 1008.5 125.037 1008.5 134.334L1008.5 201.666C1008.5 210.963 1000.96 218.5 991.666 218.5L808.334 218.5C799.037 218.5 791.5 210.963 791.5 201.666Z" stroke="#71B790" stroke-width="2.66667" stroke-miterlimit="8" fill="#FFFFFF" fill-rule="evenodd"/><text font-family="Aptos,Aptos_MSFontService,sans-serif" font-weight="700" font-size="21" transform="translate(868.638 149)">Verify</text><text font-family="Aptos,Aptos_MSFontService,sans-serif" font-weight="700" font-size="21" transform="translate(924.125 149)">:</text><path d="M868.298 149.894 899.298 149.894 930.298 149.894 930.298 150.894 899.298 150.894 868.298 150.894Z" fill-rule="evenodd"/><text font-family="Arial,Arial_MSFontService,sans-serif" font-weight="400" font-size="21" transform="translate(805.298 174)">•</text><text font-family="Aptos,Aptos_MSFontService,sans-serif" font-weight="400" font-size="21" transform="translate(835.298 174)">TAN</text><text font-family="Arial,Arial_MSFontService,sans-serif" font-weight="400" font-size="21" transform="translate(805.298 200)">•</text><text font-family="Aptos,Aptos_MSFontService,sans-serif" font-weight="400" font-size="21" transform="translate(835.298 200)">ApplicationID</text><path d="M794.5 263.5C794.5 257.425 799.425 252.5 805.5 252.5L997.5 252.5C1003.58 252.5 1008.5 257.425 1008.5 263.5L1008.5 307.5C1008.5 313.575 1003.58 318.5 997.5 318.5L805.5 318.5C799.425 318.5 794.5 313.575 794.5 307.5Z" stroke="#71B790" stroke-width="2.66667" stroke-miterlimit="8" fill="#FFFFFF" fill-rule="evenodd"/><text font-family="Aptos,Aptos_MSFontService,sans-serif" font-weight="400" font-size="24" transform="translate(817.202 293)">Create Endpoint</text><path d="M1008.5 164.833 1035.17 164.833 1035.17 287.892 1023.17 287.892 1023.17 282.559 1032.5 282.559 1029.83 285.226 1029.83 167.5 1032.5 170.167 1008.5 170.167ZM1025.83 293.226 1009.83 285.226 1025.83 277.226Z" fill="#A6A6A6"/><path d="M794.702 288.383 452.817 286.25 452.85 280.917 794.735 283.05ZM455.45 291.6 439.5 283.5 455.55 275.6Z" fill="#A6A6A6"/><path d="M234.5 263.5C234.5 257.977 238.977 253.5 244.5 253.5L429.5 253.5C435.023 253.5 439.5 257.977 439.5 263.5L439.5 303.5C439.5 309.023 435.023 313.5 429.5 313.5L244.5 313.5C238.977 313.5 234.5 309.023 234.5 303.5Z" stroke="#71B790" stroke-width="2.66667" stroke-miterlimit="8" fill="#FFFFFF" fill-rule="evenodd"/><text font-family="Aptos,Aptos_MSFontService,sans-serif" font-weight="400" font-size="21" transform="translate(256.61 277)">Store</text><text font-family="Aptos,Aptos_MSFontService,sans-serif" font-weight="400" font-size="21" transform="translate(309.543 277)">information</text><text font-family="Aptos,Aptos_MSFontService,sans-serif" font-weight="400" font-size="21" transform="translate(248.803 302)">for</text><text font-family="Aptos,Aptos_MSFontService,sans-serif" font-weight="400" font-size="21" transform="translate(278.363 302)">communication</text></g></svg>