<svg width="1280" height="720" xmlns="http://www.w3.org/2000/svg" xmlns:xlink="http://www.w3.org/1999/xlink" overflow="hidden"><defs><clipPath id="clip0"><rect x="0" y="0" width="1280" height="720"/></clipPath></defs><g clip-path="url(#clip0)"><rect x="0" y="0" width="1280" height="720" fill="#FFFFFF"/><path d="M446.5 37.5001 446.5 1274.11" stroke="#71B790" stroke-width="3" stroke-linecap="square" stroke-miterlimit="8" stroke-dasharray="9 3" fill="none" fill-rule="evenodd"/><path d="M892.5 33.5001 892.5 1239.05" stroke="#71B790" stroke-width="3" stroke-linecap="square" stroke-miterlimit="8" stroke-dasharray="9 3" fill="none" fill-rule="evenodd"/><text font-family="Aptos,Aptos_MSFontService,sans-serif" font-weight="700" font-size="24" transform="translate(183.021 45)">Farming Software</text><path d="M183.021 46.0097 230.771 46.0097 278.521 46.0097 326.271 46.0097 374.021 46.0097 374.021 47.0097 326.271 47.0097 278.521 47.0097 230.771 47.0097 183.021 47.0097Z" fill-rule="evenodd"/><text font-family="Aptos,Aptos_MSFontService,sans-serif" font-weight="700" font-size="24" transform="translate(183.021 74)">FrontEnd</text><path d="M183.021 75.0097 232.521 75.0097 282.021 75.0097 282.021 76.0097 232.521 76.0097 183.021 76.0097Z" fill-rule="evenodd"/><text font-family="Aptos,Aptos_MSFontService,sans-serif" font-weight="700" font-size="24" transform="translate(578.821 45)">Farmin</text><text font-family="Aptos,Aptos_MSFontService,sans-serif" font-weight="700" font-size="24" transform="translate(659.741 45)">Software</text><path d="M578.821 46.0097 624.821 46.0097 670.821 46.0097 716.821 46.0097 762.821 46.0097 762.821 47.0097 716.821 47.0097 670.821 47.0097 624.821 47.0097 578.821 47.0097Z" fill-rule="evenodd"/><text font-family="Aptos,Aptos_MSFontService,sans-serif" font-weight="700" font-size="24" transform="translate(578.821 74)">BackEnd</text><path d="M578.821 75.0097 626.821 75.0097 674.821 75.0097 674.821 76.0097 626.821 76.0097 578.821 76.0097Z" fill-rule="evenodd"/><text font-family="Aptos,Aptos_MSFontService,sans-serif" font-weight="700" font-size="24" transform="translate(988.01 45)">agrirouter</text><text font-family="Aptos,Aptos_MSFontService,sans-serif" font-weight="700" font-size="24" transform="translate(1100.62 45)">BackEnd</text><path d="M988.01 46.0097 1057.34 46.0097 1126.68 46.0097 1196.01 46.0097 1196.01 47.0097 1126.68 47.0097 1057.34 47.0097 988.01 47.0097Z" fill-rule="evenodd"/><path d="M0.500053 152.834C0.500053 146.574 5.57423 141.5 11.8336 141.5L156.167 141.5C162.426 141.5 167.5 146.574 167.5 152.834L167.5 198.167C167.5 204.426 162.426 209.5 156.167 209.5L11.8336 209.5C5.57423 209.5 0.500053 204.426 0.500053 198.167Z" stroke="#71B790" stroke-width="2.66667" stroke-miterlimit="8" fill="#FFFFFF" fill-rule="evenodd"/><text font-family="Aptos,Aptos_MSFontService,sans-serif" font-weight="400" font-size="21" transform="translate(61.302 169)">Start</text><text font-family="Aptos,Aptos_MSFontService,sans-serif" font-weight="400" font-size="21" transform="translate(21.6554 194)">Authorization</text><path d="M502.5 251.834C502.5 243.365 509.365 236.5 517.834 236.5L773.166 236.5C781.635 236.5 788.5 243.365 788.5 251.834L788.5 313.166C788.5 321.635 781.635 328.5 773.166 328.5L517.834 328.5C509.365 328.5 502.5 321.635 502.5 313.166Z" stroke="#71B790" stroke-width="2.66667" stroke-miterlimit="8" fill="#FFFFFF" fill-rule="evenodd"/><text font-family="Aptos,Aptos_MSFontService,sans-serif" font-weight="400" font-size="21" transform="translate(558.193 277)">Call</text><text font-family="Aptos,Aptos_MSFontService,sans-serif" font-weight="400" font-size="21" transform="translate(599.693 277)">agrirouter</text><text font-family="Aptos,Aptos_MSFontService,sans-serif" font-weight="400" font-size="21" transform="translate(693.793 277)">URL</text><text font-family="Aptos,Aptos_MSFontService,sans-serif" font-weight="400" font-size="21" transform="translate(537.193 302)">/</text><text font-family="Aptos,Aptos_MSFontService,sans-serif" font-weight="400" font-size="21" transform="translate(544.153 302)">register</text><text font-family="Aptos,Aptos_MSFontService,sans-serif" font-weight="400" font-size="21" transform="translate(612.96 302)">/</text><text font-family="Aptos,Aptos_MSFontService,sans-serif" font-weight="400" font-size="21" transform="translate(618.846 302)">onboard</text><text font-family="Aptos,Aptos_MSFontService,sans-serif" font-weight="400" font-size="21" transform="translate(696.553 302)">/</text><text font-family="Aptos,Aptos_MSFontService,sans-serif" font-weight="400" font-size="21" transform="translate(703.513 302)">verify</text><path d="M945.5 319.167C945.5 315.485 948.485 312.5 952.167 312.5L1146.83 312.5C1150.52 312.5 1153.5 315.485 1153.5 319.167L1153.5 345.833C1153.5 349.515 1150.52 352.5 1146.83 352.5L952.167 352.5C948.485 352.5 945.5 349.515 945.5 345.833Z" stroke="#71B790" stroke-width="2.66667" stroke-miterlimit="8" fill="#FFFFFF" fill-rule="evenodd"/><text font-family="Aptos,Aptos_MSFontService,sans-serif" font-weight="400" font-size="21" transform="translate(967.538 339)">Return</text><text font-family="Aptos,Aptos_MSFontService,sans-serif" font-weight="400" font-size="21" transform="translate(1033.87 339)">accountID</text><path d="M167.502 172.833 183.502 172.845 183.498 178.178 167.498 178.167ZM188.835 172.849 204.835 172.861 204.831 178.194 188.831 178.182ZM210.169 172.864 226.169 172.876 226.165 178.209 210.165 178.198ZM231.502 172.88 247.502 172.892 247.498 178.225 231.498 178.213ZM252.835 172.895 268.835 172.907 268.831 178.24 252.831 178.229ZM274.169 172.911 290.169 172.923 290.165 178.256 274.165 178.244ZM295.502 172.927 311.502 172.938 311.498 178.271 295.498 178.26ZM316.835 172.942 332.835 172.954 332.831 178.287 316.831 178.275ZM338.169 172.958 354.169 172.969 354.165 178.303 338.165 178.291ZM359.502 172.973 375.502 172.985 375.498 178.318 359.498 178.306ZM380.835 172.989 396.835 173 396.831 178.334 380.831 178.322ZM402.169 173.004 418.169 173.016 418.165 178.349 402.165 178.337ZM423.502 173.02 439.502 173.031 439.498 178.365 423.498 178.353ZM444.835 173.035 460.835 173.047 460.831 178.38 444.831 178.369ZM466.169 173.051 482.169 173.062 482.165 178.396 466.165 178.384ZM487.502 173.066 489.479 173.068 489.475 178.401 487.498 178.4ZM486.817 167.732 502.811 175.744 486.805 183.732Z" fill="#7F7F7F"/><path d="M0.0205536-2.66659 139.309-1.59298 139.268 3.7402-0.0205536 2.66659ZM136.684-6.9467 152.622 1.17638 136.56 9.05282Z" fill="#7F7F7F" transform="matrix(1 0 0 -1 788.5 282.676)"/><text font-family="Aptos,Aptos_MSFontService,sans-serif" font-weight="700" font-size="24" transform="translate(34.7309 45)">End User</text><path d="M34.7309 46.0097 59.2309 46.0097 83.7309 46.0097 108.231 46.0097 132.731 46.0097 132.731 47.0097 108.231 47.0097 83.7309 47.0097 59.2309 47.0097 34.7309 47.0097Z" fill-rule="evenodd"/><path d="M0 0 3.17869 1282.37" stroke="#71B790" stroke-width="3" stroke-linecap="square" stroke-miterlimit="8" stroke-dasharray="9 3" fill="none" fill-rule="evenodd" transform="matrix(-1 0 0 1 170.679 26.5001)"/><path d="M941.5 244.334C941.5 231.171 952.171 220.5 965.334 220.5L1162.67 220.5C1175.83 220.5 1186.5 231.171 1186.5 244.334L1186.5 339.666C1186.5 352.829 1175.83 363.5 1162.67 363.5L965.334 363.5C952.171 363.5 941.5 352.829 941.5 339.666Z" stroke="#71B790" stroke-width="2.66667" stroke-miterlimit="8" fill="#FFFFFF" fill-rule="evenodd"/><text font-family="Aptos,Aptos_MSFontService,sans-serif" font-weight="700" font-size="21" transform="translate(1032.33 260)">Verify</text><text font-family="Aptos,Aptos_MSFontService,sans-serif" font-weight="400" font-size="21" transform="translate(1087.82 260)">:</text><path d="M1032.49 261.436 1059.99 261.436 1087.49 261.436 1087.49 262.436 1059.99 262.436 1032.49 262.436Z" fill-rule="evenodd"/><text font-family="Arial,Arial_MSFontService,sans-serif" font-weight="400" font-size="21" transform="translate(957.494 285)">•</text><text font-family="Aptos,Aptos_MSFontService,sans-serif" font-weight="400" font-size="21" transform="translate(987.494 285)">Registration Code</text><text font-family="Arial,Arial_MSFontService,sans-serif" font-weight="400" font-size="21" transform="translate(957.494 311)">•</text><text font-family="Aptos,Aptos_MSFontService,sans-serif" font-weight="400" font-size="21" transform="translate(987.494 311)">ApplicationID</text><text font-family="Arial,Arial_MSFontService,sans-serif" font-weight="400" font-size="21" transform="translate(957.494 336)">•</text><text font-family="Aptos,Aptos_MSFontService,sans-serif" font-weight="400" font-size="21" transform="translate(987.494 336)">Signature</text><path d="M0 2.66667-24.0001 2.66667-21.3334 0-21.3334 40.5694-24.0001 37.9028 19.2481 37.9028 19.2481 43.2361-26.6668 43.2361-26.6668-2.66667 0-2.66667ZM16.5814 32.5694 32.5814 40.5694 16.5814 48.5694Z" fill="#7F7F7F" transform="matrix(-1 0 0 1 1188.08 292.5)"/><path d="M208.5 441C208.5 436.306 212.306 432.5 217 432.5L365 432.5C369.694 432.5 373.5 436.306 373.5 441L373.5 475C373.5 479.694 369.694 483.5 365 483.5L217 483.5C212.306 483.5 208.5 479.694 208.5 475Z" stroke="#71B790" stroke-width="2.66667" stroke-miterlimit="8" fill="#FFFFFF" fill-rule="evenodd"/><text font-family="Aptos,Aptos_MSFontService,sans-serif" font-weight="400" font-size="21" transform="translate(240.487 465)">Show</text><text font-family="Aptos,Aptos_MSFontService,sans-serif" font-weight="400" font-size="21" transform="translate(295.613 465)">error</text><path d="M503.5 457.5 516.5 431.5 750.5 431.5 763.5 457.5 750.5 483.5 516.5 483.5Z" stroke="#71B790" stroke-width="2.66667" stroke-miterlimit="8" fill="#FFFFFF" fill-rule="evenodd"/><text font-family="Aptos,Aptos_MSFontService,sans-serif" font-weight="400" font-size="21" transform="translate(561.521 455)">Account</text><text font-family="Aptos,Aptos_MSFontService,sans-serif" font-weight="400" font-size="21" transform="translate(643.188 455)">known</text><text font-family="Aptos,Aptos_MSFontService,sans-serif" font-weight="400" font-size="16" transform="translate(569.668 475)">For</text><text font-family="Aptos,Aptos_MSFontService,sans-serif" font-weight="400" font-size="16" transform="translate(595.301 475)">different</text><text font-family="Aptos,Aptos_MSFontService,sans-serif" font-weight="400" font-size="16" transform="translate(657.048 475)">user</text><text font-family="Aptos,Aptos_MSFontService,sans-serif" font-weight="400" font-size="16" transform="translate(687.995 475)">?</text><path d="M633 429C633 427.895 634.119 427 635.5 427 636.881 427 638 427.895 638 429 638 430.105 636.881 431 635.5 431 634.119 431 633 430.105 633 429Z" stroke="#71B790" stroke-width="2" stroke-miterlimit="8" fill="none" fill-rule="evenodd"/><path d="M0-2.66667 313.937-2.66667 313.937 81.838 308.604 81.838 308.604 0 311.27 2.66667 0 2.66667ZM319.27 79.1713 311.27 95.1713 303.27 79.1713Z" fill="#7F7F7F" transform="matrix(-1 1.22465e-16 1.22465e-16 1 945.77 332.5)"/><path d="M0.00666788-2.66666 117.001-2.37412 116.988 2.9592-0.00666788 2.66666ZM114.348-7.7141 130.328 0.325879 114.308 8.28585Z" fill="#FF7C80" transform="matrix(-1 0 0 1 503.828 457.5)"/><text font-family="Aptos,Aptos_MSFontService,sans-serif" font-weight="400" font-size="24" transform="translate(465.917 444)">No</text><path d="M503.5 521C503.5 512.992 509.992 506.5 518 506.5L816 506.5C824.008 506.5 830.5 512.992 830.5 521L830.5 579C830.5 587.008 824.008 593.5 816 593.5L518 593.5C509.992 593.5 503.5 587.008 503.5 579Z" stroke="#71B790" stroke-width="2.66667" stroke-miterlimit="8" fill="#FFFFFF" fill-rule="evenodd"/><text font-family="Aptos,Aptos_MSFontService,sans-serif" font-weight="400" font-size="21" transform="translate(579.775 544)">Call</text><text font-family="Aptos,Aptos_MSFontService,sans-serif" font-weight="400" font-size="21" transform="translate(621.275 544)">agrirouter</text><text font-family="Aptos,Aptos_MSFontService,sans-serif" font-weight="400" font-size="21" transform="translate(715.375 544)">URL</text><text font-family="Aptos,Aptos_MSFontService,sans-serif" font-weight="400" font-size="21" transform="translate(548.375 569)">/</text><text font-family="Aptos,Aptos_MSFontService,sans-serif" font-weight="400" font-size="21" transform="translate(555.335 569)">register</text><text font-family="Aptos,Aptos_MSFontService,sans-serif" font-weight="400" font-size="21" transform="translate(624.142 569)">/</text><text font-family="Aptos,Aptos_MSFontService,sans-serif" font-weight="400" font-size="21" transform="translate(630.028 569)">onboard</text><text font-family="Aptos,Aptos_MSFontService,sans-serif" font-weight="400" font-size="21" transform="translate(707.735 569)">/</text><text font-family="Aptos,Aptos_MSFontService,sans-serif" font-weight="400" font-size="21" transform="translate(714.695 569)">request</text><path d="M0 2.66667-45.8383 2.66667-43.1716 0-43.1716 37.3985-45.8383 34.7318 296.382 34.7318 296.382 95.1024 273.04 95.1024 273.04 89.769 293.715 89.769 291.048 92.4357 291.048 37.3985 293.715 40.0652-48.5049 40.0652-48.5049-2.66667 0-2.66667ZM275.706 100.436 259.706 92.4357 275.706 84.4357Z" fill="#71B790" transform="matrix(-1 0 0 1 763.206 457.5)"/><text font-family="Aptos,Aptos_MSFontService,sans-serif" font-weight="400" font-size="24" transform="translate(783.395 445)">Yes</text><path d="M923.5 481C923.5 468.574 933.574 458.5 946 458.5L1149 458.5C1161.43 458.5 1171.5 468.574 1171.5 481L1171.5 571C1171.5 583.426 1161.43 593.5 1149 593.5L946 593.5C933.574 593.5 923.5 583.426 923.5 571Z" stroke="#71B790" stroke-width="2.66667" stroke-miterlimit="8" fill="#FFFFFF" fill-rule="evenodd"/><text font-family="Aptos,Aptos_MSFontService,sans-serif" font-weight="700" font-size="21" transform="translate(1015.95 494)">Verify</text><text font-family="Aptos,Aptos_MSFontService,sans-serif" font-weight="700" font-size="21" transform="translate(1071.43 494)">:</text><path d="M1015.86 495.322 1046.86 495.322 1077.86 495.322 1077.86 496.322 1046.86 496.322 1015.86 496.322Z" fill-rule="evenodd"/><text font-family="Arial,Arial_MSFontService,sans-serif" font-weight="400" font-size="21" transform="translate(938.861 519)">•</text><text font-family="Aptos,Aptos_MSFontService,sans-serif" font-weight="400" font-size="21" transform="translate(968.861 519)">Signature</text><text font-family="Arial,Arial_MSFontService,sans-serif" font-weight="400" font-size="21" transform="translate(938.861 545)">•</text><text font-family="Aptos,Aptos_MSFontService,sans-serif" font-weight="400" font-size="21" transform="translate(968.861 545)">Registration Code</text><text font-family="Arial,Arial_MSFontService,sans-serif" font-weight="400" font-size="21" transform="translate(938.861 570)">•</text><text font-family="Aptos,Aptos_MSFontService,sans-serif" font-weight="400" font-size="21" transform="translate(968.861 570)">ApplicationID</text><path d="M832.518 556.833 909.092 557.334 909.057 562.667 832.483 562.167ZM906.46 551.984 922.408 560.088 906.356 567.983Z" fill="#7F7F7F"/><path d="M927.5 628C927.5 619.992 933.992 613.5 942 613.5L1157 613.5C1165.01 613.5 1171.5 619.992 1171.5 628L1171.5 686C1171.5 694.008 1165.01 700.5 1157 700.5L942 700.5C933.992 700.5 927.5 694.008 927.5 686Z" stroke="#71B790" stroke-width="2.66667" stroke-miterlimit="8" fill="#FFFFFF" fill-rule="evenodd"/><text font-family="Aptos,Aptos_MSFontService,sans-serif" font-weight="400" font-size="24" transform="translate(964.77 664)">Create Endpoint</text><path d="M0 2.66667-24 2.66667-21.3333 0-21.3333 130.968-24 128.301-13.3329 128.301-13.3329 133.634-26.6667 133.634-26.6667-2.66667 0-2.66667ZM-15.9996 122.968 0.000419947 130.968-15.9996 138.968Z" fill="#7F7F7F" transform="matrix(-1 0 0 1 1171.5 526.5)"/><path d="M527.5 626.334C527.5 616.484 535.484 608.5 545.334 608.5L777.667 608.5C787.516 608.5 795.5 616.484 795.5 626.334L795.5 697.667C795.5 707.516 787.516 715.5 777.667 715.5L545.334 715.5C535.484 715.5 527.5 707.516 527.5 697.667Z" stroke="#71B790" stroke-width="2.66667" stroke-miterlimit="8" fill="#FFFFFF" fill-rule="evenodd"/><text font-family="Aptos,Aptos_MSFontService,sans-serif" font-weight="400" font-size="21" transform="translate(566.179 643)">Store</text><text font-family="Aptos,Aptos_MSFontService,sans-serif" font-weight="400" font-size="21" transform="translate(619.112 643)">information</text><text font-family="Aptos,Aptos_MSFontService,sans-serif" font-weight="400" font-size="21" transform="translate(730.652 643)">for</text><text font-family="Aptos,Aptos_MSFontService,sans-serif" font-weight="400" font-size="21" transform="translate(608.065 668)">Revoke</text><text font-family="Aptos,Aptos_MSFontService,sans-serif" font-weight="400" font-size="21" transform="translate(678.825 668)">and</text><text font-family="Aptos,Aptos_MSFontService,sans-serif" font-weight="400" font-size="21" transform="translate(586.099 694)">Communication</text><path d="M925.105 657.519 812.781 655.416 812.881 650.083 925.205 652.187ZM815.347 660.798 799.5 652.5 815.647 644.801Z" fill="#7F7F7F"/><path d="M502.5 149.5C502.5 142.32 508.32 136.5 515.5 136.5L774.5 136.5C781.68 136.5 787.5 142.32 787.5 149.5L787.5 201.5C787.5 208.68 781.68 214.5 774.5 214.5L515.5 214.5C508.32 214.5 502.5 208.68 502.5 201.5Z" stroke="#71B790" stroke-width="2.66667" stroke-miterlimit="8" fill="#FFFFFF" fill-rule="evenodd"/><text font-family="Aptos,Aptos_MSFontService,sans-serif" font-weight="400" font-size="21" transform="translate(518.418 170)">Use Registration Code</text><text font-family="Aptos,Aptos_MSFontService,sans-serif" font-weight="400" font-size="21" transform="translate(727.284 170)">from</text><text font-family="Aptos,Aptos_MSFontService,sans-serif" font-weight="400" font-size="21" transform="translate(582.851 195)">Authorization</text><path d="M648.166 214.435 648.38 223.205 643.048 223.335 642.834 214.565ZM653.646 220.409 646.039 236.599 637.651 220.799Z" fill="#71B790"/><path d="M149 288 279.667 288 279.667 288 335.667 288 373 288 373 369.083 494.863 476.93 373 403.833 373 427 335.667 427 279.667 427 279.667 427 149 427 149 403.833 149 369.083 149 369.083Z" stroke="#71B790" stroke-width="2" stroke-miterlimit="8" fill="#D9D9D9" fill-rule="evenodd"/><text font-family="Aptos,Aptos_MSFontService,sans-serif" font-weight="400" font-size="19" transform="translate(159.798 341)">Useful</text><text font-family="Aptos,Aptos_MSFontService,sans-serif" font-weight="400" font-size="19" transform="translate(212.278 341)">,</text><text font-family="Aptos,Aptos_MSFontService,sans-serif" font-weight="400" font-size="19" transform="translate(221.445 341)">if</text><text font-family="Aptos,Aptos_MSFontService,sans-serif" font-weight="400" font-size="19" transform="translate(235.445 341)">app</text><text font-family="Aptos,Aptos_MSFontService,sans-serif" font-weight="400" font-size="19" transform="translate(270.278 341)">can</text><text font-family="Aptos,Aptos_MSFontService,sans-serif" font-weight="400" font-size="19" transform="translate(304.171 341)">only</text><text font-family="Aptos,Aptos_MSFontService,sans-serif" font-weight="400" font-size="19" transform="translate(342.005 341)">be</text><text font-family="Aptos,Aptos_MSFontService,sans-serif" font-weight="400" font-size="19" transform="translate(179.698 364)">onboarded</text><text font-family="Aptos,Aptos_MSFontService,sans-serif" font-weight="400" font-size="19" transform="translate(271.778 364)">once</text><text font-family="Aptos,Aptos_MSFontService,sans-serif" font-weight="400" font-size="19" transform="translate(315.945 364)">per</text><text font-family="Aptos,Aptos_MSFontService,sans-serif" font-weight="400" font-size="19" transform="translate(227.651 386)">account</text></g></svg>