<svg width="1280" height="720" xmlns="http://www.w3.org/2000/svg" xmlns:xlink="http://www.w3.org/1999/xlink" overflow="hidden"><defs><clipPath id="clip0"><rect x="0" y="0" width="1280" height="720"/></clipPath></defs><g clip-path="url(#clip0)"><rect x="0" y="0" width="1280" height="720" fill="#FFFFFF"/><text font-family="Aptos,Aptos_MSFontService,sans-serif" font-weight="400" font-size="24" transform="translate(460.545 256)">Return</text><text font-family="Aptos,Aptos_MSFontService,sans-serif" font-weight="400" font-size="24" transform="translate(534.878 256)">Result</text><path d="M264.5 88.8334 923.713 88.8335 923.713 94.1668 264.5 94.1667ZM921.046 83.5002 937.046 91.5002 921.046 99.5002Z" fill="#A6A6A6"/><path d="M4.16277e-07-2.66667 21.3333-2.66666 21.3333 2.66667-4.16277e-07 2.66667ZM37.3333-2.66666 58.6667-2.66666 58.6667 2.66668 37.3333 2.66667ZM74.6667-2.66665 96-2.66665 96 2.66668 74.6667 2.66668ZM112-2.66665 133.333-2.66665 133.333 2.66669 112 2.66668ZM149.333-2.66664 170.667-2.66664 170.667 2.66669 149.333 2.66669ZM186.667-2.66664 208-2.66663 208 2.6667 186.667 2.6667ZM224-2.66663 245.333-2.66663 245.333 2.6667 224 2.6667ZM261.333-2.66663 282.667-2.66662 282.667 2.66671 261.333 2.66671ZM298.667-2.66662 320-2.66662 320 2.66672 298.667 2.66671ZM336-2.66661 357.333-2.66661 357.333 2.66672 336 2.66672ZM373.333-2.66661 394.667-2.6666 394.667 2.66673 373.333 2.66672ZM410.667-2.6666 432-2.6666 432 2.66673 410.667 2.66673ZM448-2.6666 469.333-2.66659 469.333 2.66674 448 2.66674ZM485.333-2.66659 506.667-2.66659 506.667 2.66675 485.333 2.66674ZM522.667-2.66658 544-2.66658 544 2.66675 522.667 2.66675ZM560-2.66658 581.333-2.66658 581.333 2.66676 560 2.66675ZM597.333-2.66657 618.667-2.66657 618.667 2.66676 597.333 2.66676ZM634.667-2.66657 656-2.66656 656 2.66677 634.667 2.66677ZM656.546-7.9999 672.546 0.000104987 656.546 8.0001Z" fill="#A6A6A6" transform="matrix(-1 0 0 1 937.046 171.5)"/><text font-family="Aptos,Aptos_MSFontService,sans-serif" font-weight="400" font-size="24" transform="translate(507.063 86)">Request: Command</text><text font-family="Aptos,Aptos_MSFontService,sans-serif" font-weight="400" font-size="24" transform="translate(508.904 166)">Response:</text><text font-family="Aptos,Aptos_MSFontService,sans-serif" font-weight="400" font-size="24" transform="translate(623.571 166)">Could</text><text font-family="Aptos,Aptos_MSFontService,sans-serif" font-weight="400" font-size="24" transform="translate(691.238 166)">be</text><text font-family="Aptos,Aptos_MSFontService,sans-serif" font-weight="400" font-size="24" transform="translate(722.238 166)">processed</text><text font-family="Aptos,Aptos_MSFontService,sans-serif" font-weight="400" font-size="24" transform="translate(831.411 166)">?</text><path d="M263.5 414.833 922.713 414.833 922.713 420.167 263.5 420.167ZM920.046 409.5 936.046 417.5 920.046 425.5Z" fill="#A6A6A6"/><path d="M4.16277e-07-2.66667 21.3333-2.66666 21.3333 2.66667-4.16277e-07 2.66667ZM37.3333-2.66666 58.6667-2.66666 58.6667 2.66668 37.3333 2.66667ZM74.6667-2.66665 96-2.66665 96 2.66668 74.6667 2.66668ZM112-2.66665 133.333-2.66665 133.333 2.66669 112 2.66668ZM149.333-2.66664 170.667-2.66664 170.667 2.66669 149.333 2.66669ZM186.667-2.66664 208-2.66663 208 2.6667 186.667 2.6667ZM224-2.66663 245.333-2.66663 245.333 2.6667 224 2.6667ZM261.333-2.66663 282.667-2.66662 282.667 2.66671 261.333 2.66671ZM298.667-2.66662 320-2.66662 320 2.66672 298.667 2.66671ZM336-2.66661 357.333-2.66661 357.333 2.66672 336 2.66672ZM373.333-2.66661 394.667-2.6666 394.667 2.66673 373.333 2.66672ZM410.667-2.6666 432-2.6666 432 2.66673 410.667 2.66673ZM448-2.6666 469.333-2.66659 469.333 2.66674 448 2.66674ZM485.333-2.66659 506.667-2.66659 506.667 2.66675 485.333 2.66674ZM522.667-2.66658 544-2.66658 544 2.66675 522.667 2.66675ZM560-2.66658 581.333-2.66658 581.333 2.66676 560 2.66675ZM597.333-2.66657 618.667-2.66657 618.667 2.66676 597.333 2.66676ZM634.667-2.66657 656-2.66656 656 2.66677 634.667 2.66677ZM656.546-7.9999 672.546 0.000104987 656.546 8.0001Z" fill="#A6A6A6" transform="matrix(-1 0 0 1 936.046 497.5)"/><text font-family="Aptos,Aptos_MSFontService,sans-serif" font-weight="400" font-size="24" transform="translate(505.701 413)">Request:</text><text font-family="Aptos,Aptos_MSFontService,sans-serif" font-weight="400" font-size="24" transform="translate(603.394 413)">Confirm</text><text font-family="Aptos,Aptos_MSFontService,sans-serif" font-weight="400" font-size="24" transform="translate(692.561 413)">message</text><text font-family="Aptos,Aptos_MSFontService,sans-serif" font-weight="400" font-size="24" transform="translate(790.888 413)">reception</text><text font-family="Aptos,Aptos_MSFontService,sans-serif" font-weight="400" font-size="24" transform="translate(507.542 492)">Response:</text><text font-family="Aptos,Aptos_MSFontService,sans-serif" font-weight="400" font-size="24" transform="translate(627.042 492)">Could</text><text font-family="Aptos,Aptos_MSFontService,sans-serif" font-weight="400" font-size="24" transform="translate(694.709 492)">be</text><text font-family="Aptos,Aptos_MSFontService,sans-serif" font-weight="400" font-size="24" transform="translate(725.709 492)">processed</text><text font-family="Aptos,Aptos_MSFontService,sans-serif" font-weight="400" font-size="24" transform="translate(834.882 492)">?</text><rect x="122.5" y="62.5001" width="142" height="613" stroke="#71B790" stroke-width="2.66667" stroke-miterlimit="8" fill="none"/><text font-family="Aptos,Aptos_MSFontService,sans-serif" font-weight="400" font-size="24" transform="translate(172.588 89)">App</text><text font-family="Aptos,Aptos_MSFontService,sans-serif" font-weight="400" font-size="24" transform="translate(148.208 118)">Instance</text><rect x="937.5" y="62.5001" width="183" height="613" stroke="#71B790" stroke-width="2.66667" stroke-miterlimit="8" fill="none"/><text font-family="Aptos,Aptos_MSFontService,sans-serif" font-weight="400" font-size="24" transform="translate(981.917 89)">Endpoint</text><path d="M939.5 91.5001C954.136 91.5001 966 100.454 966 111.5L966 111.5C966 122.546 977.865 131.5 992.5 131.5 977.865 131.5 966 140.454 966 151.5L966 151.5C966 162.546 954.136 171.5 939.5 171.5" stroke="#A6A6A6" stroke-width="5.33333" stroke-linecap="square" stroke-miterlimit="8" stroke-dasharray="16 5.33333" fill="none" fill-rule="evenodd"/><text font-family="Aptos,Aptos_MSFontService,sans-serif" font-weight="400" font-size="24" transform="translate(1029.5 130)">Inbox</text><path d="M426 65C426 52.8497 441.446 43 460.5 43 479.554 43 495 52.8497 495 65 495 77.1503 479.554 87 460.5 87 441.446 87 426 77.1503 426 65Z" stroke="#000000" stroke-width="2" stroke-miterlimit="8" fill="#71B790" fill-rule="evenodd"/><text font-family="Aptos,Aptos_MSFontService,sans-serif" font-weight="400" font-size="24" transform="translate(444.155 73)">1.1</text><path d="M423 141C423 127.745 439.789 117 460.5 117 481.211 117 498 127.745 498 141 498 154.255 481.211 165 460.5 165 439.789 165 423 154.255 423 141Z" stroke="#000000" stroke-width="2" stroke-miterlimit="8" fill="#71B790" fill-rule="evenodd"/><text font-family="Aptos,Aptos_MSFontService,sans-serif" font-weight="400" font-size="24" transform="translate(444.668 148)">1.2</text><path d="M937.5 184.5C952.136 184.5 964 193.454 964 204.5L964 204.5C964 215.546 975.865 224.5 990.5 224.5 975.865 224.5 964 233.454 964 244.5L964 244.5C964 255.546 952.136 264.5 937.5 264.5" stroke="#A6A6A6" stroke-width="5.33333" stroke-linecap="square" stroke-miterlimit="8" stroke-dasharray="16 5.33333" fill="none" fill-rule="evenodd"/><text font-family="Aptos,Aptos_MSFontService,sans-serif" font-weight="400" font-size="24" transform="translate(1028.14 224)">Outbox</text><path d="M937.5 417.5C952.136 417.5 964 426.454 964 437.5L964 437.5C964 448.546 975.865 457.5 990.5 457.5 975.865 457.5 964 466.454 964 477.5L964 477.5C964 488.546 952.136 497.5 937.5 497.5" stroke="#A6A6A6" stroke-width="5.33333" stroke-linecap="square" stroke-miterlimit="8" stroke-dasharray="16 5.33333" fill="none" fill-rule="evenodd"/><text font-family="Aptos,Aptos_MSFontService,sans-serif" font-weight="400" font-size="24" transform="translate(1028.14 456)">Inbox</text><path d="M416 392C416 380.954 433.237 372 454.5 372 475.763 372 493 380.954 493 392 493 403.046 475.763 412 454.5 412 433.237 412 416 403.046 416 392Z" stroke="#000000" stroke-width="2" stroke-miterlimit="8" fill="#71B790" fill-rule="evenodd"/><text font-family="Aptos,Aptos_MSFontService,sans-serif" font-weight="400" font-size="24" transform="translate(438.469 400)">3.1</text><path d="M420 467.5C420 456.73 435.894 448 455.5 448 475.106 448 491 456.73 491 467.5 491 478.27 475.106 487 455.5 487 435.894 487 420 478.27 420 467.5Z" stroke="#000000" stroke-width="2" stroke-miterlimit="8" fill="#71B790" fill-rule="evenodd"/><text font-family="Aptos,Aptos_MSFontService,sans-serif" font-weight="400" font-size="24" transform="translate(438.982 475)">3.2</text><rect x="133" y="304" width="120" height="81" stroke="#000000" stroke-width="2" stroke-miterlimit="8" fill="#FFFFFF"/><text font-family="Aptos,Aptos_MSFontService,sans-serif" font-weight="400" font-size="24" transform="translate(156.888 323)">Extract</text><text font-family="Aptos,Aptos_MSFontService,sans-serif" font-weight="400" font-size="24" transform="translate(147.122 352)">Message</text><text font-family="Aptos,Aptos_MSFontService,sans-serif" font-weight="400" font-size="24" transform="translate(174.602 381)">List</text><rect x="12" y="440" width="121" height="51" stroke="#6AAC87" stroke-width="2" stroke-miterlimit="8" fill="#BFBFBF"/><text fill="#FFFFFF" font-family="Aptos,Aptos_MSFontService,sans-serif" font-weight="400" font-size="24" transform="translate(31.1291 459)">Process</text><text fill="#FFFFFF" font-family="Aptos,Aptos_MSFontService,sans-serif" font-weight="400" font-size="24" transform="translate(25.9357 488)">message</text><path d="M196.385 385.5 196.385 468.73 146.833 468.73 146.833 463.397 193.718 463.397 191.051 466.063 191.051 385.5ZM149.5 474.063 133.5 466.063 149.5 458.063Z" fill="#A6A6A6"/><path d="M0-2.66667 33.7948-2.66667 33.7948 57.5395 28.4614 57.5395 28.4614 0 31.1281 2.66667 0 2.66667ZM39.1281 54.8729 31.1281 70.8729 23.1281 54.8729Z" fill="#A6A6A6" transform="matrix(1.83697e-16 1 1 -1.83697e-16 193.5 385.5)"/><path d="M0-2.66667 81.1445-2.66667 81.1445 29.1066 75.8111 29.1066 75.8111 0 78.4778 2.66667 0 2.66667ZM86.4778 26.4399 78.4778 42.4399 70.4778 26.4399Z" fill="#A6A6A6" transform="matrix(-1 1.22465e-16 1.22465e-16 1 271.978 261.5)"/><rect x="142" y="622" width="102" height="43" stroke="#0C445E" stroke-width="2" stroke-miterlimit="8" fill="#A6A6A6"/><text fill="#FFFFFF" font-family="Aptos,Aptos_MSFontService,sans-serif" font-weight="400" font-size="16" transform="translate(159.155 639)">Send</text><text fill="#FFFFFF" font-family="Aptos,Aptos_MSFontService,sans-serif" font-weight="400" font-size="16" transform="translate(197.822 639)">next</text><text fill="#FFFFFF" font-family="Aptos,Aptos_MSFontService,sans-serif" font-weight="400" font-size="16" transform="translate(166.608 658)">request</text><path d="M0-2.66667 65.1547-2.66667 65.1547 31.4233 59.8214 31.4233 59.8214 0 62.4881 2.66667 0 2.66667ZM70.4881 28.7566 62.4881 44.7566 54.4881 28.7566Z" fill="#A6A6A6" transform="matrix(-1 1.22465e-16 1.22465e-16 1 255.988 578.5)"/><path d="M4.16277e-07-2.66667 648.545-2.66657 648.545 2.66677-4.16277e-07 2.66667ZM645.879-13.3332 672.546 0.000104987 645.879 13.3334Z" fill="#A6A6A6" transform="matrix(-1 0 0 1 937.046 261.5)"/><path d="M409 225.5C409 214.73 419.074 206 431.5 206 443.926 206 454 214.73 454 225.5 454 236.27 443.926 245 431.5 245 419.074 245 409 236.27 409 225.5Z" stroke="#000000" stroke-width="2" stroke-miterlimit="8" fill="#71B790" fill-rule="evenodd"/><text font-family="Aptos,Aptos_MSFontService,sans-serif" font-weight="400" font-size="21" transform="translate(426.041 233)">2</text><path d="M837 217.875C837 226.938 846.254 234.853 859.5 237.119L859.5 233.369 867 241.5 859.5 248.369 859.5 244.619C846.254 242.353 837 234.438 837 225.375Z" fill="#71B790" fill-rule="evenodd"/><path d="M867 205.5C852.614 205.5 840.253 212.266 837.539 221.625 834.413 210.846 845.069 200.428 861.34 198.357 863.205 198.12 865.1 198 867 198Z" fill="#5B9374" fill-rule="evenodd"/><path d="M837 217.875C837 226.938 846.254 234.853 859.5 237.119L859.5 233.369 867 241.5 859.5 248.369 859.5 244.619C846.254 242.353 837 234.438 837 225.375L837 217.875C837 206.898 850.431 198 867 198L867 205.5C852.614 205.5 840.253 212.266 837.539 221.625" stroke="#A6A6A6" stroke-width="2" stroke-miterlimit="8" fill="none" fill-rule="evenodd"/><path d="M906.724 230.959C907.23 222.19 898.173 213.983 884.704 211.006L884.482 214.855 877.264 206.102 885.371 199.459 885.149 203.308C898.617 206.285 907.674 214.492 907.169 223.261Z" fill="#71B790" fill-rule="evenodd"/><path d="M875.267 240.716C889.897 241.561 902.879 235.858 906.323 227.074 909.127 237.677 897.793 247.216 881.008 248.381 878.965 248.523 876.893 248.534 874.823 248.415Z" fill="#5B9374" fill-rule="evenodd"/><path d="M906.724 230.959C907.23 222.19 898.173 213.983 884.704 211.006L884.482 214.855 877.264 206.102 885.371 199.459 885.149 203.308C898.617 206.285 907.674 214.492 907.169 223.261L906.724 230.959C906.112 241.581 891.829 249.396 874.823 248.415L875.267 240.716C889.897 241.561 902.879 235.858 906.323 227.074" stroke="#A6A6A6" stroke-width="2" stroke-miterlimit="8" fill="none" fill-rule="evenodd"/><path d="M4.16277e-07-2.66667 648.545-2.66657 648.545 2.66677-4.16277e-07 2.66667ZM645.879-13.3332 672.546 0.000104987 645.879 13.3334Z" fill="#A6A6A6" transform="matrix(-1 0 0 1 937.046 579.5)"/><text font-family="Aptos,Aptos_MSFontService,sans-serif" font-weight="400" font-size="24" transform="translate(472.65 558)">Return</text><text font-family="Aptos,Aptos_MSFontService,sans-serif" font-weight="400" font-size="24" transform="translate(546.983 558)">Acknowledgement</text><path d="M409 544C409 532.954 419.074 524 431.5 524 443.926 524 454 532.954 454 544 454 555.046 443.926 564 431.5 564 419.074 564 409 555.046 409 544Z" stroke="#000000" stroke-width="2" stroke-miterlimit="8" fill="#71B790" fill-rule="evenodd"/><text font-family="Aptos,Aptos_MSFontService,sans-serif" font-weight="400" font-size="21" transform="translate(426.041 551)">4</text><path d="M941.5 507.5C956.136 507.5 968 516.454 968 527.5L968 527.5C968 538.546 979.865 547.5 994.5 547.5 979.865 547.5 968 556.454 968 567.5L968 567.5C968 578.546 956.136 587.5 941.5 587.5" stroke="#A6A6A6" stroke-width="5.33333" stroke-linecap="square" stroke-miterlimit="8" stroke-dasharray="16 5.33333" fill="none" fill-rule="evenodd"/><text font-family="Aptos,Aptos_MSFontService,sans-serif" font-weight="400" font-size="24" transform="translate(1032.23 546)">Outbox</text><path d="M841 540.188C841 548.937 850.563 556.578 864.25 558.766L864.25 554.891 872 563.25 864.25 570.391 864.25 566.516C850.563 564.328 841 556.687 841 547.938Z" fill="#71B790" fill-rule="evenodd"/><path d="M872 528.75C857.292 528.75 844.609 535.147 841.639 544.062 838.181 533.684 848.971 523.535 865.739 521.395 867.799 521.132 869.897 521 872 521Z" fill="#5B9374" fill-rule="evenodd"/><path d="M841 540.188C841 548.937 850.563 556.578 864.25 558.766L864.25 554.891 872 563.25 864.25 570.391 864.25 566.516C850.563 564.328 841 556.687 841 547.938L841 540.188C841 529.591 854.879 521 872 521L872 528.75C857.292 528.75 844.609 535.147 841.639 544.062" stroke="#A6A6A6" stroke-width="2" stroke-miterlimit="8" fill="none" fill-rule="evenodd"/><path d="M910.811 553.357C911.317 544.588 902.26 536.381 888.791 533.404L888.569 537.253 881.35 528.5 889.457 521.857 889.235 525.706C902.704 528.683 911.761 536.89 911.255 545.659Z" fill="#71B790" fill-rule="evenodd"/><path d="M879.353 563.115C893.984 563.959 906.965 558.256 910.41 549.472 913.213 560.075 901.879 569.615 885.094 570.779 883.051 570.921 880.979 570.932 878.909 570.813Z" fill="#5B9374" fill-rule="evenodd"/><path d="M910.811 553.357C911.317 544.588 902.26 536.381 888.791 533.404L888.569 537.253 881.35 528.5 889.457 521.857 889.235 525.706C902.704 528.683 911.761 536.89 911.255 545.659L910.811 553.357C910.198 563.979 895.915 571.794 878.909 570.813L879.353 563.115C893.984 563.959 906.965 558.256 910.41 549.472" stroke="#A6A6A6" stroke-width="2" stroke-miterlimit="8" fill="none" fill-rule="evenodd"/></g></svg>