<svg width="1280" height="720" xmlns="http://www.w3.org/2000/svg" xmlns:xlink="http://www.w3.org/1999/xlink" overflow="hidden"><defs><clipPath id="clip0"><rect x="0" y="0" width="1280" height="720"/></clipPath><clipPath id="clip1"><rect x="378" y="250" width="469" height="469"/></clipPath><clipPath id="clip2"><rect x="378" y="250" width="469" height="469"/></clipPath><clipPath id="clip3"><rect x="378" y="250" width="469" height="469"/></clipPath></defs><g clip-path="url(#clip0)"><rect x="0" y="0" width="1280" height="720" fill="#FFFFFF"/><rect x="1128" y="288" width="131" height="403" stroke="#000000" stroke-width="2" stroke-miterlimit="8" fill="#7F7F7F"/><text fill="#FFFFFF" font-family="Calibri,Calibri_MSFontService,sans-serif" font-weight="400" font-size="27" transform="translate(1162.03 317)">App 2</text><rect x="277.5" y="288.5" width="195" height="403" stroke="#71B790" stroke-width="2.66667" stroke-miterlimit="8" fill="none"/><text font-family="Calibri,Calibri_MSFontService,sans-serif" font-weight="400" font-size="24" transform="translate(296.049 314)">Endpoint: „EP1“</text><path d="M296.522 317.494 335.522 317.494 374.522 317.494 413.522 317.494 452.522 317.494 452.522 319.494 413.522 319.494 374.522 319.494 335.522 319.494 296.522 319.494Z" fill-rule="evenodd"/><g clip-path="url(#clip1)"><g clip-path="url(#clip2)"><g clip-path="url(#clip3)"><path d="M817.828 476.422 832.638 491.232 847 476.87C842.961 353.674 743.551 254.264 620.578 250L634.94 264.362 620.13 279.172C727.169 283.211 813.564 369.382 817.828 476.422Z" fill="#D5EADE"/><path d="M392.362 462.06 407.172 476.87C411.211 369.831 497.382 283.436 604.422 279.172L619.232 264.362 604.646 250C481.674 254.039 382.264 353.449 378 476.422L392.362 462.06Z" fill="#D5EADE"/><path d="M832.638 506.94 817.828 492.13C816.032 540.376 797.632 584.359 768.01 618.692L705.178 508.062 719.091 508.062C753.424 508.062 781.25 480.236 781.25 445.903 781.25 411.569 753.424 383.744 719.091 383.744L637.184 383.744C629.106 383.744 622.598 390.251 622.598 398.33L622.598 534.093 540.018 391.149C537.325 386.661 532.613 383.968 527.452 383.968 522.29 383.968 517.354 386.661 514.885 391.149L419.739 555.86C412.333 536.112 408.07 514.794 407.172 492.578L392.362 477.768 378 492.354C382.039 615.551 481.449 714.961 604.422 719L590.06 704.638 604.87 689.828C532.389 687.135 469.332 646.743 434.998 587.725L527.676 427.277 624.842 595.579C628.208 601.189 634.94 604.106 641.223 602.311 647.507 600.516 651.995 594.906 651.995 588.174L651.995 412.916 719.315 412.916C737.492 412.916 752.302 427.726 752.302 445.903 752.302 464.079 737.492 478.89 719.315 478.89L680.269 478.89C675.108 478.89 670.396 481.583 667.703 486.071 665.01 490.559 665.01 496.169 667.703 500.657L746.917 640.01C712.808 669.407 669.049 688.032 620.803 689.828L605.992 704.638 620.354 719C743.551 714.961 842.961 615.551 847 492.578L832.638 506.94Z" fill="#D5EADE"/></g></g></g><rect x="291" y="363" width="166" height="50" stroke="#000000" stroke-width="2" stroke-miterlimit="8" fill="#71B790"/><text fill="#FFFFFF" font-family="Calibri,Calibri_MSFontService,sans-serif" font-weight="400" font-size="19" transform="translate(307.945 394)">TMT1</text><text fill="#FFFFFF" font-family="Calibri,Calibri_MSFontService,sans-serif" font-weight="400" font-size="19" transform="translate(355.945 394)">to</text><text fill="#FFFFFF" font-family="Calibri,Calibri_MSFontService,sans-serif" font-weight="400" font-size="19" transform="translate(376.099 394)">PUBLISH</text><rect x="783" y="477" width="137" height="47" stroke="#000000" stroke-width="2" stroke-miterlimit="8" fill="#71B790"/><text fill="#FFFFFF" font-family="Calibri,Calibri_MSFontService,sans-serif" font-weight="400" font-size="19" transform="translate(793.115 506)">TMT1</text><text fill="#FFFFFF" font-family="Calibri,Calibri_MSFontService,sans-serif" font-weight="400" font-size="19" transform="translate(841.115 506)">from</text><text fill="#FFFFFF" font-family="Calibri,Calibri_MSFontService,sans-serif" font-weight="400" font-size="19" transform="translate(881.815 506)">EP1</text><path d="M457.612 385.836 472.6 386.466 487.508 388.369 502.206 391.473 516.586 395.591 530.458 400.785 543.694 406.801 556.31 413.711 568.047 421.388 578.902 429.767 588.702 438.676 597.314 448.181 604.645 458.063 607.807 463.16 610.637 468.371 613.028 473.603 615.028 478.961 616.652 484.35 617.757 489.812 618.471 495.263 618.726 500.623 618.976 505.873 618.957 505.654 619.644 510.904 619.614 510.721 620.676 515.971 620.616 515.731 622.178 520.918 622.123 520.755 624.061 525.942 623.988 525.767 626.301 530.83 626.218 530.665 628.968 535.727 628.891 535.594 631.954 540.532 631.829 540.349 639.017 550.036 638.851 549.835 647.289 559.147 647.106 558.964 656.731 567.714 656.567 567.577 667.255 575.827 667.079 575.702 678.704 583.265 678.536 583.164 690.911 589.976 690.724 589.883 703.849 595.82 703.685 595.753 717.373 600.878 717.175 600.812 731.3 604.875 731.114 604.828 745.614 607.891 745.364 607.851 761.595 609.699 760.992 614.998 744.635 613.135 729.918 610.027 715.6 605.909 701.732 600.716 688.431 594.699 675.878 587.789 664.081 580.114 653.223 571.733 643.423 562.824 634.811 553.319 627.48 543.437 624.318 538.34 621.488 533.129 619.098 527.897 617.097 522.539 615.473 517.151 614.368 511.688 613.654 506.237 613.399 500.877 613.149 495.627 613.168 495.846 612.481 490.596 612.511 490.779 611.449 485.529 611.509 485.769 609.947 480.582 610.002 480.746 608.064 475.558 608.137 475.733 605.824 470.671 605.907 470.835 603.157 465.773 603.234 465.906 600.171 460.968 600.296 461.151 593.108 451.464 593.274 451.666 584.836 442.353 585.019 442.536 575.394 433.786 575.558 433.923 564.871 425.673 565.04 425.794 553.478 418.232 553.656 418.339 541.219 411.526 541.397 411.615 528.334 405.678 528.503 405.747 514.815 400.622 515.016 400.689 500.828 396.626 501.012 396.672 486.512 393.609 486.725 393.645 472.037 391.77 472.263 391.789 457.388 391.164ZM759.001 604.233 774.613 612.967 758.259 620.216Z" fill="#A6A6A6"/><path d="M0.149577 2.66247-5.41292 2.97497-5.11931 2.94208-10.6818 3.87958-10.4159 3.82065-15.8534 5.32065-15.5974 5.23589-20.9099 7.29839-20.694 7.20337-25.8815 9.76587-25.6862 9.65906-30.5612 12.5966-30.3605 12.4629-35.048 15.9004-34.8896 15.7747-39.2646 19.5247-39.0998 19.3709-43.0998 23.4334-42.9466 23.2639-46.5716 27.6389-46.4293 27.4508-49.6168 32.0758-49.4772 31.8499-52.1647 36.7249-52.0619 36.5177-54.2494 41.4552-54.1455 41.181-55.7705 46.306-55.694 46.0048-56.694 51.1923-56.6505 50.8459-56.963 56.096-56.9651 55.7475-56.5901 60.9975-56.6506 60.5924-55.4631 65.7799-55.5484 65.4859-53.7359 70.6109-53.8649 70.3074-51.3649 75.3074-51.5135 75.0477-48.3885 79.8602-48.5262 79.6675-44.9012 84.2925-45.0598 84.1081-40.9348 88.4831-41.1152 88.309-36.4902 92.3715-36.6331 92.2545-31.6331 96.067-31.82 95.9366-26.5075 99.3116-26.6934 99.2038-21.0059 102.204-21.2059 102.109-15.3309 104.609-15.524 104.535-9.39899 106.598-9.7607 106.504-4.0239 107.574-5.0025 112.817-10.9235 111.712-17.324 109.557-23.3961 106.973-29.2767 103.871-34.7762 100.377-39.9404 96.4395-44.7291 92.2332-49.0237 87.6783-52.7969 82.8642-56.0681 77.8266-58.709 72.5448-60.6277 67.1195-61.8953 61.5823-62.2973 55.9533-61.9641 50.3545-60.9015 44.8424-59.1851 39.4291-56.8912 34.2515-54.0836 29.1587-50.7537 24.327-46.9804 19.7731-42.8211 15.5487-38.2836 11.6594-33.4172 8.09072-28.3434 5.03346-22.9502 2.36934-17.4018 0.215251-11.7027-1.35691-5.85979-2.34167-0.149577-2.66247ZM-6.17221 101.928 8.71821 111.841-8.14675 117.806Z" fill="#A6A6A6" transform="matrix(1 -1.22465e-16 -1.22465e-16 -1 774.5 612.341)"/><rect x="284.5" y="326.5" width="182" height="100" stroke="#71B790" stroke-width="2.66667" stroke-linecap="square" stroke-miterlimit="8" stroke-dasharray="8 2.66667" fill="none"/><text fill="#6AAC87" font-family="Calibri,Calibri_MSFontService,sans-serif" font-weight="400" font-size="19" transform="translate(353.848 348)">Inbox</text><path d="M353.668 349.855 374.668 349.855 395.668 349.855 395.668 350.855 374.668 350.855 353.668 350.855Z" fill="#6AAC87" fill-rule="evenodd"/><rect x="284.5" y="444.5" width="182" height="100" stroke="#000000" stroke-width="2.66667" stroke-linecap="square" stroke-miterlimit="8" stroke-dasharray="8 2.66667" fill="none"/><text font-family="Aptos,Aptos_MSFontService,sans-serif" font-weight="400" font-size="19" transform="translate(317.683 466)">Feed&amp; Outbox</text><path d="M317.83 466.793 355.83 466.793 393.83 466.793 431.83 466.793 431.83 467.793 393.83 467.793 355.83 467.793 317.83 467.793Z" fill-rule="evenodd"/><rect x="754.5" y="286.5" width="195" height="405" stroke="#71B790" stroke-width="2.66667" stroke-miterlimit="8" fill="none"/><text font-family="Calibri,Calibri_MSFontService,sans-serif" font-weight="400" font-size="24" transform="translate(773.409 313)">Endpoint: „EP3“</text><path d="M773.882 315.606 812.882 315.606 851.882 315.606 890.882 315.606 929.882 315.606 929.882 317.606 890.882 317.606 851.882 317.606 812.882 317.606 773.882 317.606Z" fill-rule="evenodd"/><rect x="761.5" y="324.5" width="182" height="100" stroke="#71B790" stroke-width="2.66667" stroke-linecap="square" stroke-miterlimit="8" stroke-dasharray="8 2.66667" fill="none"/><text fill="#6AAC87" font-family="Calibri,Calibri_MSFontService,sans-serif" font-weight="400" font-size="19" transform="translate(831.208 346)">Inbox</text><path d="M831.028 347.968 852.028 347.968 873.028 347.968 873.028 348.968 852.028 348.968 831.028 348.968Z" fill="#6AAC87" fill-rule="evenodd"/><rect x="762.5" y="442.5" width="181" height="100" stroke="#000000" stroke-width="2.66667" stroke-linecap="square" stroke-miterlimit="8" stroke-dasharray="8 2.66667" fill="none"/><text font-family="Aptos,Aptos_MSFontService,sans-serif" font-weight="400" font-size="19" transform="translate(795.043 464)">Feed&amp; Outbox</text><path d="M795.19 464.906 833.19 464.906 871.19 464.906 909.19 464.906 909.19 465.906 871.19 465.906 833.19 465.906 795.19 465.906Z" fill-rule="evenodd"/><rect x="0" y="288" width="109" height="403" stroke="#000000" stroke-width="2" stroke-miterlimit="8" fill="#7F7F7F"/><text fill="#FFFFFF" font-family="Calibri,Calibri_MSFontService,sans-serif" font-weight="400" font-size="27" transform="translate(22.9479 317)">App 1</text><rect x="10.5001" y="329.5" width="89" height="280" stroke="#D5EADE" stroke-width="2.66667" stroke-linecap="square" stroke-miterlimit="8" stroke-dasharray="8 2.66667" fill="#D9D9D9"/><text font-family="Calibri,Calibri_MSFontService,sans-serif" font-weight="400" font-size="24" transform="matrix(6.12323e-17 -1 1 6.12323e-17 62.048 541)">App Instance 7</text><rect x="1153.5" y="329.5" width="90" height="311" stroke="#71B790" stroke-width="2.66667" stroke-linecap="square" stroke-miterlimit="8" stroke-dasharray="8 2.66667" fill="#D9D9D9"/><text font-family="Calibri,Calibri_MSFontService,sans-serif" font-weight="400" font-size="24" transform="matrix(6.12323e-17 -1 1 6.12323e-17 1205.83 563)">App Instance 47</text><path d="M99.5001 370 248.5 370 248.5 356.5 275.5 383.5 248.5 410.5 248.5 397 99.5001 397Z" stroke="#000000" stroke-width="2.66667" stroke-miterlimit="8" fill="#F2F2F2" fill-rule="evenodd"/><text font-family="Calibri,Calibri_MSFontService,sans-serif" font-weight="400" font-size="19" transform="translate(111.621 389)">Push</text><text font-family="Calibri,Calibri_MSFontService,sans-serif" font-weight="400" font-size="19" transform="translate(152.455 389)">to</text><text font-family="Calibri,Calibri_MSFontService,sans-serif" font-weight="400" font-size="19" transform="translate(172.608 389)">agrirouter</text><path d="M947.5 505 1126.5 505 1126.5 491.5 1153.5 518.5 1126.5 545.5 1126.5 532 947.5 532Z" stroke="#71B790" stroke-width="2.66667" stroke-miterlimit="8" fill="#F2F2F2" fill-rule="evenodd"/><text font-family="Calibri,Calibri_MSFontService,sans-serif" font-weight="400" font-size="19" transform="translate(968.833 524)">Pull</text><text font-family="Calibri,Calibri_MSFontService,sans-serif" font-weight="400" font-size="19" transform="translate(1001.17 524)">from</text><text font-family="Calibri,Calibri_MSFontService,sans-serif" font-weight="400" font-size="19" transform="translate(1041.87 524)">agrirouter</text><path d="M1138.5 627.25 979 627.25 979 640.5 952.5 614 979 587.5 979 600.75 1138.5 600.75Z" stroke="#71B790" stroke-width="2.66667" stroke-linecap="square" stroke-miterlimit="8" stroke-dasharray="8 2.66667" fill="#F2F2F2" fill-rule="evenodd"/><rect x="970.5" y="597.5" width="183" height="33" stroke="#71B790" stroke-linejoin="round" stroke-miterlimit="10" fill="none"/><text font-family="Calibri,Calibri_MSFontService,sans-serif" font-weight="400" font-size="19" transform="translate(979.332 619)">Subscribe</text><text font-family="Calibri,Calibri_MSFontService,sans-serif" font-weight="400" font-size="19" transform="translate(1056.74 619)">for</text><text font-family="Calibri,Calibri_MSFontService,sans-serif" font-weight="400" font-size="19" transform="translate(1082.51 619)">TMT1</text><path d="M171 342C171 332.059 180.85 324 193 324 205.15 324 215 332.059 215 342 215 351.941 205.15 360 193 360 180.85 360 171 351.941 171 342Z" stroke="#000000" stroke-width="4" stroke-miterlimit="8" fill="#71B790" fill-rule="evenodd"/><text fill="#FFFFFF" font-family="Calibri,Calibri_MSFontService,sans-serif" font-weight="700" font-size="24" transform="translate(187.11 350)">2</text><path d="M566 393C566 382.507 576.074 374 588.5 374 600.926 374 611 382.507 611 393 611 403.493 600.926 412 588.5 412 576.074 412 566 403.493 566 393Z" stroke="#000000" stroke-width="4" stroke-miterlimit="8" fill="#71B790" fill-rule="evenodd"/><text fill="#FFFFFF" font-family="Calibri,Calibri_MSFontService,sans-serif" font-weight="700" font-size="24" transform="translate(582.399 401)">3</text><path d="M1024 572.5C1024 562.283 1033.63 554 1045.5 554 1057.37 554 1067 562.283 1067 572.5 1067 582.717 1057.37 591 1045.5 591 1033.63 591 1024 582.717 1024 572.5Z" stroke="#000000" stroke-width="4" stroke-miterlimit="8" fill="#71B790" fill-rule="evenodd"/><text fill="#FFFFFF" font-family="Calibri,Calibri_MSFontService,sans-serif" font-weight="700" font-size="24" transform="translate(1039.45 580)">1</text><path d="M1014 424C1014 412.402 1023.85 403 1036 403 1048.15 403 1058 412.402 1058 424 1058 435.598 1048.15 445 1036 445 1023.85 445 1014 435.598 1014 424Z" stroke="#000000" stroke-width="4" stroke-miterlimit="8" fill="#71B790" fill-rule="evenodd"/><text fill="#FFFFFF" font-family="Calibri,Calibri_MSFontService,sans-serif" font-weight="700" font-size="24" transform="translate(1030.16 432)">5</text><rect x="569" y="239" width="49" height="479" stroke="#000000" stroke-width="2" stroke-miterlimit="8" stroke-dasharray="8 6" fill="none"/><text font-family="Calibri,Calibri_MSFontService,sans-serif" font-weight="400" font-size="24" transform="translate(584.927 486)">…</text><rect x="761.5" y="551.5" width="182" height="127" stroke="#A6A6A6" stroke-width="2.66667" stroke-linecap="square" stroke-miterlimit="8" stroke-dasharray="8 2.66667" fill="none"/><text fill="#6AAC87" font-family="Calibri,Calibri_MSFontService,sans-serif" font-weight="400" font-size="19" transform="translate(801.445 573)">Subscribtions</text><path d="M801.025 574.773 835.025 574.773 869.025 574.773 903.025 574.773 903.025 575.773 869.025 575.773 835.025 575.773 801.025 575.773Z" fill="#6AAC87" fill-rule="evenodd"/><rect x="774" y="592" width="147" height="40" stroke="#A6A6A6" stroke-width="2" stroke-miterlimit="8" fill="none"/><text fill="#A6A6A6" font-family="Calibri,Calibri_MSFontService,sans-serif" font-weight="400" font-size="24" transform="translate(819.795 620)">TMT1</text><rect x="283.5" y="554.5" width="182" height="127" stroke="#71B790" stroke-width="2.66667" stroke-linecap="square" stroke-miterlimit="8" stroke-dasharray="8 2.66667" fill="none"/><text fill="#6AAC87" font-family="Calibri,Calibri_MSFontService,sans-serif" font-weight="400" font-size="19" transform="translate(323.213 576)">Subscribtions</text><path d="M322.793 577.561 356.793 577.561 390.793 577.561 424.793 577.561 424.793 578.561 390.793 578.561 356.793 578.561 322.793 578.561Z" fill="#6AAC87" fill-rule="evenodd"/><path d="M699 498C699 486.402 708.402 477 720 477 731.598 477 741 486.402 741 498 741 509.598 731.598 519 720 519 708.402 519 699 509.598 699 498Z" stroke="#000000" stroke-width="4" stroke-miterlimit="8" fill="#71B790" fill-rule="evenodd"/><text fill="#FFFFFF" font-family="Calibri,Calibri_MSFontService,sans-serif" font-weight="700" font-size="24" transform="translate(713.88 505)">4</text><path d="M1153 483.5 961 483.5 961 492 944 475 961 458 961 466.5 1153 466.5Z" stroke="#71B790" stroke-width="2" stroke-miterlimit="8" fill="#FFFFFF" fill-rule="evenodd"/></g></svg>