<svg width="1280" height="720" xmlns="http://www.w3.org/2000/svg" xmlns:xlink="http://www.w3.org/1999/xlink" overflow="hidden"><defs><clipPath id="clip0"><rect x="0" y="0" width="1280" height="720"/></clipPath></defs><g clip-path="url(#clip0)"><rect x="0" y="0" width="1280" height="720" fill="#FFFFFF"/><rect x="515" y="147" width="251" height="145" stroke="#71B790" stroke-width="2" stroke-miterlimit="8" fill="#FFFFFF"/><rect x="940" y="148" width="251" height="145" stroke="#71B790" stroke-width="2" stroke-miterlimit="8" fill="#FFFFFF"/><rect x="69" y="148" width="251" height="145" stroke="#71B790" stroke-width="2" stroke-miterlimit="8" fill="#FFFFFF"/><text font-family="Aptos,Aptos_MSFontService,sans-serif" font-weight="400" font-size="24" transform="translate(79.7711 212)">Communication Unit/</text><text font-family="Aptos,Aptos_MSFontService,sans-serif" font-weight="400" font-size="24" transform="translate(79.7711 241)">Application</text><path d="M371 249 390 230 390 239.5 477 239.5 477 258.5 390 258.5 390 268Z" stroke="#A6A6A6" stroke-width="2" stroke-miterlimit="8" fill="#FFFFFF" fill-rule="evenodd"/><path d="M0 19.5 19.5 0 19.5 9.75006 106 9.75006 106 29.2501 19.5 29.2501 19.5 39Z" stroke="#AEAEAE" stroke-width="2" stroke-miterlimit="8" fill="#FFFFFF" fill-rule="evenodd" transform="matrix(-1 0 0 1 477 180)"/><rect x="524" y="175" width="205" height="97" fill="#FFFFFF"/><text font-family="Aptos,Aptos_MSFontService,sans-serif" font-weight="400" font-size="24" transform="translate(533.109 202)">Application</text><text font-family="Aptos,Aptos_MSFontService,sans-serif" font-weight="400" font-size="24" transform="translate(533.109 231)">Provider</text><text font-family="Aptos,Aptos_MSFontService,sans-serif" font-weight="400" font-size="24" transform="translate(533.109 260)">Server</text><path d="M792 252 811 233 811 242.5 898 242.5 898 261.5 811 261.5 811 271Z" stroke="#A6A6A6" stroke-width="2" stroke-miterlimit="8" fill="#FFFFFF" fill-rule="evenodd"/><path d="M0 19.5 19.5 0 19.5 9.75006 106 9.75006 106 29.2501 19.5 29.2501 19.5 39Z" stroke="#AEAEAE" stroke-width="2" stroke-miterlimit="8" fill="#FFFFFF" fill-rule="evenodd" transform="matrix(-1 0 0 1 901 180)"/><text font-family="Aptos,Aptos_MSFontService,sans-serif" font-weight="400" font-size="24" transform="translate(1019.12 227)">agrirouter</text><text font-family="Aptos,Aptos_MSFontService,sans-serif" font-weight="400" font-size="15" transform="translate(389.375 206)">onboard</text><text font-family="Aptos,Aptos_MSFontService,sans-serif" font-weight="400" font-size="15" transform="translate(816.433 206)">onboard</text><text font-family="Aptos,Aptos_MSFontService,sans-serif" font-weight="400" font-size="15" transform="translate(392.864 253)">response</text><text font-family="Aptos,Aptos_MSFontService,sans-serif" font-weight="400" font-size="15" transform="translate(816.393 257)">response</text></g></svg>