<svg width="1280" height="720" xmlns="http://www.w3.org/2000/svg" xmlns:xlink="http://www.w3.org/1999/xlink" overflow="hidden"><defs><clipPath id="clip0"><rect x="0" y="0" width="1280" height="720"/></clipPath><clipPath id="clip1"><rect x="656" y="462" width="181" height="167"/></clipPath><clipPath id="clip2"><rect x="656" y="462" width="181" height="167"/></clipPath><clipPath id="clip3"><rect x="655" y="411" width="265" height="269"/></clipPath></defs><g clip-path="url(#clip0)"><rect x="0" y="0" width="1280" height="720" fill="#FFFFFF"/><g clip-path="url(#clip1)"><g clip-path="url(#clip2)"><g clip-path="url(#clip3)"><path d="M247.361 127.34 255.691 135.67 263.768 127.593C261.496 58.3065 205.587 2.39789 136.427 0L144.504 8.0771 136.175 16.4066C196.374 18.6783 244.963 67.1409 247.361 127.34Z" fill="#D5EADE" transform="matrix(1 0 0 1.01555 655.997 411.566)"/><path d="M8.0771 119.263 16.4066 127.593C18.6783 67.3933 67.1409 18.8045 127.34 16.4066L135.67 8.0771 127.467 0C58.3065 2.27168 2.39789 58.1803 0 127.34L8.0771 119.263Z" fill="#D5EADE" transform="matrix(1 0 0 1.01555 655.997 411.566)"/><path d="M255.691 144.504 247.361 136.175C246.351 163.309 236.003 188.045 219.344 207.354L184.006 145.135 191.831 145.135C211.14 145.135 226.79 129.486 226.79 110.177 226.79 90.8673 211.14 75.2179 191.831 75.2179L145.766 75.2179C141.223 75.2179 137.563 78.8779 137.563 83.4212L137.563 159.775 91.1197 79.3827C89.6053 76.8586 86.955 75.3442 84.0523 75.3442 81.1496 75.3442 78.3731 76.8586 76.9848 79.3827L23.4741 172.017C19.3093 160.911 16.9114 148.921 16.4066 136.427L8.0771 128.098 0 136.301C2.27168 205.587 58.1803 261.496 127.34 263.768L119.263 255.691 127.593 247.361C86.8288 245.847 51.3653 223.13 32.056 189.938L84.1785 99.7017 138.825 194.355C140.718 197.51 144.504 199.151 148.038 198.141 151.572 197.132 154.096 193.977 154.096 190.19L154.096 91.6245 191.957 91.6245C202.18 91.6245 210.509 99.9541 210.509 110.177 210.509 120.399 202.18 128.729 191.957 128.729L169.998 128.729C167.095 128.729 164.445 130.243 162.93 132.767 161.416 135.291 161.416 138.446 162.93 140.971L207.48 219.344C188.297 235.876 163.687 246.351 136.553 247.361L128.224 255.691 136.301 263.768C205.587 261.496 261.496 205.587 263.768 136.427L255.691 144.504Z" fill="#D5EADE" transform="matrix(1 0 0 1.01555 655.997 411.566)"/></g></g></g><rect x="382.5" y="288.5" width="195" height="332" stroke="#71B790" stroke-width="2.66667" stroke-miterlimit="8" fill="none"/><text font-family="Calibri,Calibri_MSFontService,sans-serif" font-weight="400" font-size="24" transform="translate(400.956 314)">Endpoint: „EP1“</text><path d="M401.429 317.494 440.429 317.494 479.429 317.494 518.429 317.494 557.429 317.494 557.429 319.494 518.429 319.494 479.429 319.494 440.429 319.494 401.429 319.494Z" fill-rule="evenodd"/><rect x="396" y="363" width="166" height="38" stroke="#000000" stroke-width="2" stroke-miterlimit="8" fill="#71B790"/><text fill="#FFFFFF" font-family="Calibri,Calibri_MSFontService,sans-serif" font-weight="400" font-size="19" transform="translate(406.686 388)">TMT1</text><text fill="#FFFFFF" font-family="Calibri,Calibri_MSFontService,sans-serif" font-weight="400" font-size="19" transform="translate(454.686 388)">to</text><text fill="#FFFFFF" font-family="Calibri,Calibri_MSFontService,sans-serif" font-weight="400" font-size="19" transform="translate(474.839 388)">[EP2, EP3]</text><rect x="389.5" y="326.5" width="182" height="100" stroke="#71B790" stroke-width="2.66667" stroke-linecap="square" stroke-miterlimit="8" stroke-dasharray="8 2.66667" fill="none"/><text fill="#6AAC87" font-family="Calibri,Calibri_MSFontService,sans-serif" font-weight="400" font-size="19" transform="translate(458.755 348)">Inbox</text><path d="M458.575 349.855 479.575 349.855 500.575 349.855 500.575 350.855 479.575 350.855 458.575 350.855Z" fill="#6AAC87" fill-rule="evenodd"/><rect x="389.5" y="444.5" width="76" height="157" stroke="#000000" stroke-width="2.66667" stroke-linecap="square" stroke-miterlimit="8" stroke-dasharray="8 2.66667" fill="none"/><text font-family="Calibri,Calibri_MSFontService,sans-serif" font-weight="400" font-size="19" transform="translate(398.833 466)">Outbox</text><path d="M398.733 467.793 412.483 467.793 426.233 467.793 439.983 467.793 453.733 467.793 453.733 468.793 439.983 468.793 426.233 468.793 412.483 468.793 398.733 468.793Z" fill-rule="evenodd"/><rect x="48" y="259" width="109" height="361" stroke="#000000" stroke-width="2" stroke-miterlimit="8" fill="#7F7F7F"/><text fill="#FFFFFF" font-family="Calibri,Calibri_MSFontService,sans-serif" font-weight="400" font-size="27" transform="translate(71.4277 289)">App 1</text><rect x="57.5001" y="326.5" width="90" height="270" stroke="#71B790" stroke-width="2.66667" stroke-linecap="square" stroke-miterlimit="8" stroke-dasharray="8 2.66667" fill="#D9D9D9"/><text font-family="Calibri,Calibri_MSFontService,sans-serif" font-weight="400" font-size="24" transform="matrix(6.12323e-17 -1 1 6.12323e-17 109.89 533)">App Instance 7</text><path d="M147.5 356 361.5 356 361.5 342.5 388.5 369.5 361.5 396.5 361.5 383 147.5 383Z" stroke="#000000" stroke-width="2.66667" stroke-miterlimit="8" fill="#F2F2F2" fill-rule="evenodd"/><text font-family="Calibri,Calibri_MSFontService,sans-serif" font-weight="400" font-size="19" transform="translate(192.042 375)">Push</text><text font-family="Calibri,Calibri_MSFontService,sans-serif" font-weight="400" font-size="19" transform="translate(232.875 375)">to</text><text font-family="Calibri,Calibri_MSFontService,sans-serif" font-weight="400" font-size="19" transform="translate(253.029 375)">agrirouter</text><path d="M380.5 530 176.5 530 176.5 543.5 149.5 516.5 176.5 489.5 176.5 503 380.5 503Z" stroke="#000000" stroke-width="2.66667" stroke-miterlimit="8" fill="#F2F2F2" fill-rule="evenodd"/><path d="M158 407 369 407 369 400 383 414 369 428 369 421 158 421Z" stroke="#71B790" stroke-width="2" stroke-miterlimit="8" fill="none" fill-rule="evenodd"/><text fill="#6AAC87" font-family="Calibri,Calibri_MSFontService,sans-serif" font-weight="400" font-size="16" transform="translate(193.169 419)">Send Call</text><text fill="#6AAC87" font-family="Calibri,Calibri_MSFontService,sans-serif" font-weight="400" font-size="16" transform="translate(256.002 419)">for</text><text fill="#6AAC87" font-family="Calibri,Calibri_MSFontService,sans-serif" font-weight="400" font-size="16" transform="translate(278.169 419)">messages</text><text font-family="Calibri,Calibri_MSFontService,sans-serif" font-weight="400" font-size="21" transform="translate(179.892 522)">Pull from agrirouter</text><path d="M486 563.833C486 560.612 501.446 558 520.5 558 539.554 558 555 560.612 555 563.833L555 587.167C555 590.388 539.554 593 520.5 593 501.446 593 486 590.388 486 587.167Z" fill="#71B790" fill-rule="evenodd"/><path d="M555 563.833C555 567.055 539.554 569.667 520.5 569.667 501.446 569.667 486 567.055 486 563.833" stroke="#000000" stroke-width="2" stroke-miterlimit="8" fill="none" fill-rule="evenodd"/><path d="M486 563.833C486 560.612 501.446 558 520.5 558 539.554 558 555 560.612 555 563.833L555 587.167C555 590.388 539.554 593 520.5 593 501.446 593 486 590.388 486 587.167Z" stroke="#000000" stroke-width="2" stroke-miterlimit="8" fill="none" fill-rule="evenodd"/><text font-family="Calibri,Calibri_MSFontService,sans-serif" font-weight="400" font-size="13" transform="translate(502.345 582)">MSG n</text><path d="M486 544.833C486 541.612 501.446 539 520.5 539 539.554 539 555 541.612 555 544.833L555 568.167C555 571.388 539.554 574 520.5 574 501.446 574 486 571.388 486 568.167Z" fill="#71B790" fill-rule="evenodd"/><path d="M555 544.833C555 548.055 539.554 550.667 520.5 550.667 501.446 550.667 486 548.055 486 544.833" stroke="#000000" stroke-width="2" stroke-miterlimit="8" fill="none" fill-rule="evenodd"/><path d="M486 544.833C486 541.612 501.446 539 520.5 539 539.554 539 555 541.612 555 544.833L555 568.167C555 571.388 539.554 574 520.5 574 501.446 574 486 571.388 486 568.167Z" stroke="#000000" stroke-width="2" stroke-miterlimit="8" fill="none" fill-rule="evenodd"/><text font-family="Calibri,Calibri_MSFontService,sans-serif" font-weight="400" font-size="13" transform="translate(499.761 563)">MSG …</text><path d="M486 522.833C486 519.612 501.446 517 520.5 517 539.554 517 555 519.612 555 522.833L555 546.167C555 549.388 539.554 552 520.5 552 501.446 552 486 549.388 486 546.167Z" fill="#71B790" fill-rule="evenodd"/><path d="M555 522.833C555 526.055 539.554 528.667 520.5 528.667 501.446 528.667 486 526.055 486 522.833" stroke="#000000" stroke-width="2" stroke-miterlimit="8" fill="none" fill-rule="evenodd"/><path d="M486 522.833C486 519.612 501.446 517 520.5 517 539.554 517 555 519.612 555 522.833L555 546.167C555 549.388 539.554 552 520.5 552 501.446 552 486 549.388 486 546.167Z" stroke="#000000" stroke-width="2" stroke-miterlimit="8" fill="none" fill-rule="evenodd"/><text font-family="Calibri,Calibri_MSFontService,sans-serif" font-weight="400" font-size="13" transform="translate(502.428 541)">MSG 2</text><path d="M486 502.833C486 499.612 501.222 497 520 497 538.778 497 554 499.612 554 502.833L554 526.167C554 529.388 538.778 532 520 532 501.222 532 486 529.388 486 526.167Z" fill="#71B790" fill-rule="evenodd"/><path d="M554 502.833C554 506.055 538.778 508.667 520 508.667 501.222 508.667 486 506.055 486 502.833" stroke="#000000" stroke-width="2" stroke-miterlimit="8" fill="none" fill-rule="evenodd"/><path d="M486 502.833C486 499.612 501.222 497 520 497 538.778 497 554 499.612 554 502.833L554 526.167C554 529.388 538.778 532 520 532 501.222 532 486 529.388 486 526.167Z" stroke="#000000" stroke-width="2" stroke-miterlimit="8" fill="none" fill-rule="evenodd"/><text font-family="Calibri,Calibri_MSFontService,sans-serif" font-weight="400" font-size="13" transform="translate(503.752 521)">MSG1</text><path d="M383.5 411.833 522.631 411.833 522.631 428.881 517.298 428.881 517.298 414.5 519.965 417.167 383.5 417.167ZM527.965 426.215 519.965 442.215 511.965 426.215Z" fill="#A6A6A6"/><path d="M560.5 486.5C574.307 486.5 585.5 488.365 585.5 490.667L585.5 530.334C585.5 532.635 596.693 534.5 610.5 534.5 596.693 534.5 585.5 536.365 585.5 538.667L585.5 578.334C585.5 580.635 574.307 582.5 560.5 582.5" stroke="#A6A6A6" stroke-width="5.33333" stroke-miterlimit="8" fill="none" fill-rule="evenodd"/><path d="M625 369 660 369 660 369 712.5 369 835 369 835 396.417 835 396.417 835 408.167 835 416 712.5 416 505.59 496.719 660 416 625 416 625 408.167 625 396.417 625 396.417Z" stroke="#000000" stroke-width="2" stroke-miterlimit="8" fill="#7F7F7F" fill-rule="evenodd"/><rect x="656" y="379" width="144" height="23" stroke="#000000" stroke-width="2" stroke-miterlimit="8" fill="#71B790"/><text fill="#FFFFFF" font-family="Calibri,Calibri_MSFontService,sans-serif" font-weight="400" font-size="19" transform="translate(669.358 396)">TMT1</text><text fill="#FFFFFF" font-family="Calibri,Calibri_MSFontService,sans-serif" font-weight="400" font-size="19" transform="translate(717.358 396)">from</text><text fill="#FFFFFF" font-family="Calibri,Calibri_MSFontService,sans-serif" font-weight="400" font-size="19" transform="translate(758.058 396)">EP7</text><path d="M679 433 715.333 433 715.333 433 769.833 433 897 433 897 486.083 897 486.083 897 508.833 897 524 769.833 524 715.333 524 715.333 524 679 524 679 508.833 633.789 534.385 679 486.083Z" stroke="#000000" stroke-width="2" stroke-miterlimit="8" fill="#D9D9D9" fill-rule="evenodd"/><text font-family="Calibri,Calibri_MSFontService,sans-serif" font-weight="400" font-size="19" transform="translate(714.707 451)">The</text><text font-family="Calibri,Calibri_MSFontService,sans-serif" font-weight="400" font-size="19" transform="translate(747.207 451)">feed</text><text font-family="Calibri,Calibri_MSFontService,sans-serif" font-weight="400" font-size="19" transform="translate(785.073 451)">includes</text><text font-family="Calibri,Calibri_MSFontService,sans-serif" font-weight="400" font-size="19" transform="translate(851.907 451)">a</text><text font-family="Calibri,Calibri_MSFontService,sans-serif" font-weight="400" font-size="19" transform="translate(724.433 474)">storage</text><text font-family="Calibri,Calibri_MSFontService,sans-serif" font-weight="400" font-size="19" transform="translate(784.847 474)">to</text><text font-family="Calibri,Calibri_MSFontService,sans-serif" font-weight="400" font-size="19" transform="translate(805 474)">buffer</text><text font-family="Calibri,Calibri_MSFontService,sans-serif" font-weight="400" font-size="19" transform="translate(709.22 496)">messages</text><text font-family="Calibri,Calibri_MSFontService,sans-serif" font-weight="400" font-size="19" transform="translate(782.4 496)">,</text><text font-family="Calibri,Calibri_MSFontService,sans-serif" font-weight="400" font-size="19" transform="translate(791.234 496)">when</text><text font-family="Calibri,Calibri_MSFontService,sans-serif" font-weight="400" font-size="19" transform="translate(837.734 496)">app</text><text font-family="Calibri,Calibri_MSFontService,sans-serif" font-weight="400" font-size="19" transform="translate(721.7 519)">instance</text><text font-family="Calibri,Calibri_MSFontService,sans-serif" font-weight="400" font-size="19" transform="translate(789.267 519)">is</text><text font-family="Calibri,Calibri_MSFontService,sans-serif" font-weight="400" font-size="19" transform="translate(805.1 519)">offline</text><rect x="482.5" y="442.5" width="75" height="156" stroke="#000000" stroke-width="2.66667" stroke-linecap="square" stroke-miterlimit="8" stroke-dasharray="8 2.66667" fill="none"/><text font-family="Calibri,Calibri_MSFontService,sans-serif" font-weight="400" font-size="19" transform="translate(501.01 464)">Feed</text><path d="M501.29 465.565 513.29 465.565 525.29 465.565 537.29 465.565 537.29 466.565 525.29 466.565 513.29 466.565 501.29 466.565Z" fill-rule="evenodd"/><path d="M485.648 536.905 475.81 531.366 478.427 526.718 488.265 532.258ZM475.517 537.321 465.5 522.5 483.367 523.379Z" fill="#A6A6A6"/><path d="M390 511.833C390 508.612 405.446 506 424.5 506 443.554 506 459 508.612 459 511.833L459 535.167C459 538.388 443.554 541 424.5 541 405.446 541 390 538.388 390 535.167Z" fill="#71B790" fill-rule="evenodd"/><path d="M459 511.833C459 515.055 443.554 517.667 424.5 517.667 405.446 517.667 390 515.055 390 511.833" stroke="#000000" stroke-width="2" stroke-miterlimit="8" fill="none" fill-rule="evenodd"/><path d="M390 511.833C390 508.612 405.446 506 424.5 506 443.554 506 459 508.612 459 511.833L459 535.167C459 538.388 443.554 541 424.5 541 405.446 541 390 538.388 390 535.167Z" stroke="#000000" stroke-width="2" stroke-miterlimit="8" fill="none" fill-rule="evenodd"/><text font-family="Calibri,Calibri_MSFontService,sans-serif" font-weight="400" font-size="13" transform="translate(406.567 531)">MSG 2</text></g></svg>