<svg width="1280" height="720" xmlns="http://www.w3.org/2000/svg" xmlns:xlink="http://www.w3.org/1999/xlink" overflow="hidden"><defs><clipPath id="clip0"><rect x="0" y="0" width="1280" height="720"/></clipPath></defs><g clip-path="url(#clip0)"><rect x="0" y="0" width="1280" height="720" fill="#FFFFFF"/><path d="M148.578 366.682 152.208 498.446 5.50005 496.969 5.50005 721.5 1280.5 721.5 1280.5 365.5 148.578 366.682Z" stroke="#71B790" stroke-width="2.66667" stroke-miterlimit="8" stroke-dasharray="10.6667 8" fill="#D5EADE" fill-rule="evenodd"/><path d="M1099.5 562.5C1099.5 557.53 1103.53 553.5 1108.5 553.5L1190.5 553.5C1195.47 553.5 1199.5 557.53 1199.5 562.5L1199.5 598.5C1199.5 603.471 1195.47 607.5 1190.5 607.5L1108.5 607.5C1103.53 607.5 1099.5 603.471 1099.5 598.5Z" stroke="#71B790" stroke-width="2.66667" stroke-miterlimit="8" fill="#FFFFFF" fill-rule="evenodd"/><text font-family="Aptos,Aptos_MSFontService,sans-serif" font-weight="400" font-size="19" transform="translate(1111.78 586)">Send &gt;&gt;&gt;</text><path d="M946.5 577.833 1025.74 577.833 1025.74 580.772 1023.08 578.106 1086.32 578.106 1086.32 583.439 1020.41 583.439 1020.41 580.5 1023.08 583.167 946.5 583.167ZM1083.65 572.772 1099.65 580.772 1083.65 588.772Z" fill="#71B790"/><path d="M822.5 515.167C822.5 503.753 831.753 494.5 843.167 494.5L925.833 494.5C937.247 494.5 946.5 503.753 946.5 515.167L946.5 644.833C946.5 656.247 937.247 665.5 925.833 665.5L843.167 665.5C831.753 665.5 822.5 656.247 822.5 644.833Z" stroke="#71B790" stroke-width="1.33333" stroke-miterlimit="8" fill="#FFFFFF" fill-rule="evenodd"/><text font-family="Aptos,Aptos_MSFontService,sans-serif" font-weight="700" font-size="19" transform="translate(839.429 522)">Command</text><text font-family="Aptos,Aptos_MSFontService,sans-serif" font-weight="700" font-size="19" transform="translate(843.043 545)">/Message</text><rect x="848" y="546" width="83" height="32" stroke="#71B790" stroke-width="2" stroke-miterlimit="8" fill="none"/><text font-family="Aptos,Aptos_MSFontService,sans-serif" font-weight="400" font-size="19" transform="translate(859.854 568)">Header</text><path d="M845 590 931 590 931 646.136C888 646.136 888 667.525 845 655.372Z" stroke="#71B790" stroke-width="2" stroke-miterlimit="8" fill="none" fill-rule="evenodd"/><text font-family="Aptos,Aptos_MSFontService,sans-serif" font-weight="400" font-size="19" transform="translate(867.672 624)">Body</text><path d="M0.500053 189.667C0.500053 184.052 5.05192 179.5 10.6669 179.5L129.333 179.5C134.948 179.5 139.5 184.052 139.5 189.667L139.5 230.333C139.5 235.948 134.948 240.5 129.333 240.5L10.6669 240.5C5.05192 240.5 0.500053 235.948 0.500053 230.333Z" stroke="#71B790" stroke-width="2.66667" stroke-miterlimit="8" fill="#FFFFFF" fill-rule="evenodd"/><text font-family="Aptos,Aptos_MSFontService,sans-serif" font-weight="400" font-size="19" transform="translate(28.5823 204)">Encode</text><text font-family="Aptos,Aptos_MSFontService,sans-serif" font-weight="400" font-size="19" transform="translate(93.5823 204)">to</text><text font-family="Aptos,Aptos_MSFontService,sans-serif" font-weight="400" font-size="19" transform="translate(14.1556 227)">format</text><text font-family="Aptos,Aptos_MSFontService,sans-serif" font-weight="400" font-size="19" transform="translate(71.749 227)">of</text><text font-family="Aptos,Aptos_MSFontService,sans-serif" font-weight="400" font-size="19" transform="translate(91.5823 227)">TMT</text><path d="M57 139C57 132.373 62.5964 127 69.5 127 76.4036 127 82 132.373 82 139 82 145.627 76.4036 151 69.5 151 62.5964 151 57 145.627 57 139Z" stroke="#000000" stroke-width="4" stroke-miterlimit="8" fill="#71B790" fill-rule="evenodd"/><path d="M72.166 151.438 72.5181 166.482 67.1862 166.607 66.8341 151.562ZM77.7876 163.691 70.1641 179.874 61.7919 164.066Z" fill="#A6A6A6"/><path d="M253.5 644.5C253.5 638.977 257.977 634.5 263.5 634.5L354.5 634.5C360.023 634.5 364.5 638.977 364.5 644.5L364.5 684.5C364.5 690.023 360.023 694.5 354.5 694.5L263.5 694.5C257.977 694.5 253.5 690.023 253.5 684.5Z" stroke="#71B790" stroke-width="2.66667" stroke-miterlimit="8" fill="#FFFFFF" fill-rule="evenodd"/><text font-family="Aptos,Aptos_MSFontService,sans-serif" font-weight="400" font-size="19" transform="translate(292.459 648)">Add</text><text font-family="Aptos,Aptos_MSFontService,sans-serif" font-weight="400" font-size="19" transform="translate(268.379 671)">Timestam</text><text font-family="Aptos,Aptos_MSFontService,sans-serif" font-weight="400" font-size="19" transform="translate(303.206 693)">p</text><path d="M0.500053 277.667C0.500053 272.052 5.05192 267.5 10.6669 267.5L129.333 267.5C134.948 267.5 139.5 272.052 139.5 277.667L139.5 318.333C139.5 323.948 134.948 328.5 129.333 328.5L10.6669 328.5C5.05192 328.5 0.500053 323.948 0.500053 318.333Z" stroke="#71B790" stroke-width="2.66667" stroke-miterlimit="8" fill="#FFFFFF" fill-rule="evenodd"/><text font-family="Aptos,Aptos_MSFontService,sans-serif" font-weight="400" font-size="19" transform="translate(29.2858 292)">Encode</text><text font-family="Aptos,Aptos_MSFontService,sans-serif" font-weight="400" font-size="19" transform="translate(94.2858 292)">in</text><text font-family="Aptos,Aptos_MSFontService,sans-serif" font-weight="400" font-size="19" transform="translate(34.2991 315)">Protobuf</text><path d="M72.1667 240.5 72.1668 254.94 66.8334 254.94 66.8334 240.5ZM77.5001 252.274 69.5002 268.274 61.5001 252.274Z" fill="#71B790"/><path d="M618 603.25 734.219 603.25 734.219 651.073C676.112 651.073 676.112 669.473 618 660.273ZM627.575 603.25 627.575 597.05 743 597.05 743 645.173C738.612 645.173 734.219 645.507 734.219 645.507M636.575 597.05 636.575 591 753 591 753 638.973C748 638.973 743 639.223 743 639.223" stroke="#71B790" stroke-width="2" stroke-miterlimit="8" fill="none" fill-rule="evenodd"/><text font-family="Aptos,Aptos_MSFontService,sans-serif" font-weight="400" font-size="19" transform="translate(632.677 626)">Messages/</text><text font-family="Aptos,Aptos_MSFontService,sans-serif" font-weight="400" font-size="19" transform="translate(628.357 649)">Commands</text><path d="M60 24 86.1667 24 86.1667 24 125.417 24 217 24 217 59.5833 217 59.5833 217 74.8333 217 85 125.417 85 70.9241 129.972 86.1667 85 60 85 60 74.8333 60 59.5833 60 59.5833Z" stroke="#000000" stroke-width="2" stroke-miterlimit="8" fill="#D9D9D9" fill-rule="evenodd"/><text font-family="Aptos,Aptos_MSFontService,sans-serif" font-weight="400" font-size="19" transform="translate(73.6767 49)">A</text><text font-family="Aptos,Aptos_MSFontService,sans-serif" font-weight="400" font-size="19" transform="translate(88.51 49)">message</text><text font-family="Aptos,Aptos_MSFontService,sans-serif" font-weight="400" font-size="19" transform="translate(164.87 49)">shall</text><text font-family="Aptos,Aptos_MSFontService,sans-serif" font-weight="400" font-size="19" transform="translate(95.8634 72)">be</text><text font-family="Aptos,Aptos_MSFontService,sans-serif" font-weight="400" font-size="19" transform="translate(120.03 72)">created</text><path d="M666 377 696 377 696 377 741 377 846 377 846 426.583 846 426.583 846 447.833 846 462 741 462 665.685 610.301 696 462 666 462 666 447.833 666 426.583 666 426.583Z" stroke="#71B790" stroke-width="2" stroke-miterlimit="8" fill="#D9D9D9" fill-rule="evenodd"/><text font-family="Aptos,Aptos_MSFontService,sans-serif" font-weight="400" font-size="19" transform="translate(680.445 403)">Multiple</text><text font-family="Aptos,Aptos_MSFontService,sans-serif" font-weight="400" font-size="19" transform="translate(749.945 403)">messages</text><text font-family="Aptos,Aptos_MSFontService,sans-serif" font-weight="400" font-size="19" transform="translate(691.012 426)">can</text><text font-family="Aptos,Aptos_MSFontService,sans-serif" font-weight="400" font-size="19" transform="translate(724.905 426)">be</text><text font-family="Aptos,Aptos_MSFontService,sans-serif" font-weight="400" font-size="19" transform="translate(749.072 426)">sent</text><text font-family="Aptos,Aptos_MSFontService,sans-serif" font-weight="400" font-size="19" transform="translate(788.072 426)">as</text><text font-family="Aptos,Aptos_MSFontService,sans-serif" font-weight="400" font-size="19" transform="translate(810.905 426)">a</text><text font-family="Aptos,Aptos_MSFontService,sans-serif" font-weight="400" font-size="19" transform="translate(721.965 448)">package</text><path d="M169 389 203.333 389 203.333 389 254.833 389 375 389 375 459 375 459 375 489 375 509 254.833 509 191.036 567.526 203.333 509 169 509 169 489 169 459 169 459Z" stroke="#71B790" stroke-width="2" stroke-miterlimit="8" fill="#D9D9D9" fill-rule="evenodd"/><text font-family="Aptos,Aptos_MSFontService,sans-serif" font-weight="700" font-size="19" transform="translate(178.6 411)">Envelope</text><text font-family="Aptos,Aptos_MSFontService,sans-serif" font-weight="700" font-size="19" transform="translate(260.66 411)">includes</text><text font-family="Arial,Arial_MSFontService,sans-serif" font-weight="400" font-size="19" transform="translate(178.6 434)">•</text><text font-family="Aptos,Aptos_MSFontService,sans-serif" font-weight="400" font-size="19" transform="translate(208.6 434)">Recipient</text><text font-family="Aptos,Aptos_MSFontService,sans-serif" font-weight="400" font-size="19" transform="translate(289.1 434)">List</text><text font-family="Arial,Arial_MSFontService,sans-serif" font-weight="400" font-size="19" transform="translate(178.6 456)">•</text><text font-family="Aptos,Aptos_MSFontService,sans-serif" font-weight="400" font-size="19" transform="translate(208.6 456)">TMT</text><text font-family="Aptos,Aptos_MSFontService,sans-serif" font-weight="400" font-size="19" transform="translate(245.1 456)">of</text><text font-family="Aptos,Aptos_MSFontService,sans-serif" font-weight="400" font-size="19" transform="translate(264.933 456)">the</text><text font-family="Aptos,Aptos_MSFontService,sans-serif" font-weight="400" font-size="19" transform="translate(208.6 478)">messages</text><text font-family="Arial,Arial_MSFontService,sans-serif" font-weight="400" font-size="19" transform="translate(178.6 501)">•</text><text font-family="Aptos,Aptos_MSFontService,sans-serif" font-weight="400" font-size="19" transform="translate(208.6 501)">A</text><text font-family="Aptos,Aptos_MSFontService,sans-serif" font-weight="400" font-size="19" transform="translate(223.433 501)">unique</text><text font-family="Aptos,Aptos_MSFontService,sans-serif" font-weight="400" font-size="19" transform="translate(283.433 501)">MSG ID</text><path d="M981.5 378.5 1021.17 378.5 1021.17 378.5 1080.67 378.5 1219.5 378.5 1219.5 428.083 1219.5 428.083 1219.5 449.334 1219.5 463.5 1080.67 463.5 948.268 541.889 1021.17 463.5 981.5 463.5 981.5 449.334 981.5 428.083 981.5 428.083Z" stroke="#71B790" stroke-width="2.66667" stroke-miterlimit="8" fill="#D9D9D9" fill-rule="evenodd"/><text font-family="Aptos,Aptos_MSFontService,sans-serif" font-weight="700" font-size="19" transform="translate(990.415 393)">The</text><text font-family="Aptos,Aptos_MSFontService,sans-serif" font-weight="700" font-size="19" transform="translate(1024.91 393)">header</text><text font-family="Aptos,Aptos_MSFontService,sans-serif" font-weight="700" font-size="19" transform="translate(1088.41 393)">includes</text><text font-family="Aptos,Aptos_MSFontService,sans-serif" font-weight="700" font-size="19" transform="translate(1161.75 393)">:</text><text font-family="Arial,Arial_MSFontService,sans-serif" font-weight="400" font-size="19" transform="translate(990.415 416)">•</text><text font-family="Aptos,Aptos_MSFontService,sans-serif" font-weight="400" font-size="19" transform="translate(1020.41 416)">Certificates</text><text font-family="Arial,Arial_MSFontService,sans-serif" font-weight="400" font-size="19" transform="translate(990.415 438)">•</text><text font-family="Aptos,Aptos_MSFontService,sans-serif" font-weight="400" font-size="19" transform="translate(1020.41 438)">Endpoint ID</text><text font-family="Arial,Arial_MSFontService,sans-serif" font-weight="400" font-size="19" transform="translate(990.415 460)">•</text><text font-family="Aptos,Aptos_MSFontService,sans-serif" font-weight="400" font-size="19" transform="translate(1020.41 460)">…</text><path d="M395 376 436.667 376 436.667 376 499.167 376 645 376 645 425.583 645 425.583 645 446.833 645 461 499.167 461 331.628 580.981 436.667 461 395 461 395 446.833 395 425.583 395 425.583Z" stroke="#71B790" stroke-width="2" stroke-miterlimit="8" fill="#D9D9D9" fill-rule="evenodd"/><text font-family="Aptos,Aptos_MSFontService,sans-serif" font-weight="700" font-size="19" transform="translate(404.498 391)">Only</text><text font-family="Aptos,Aptos_MSFontService,sans-serif" font-weight="700" font-size="19" transform="translate(447.665 391)">required</text><text font-family="Aptos,Aptos_MSFontService,sans-serif" font-weight="700" font-size="19" transform="translate(523.252 391)">for</text><text font-family="Aptos,Aptos_MSFontService,sans-serif" font-weight="700" font-size="19" transform="translate(546.938 391)">:</text><text font-family="Arial,Arial_MSFontService,sans-serif" font-weight="400" font-size="19" transform="translate(404.498 414)">•</text><text font-family="Aptos,Aptos_MSFontService,sans-serif" font-weight="400" font-size="19" transform="translate(438.331 414)">MQTT</text><text font-family="Arial,Arial_MSFontService,sans-serif" font-weight="400" font-size="19" transform="translate(404.498 436)">•</text><text font-family="Aptos,Aptos_MSFontService,sans-serif" font-weight="400" font-size="19" transform="translate(434.498 436)">JSON REST</text><text font-family="Aptos,Aptos_MSFontService,sans-serif" font-weight="400" font-size="19" transform="translate(434.498 458)">communication</text><path d="M87 527 221 527 221 652.103C154 652.103 154 699.77 87 672.687Z" stroke="#71B790" stroke-width="2" stroke-miterlimit="8" fill="none" fill-rule="evenodd"/><rect x="105" y="536" width="95" height="45" stroke="#71B790" stroke-width="2" stroke-miterlimit="8" fill="none"/><text font-family="Aptos,Aptos_MSFontService,sans-serif" font-weight="400" font-size="19" transform="translate(115.74 564)">Envelope</text><path d="M105 591 203 591 203 647.136C154 647.136 154 668.525 105 656.372Z" stroke="#71B790" stroke-width="2" stroke-miterlimit="8" fill="none" fill-rule="evenodd"/><text font-family="Aptos,Aptos_MSFontService,sans-serif" font-weight="400" font-size="19" transform="translate(119.631 625)">PayLoad</text><path d="M0-2.66667 178.83-2.66667 178.83 22.7849 173.496 22.7849 173.496 0 176.163 2.66667 0 2.66667ZM184.163 20.1182 176.163 36.1182 168.163 20.1182Z" fill="#71B790" transform="matrix(1.83697e-16 1 1 -1.83697e-16 69.5001 450.5)"/><path d="M0.529539-2.61356 38.9846 5.1779 37.9255 10.405-0.529539 2.61356ZM37.4301-0.578758 51.5228 10.4392 34.2529 15.1026Z" fill="#71B790" transform="matrix(1 0 0 -1 221.5 605.939)"/><path d="M0.967539-2.48495 91.0491 32.5892 89.114 37.5591-0.967539 2.48495ZM90.4993 26.6517 102.506 39.9118 84.694 41.5614Z" fill="#71B790" transform="matrix(1 0 0 -1 364.5 664.412)"/><path d="M273.5 574.667C273.5 569.052 278.052 564.5 283.667 564.5L349.333 564.5C354.948 564.5 359.5 569.052 359.5 574.667L359.5 615.333C359.5 620.948 354.948 625.5 349.333 625.5L283.667 625.5C278.052 625.5 273.5 620.948 273.5 615.333Z" stroke="#71B790" stroke-width="2.66667" stroke-miterlimit="8" fill="#FFFFFF" fill-rule="evenodd"/><text font-family="Aptos,Aptos_MSFontService,sans-serif" font-weight="400" font-size="15" transform="translate(294.31 591)">Create</text><text font-family="Aptos,Aptos_MSFontService,sans-serif" font-weight="400" font-size="15" transform="translate(292.144 608)">Base64</text><path d="M360.211 592.93 454.449 619.001 453.027 624.142 358.789 598.07ZM453.301 613.15 466.589 625.127 449.035 628.571Z" fill="#71B790"/><path d="M0.0775072-2.66554 56.5281-1.0241 56.3731 4.30698-0.0775072 2.66554ZM54.0175-6.43269 69.7783 2.02898 53.5525 9.56055Z" fill="#71B790" transform="matrix(1 0 0 -1 754.5 627.529)"/><path d="M466 584 577 584 577 648.958C521.5 648.958 521.5 673.708 466 659.645Z" stroke="#71B790" stroke-width="2" stroke-miterlimit="8" fill="none" fill-rule="evenodd"/><text font-family="Aptos,Aptos_MSFontService,sans-serif" font-weight="400" font-size="19" transform="translate(482.692 611)">Message/</text><text font-family="Aptos,Aptos_MSFontService,sans-serif" font-weight="400" font-size="19" transform="translate(478.372 634)">Command</text><path d="M578.652 618.838 606.524 620.43 606.22 625.755 578.348 624.162ZM604.166 614.953 619.684 623.853 603.253 630.927Z" fill="#71B790"/><path d="M0.500053 400.5C0.500053 394.977 4.97726 390.5 10.5002 390.5L129.5 390.5C135.023 390.5 139.5 394.977 139.5 400.5L139.5 440.5C139.5 446.023 135.023 450.5 129.5 450.5L10.5002 450.5C4.97726 450.5 0.500053 446.023 0.500053 440.5Z" stroke="#71B790" stroke-width="2.66667" stroke-miterlimit="8" fill="#FFFFFF" fill-rule="evenodd"/><text font-family="Aptos,Aptos_MSFontService,sans-serif" font-weight="400" font-size="19" transform="translate(28.2306 415)">Decide</text><text font-family="Aptos,Aptos_MSFontService,sans-serif" font-weight="400" font-size="19" transform="translate(89.3972 415)">on</text><text font-family="Aptos,Aptos_MSFontService,sans-serif" font-weight="400" font-size="19" transform="translate(32.1439 438)">chunking</text><path d="M2.66667-0.00236299 2.71007 48.9842-2.62326 48.9889-2.66667 0.00236299ZM8.04104 46.3128 0.0552231 62.3199-7.95895 46.327Z" fill="#71B790" transform="matrix(-1 0 0 1 69.5553 328.5)"/><path d="M169 160 209.833 160 209.833 160 271.083 160 414 160 414 214.833 414 214.833 414 238.333 414 254 271.083 254 94.4368 385.25 209.833 254 169 254 169 238.333 169 214.833 169 214.833Z" stroke="#71B790" stroke-width="2" stroke-miterlimit="8" fill="#D9D9D9" fill-rule="evenodd"/><text font-family="Aptos,Aptos_MSFontService,sans-serif" font-weight="700" font-size="19" transform="translate(178.6 182)">Chunking:</text><text font-family="Aptos,Aptos_MSFontService,sans-serif" font-weight="400" font-size="19" transform="translate(178.6 205)">If</text><text font-family="Aptos,Aptos_MSFontService,sans-serif" font-weight="400" font-size="19" transform="translate(192.933 205)">the</text><text font-family="Aptos,Aptos_MSFontService,sans-serif" font-weight="400" font-size="19" transform="translate(222.933 205)">message</text><text font-family="Aptos,Aptos_MSFontService,sans-serif" font-weight="400" font-size="19" transform="translate(299.293 205)">is</text><text font-family="Aptos,Aptos_MSFontService,sans-serif" font-weight="400" font-size="19" transform="translate(316.627 205)">too</text><text font-family="Aptos,Aptos_MSFontService,sans-serif" font-weight="400" font-size="19" transform="translate(347.033 205)">big</text><text font-family="Aptos,Aptos_MSFontService,sans-serif" font-weight="400" font-size="19" transform="translate(371.033 205)">,</text><text font-family="Aptos,Aptos_MSFontService,sans-serif" font-weight="400" font-size="19" transform="translate(380.2 205)">it</text><text font-family="Aptos,Aptos_MSFontService,sans-serif" font-weight="400" font-size="19" transform="translate(178.6 227)">will</text><text font-family="Aptos,Aptos_MSFontService,sans-serif" font-weight="400" font-size="19" transform="translate(210.1 227)">be</text><text font-family="Aptos,Aptos_MSFontService,sans-serif" font-weight="400" font-size="19" transform="translate(234.267 227)">split</text><text font-family="Aptos,Aptos_MSFontService,sans-serif" font-weight="400" font-size="19" transform="translate(272.933 227)">into</text><text font-family="Aptos,Aptos_MSFontService,sans-serif" font-weight="400" font-size="19" transform="translate(307.84 227)">multiple</text><text font-family="Aptos,Aptos_MSFontService,sans-serif" font-weight="400" font-size="19" transform="translate(178.6 249)">messages</text><path d="M578 160 618.833 160 618.833 160 680.083 160 823 160 823 214.833 823 214.833 823 238.333 823 254 680.083 254 484.956 365.81 618.833 254 578 254 578 238.333 578 214.833 578 214.833Z" stroke="#71B790" stroke-width="2" stroke-miterlimit="8" fill="#D9D9D9" fill-rule="evenodd"/><text font-family="Aptos,Aptos_MSFontService,sans-serif" font-weight="700" font-size="19" transform="translate(587.294 182)">Chunking:</text><text font-family="Aptos,Aptos_MSFontService,sans-serif" font-weight="400" font-size="19" transform="translate(587.294 205)">If</text><text font-family="Aptos,Aptos_MSFontService,sans-serif" font-weight="400" font-size="19" transform="translate(601.627 205)">chunking</text><text font-family="Aptos,Aptos_MSFontService,sans-serif" font-weight="400" font-size="19" transform="translate(679.461 205)">is</text><text font-family="Aptos,Aptos_MSFontService,sans-serif" font-weight="400" font-size="19" transform="translate(696.794 205)">needed</text><text font-family="Aptos,Aptos_MSFontService,sans-serif" font-weight="400" font-size="19" transform="translate(757.627 205)">, all</text><text font-family="Aptos,Aptos_MSFontService,sans-serif" font-weight="400" font-size="19" transform="translate(587.294 227)">these</text><text font-family="Aptos,Aptos_MSFontService,sans-serif" font-weight="400" font-size="19" transform="translate(636.127 227)">steps</text><text font-family="Aptos,Aptos_MSFontService,sans-serif" font-weight="400" font-size="19" transform="translate(684.094 227)">are</text><text font-family="Aptos,Aptos_MSFontService,sans-serif" font-weight="400" font-size="19" transform="translate(713.674 227)">done</text><text font-family="Aptos,Aptos_MSFontService,sans-serif" font-weight="400" font-size="19" transform="translate(758.507 227)">in a</text><text font-family="Aptos,Aptos_MSFontService,sans-serif" font-weight="400" font-size="19" transform="translate(587.294 249)">loop</text><text font-family="Aptos,Aptos_MSFontService,sans-serif" font-weight="400" font-size="19" transform="translate(627.127 249)">for</text><text font-family="Aptos,Aptos_MSFontService,sans-serif" font-weight="400" font-size="19" transform="translate(652.887 249)">each</text><text font-family="Aptos,Aptos_MSFontService,sans-serif" font-weight="400" font-size="19" transform="translate(696.721 249)">chunk</text><path d="M435.5 193 532.5 193 532.5 179.5 559.5 206.5 532.5 233.5 532.5 220 435.5 220Z" stroke="#71B790" stroke-width="2.66667" stroke-miterlimit="8" fill="#D9D9D9" fill-rule="evenodd"/></g></svg>