<svg width="1280" height="720" xmlns="http://www.w3.org/2000/svg" xmlns:xlink="http://www.w3.org/1999/xlink" overflow="hidden"><defs><clipPath id="clip0"><rect x="0" y="0" width="1280" height="720"/></clipPath></defs><g clip-path="url(#clip0)"><rect x="0" y="0" width="1280" height="720" fill="#FFFFFF"/><path d="M453.5-332.5 453.5 735.353" stroke="#000000" stroke-width="3" stroke-linecap="square" stroke-miterlimit="8" stroke-dasharray="9 3" fill="none" fill-rule="evenodd"/><path d="M876.5-318.5 876.5 722.166" stroke="#000000" stroke-width="3" stroke-linecap="square" stroke-miterlimit="8" stroke-dasharray="9 3" fill="none" fill-rule="evenodd"/><text font-family="Aptos,Aptos_MSFontService,sans-serif" font-weight="700" font-size="24" transform="translate(179.988 45)">Farming Software</text><path d="M179.988 46.0097 227.738 46.0097 275.488 46.0097 323.238 46.0097 370.988 46.0097 370.988 47.0097 323.238 47.0097 275.488 47.0097 227.738 47.0097 179.988 47.0097Z" fill-rule="evenodd"/><text font-family="Aptos,Aptos_MSFontService,sans-serif" font-weight="700" font-size="24" transform="translate(179.988 74)">FrontEnd</text><path d="M179.988 75.0097 229.488 75.0097 278.988 75.0097 278.988 76.0097 229.488 76.0097 179.988 76.0097Z" fill-rule="evenodd"/><text font-family="Aptos,Aptos_MSFontService,sans-serif" font-weight="700" font-size="24" transform="translate(568.859 45)">Farmin</text><text font-family="Aptos,Aptos_MSFontService,sans-serif" font-weight="700" font-size="24" transform="translate(649.779 45)">Software</text><path d="M568.859 46.0097 614.859 46.0097 660.859 46.0097 706.859 46.0097 752.859 46.0097 752.859 47.0097 706.859 47.0097 660.859 47.0097 614.859 47.0097 568.859 47.0097Z" fill-rule="evenodd"/><text font-family="Aptos,Aptos_MSFontService,sans-serif" font-weight="700" font-size="24" transform="translate(568.859 74)">BackEnd</text><path d="M568.859 75.0097 616.859 75.0097 664.859 75.0097 664.859 76.0097 616.859 76.0097 568.859 76.0097Z" fill-rule="evenodd"/><text font-family="Aptos,Aptos_MSFontService,sans-serif" font-weight="700" font-size="24" transform="translate(970.885 45)">agrirouter</text><text font-family="Aptos,Aptos_MSFontService,sans-serif" font-weight="700" font-size="24" transform="translate(1083.5 45)">BackEnd</text><path d="M970.885 46.0097 1022.89 46.0097 1074.89 46.0097 1126.89 46.0097 1178.89 46.0097 1178.89 47.0097 1126.89 47.0097 1074.89 47.0097 1022.89 47.0097 970.885 47.0097Z" fill-rule="evenodd"/><path d="M0.500053 134.5C0.500053 128.977 4.97728 124.5 10.5002 124.5L154.5 124.5C160.023 124.5 164.5 128.977 164.5 134.5L164.5 174.5C164.5 180.023 160.023 184.5 154.5 184.5L10.5002 184.5C4.97728 184.5 0.500053 180.023 0.500053 174.5Z" stroke="#71B790" stroke-width="2.66667" stroke-miterlimit="8" fill="#FFFFFF" fill-rule="evenodd"/><text font-family="Aptos,Aptos_MSFontService,sans-serif" font-weight="400" font-size="21" transform="translate(59.8452 148)">Start</text><text font-family="Aptos,Aptos_MSFontService,sans-serif" font-weight="400" font-size="21" transform="translate(20.1986 173)">Authorization</text><path d="M493.5 214.834C493.5 207.47 499.47 201.5 506.834 201.5L761.166 201.5C768.53 201.5 774.5 207.47 774.5 214.834L774.5 268.166C774.5 275.53 768.53 281.5 761.166 281.5L506.834 281.5C499.47 281.5 493.5 275.53 493.5 268.166Z" stroke="#71B790" stroke-width="2.66667" stroke-miterlimit="8" fill="#FFFFFF" fill-rule="evenodd"/><text font-family="Aptos,Aptos_MSFontService,sans-serif" font-weight="400" font-size="21" transform="translate(546.904 235)">Call</text><text font-family="Aptos,Aptos_MSFontService,sans-serif" font-weight="400" font-size="21" transform="translate(588.404 235)">agrirouter</text><text font-family="Aptos,Aptos_MSFontService,sans-serif" font-weight="400" font-size="21" transform="translate(682.504 235)">URL</text><text font-family="Aptos,Aptos_MSFontService,sans-serif" font-weight="400" font-size="21" transform="translate(525.904 260)">/</text><text font-family="Aptos,Aptos_MSFontService,sans-serif" font-weight="400" font-size="21" transform="translate(532.864 260)">register</text><text font-family="Aptos,Aptos_MSFontService,sans-serif" font-weight="400" font-size="21" transform="translate(601.67 260)">/</text><text font-family="Aptos,Aptos_MSFontService,sans-serif" font-weight="400" font-size="21" transform="translate(607.557 260)">onboard</text><text font-family="Aptos,Aptos_MSFontService,sans-serif" font-weight="400" font-size="21" transform="translate(685.264 260)">/</text><text font-family="Aptos,Aptos_MSFontService,sans-serif" font-weight="400" font-size="21" transform="translate(692.224 260)">verify</text><path d="M938.5 311.167C938.5 308.037 941.037 305.5 944.167 305.5L1136.83 305.5C1139.96 305.5 1142.5 308.037 1142.5 311.167L1142.5 333.833C1142.5 336.963 1139.96 339.5 1136.83 339.5L944.167 339.5C941.037 339.5 938.5 336.963 938.5 333.833Z" stroke="#71B790" stroke-width="2.66667" stroke-miterlimit="8" fill="#FFFFFF" fill-rule="evenodd"/><text font-family="Aptos,Aptos_MSFontService,sans-serif" font-weight="400" font-size="21" transform="translate(958.483 330)">Return</text><text font-family="Aptos,Aptos_MSFontService,sans-serif" font-weight="400" font-size="21" transform="translate(1024.82 330)">accountID</text><path d="M0.152018-2.66233 16.126-1.75022 15.822 3.57444-0.152018 2.66233ZM21.4507-1.44618 37.4246-0.534074 37.1206 4.79059 21.1466 3.87848ZM42.7493-0.230038 58.7233 0.682072 58.4192 6.00673 42.4453 5.09462ZM64.0479 0.986109 80.0219 1.89822 79.7179 7.22288 63.7439 6.31077ZM85.3466 2.20226 101.321 3.11436 101.017 8.43902 85.0425 7.52692ZM106.645 3.4184 122.619 4.33051 122.315 9.65517 106.341 8.74306ZM127.944 4.63455 143.918 5.54666 143.614 10.8713 127.64 9.95921ZM149.243 5.85069 165.216 6.7628 164.912 12.0875 148.938 11.1754ZM170.541 7.06684 186.515 7.97895 186.211 13.3036 170.237 12.3915ZM191.84 8.28298 207.814 9.19509 207.51 14.5198 191.536 13.6076ZM213.138 9.49913 229.112 10.4112 228.808 15.7359 212.834 14.8238ZM234.437 10.7153 250.411 11.6274 250.107 16.952 234.133 16.0399ZM255.736 11.9314 271.71 12.8435 271.406 18.1682 255.432 17.2561ZM277.034 13.1476 293.008 14.0597 292.704 19.3843 276.73 18.4722ZM298.333 14.3637 314.307 15.2758 314.003 20.6005 298.029 19.6884ZM313.924 9.91192 329.442 18.811 313.012 25.8859Z" fill="#A6A6A6" transform="matrix(1 0 0 -1 164.5 154.311)"/><path d="M773.521 239.833 910.138 240.905 910.096 246.239 773.479 245.167ZM907.513 235.551 923.45 243.677 907.388 251.551Z" fill="#A6A6A6"/><text font-family="Aptos,Aptos_MSFontService,sans-serif" font-weight="700" font-size="24" transform="translate(34.293 45)">End User</text><path d="M34.293 46.0097 58.793 46.0097 83.293 46.0097 107.793 46.0097 132.293 46.0097 132.293 47.0097 107.793 47.0097 83.293 47.0097 58.793 47.0097 34.293 47.0097Z" fill-rule="evenodd"/><path d="M0 0 3.12304 1106.07" stroke="#000000" stroke-width="3" stroke-linecap="square" stroke-miterlimit="8" stroke-dasharray="9 3" fill="none" fill-rule="evenodd" transform="matrix(-1 0 0 1 164.623 -367.5)"/><path d="M924.5 190C924.5 178.678 933.678 169.5 945 169.5L1145 169.5C1156.32 169.5 1165.5 178.678 1165.5 190L1165.5 272C1165.5 283.322 1156.32 292.5 1145 292.5L945 292.5C933.678 292.5 924.5 283.322 924.5 272Z" stroke="#71B790" stroke-width="2.66667" stroke-miterlimit="8" fill="#FFFFFF" fill-rule="evenodd"/><text font-family="Aptos,Aptos_MSFontService,sans-serif" font-weight="700" font-size="21" transform="translate(1013.71 199)">Verify</text><text font-family="Aptos,Aptos_MSFontService,sans-serif" font-weight="400" font-size="21" transform="translate(1069.19 199)">:</text><path d="M1014.03 200.132 1041.53 200.132 1069.03 200.132 1069.03 201.132 1041.53 201.132 1014.03 201.132Z" fill-rule="evenodd"/><text font-family="Arial,Arial_MSFontService,sans-serif" font-weight="400" font-size="21" transform="translate(940.032 224)">•</text><text font-family="Aptos,Aptos_MSFontService,sans-serif" font-weight="400" font-size="21" transform="translate(970.032 224)">Registration Code</text><text font-family="Arial,Arial_MSFontService,sans-serif" font-weight="400" font-size="21" transform="translate(940.032 250)">•</text><text font-family="Aptos,Aptos_MSFontService,sans-serif" font-weight="400" font-size="21" transform="translate(970.032 250)">ApplicationID</text><text font-family="Arial,Arial_MSFontService,sans-serif" font-weight="400" font-size="21" transform="translate(940.032 275)">•</text><text font-family="Aptos,Aptos_MSFontService,sans-serif" font-weight="400" font-size="21" transform="translate(970.032 275)">Signature</text><path d="M0 2.66667-24.0001 2.66667-21.3334 0-21.3334 92.1537-24.0001 89.487 9.37512 89.487 9.37512 94.8204-26.6667 94.8204-26.6667-2.66667 0-2.66667ZM6.70845 84.1537 22.7085 92.1537 6.70845 100.154Z" fill="#A6A6A6" transform="matrix(-1 0 0 1 1165.21 230.5)"/><path d="M209.5 379.833C209.5 375.783 212.783 372.5 216.833 372.5L392.167 372.5C396.217 372.5 399.5 375.783 399.5 379.833L399.5 409.167C399.5 413.217 396.217 416.5 392.167 416.5L216.833 416.5C212.783 416.5 209.5 413.217 209.5 409.167Z" stroke="#71B790" stroke-width="2.66667" stroke-miterlimit="8" fill="#FFFFFF" fill-rule="evenodd"/><text font-family="Aptos,Aptos_MSFontService,sans-serif" font-weight="400" font-size="21" transform="translate(254.048 401)">Show</text><text font-family="Aptos,Aptos_MSFontService,sans-serif" font-weight="400" font-size="21" transform="translate(309.175 401)">error</text><path d="M501.5 392 524.25 346.5 734.75 346.5 757.5 392 734.75 437.5 524.25 437.5Z" stroke="#71B790" stroke-width="2.66667" stroke-miterlimit="8" fill="#FFFFFF" fill-rule="evenodd"/><text font-family="Aptos,Aptos_MSFontService,sans-serif" font-weight="400" font-size="21" transform="translate(557.987 386)">Account</text><text font-family="Aptos,Aptos_MSFontService,sans-serif" font-weight="400" font-size="21" transform="translate(639.654 386)">known</text><text font-family="Aptos,Aptos_MSFontService,sans-serif" font-weight="400" font-size="21" transform="translate(545.28 411)">For</text><text font-family="Aptos,Aptos_MSFontService,sans-serif" font-weight="400" font-size="21" transform="translate(579.507 411)">different</text><text font-family="Aptos,Aptos_MSFontService,sans-serif" font-weight="400" font-size="21" transform="translate(661.607 411)">user</text><text font-family="Aptos,Aptos_MSFontService,sans-serif" font-weight="400" font-size="21" transform="translate(702.647 411)">?</text><path d="M629 345C629 343.895 630.119 343 631.5 343 632.881 343 634 343.895 634 345 634 346.105 632.881 347 631.5 347 630.119 347 629 346.105 629 345Z" stroke="#71B790" stroke-width="2" stroke-miterlimit="8" fill="none" fill-rule="evenodd"/><path d="M0-2.66667 308.611-2.66667 308.611 7.58362 303.278 7.58362 303.278 0 305.944 2.66667 0 2.66667ZM313.944 4.91695 305.944 20.917 297.944 4.91695Z" fill="#A6A6A6" transform="matrix(-1 1.22465e-16 1.22465e-16 1 938.444 322.5)"/><path d="M503.775 394.09 409.783 392.405 409.879 387.073 503.87 388.758ZM412.354 397.786 396.5 389.5 412.641 381.788Z" fill="#71B790"/><text font-family="Aptos,Aptos_MSFontService,sans-serif" font-weight="400" font-size="24" transform="translate(418.092 385)">Yes</text><path d="M492.5 492C492.5 485.097 498.097 479.5 505 479.5L802 479.5C808.903 479.5 814.5 485.097 814.5 492L814.5 542C814.5 548.903 808.903 554.5 802 554.5L505 554.5C498.097 554.5 492.5 548.903 492.5 542Z" stroke="#71B790" stroke-width="2.66667" stroke-miterlimit="8" fill="#FFFFFF" fill-rule="evenodd"/><text font-family="Aptos,Aptos_MSFontService,sans-serif" font-weight="400" font-size="21" transform="translate(565.796 511)">Call</text><text font-family="Aptos,Aptos_MSFontService,sans-serif" font-weight="400" font-size="21" transform="translate(607.296 511)">agrirouter</text><text font-family="Aptos,Aptos_MSFontService,sans-serif" font-weight="400" font-size="21" transform="translate(701.396 511)">URL</text><text font-family="Aptos,Aptos_MSFontService,sans-serif" font-weight="400" font-size="21" transform="translate(534.396 536)">/</text><text font-family="Aptos,Aptos_MSFontService,sans-serif" font-weight="400" font-size="21" transform="translate(541.356 536)">register</text><text font-family="Aptos,Aptos_MSFontService,sans-serif" font-weight="400" font-size="21" transform="translate(610.163 536)">/</text><text font-family="Aptos,Aptos_MSFontService,sans-serif" font-weight="400" font-size="21" transform="translate(616.049 536)">onboard</text><text font-family="Aptos,Aptos_MSFontService,sans-serif" font-weight="400" font-size="21" transform="translate(693.756 536)">/</text><text font-family="Aptos,Aptos_MSFontService,sans-serif" font-weight="400" font-size="21" transform="translate(700.716 536)">request</text><text font-family="Aptos,Aptos_MSFontService,sans-serif" font-weight="400" font-size="24" transform="translate(769.852 387)">No</text><path d="M907.5 470.667C907.5 460.081 916.081 451.5 926.667 451.5L1132.33 451.5C1142.92 451.5 1151.5 460.081 1151.5 470.667L1151.5 547.333C1151.5 557.919 1142.92 566.5 1132.33 566.5L926.667 566.5C916.081 566.5 907.5 557.919 907.5 547.333Z" stroke="#71B790" stroke-width="2.66667" stroke-miterlimit="8" fill="#FFFFFF" fill-rule="evenodd"/><text font-family="Aptos,Aptos_MSFontService,sans-serif" font-weight="700" font-size="21" transform="translate(997.62 477)">Verify</text><text font-family="Aptos,Aptos_MSFontService,sans-serif" font-weight="700" font-size="21" transform="translate(1053.11 477)">:</text><path d="M997.78 478.335 1028.78 478.335 1059.78 478.335 1059.78 479.335 1028.78 479.335 997.78 479.335Z" fill-rule="evenodd"/><text font-family="Arial,Arial_MSFontService,sans-serif" font-weight="400" font-size="21" transform="translate(921.78 502)">•</text><text font-family="Aptos,Aptos_MSFontService,sans-serif" font-weight="400" font-size="21" transform="translate(951.78 502)">Signature</text><text font-family="Arial,Arial_MSFontService,sans-serif" font-weight="400" font-size="21" transform="translate(921.78 528)">•</text><text font-family="Aptos,Aptos_MSFontService,sans-serif" font-weight="400" font-size="21" transform="translate(951.78 528)">Registration Code</text><text font-family="Arial,Arial_MSFontService,sans-serif" font-weight="400" font-size="21" transform="translate(921.78 553)">•</text><text font-family="Aptos,Aptos_MSFontService,sans-serif" font-weight="400" font-size="21" transform="translate(951.78 553)">ApplicationID</text><path d="M0.0650082-2.66587 83.2224-0.638054 83.0924 4.69369-0.0650082 2.66587ZM80.6865-6.03481 96.4867 2.35286 80.2964 9.96043Z" fill="#A6A6A6" transform="matrix(1 0 0 -1 816.5 518.853)"/><path d="M910.5 585.834C910.5 579.022 916.022 573.5 922.834 573.5L1139.17 573.5C1145.98 573.5 1151.5 579.022 1151.5 585.834L1151.5 635.166C1151.5 641.978 1145.98 647.5 1139.17 647.5L922.834 647.5C916.022 647.5 910.5 641.978 910.5 635.166Z" stroke="#71B790" stroke-width="2.66667" stroke-miterlimit="8" fill="#FFFFFF" fill-rule="evenodd"/><text font-family="Aptos,Aptos_MSFontService,sans-serif" font-weight="400" font-size="24" transform="translate(946.413 618)">Create Endpoint</text><path d="M0 2.66667-24 2.66667-21.3333 0-21.3333 101.409-24 98.7426-13.3328 98.7426-13.3328 104.076-26.6667 104.076-26.6667-2.66667 0-2.66667ZM-15.9995 93.4092 0.000524934 101.409-15.9995 109.409Z" fill="#A6A6A6" transform="matrix(-1 0 0 1 1151.5 509.5)"/><path d="M515.5 587.167C515.5 578.514 522.514 571.5 531.167 571.5L763.833 571.5C772.486 571.5 779.5 578.514 779.5 587.167L779.5 649.833C779.5 658.486 772.486 665.5 763.833 665.5L531.167 665.5C522.514 665.5 515.5 658.486 515.5 649.833Z" stroke="#71B790" stroke-width="2.66667" stroke-miterlimit="8" fill="#FFFFFF" fill-rule="evenodd"/><text font-family="Aptos,Aptos_MSFontService,sans-serif" font-weight="400" font-size="21" transform="translate(552.238 600)">Store</text><text font-family="Aptos,Aptos_MSFontService,sans-serif" font-weight="400" font-size="21" transform="translate(605.172 600)">information</text><text font-family="Aptos,Aptos_MSFontService,sans-serif" font-weight="400" font-size="21" transform="translate(716.712 600)">for</text><text font-family="Aptos,Aptos_MSFontService,sans-serif" font-weight="400" font-size="21" transform="translate(594.125 625)">Revoke</text><text font-family="Aptos,Aptos_MSFontService,sans-serif" font-weight="400" font-size="21" transform="translate(664.885 625)">and</text><text font-family="Aptos,Aptos_MSFontService,sans-serif" font-weight="400" font-size="21" transform="translate(572.158 651)">Communication</text><path d="M0.161957-2.66174 118.46 4.53624 118.136 9.85973-0.161957 2.66174ZM116.122-0.949207 131.606 8.00777 115.15 15.0213Z" fill="#A6A6A6" transform="matrix(-1 0 0 1 911.106 610.5)"/><path d="M493.5 115.667C493.5 110.052 498.052 105.5 503.667 105.5L763.333 105.5C768.948 105.5 773.5 110.052 773.5 115.667L773.5 156.333C773.5 161.948 768.948 166.5 763.333 166.5L503.667 166.5C498.052 166.5 493.5 161.948 493.5 156.333Z" stroke="#71B790" stroke-width="2.66667" stroke-miterlimit="8" fill="#FFFFFF" fill-rule="evenodd"/><text font-family="Aptos,Aptos_MSFontService,sans-serif" font-weight="400" font-size="21" transform="translate(507.138 130)">Use Registration Code</text><text font-family="Aptos,Aptos_MSFontService,sans-serif" font-weight="400" font-size="21" transform="translate(716.005 130)">from</text><text font-family="Aptos,Aptos_MSFontService,sans-serif" font-weight="400" font-size="21" transform="translate(571.571 155)">Authorization</text><path d="M636.166 166.46 636.496 188.489 631.163 188.569 630.834 166.54ZM641.789 185.743 634.029 201.86 625.791 185.982Z" fill="#A6A6A6"/><path d="M186 210 313.75 210 313.75 210 368.5 210 405 210 405 280 524.143 373.105 405 310 405 330 368.5 330 313.75 330 313.75 330 186 330 186 310 186 280 186 280Z" stroke="#71B790" stroke-width="2" stroke-miterlimit="8" fill="#D9D9D9" fill-rule="evenodd"/><text font-family="Aptos,Aptos_MSFontService,sans-serif" font-weight="400" font-size="19" transform="translate(206.366 254)">Useful</text><text font-family="Aptos,Aptos_MSFontService,sans-serif" font-weight="400" font-size="19" transform="translate(258.846 254)">,</text><text font-family="Aptos,Aptos_MSFontService,sans-serif" font-weight="400" font-size="19" transform="translate(268.012 254)">if</text><text font-family="Aptos,Aptos_MSFontService,sans-serif" font-weight="400" font-size="19" transform="translate(282.012 254)">app</text><text font-family="Aptos,Aptos_MSFontService,sans-serif" font-weight="400" font-size="19" transform="translate(316.846 254)">can</text><text font-family="Aptos,Aptos_MSFontService,sans-serif" font-weight="400" font-size="19" transform="translate(350.739 254)">only</text><text font-family="Aptos,Aptos_MSFontService,sans-serif" font-weight="400" font-size="19" transform="translate(202.099 277)">be</text><text font-family="Aptos,Aptos_MSFontService,sans-serif" font-weight="400" font-size="19" transform="translate(226.266 277)">onboarded</text><text font-family="Aptos,Aptos_MSFontService,sans-serif" font-weight="400" font-size="19" transform="translate(318.346 277)">once</text><text font-family="Aptos,Aptos_MSFontService,sans-serif" font-weight="400" font-size="19" transform="translate(362.512 277)">per</text><text font-family="Aptos,Aptos_MSFontService,sans-serif" font-weight="400" font-size="19" transform="translate(262.139 299)">account</text><path d="M0 2.66667-21.9405 2.66667-19.2738 0-19.2738 69.8582-21.9405 67.1915 90.3867 67.1915 90.3867 77.8166 85.0533 77.8166 85.0533 69.8582 87.72 72.5248-24.6072 72.5248-24.6072-2.66667 0-2.66667ZM95.72 75.1499 87.72 91.1499 79.72 75.1499Z" fill="#FF7C80" transform="matrix(-1 0 0 1 753.22 391.5)"/></g></svg>