<svg width="1280" height="720" xmlns="http://www.w3.org/2000/svg" xmlns:xlink="http://www.w3.org/1999/xlink" overflow="hidden"><defs><clipPath id="clip0"><rect x="0" y="0" width="1280" height="720"/></clipPath><clipPath id="clip1"><rect x="332" y="90" width="603" height="623"/></clipPath><clipPath id="clip2"><rect x="332" y="90" width="604" height="623"/></clipPath><clipPath id="clip3"><rect x="332" y="90" width="604" height="623"/></clipPath></defs><g clip-path="url(#clip0)"><rect x="0" y="0" width="1280" height="720" fill="#FFFFFF"/><g clip-path="url(#clip1)"><g clip-path="url(#clip2)"><g clip-path="url(#clip3)"><path d="M565.493 291.113 584.535 310.155 603 291.69C597.807 133.295 469.994 5.48182 311.887 0L330.352 18.4651 311.31 37.5072C448.932 42.7005 560.011 153.491 565.493 291.113Z" fill="#D5EADE" transform="matrix(1 0 0 1.03317 332 90)"/><path d="M18.4651 272.648 37.5072 291.69C42.7005 154.068 153.491 42.989 291.113 37.5072L310.155 18.4651 291.402 0C133.295 5.1933 5.48182 133.006 0 291.113L18.4651 272.648Z" fill="#D5EADE" transform="matrix(1 0 0 1.03317 332 90)"/><path d="M584.535 330.352 565.493 311.31C563.185 373.341 539.526 429.89 501.442 474.033L420.657 331.794 438.545 331.794C482.689 331.794 518.465 296.018 518.465 251.875 518.465 207.732 482.689 171.956 438.545 171.956L333.237 171.956C322.85 171.956 314.483 180.323 314.483 190.71L314.483 365.262 208.309 181.477C204.847 175.707 198.788 172.244 192.152 172.244 185.516 172.244 179.169 175.707 175.995 181.477L53.6641 393.248C44.1431 367.859 38.6612 340.45 37.5072 311.887L18.4651 292.844 0 311.598C5.1933 469.994 133.006 597.807 291.113 603L272.648 584.535 291.69 565.493C198.5 562.031 117.426 510.098 73.2832 434.218L192.441 227.928 317.368 444.316C321.696 451.529 330.352 455.279 338.43 452.971 346.509 450.663 352.279 443.45 352.279 434.795L352.279 209.463 438.834 209.463C462.204 209.463 481.246 228.505 481.246 251.875 481.246 275.245 462.204 294.287 438.834 294.287L388.632 294.287C381.996 294.287 375.937 297.749 372.475 303.52 369.013 309.29 369.013 316.503 372.475 322.273L474.322 501.442C430.467 539.238 374.206 563.185 312.175 565.493L293.133 584.535 311.598 603C469.994 597.807 597.807 469.994 603 311.887L584.535 330.352Z" fill="#D5EADE" transform="matrix(1 0 0 1.03317 332 90)"/></g></g></g><text font-family="Aptos,Aptos_MSFontService,sans-serif" font-weight="400" font-size="24" transform="translate(157.835 35)">1:Sending</text><text font-family="Aptos,Aptos_MSFontService,sans-serif" font-weight="400" font-size="24" transform="translate(11.7888 149)">The</text><text font-family="Aptos,Aptos_MSFontService,sans-serif" font-weight="400" font-size="24" transform="translate(53.9554 149)">onion</text><text font-family="Aptos,Aptos_MSFontService,sans-serif" font-weight="400" font-size="24" transform="translate(117.122 149)">Principle</text><text font-family="Aptos,Aptos_MSFontService,sans-serif" font-weight="400" font-size="24" transform="translate(208.222 149)">:</text><path d="M11.7888 150.18 62.5388 150.18 113.289 150.18 164.039 150.18 214.789 150.18 214.789 151.18 164.039 151.18 113.289 151.18 62.5388 151.18 11.7888 151.18Z" fill-rule="evenodd"/><text font-family="Aptos,Aptos_MSFontService,sans-serif" font-weight="400" font-size="24" transform="translate(14.6067 189)">1.Protocol Layer</text><text font-family="Aptos,Aptos_MSFontService,sans-serif" font-weight="400" font-size="24" transform="translate(14.6067 218)">2.Endpoint Layer</text><text font-family="Aptos,Aptos_MSFontService,sans-serif" font-weight="400" font-size="24" transform="translate(14.6067 247)">3.Message</text><text font-family="Aptos,Aptos_MSFontService,sans-serif" font-weight="400" font-size="24" transform="translate(131.1 247)">Layer</text><rect x="17" y="291" width="186" height="138" stroke="#6AAC87" stroke-width="2" stroke-miterlimit="8" fill="#71B790"/><text font-family="Aptos,Aptos_MSFontService,sans-serif" font-weight="400" font-size="24" transform="translate(87.0634 341)">EP 1;</text><text font-family="Aptos,Aptos_MSFontService,sans-serif" font-weight="400" font-size="24" transform="translate(62.65 370)">SENDING</text><rect x="205" y="291" width="345" height="137" stroke="#A6A6A6" stroke-width="2" stroke-miterlimit="8" fill="#FFFFFF"/><rect x="206" y="324" width="341" height="38" stroke="#000000" stroke-width="2" stroke-miterlimit="8" fill="#FFFFFF"/><rect x="206" y="360" width="343" height="37" stroke="#000000" stroke-width="2" stroke-miterlimit="8" fill="#FFFFFF"/><text fill="#71B790" font-family="Aptos,Aptos_MSFontService,sans-serif" font-weight="400" font-size="21" transform="translate(447.794 350)">OUTBOX</text><rect x="215" y="365" width="149" height="27" stroke="#000000" stroke-width="2" stroke-miterlimit="8" fill="#6AAC87"/><text fill="#FFFFFF" font-family="Aptos,Aptos_MSFontService,sans-serif" font-weight="400" font-size="24" transform="translate(257.325 386)">TaskData</text><path d="M611 216.75 658.5 216.75 658.5 212 668 221.5 658.5 231 658.5 226.25 611 226.25Z" stroke="#6AAC87" stroke-width="2" stroke-miterlimit="8" fill="#FFFFFF" fill-rule="evenodd"/><text fill="#6AAC87" font-family="Aptos,Aptos_MSFontService,sans-serif" font-weight="400" font-size="24" transform="translate(447.247 381)">INBOX</text><path d="M193.707 242.293 284.993 333.579 283.579 334.993 192.293 243.707ZM286.172 330.515 289 339 280.515 336.172Z"/><path d="M200.583 215.187 394.694 354.362 393.529 355.987 199.417 216.813ZM395.358 351.146 399.529 359.059 390.697 357.648Z"/><path d="M211.46 188.112 481.542 328.103 480.621 329.879 210.54 189.888ZM481.738 324.826 487 332.059 478.056 331.928Z"/><path d="M550.04 377.001 561.077 377.44 572.086 378.698 582.841 380.711 593.407 383.415 603.598 386.812 613.41 390.837 622.663 395.369 631.289 400.47 639.226 405.95 646.415 411.815 652.799 418.008 658.186 424.536 662.503 431.33 665.753 438.275 667.737 445.314 668.433 452.402 669.12 459.402 669.088 459.229 671.025 466.104 670.968 465.951 674.156 472.764 674.094 472.651 678.344 479.339 678.271 479.238 683.584 485.676 683.509 485.595 689.821 491.72 689.757 491.663 696.882 497.475 696.823 497.43 704.698 502.93 704.629 502.886 713.192 507.886 713.127 507.852 722.315 512.352 722.255 512.325 732.005 516.325 731.941 516.301 742.066 519.676 741.998 519.656 752.498 522.344 752.434 522.33 763.121 524.33 763.051 524.319 773.989 525.569 773.91 525.563 778.195 525.711 778.126 527.71 773.801 527.561 762.789 526.302 752.034 524.289 741.468 521.585 731.277 518.188 721.465 514.163 712.215 509.632 703.586 504.593 695.647 499.048 688.46 493.185 682.076 486.992 676.689 480.464 672.372 473.67 669.122 466.725 667.138 459.686 666.442 452.598 665.755 445.598 665.787 445.771 663.85 438.896 663.907 439.049 660.719 432.236 660.781 432.349 656.531 425.661 656.604 425.761 651.291 419.324 651.366 419.405 645.054 413.28 645.118 413.337 637.993 407.525 638.057 407.573 630.182 402.135 630.241 402.173 621.679 397.111 621.748 397.148 612.56 392.648 612.62 392.675 602.87 388.675 602.934 388.699 592.809 385.324 592.877 385.344 582.377 382.656 582.441 382.67 571.754 380.67 571.824 380.681 560.886 379.431 560.96 379.437 549.96 378.999ZM776.967 522.667 784.823 526.941 776.69 530.662Z" fill="#71B790"/><path d="M0.0370117-0.999315 11.8814-0.560636 23.696 0.633397 35.2562 2.58104 46.6289 5.15718 57.565 8.42544 68.0595 12.2588 77.9939 16.5972 87.3067 21.4424 95.8707 26.7319 103.564 32.344 110.388 38.3467 116.149 44.6142 120.851 51.032 124.365 57.7412 126.483 64.5438 127.244 71.326 127.994 78.0135 127.955 77.8277 130.017 84.4527 129.948 84.286 133.386 90.8485 133.307 90.7215 137.932 97.034 137.861 96.9483 143.549 103.136 143.473 103.062 150.223 108.999 150.152 108.942 157.777 114.505 157.713 114.462 166.213 119.712 166.149 119.675 175.399 124.488 175.338 124.459 185.213 128.771 185.156 128.748 195.593 132.561 195.536 132.542 206.411 135.792 206.346 135.775 217.658 138.337 217.604 138.326 229.104 140.264 229.038 140.255 240.788 141.443 240.72 141.438 245.84 141.606 245.775 143.605 240.621 143.436 228.804 142.242 217.244 140.294 205.871 137.718 194.935 134.45 184.44 130.616 174.506 126.278 165.193 121.433 156.629 116.143 148.936 110.531 142.112 104.528 136.351 98.2608 131.649 91.843 128.135 85.1338 126.017 78.3312 125.256 71.549 124.506 64.8615 124.545 65.0472 122.483 58.4222 122.552 58.589 119.114 52.0265 119.193 52.1535 114.568 45.841 114.639 45.9267 108.951 39.7392 109.027 39.8134 102.277 33.8759 102.348 33.9329 94.7231 28.3704 94.787 28.4133 86.287 23.1633 86.351 23.1996 77.101 18.3871 77.1623 18.4164 67.2873 14.1039 67.3444 14.1268 56.9069 10.3143 56.9637 10.3331 46.0887 7.08313 46.1541 7.10029 34.8416 4.53779 34.8964 4.5486 23.3964 2.6111 23.4619 2.61993 11.7119 1.43243 11.7755 1.43681-0.0370117 0.999315ZM244.606 138.564 252.471 142.824 244.344 146.559Z" fill="#71B790" transform="matrix(1 0 0 -1 550 374.824)"/><path d="M784.772 150.643 1120.64 73.1009 1151.34 206.074 815.471 283.616Z" stroke="#A6A6A6" stroke-width="2" stroke-miterlimit="8" fill="#FFFFFF" fill-rule="evenodd"/><path d="M818.061 452.546 1151.02 541.762 1115.7 673.583 782.74 584.366Z" stroke="#A6A6A6" stroke-width="2" stroke-miterlimit="8" fill="#FFFFFF" fill-rule="evenodd"/><path d="M790.209 178.175 1126.23 106.751 1134.06 143.576 798.036 214.999Z" stroke="#000000" stroke-width="2" stroke-miterlimit="8" fill="#FFFFFF" fill-rule="evenodd"/><path d="M799.621 215.822 1135.64 144.398 1143.47 181.223 807.448 252.646Z" stroke="#000000" stroke-width="2" stroke-miterlimit="8" fill="#FFFFFF" fill-rule="evenodd"/><path d="M809.329 482.943 1141.15 571.855 1131.41 608.219 799.585 519.307Z" stroke="#000000" stroke-width="2" stroke-miterlimit="8" fill="#FFFFFF" fill-rule="evenodd"/><text fill="#71B790" font-family="Aptos,Aptos_MSFontService,sans-serif" font-weight="400" font-size="21" transform="matrix(0.965926 0.258819 -0.258819 0.965926 811.867 511)">OUTBOX</text><text fill="#FFFFFF" font-family="Arial,Arial_MSFontService,sans-serif" font-weight="400" font-size="21" transform="matrix(0.965926 0.258819 -0.258819 0.965926 889.353 531)">​</text><path d="M802.211 518.966 1132.43 613.655 1122.06 649.844 791.835 555.154Z" stroke="#000000" stroke-width="2" stroke-miterlimit="8" fill="#FFFFFF" fill-rule="evenodd"/><text fill="#71B790" font-family="Aptos,Aptos_MSFontService,sans-serif" font-weight="400" font-size="21" transform="matrix(0.978148 -0.207912 0.207912 0.978148 805.292 205)">OUTBOX</text><text font-family="Arial,Arial_MSFontService,sans-serif" font-weight="400" font-size="21" transform="matrix(0.978148 -0.207912 0.207912 0.978148 883.759 188)">​</text><text fill="#6AAC87" font-family="Aptos,Aptos_MSFontService,sans-serif" font-weight="400" font-size="24" transform="matrix(0.981627 -0.190809 0.190809 0.981627 816.543 241)">INBOX</text><text font-family="Arial,Arial_MSFontService,sans-serif" font-weight="400" font-size="24" transform="matrix(0.981627 -0.190809 0.190809 0.981627 883.287 228)">​</text><text fill="#6AAC87" font-family="Aptos,Aptos_MSFontService,sans-serif" font-weight="400" font-size="24" transform="matrix(0.965926 0.258819 -0.258819 0.965926 802.379 548)">INBOX</text><text font-family="Arial,Arial_MSFontService,sans-serif" font-weight="400" font-size="24" transform="matrix(0.965926 0.258819 -0.258819 0.965926 868.055 565)">​</text><path d="M898.998 159.946 1043.99 129.126 1049.62 155.594 904.624 186.414Z" stroke="#000000" stroke-width="2" stroke-miterlimit="8" fill="#6AAC87" fill-rule="evenodd"/><text fill="#FFFFFF" font-family="Aptos,Aptos_MSFontService,sans-serif" font-weight="400" font-size="24" transform="matrix(0.978148 -0.207912 0.207912 0.978148 929.17 175)">TaskData</text><path d="M908.572 516.107 1051.76 554.473 1044.75 580.61 901.568 542.243Z" stroke="#000000" stroke-width="2" stroke-miterlimit="8" fill="#6AAC87" fill-rule="evenodd"/><text fill="#FFFFFF" font-family="Aptos,Aptos_MSFontService,sans-serif" font-weight="400" font-size="24" transform="matrix(0.965926 0.258819 -0.258819 0.965926 928.559 543)">TaskData</text><path d="M1063.97 132.916 1110.17 123.937 1109.27 119.317 1120.3 126.76 1112.86 137.795 1111.96 133.175 1065.77 142.155Z" stroke="#6AAC87" stroke-width="2" stroke-miterlimit="8" fill="#FFFFFF" fill-rule="evenodd"/><path d="M1065.35 567.353 1110.81 579.533 1112.03 574.987 1118.68 586.514 1107.16 593.169 1108.37 588.624 1062.92 576.444Z" stroke="#6AAC87" stroke-width="2" stroke-miterlimit="8" fill="#FFFFFF" fill-rule="evenodd"/><rect x="1134" y="58" width="142" height="138" stroke="#6AAC87" stroke-width="2" stroke-miterlimit="8" fill="#71B790"/><text font-family="Aptos,Aptos_MSFontService,sans-serif" font-weight="400" font-size="24" transform="translate(1178.25 103)">EP 2;</text><text font-family="Aptos,Aptos_MSFontService,sans-serif" font-weight="400" font-size="24" transform="translate(1149.24 132)">addressed</text><rect x="1127" y="533" width="153" height="145" stroke="#6AAC87" stroke-width="2" stroke-miterlimit="8" fill="#71B790"/><text font-family="Aptos,Aptos_MSFontService,sans-serif" font-weight="400" font-size="24" transform="translate(1178.24 590)">EP 3;</text><text font-family="Aptos,Aptos_MSFontService,sans-serif" font-weight="400" font-size="24" transform="translate(1145.08 619)">Subscribed</text><text font-family="Aptos,Aptos_MSFontService,sans-serif" font-weight="400" font-size="24" transform="translate(549.107 228)">EP1</text><text font-family="Aptos,Aptos_MSFontService,sans-serif" font-weight="400" font-size="24" transform="translate(686.043 229)">EP2</text><path d="M623 549.75 670.5 549.75 670.5 545 680 554.5 670.5 564 670.5 559.25 623 559.25Z" stroke="#6AAC87" stroke-width="2" stroke-miterlimit="8" fill="#FFFFFF" fill-rule="evenodd"/><text font-family="Aptos,Aptos_MSFontService,sans-serif" font-weight="400" font-size="24" transform="translate(560.872 561)">EP1</text><text font-family="Aptos,Aptos_MSFontService,sans-serif" font-weight="400" font-size="24" transform="translate(697.808 562)">EP3</text><text font-family="Aptos,Aptos_MSFontService,sans-serif" font-weight="400" font-size="24" transform="translate(494.306 35)">2:Addressing</text><text font-family="Aptos,Aptos_MSFontService,sans-serif" font-weight="400" font-size="24" transform="translate(634.146 35)">and</text><text font-family="Aptos,Aptos_MSFontService,sans-serif" font-weight="400" font-size="24" transform="translate(678.479 35)">Routing</text><text font-family="Aptos,Aptos_MSFontService,sans-serif" font-weight="400" font-size="24" transform="translate(1062.02 35)">3:Receiving</text></g></svg>