<svg width="1280" height="720" xmlns="http://www.w3.org/2000/svg" xmlns:xlink="http://www.w3.org/1999/xlink" overflow="hidden"><defs><clipPath id="clip0"><rect x="0" y="0" width="1280" height="720"/></clipPath><clipPath id="clip1"><rect x="290" y="14" width="705" height="706"/></clipPath><clipPath id="clip2"><rect x="290" y="14" width="706" height="706"/></clipPath><clipPath id="clip3"><rect x="290" y="14" width="706" height="706"/></clipPath><clipPath id="clip4"><rect x="649" y="-7" width="81" height="203"/></clipPath><clipPath id="clip5"><rect x="729" y="-7" width="101" height="203"/></clipPath><clipPath id="clip6"><rect x="829" y="-7" width="62" height="203"/></clipPath><clipPath id="clip7"><rect x="649" y="31" width="81" height="203"/></clipPath><clipPath id="clip8"><rect x="729" y="-55" width="101" height="404"/></clipPath><clipPath id="clip9"><rect x="729" y="-55" width="101" height="404"/></clipPath><clipPath id="clip10"><rect x="829" y="31" width="62" height="203"/></clipPath><clipPath id="clip11"><rect x="649" y="99" width="81" height="202"/></clipPath><clipPath id="clip12"><rect x="729" y="99" width="101" height="202"/></clipPath><clipPath id="clip13"><rect x="829" y="99" width="62" height="202"/></clipPath></defs><g clip-path="url(#clip0)"><rect x="0" y="0" width="1280" height="720" fill="#FFFFFF"/><g clip-path="url(#clip1)"><g clip-path="url(#clip2)"><g clip-path="url(#clip3)"><path d="M661.148 340.356 683.411 362.62 705 341.031C698.928 155.842 549.495 6.40909 364.644 0L386.232 21.5885 363.969 43.8517C524.871 49.9234 654.739 179.455 661.148 340.356Z" fill="#D5EADE" transform="matrix(1 0 0 1.00142 290 14)"/><path d="M21.5885 318.768 43.8517 341.031C49.9234 180.129 179.455 50.2608 340.356 43.8517L362.62 21.5885 340.694 0C155.842 6.07177 6.40909 155.505 0 340.356L21.5885 318.768Z" fill="#D5EADE" transform="matrix(1 0 0 1.00142 290 14)"/><path d="M683.411 386.232 661.148 363.969C658.45 436.493 630.789 502.608 586.263 554.218L491.813 387.919 512.727 387.919C564.337 387.919 606.165 346.091 606.165 294.481 606.165 242.871 564.337 201.043 512.727 201.043L389.605 201.043C377.462 201.043 367.679 210.825 367.679 222.969L367.679 427.048 243.545 212.175C239.498 205.428 232.414 201.38 224.655 201.38 216.897 201.38 209.476 205.428 205.766 212.175L62.7416 459.768C51.61 430.084 45.201 398.038 43.8517 364.644L21.5885 342.38 0 364.306C6.07177 549.495 155.505 698.928 340.356 705L318.768 683.411 341.031 661.148C232.077 657.1 137.289 596.383 85.6794 507.667L224.993 266.483 371.053 519.474C376.112 527.907 386.232 532.292 395.677 529.593 405.122 526.895 411.868 518.462 411.868 508.342L411.868 244.895 513.065 244.895C540.388 244.895 562.651 267.158 562.651 294.481 562.651 321.804 540.388 344.067 513.065 344.067L454.371 344.067C446.612 344.067 439.529 348.115 435.481 354.861 431.433 361.608 431.433 370.041 435.481 376.787L554.555 586.263C503.282 630.452 437.505 658.45 364.981 661.148L342.718 683.411 364.306 705C549.495 698.928 698.928 549.495 705 364.644L683.411 386.232Z" fill="#D5EADE" transform="matrix(1 0 0 1.00142 290 14)"/></g></g></g><rect x="79.5001" y="294.5" width="254" height="186" stroke="#71B790" stroke-width="2.66667" stroke-miterlimit="8" fill="none"/><text font-family="Calibri,Calibri_MSFontService,sans-serif" font-weight="400" font-size="24" transform="translate(119.019 321)">Endpoint 1: „EP1“</text><path d="M118.912 324.248 176.912 324.248 234.912 324.248 292.912 324.248 292.912 326.248 234.912 326.248 176.912 326.248 118.912 326.248Z" fill-rule="evenodd"/><rect x="941.5" y="200.5" width="229" height="166" stroke="#71B790" stroke-width="2.66667" stroke-miterlimit="8" fill="none"/><text font-family="Calibri,Calibri_MSFontService,sans-serif" font-weight="400" font-size="24" transform="translate(968.245 226)">Endpoint 2: „EP2“</text><path d="M968.472 229.361 1011.97 229.361 1055.47 229.361 1098.97 229.361 1142.47 229.361 1142.47 231.361 1098.97 231.361 1055.47 231.361 1011.97 231.361 968.472 231.361Z" fill-rule="evenodd"/><rect x="941.5" y="527.5" width="229" height="110" stroke="#71B790" stroke-width="2.66667" stroke-miterlimit="8" fill="none"/><text font-family="Calibri,Calibri_MSFontService,sans-serif" font-weight="400" font-size="24" transform="translate(968.245 553)">Endpoint 3: „EP3“</text><path d="M968.472 556.481 1011.97 556.481 1055.47 556.481 1098.97 556.481 1142.47 556.481 1142.47 558.481 1098.97 558.481 1055.47 558.481 1011.97 558.481 968.472 558.481Z" fill-rule="evenodd"/><text font-family="Calibri,Calibri_MSFontService,sans-serif" font-weight="700" font-size="24" transform="translate(721.545 52)">Routings</text><rect x="89" y="349" width="229" height="51" stroke="#000000" stroke-width="2" stroke-miterlimit="8" fill="#71B790"/><text fill="#FFFFFF" font-family="Calibri,Calibri_MSFontService,sans-serif" font-weight="400" font-size="24" transform="translate(110.377 382)">TMT1</text><text fill="#FFFFFF" font-family="Calibri,Calibri_MSFontService,sans-serif" font-weight="400" font-size="24" transform="translate(171.877 382)">to</text><text fill="#FFFFFF" font-family="Calibri,Calibri_MSFontService,sans-serif" font-weight="400" font-size="24" transform="translate(197.81 382)">[EP2, EP3]</text><rect x="90" y="408" width="230" height="51" stroke="#000000" stroke-width="2" stroke-miterlimit="8" fill="#71B790"/><text fill="#FFFFFF" font-family="Calibri,Calibri_MSFontService,sans-serif" font-weight="400" font-size="24" transform="translate(111.977 441)">TMT2</text><text fill="#FFFFFF" font-family="Calibri,Calibri_MSFontService,sans-serif" font-weight="400" font-size="24" transform="translate(173.477 441)">to</text><text fill="#FFFFFF" font-family="Calibri,Calibri_MSFontService,sans-serif" font-weight="400" font-size="24" transform="translate(199.41 441)">[EP2, EP3]</text><rect x="954" y="241" width="207" height="45" stroke="#000000" stroke-width="2" stroke-miterlimit="8" fill="#71B790"/><text fill="#FFFFFF" font-family="Calibri,Calibri_MSFontService,sans-serif" font-weight="400" font-size="24" transform="translate(982.086 271)">TMT1</text><text fill="#FFFFFF" font-family="Calibri,Calibri_MSFontService,sans-serif" font-weight="400" font-size="24" transform="translate(1043.59 271)">from</text><text fill="#FFFFFF" font-family="Calibri,Calibri_MSFontService,sans-serif" font-weight="400" font-size="24" transform="translate(1096.2 271)">EP1</text><rect x="954" y="300" width="207" height="45" stroke="#000000" stroke-width="2" stroke-miterlimit="8" fill="#71B790"/><text fill="#FFFFFF" font-family="Calibri,Calibri_MSFontService,sans-serif" font-weight="400" font-size="24" transform="translate(982.086 330)">TMT2</text><text fill="#FFFFFF" font-family="Calibri,Calibri_MSFontService,sans-serif" font-weight="400" font-size="24" transform="translate(1043.59 330)">from</text><text fill="#FFFFFF" font-family="Calibri,Calibri_MSFontService,sans-serif" font-weight="400" font-size="24" transform="translate(1096.2 330)">EP1</text><rect x="954" y="566" width="207" height="52" stroke="#000000" stroke-width="2" stroke-miterlimit="8" fill="#71B790"/><text fill="#FFFFFF" font-family="Calibri,Calibri_MSFontService,sans-serif" font-weight="400" font-size="24" transform="translate(982.086 600)">TMT1</text><text fill="#FFFFFF" font-family="Calibri,Calibri_MSFontService,sans-serif" font-weight="400" font-size="24" transform="translate(1043.59 600)">from</text><text fill="#FFFFFF" font-family="Calibri,Calibri_MSFontService,sans-serif" font-weight="400" font-size="24" transform="translate(1096.2 600)">EP1</text><text font-family="Calibri,Calibri_MSFontService,sans-serif" font-weight="700" font-size="24" transform="translate(466.417 52)">Addressing</text><path d="M649.6 75.0837 729.955 75.0837 729.955 113.484 649.6 113.484Z" fill-rule="evenodd"/><path d="M729.955 75.0837 829.866 75.0837 829.866 113.484 729.955 113.484Z" fill-rule="evenodd"/><path d="M829.866 75.0837 890.666 75.0837 890.666 113.484 829.866 113.484Z" fill-rule="evenodd"/><path d="M649.6 113.484 729.955 113.484 729.955 180.684 649.6 180.684Z" fill="#CBCBCB" fill-rule="evenodd"/><path d="M729.955 113.484 829.866 113.484 829.866 180.684 729.955 180.684Z" fill="#CBCBCB" fill-rule="evenodd"/><path d="M829.866 113.484 890.666 113.484 890.666 180.684 829.866 180.684Z" fill="#CBCBCB" fill-rule="evenodd"/><path d="M649.6 180.684 729.955 180.684 729.955 219.084 649.6 219.084Z" fill="#E7E7E7" fill-rule="evenodd"/><path d="M729.955 180.684 829.866 180.684 829.866 219.084 729.955 219.084Z" fill="#E7E7E7" fill-rule="evenodd"/><path d="M829.866 180.684 890.666 180.684 890.666 219.084 829.866 219.084Z" fill="#E7E7E7" fill-rule="evenodd"/><path d="M729.955 74.417 729.955 219.75" stroke="#FFFFFF" stroke-width="1.33333" stroke-linejoin="round" stroke-miterlimit="10" fill="none" fill-rule="evenodd"/><path d="M829.866 74.417 829.866 219.75" stroke="#FFFFFF" stroke-width="1.33333" stroke-linejoin="round" stroke-miterlimit="10" fill="none" fill-rule="evenodd"/><path d="M648.933 113.484 891.333 113.484" stroke="#FFFFFF" stroke-width="4" stroke-linejoin="round" stroke-miterlimit="10" fill="none" fill-rule="evenodd"/><path d="M648.933 180.684 891.333 180.684" stroke="#FFFFFF" stroke-width="1.33333" stroke-linejoin="round" stroke-miterlimit="10" fill="none" fill-rule="evenodd"/><path d="M649.6 74.417 649.6 219.75" stroke="#FFFFFF" stroke-width="1.33333" stroke-linejoin="round" stroke-miterlimit="10" fill="none" fill-rule="evenodd"/><path d="M890.666 74.417 890.666 219.75" stroke="#FFFFFF" stroke-width="1.33333" stroke-linejoin="round" stroke-miterlimit="10" fill="none" fill-rule="evenodd"/><path d="M648.933 75.0837 891.333 75.0837" stroke="#FFFFFF" stroke-width="1.33333" stroke-linejoin="round" stroke-miterlimit="10" fill="none" fill-rule="evenodd"/><path d="M648.933 219.084 891.333 219.084" stroke="#FFFFFF" stroke-width="1.33333" stroke-linejoin="round" stroke-miterlimit="10" fill="none" fill-rule="evenodd"/><g clip-path="url(#clip4)"><text fill="#FFFFFF" font-family="Aptos,Aptos_MSFontService,sans-serif" font-weight="700" font-size="24" transform="translate(659.2 102)">From</text></g><g clip-path="url(#clip5)"><text fill="#FFFFFF" font-family="Aptos,Aptos_MSFontService,sans-serif" font-weight="700" font-size="24" transform="translate(739.555 102)">TMT</text></g><g clip-path="url(#clip6)"><text fill="#FFFFFF" font-family="Aptos,Aptos_MSFontService,sans-serif" font-weight="700" font-size="24" transform="translate(839.466 102)">To</text></g><g clip-path="url(#clip7)"><text font-family="Aptos,Aptos_MSFontService,sans-serif" font-weight="400" font-size="24" transform="translate(659.2 140)">EP1</text></g><g clip-path="url(#clip8)"><text font-family="Aptos,Aptos_MSFontService,sans-serif" font-weight="400" font-size="24" transform="translate(739.555 140)">TMT1</text></g><g clip-path="url(#clip9)"><text font-family="Aptos,Aptos_MSFontService,sans-serif" font-weight="400" font-size="24" transform="translate(739.555 169)">TMT2</text></g><g clip-path="url(#clip10)"><text font-family="Aptos,Aptos_MSFontService,sans-serif" font-weight="400" font-size="24" transform="translate(839.466 140)">EP2</text></g><g clip-path="url(#clip11)"><text font-family="Aptos,Aptos_MSFontService,sans-serif" font-weight="400" font-size="24" transform="translate(659.2 207)">EP1</text></g><g clip-path="url(#clip12)"><text font-family="Aptos,Aptos_MSFontService,sans-serif" font-weight="400" font-size="24" transform="translate(739.555 207)">TMT1</text></g><g clip-path="url(#clip13)"><text font-family="Aptos,Aptos_MSFontService,sans-serif" font-weight="400" font-size="24" transform="translate(839.466 207)">EP3</text></g><rect x="435" y="270" width="181" height="52" stroke="#000000" stroke-width="2" stroke-miterlimit="8" fill="#71B790"/><text fill="#FFFFFF" font-family="Calibri,Calibri_MSFontService,sans-serif" font-weight="400" font-size="24" transform="translate(463.8 304)">TMT1</text><text fill="#FFFFFF" font-family="Calibri,Calibri_MSFontService,sans-serif" font-weight="400" font-size="24" transform="translate(525.3 304)">to</text><text fill="#FFFFFF" font-family="Calibri,Calibri_MSFontService,sans-serif" font-weight="400" font-size="24" transform="translate(551.233 304)">EP2</text><rect x="435" y="449" width="180" height="49" stroke="#000000" stroke-width="2" stroke-miterlimit="8" fill="#71B790"/><text fill="#FFFFFF" font-family="Calibri,Calibri_MSFontService,sans-serif" font-weight="400" font-size="24" transform="translate(463.261 481)">TMT2</text><text fill="#FFFFFF" font-family="Calibri,Calibri_MSFontService,sans-serif" font-weight="400" font-size="24" transform="translate(524.761 481)">to</text><text fill="#FFFFFF" font-family="Calibri,Calibri_MSFontService,sans-serif" font-weight="400" font-size="24" transform="translate(550.694 481)">EP2</text><rect x="434" y="334" width="181" height="48" stroke="#000000" stroke-width="2" stroke-miterlimit="8" fill="#71B790"/><text fill="#FFFFFF" font-family="Calibri,Calibri_MSFontService,sans-serif" font-weight="400" font-size="24" transform="translate(462.722 366)">TMT1</text><text fill="#FFFFFF" font-family="Calibri,Calibri_MSFontService,sans-serif" font-weight="400" font-size="24" transform="translate(524.222 366)">to</text><text fill="#FFFFFF" font-family="Calibri,Calibri_MSFontService,sans-serif" font-weight="400" font-size="24" transform="translate(550.155 366)">EP3</text><rect x="435" y="515" width="180" height="48" stroke="#000000" stroke-width="2" stroke-miterlimit="8" fill="#71B790"/><text fill="#FFFFFF" font-family="Calibri,Calibri_MSFontService,sans-serif" font-weight="400" font-size="24" transform="translate(463.261 547)">TMT2</text><text fill="#FFFFFF" font-family="Calibri,Calibri_MSFontService,sans-serif" font-weight="400" font-size="24" transform="translate(524.761 547)">to</text><text fill="#FFFFFF" font-family="Calibri,Calibri_MSFontService,sans-serif" font-weight="400" font-size="24" transform="translate(550.694 547)">EP3</text><path d="M0.121087-2.66392 5.71305-2.40974 11.349-1.76193 16.924-0.659895 22.4013 0.839849 32.6446 4.83407 41.8207 10.0037 45.9706 13.0338 49.7094 16.2479 53.0191 19.69 55.8139 23.2832 58.1812 27.0709 59.8967 31.051 61.0113 35.0913 61.3446 39.0248 61.6571 42.7123 61.5706 42.2284 62.5706 45.8534 62.4489 45.507 64.0114 49.132 63.8238 48.7742 66.0113 52.2742 65.8549 52.0503 68.4799 55.4253 68.2972 55.2142 71.4222 58.4642 71.2384 58.2903 74.8009 61.3528 74.635 61.2213 78.5725 64.0963 78.3089 63.9267 87.1839 68.9267 86.8438 68.7655 96.7813 72.6405 96.5246 72.5552 101.712 73.9927 101.331 73.9165 104.355 74.2949 103.692 79.5869 100.476 79.1843 94.9699 77.6587 84.7304 73.6659 75.5543 68.4963 71.4044 65.4662 67.6656 62.2521 64.3559 58.81 61.5611 55.2168 59.1938 51.4291 57.4783 47.449 56.3637 43.4087 56.0304 39.4752 55.7179 35.7877 55.8043 36.2716 54.8044 32.6466 54.9261 32.993 53.3636 29.368 53.5512 29.7258 51.3637 26.2258 51.5201 26.4497 48.8951 23.0747 49.0778 23.2858 45.9528 20.0358 46.1366 20.2097 42.5741 17.1472 42.74 17.2787 38.8025 14.4037 39.0661 14.5733 30.1911 9.57333 30.5312 9.73446 20.5937 5.85947 20.8583 5.947 15.6083 4.5095 15.7954 4.55354 10.4204 3.49104 10.633 3.52422 5.19549 2.89922 5.37891 2.91392-0.121087 2.66392ZM102.288 68.6888 117.27 78.463 100.461 84.5842Z" fill="#A6A6A6" transform="matrix(1 0 0 -1 318.5 374.963)"/><path d="M0.0462358-2.66627 10.8991-2.47807 21.4853-1.97396 31.4577-1.15345 40.2868-0.0813347 44.2981 0.4917 47.8961 1.1342 51.1245 1.84446 53.8738 2.56452 56.2419 3.33065 58.2028 4.27188 59.9943 5.61553 60.5865 7.03686 60.899 7.78686 60.0375 6.67917 61.0375 7.42917 60.5914 7.15844 62.1539 7.90844 61.8209 7.77531 63.9459 8.46281 63.8006 8.42034 66.4256 9.10784 66.323 9.08311 69.448 9.77061 69.3438 9.74986 72.8438 10.3749 72.7521 10.3601 76.6896 10.9226 76.6153 10.9131 85.3653 11.9131 85.2812 11.9048 95.1562 12.7173 95.0453 12.7105 102.971 13.0313 102.755 18.3602 94.7742 18.0372 84.8017 17.2167 75.9725 16.2077 71.9519 15.6333 68.3539 14.9908 65.1255 14.2805 62.3762 13.5605 60.0081 12.7943 58.0472 11.8531 56.2557 10.5095 55.6635 9.08814 55.351 8.33814 56.2125 9.44583 55.2125 8.69583 55.6585 8.96656 54.096 8.21656 54.4291 8.34968 52.3041 7.66218 52.4494 7.70466 49.8244 7.01716 49.927 7.04188 46.802 6.35438 46.9062 6.37514 43.4062 5.75014 43.4979 5.76487 39.5604 5.20237 39.6161 5.20972 30.8661 4.14722 30.9688 4.15769 21.0938 3.34519 21.1857 3.35115 10.6857 2.85115 10.7663 2.85377-0.0462358 2.66627ZM100.408 7.62823 116.191 16.0472 99.9861 23.6227Z" fill="#A6A6A6" transform="matrix(1 0 0 -1 318.5 374.547)"/><path d="M320.608 431.836 331.533 432.278 342.177 433.616 352.133 435.595 361.15 438.216 365.196 439.717 368.877 441.361 372.136 443.156 374.966 445.043 377.371 447.024 379.276 449.233 380.621 451.756 381.005 454.062 381.318 455.937 381.04 455.12 382.04 456.995 381.707 456.509 383.27 458.321 382.945 458.004 385.07 459.754 384.879 459.61 387.441 461.36 387.168 461.197 390.293 462.822 390.15 462.753 393.65 464.315 393.49 464.25 397.365 465.687 397.187 465.628 405.937 468.191 405.72 468.137 415.533 470.137 415.269 470.097 423.134 470.895 422.596 476.201 414.598 475.39 404.545 473.341 395.598 470.72 391.554 469.22 387.903 467.59 384.566 465.855 381.772 463.947 379.379 461.976 377.474 459.767 376.129 457.244 375.745 454.938 375.432 453.063 375.71 453.88 374.71 452.005 375.043 452.491 373.48 450.679 373.805 450.996 371.68 449.246 371.896 449.406 369.271 447.656 369.463 447.773 366.401 446.086 366.6 446.185 363.1 444.623 363.26 444.688 359.385 443.25 359.568 443.311 350.755 440.748 350.98 440.803 341.23 438.866 341.417 438.896 330.98 437.583 331.205 437.602 320.392 437.165ZM420.728 465.39 436.17 474.421 419.68 481.356Z" fill="#A6A6A6"/><path d="M320.653 431.838 326.229 432.158 331.88 433.078 337.383 434.585 342.791 436.605 348.004 439.081 352.945 442.007 357.686 445.319 362.115 449.032 366.15 453.067 369.801 457.369 373.003 461.943 375.751 466.719 377.992 471.664 379.646 476.823 380.712 482.021 381.036 487.144 381.349 492.082 381.3 491.714 382.3 496.589 382.227 496.311 383.789 501.186 383.679 500.899 385.804 505.587 385.7 505.382 388.263 509.944 388.097 509.685 391.222 513.998 391.109 513.852 394.609 518.04 394.433 517.849 398.308 521.662 398.151 521.519 402.401 525.081 402.229 524.949 406.729 528.136 406.533 528.01 411.346 530.823 411.144 530.716 416.144 533.091 415.943 533.006 421.068 534.943 420.569 534.808 423.446 535.294 422.559 540.553 419.425 540.024 413.955 537.956 408.753 535.485 403.741 532.556 399.058 529.238 394.643 525.538 390.6 521.56 386.957 517.202 383.688 512.69 380.994 507.893 378.758 502.961 377.104 497.802 376.038 492.604 375.714 487.481 375.401 482.543 375.45 482.911 374.45 478.036 374.523 478.314 372.961 473.439 373.071 473.726 370.946 469.039 371.064 469.267 368.439 464.705 368.565 464.904 365.503 460.529 365.654 460.725 362.154 456.6 362.302 456.761 358.427 452.886 358.599 453.044 354.349 449.481 354.535 449.624 349.973 446.436 350.141 446.545 345.391 443.732 345.606 443.846 340.606 441.471 340.817 441.561 335.63 439.623 335.858 439.697 330.608 438.26 330.884 438.32 325.509 437.445 325.785 437.475 320.347 437.162ZM421.628 529.603 436.17 540.021 419.11 545.404Z" fill="#A6A6A6"/><path d="M640 219 901 219 826.429 376.744 826.429 615.68 803.643 618 712.5 618 712.5 381.384 640 219Z" stroke="#71B790" stroke-width="2" stroke-miterlimit="8" fill="#A6A6A6" fill-rule="evenodd" fill-opacity="0.411765"/><path d="M0.0317438-2.66648 31.5536-2.29122 47.0306-1.8526 62.1181-1.22656 76.7089-0.537724 90.6839 0.339628 103.972 1.34248 116.322 2.47096 127.745 3.66348 138.049 4.98289 147.127 6.30674 154.836 7.75996 158.169 8.46503 161.222 9.24473 163.786 10.0335 165.998 10.838 167.948 11.7044 169.646 12.7769 170.93 14.2945 171.342 15.5317 171.592 16.2817 171.022 15.3163 171.772 16.1288 171.236 15.6829 172.424 16.4329 172.117 16.2663 173.742 17.0163 173.536 16.9314 175.599 17.6814 175.454 17.6333 177.954 18.3833 177.861 18.3572 180.736 19.1072 180.614 19.0786 183.864 19.7661 183.803 19.7538 191.49 21.1913 191.385 21.1737 200.385 22.4862 200.339 22.4799 210.589 23.7924 210.528 23.7854 221.841 24.9729 221.804 24.9693 234.179 26.0943 234.139 26.091 247.327 27.091 247.292 27.0886 261.23 27.9636 261.188 27.9613 275.751 28.6488 275.736 28.6481 290.798 29.2731 290.763 29.2719 306.201 29.7094 306.156 29.7085 324.298 29.9172 324.237 35.2502 306.072 35.0412 290.594 34.6026 275.507 33.9766 260.916 33.2877 246.941 32.4103 233.716 31.4075 221.303 30.279 209.941 29.0864 199.638 27.7671 190.562 26.4435 182.791 24.9904 179.45 24.2835 176.468 23.5056 173.848 22.7197 171.609 21.9055 169.724 21.0355 168.091 20.0045 166.714 18.5123 166.283 17.2183 166.033 16.4683 166.527 17.3475 165.839 16.535 166.451 17.0671 165.264 16.3171 165.604 16.4993 163.917 15.7493 164.089 15.8186 162.026 15.0686 162.153 15.1112 159.716 14.3612 159.84 14.3963 156.903 13.6463 157.011 13.6714 153.761 12.9839 153.818 12.9955 146.193 11.558 146.303 11.5763 137.303 10.2638 137.349 10.2701 127.099 8.95757 127.161 8.96475 115.786 7.77725 115.82 7.7806 103.507 6.6556 103.549 6.6591 90.2993 5.6591 90.3329 5.66143 76.3954 4.78643 76.4367 4.7887 61.8742 4.1012 61.8894 4.10187 46.8269 3.47687 46.862 3.4781 31.4245 3.0406 31.4683 3.04148-0.0317438 2.66648ZM321.693 24.5535 337.6 32.737 321.509 40.5525Z" fill="#A6A6A6" transform="matrix(1 0 0 -1 616.5 296.237)"/><path d="M615.615 355.836 631.597 356.528 647.49 358.491 663.193 361.657 678.505 366.023 693.308 371.337 707.489 377.667 720.907 384.883 733.454 392.804 745.001 401.496 755.49 410.777 764.666 420.654 772.5 430.908 775.921 436.266 778.878 441.666 781.455 447.141 783.587 452.698 785.27 458.266 786.503 463.908 787.283 469.569 787.539 475.191 787.789 480.691 787.767 480.448 788.517 485.886 788.48 485.681 789.668 491.119 789.615 490.916 791.24 496.291 791.177 496.107 793.24 501.482 793.163 501.302 795.663 506.615 795.589 506.469 798.464 511.719 798.373 511.565 801.685 516.752 801.557 516.569 809.244 526.631 809.079 526.435 818.079 536.123 817.892 535.94 828.205 545.065 828.041 544.932 839.416 553.495 839.236 553.37 851.611 561.183 851.45 561.089 864.7 568.214 864.525 568.128 878.525 574.378 878.339 574.303 892.964 579.553 892.797 579.499 907.859 583.811 907.652 583.761 923.152 586.886 922.92 586.85 941.151 588.88 940.561 594.18 922.213 592.137 906.494 588.968 891.244 584.602 876.442 579.289 862.261 572.958 848.843 565.742 836.296 557.821 824.75 549.13 814.26 539.848 805.084 529.971 797.25 519.717 793.829 514.36 790.872 508.959 788.295 503.484 786.163 497.927 784.48 492.359 783.248 486.717 782.467 481.056 782.211 475.434 781.961 469.934 781.983 470.177 781.233 464.739 781.27 464.944 780.082 459.507 780.135 459.709 778.51 454.334 778.573 454.518 776.51 449.143 776.587 449.323 774.087 444.011 774.161 444.156 771.286 438.906 771.378 439.06 768.065 433.873 768.194 434.056 760.506 423.994 760.671 424.19 751.671 414.503 751.858 414.685 741.545 405.56 741.709 405.693 730.334 397.131 730.514 397.255 718.139 389.442 718.3 389.536 705.05 382.411 705.225 382.498 691.225 376.248 691.412 376.322 676.787 371.072 676.956 371.127 661.831 366.815 662.036 366.864 646.536 363.739 646.736 363.772 631.048 361.834 631.26 361.852 615.385 361.164ZM938.514 583.429 954.178 592.068 937.869 599.416Z" fill="#71B790"/><path d="M0.0734629-2.66565 16.0177-2.22625 31.8445-0.965151 47.4771 1.115 62.7314 3.88851 77.4842 7.35605 91.6189 11.3945 105.007 16.0679 117.524 21.1882 129.06 26.7661 139.553 32.8078 148.75 39.1944 156.629 45.8562 160.094 49.3867 163.096 52.9112 165.732 56.5355 167.926 60.2586 169.667 64.0072 170.95 67.7898 171.772 71.6254 172.035 75.3758 172.285 78.9383 172.232 78.5663 172.982 82.0663 172.905 81.7817 174.092 85.3442 173.981 85.0645 175.606 88.5645 175.474 88.3155 177.537 91.753 177.407 91.5565 179.907 94.994 179.796 94.8517 182.671 98.2892 182.511 98.1144 185.823 101.427 185.659 101.276 193.347 107.776 193.146 107.622 202.146 113.872 201.956 113.751 212.268 119.689 212.098 119.599 223.473 125.099 223.333 125.036 235.708 130.161 235.556 130.104 248.806 134.666 248.67 134.623 262.67 138.623 262.548 138.592 277.173 142.029 277.041 142.002 292.104 144.752 291.977 144.732 307.477 146.794 307.317 146.778 325.542 148.092 325.158 153.411 306.853 152.091 291.209 150.01 276.018 147.236 261.266 143.769 247.137 139.732 233.742 135.12 221.221 129.934 209.69 124.359 199.197 118.317 190 111.931 182.131 105.277 178.656 101.802 175.646 98.204 173.024 94.5981 170.828 90.9385 169.08 87.1738 167.798 83.3282 166.978 79.4996 166.715 75.7492 166.465 72.1867 166.518 72.5587 165.768 69.0587 165.85 69.3568 164.662 65.8568 164.769 66.123 163.144 62.623 163.265 62.8538 161.203 59.3538 161.343 59.5685 158.843 56.131 158.97 56.2917 156.095 52.9167 156.222 53.0554 152.909 49.6804 153.091 49.8488 145.403 43.3488 145.604 43.5028 136.604 37.2528 136.794 37.3735 126.482 31.436 126.652 31.5258 115.277 26.0258 115.428 26.0931 103.053 21.0306 103.184 21.0802 89.9337 16.4552 90.0799 16.5016 76.0799 12.5016 76.2023 12.5334 61.5773 9.09592 61.7105 9.12365 46.5855 6.37365 46.7108 6.39337 31.2108 4.33087 31.3507 4.34574 15.6632 3.09574 15.8015 3.10315-0.0734629 2.66565ZM322.906 142.68 338.678 151.121 322.462 158.674Z" fill="#A6A6A6" transform="matrix(1 0 0 -1 615.5 473.621)"/><path d="M761 569C761 561.82 766.82 556 774 556 781.18 556 787 561.82 787 569 787 576.18 781.18 582 774 582 766.82 582 761 576.18 761 569Z" stroke="#000000" stroke-width="4" stroke-miterlimit="8" fill="#71B790" fill-rule="evenodd"/><path d="M0 0 18.6567 18.0041" stroke="#000000" stroke-width="5.33333" stroke-miterlimit="8" fill="#71B790" fill-rule="evenodd" transform="matrix(-1 0 0 1 783.157 560.5)"/><path d="M783.157 578.504 764.5 560.5" stroke="#000000" stroke-width="5.33333" stroke-miterlimit="8" fill="#71B790" fill-rule="evenodd"/><path d="M615.561 536.834 629.194 537.148 642.506 538.158 654.934 539.609 660.714 540.561 666.109 541.577 671.065 542.721 675.613 543.874 679.651 545.176 683.152 546.563 686.046 548.01 688.506 549.702 690.26 551.825 690.854 553.692 691.291 555.067 690.768 554.132 691.956 555.507 691.448 555.053 693.448 556.428 693.175 556.263 695.8 557.638 695.504 557.505 698.817 558.755 698.694 558.712 702.569 559.962 702.439 559.924 706.877 561.112 706.755 561.082 711.63 562.145 711.556 562.129 716.868 563.129 716.804 563.118 722.554 564.056 722.436 564.039 734.686 565.477 734.552 565.464 747.96 566.354 747.607 571.675 734.131 570.781 721.755 569.329 715.914 568.377 710.532 567.364 705.559 566.28 700.996 565.059 696.994 563.768 693.469 562.438 690.559 560.913 688.144 559.253 686.375 557.204 685.771 555.309 685.334 553.934 685.819 554.823 684.632 553.386 685.177 553.885 683.177 552.51 683.495 552.698 680.87 551.385 681.08 551.479 677.768 550.167 677.931 550.225 674.056 548.975 674.22 549.022 669.782 547.897 669.838 547.911 664.963 546.786 665.069 546.808 659.757 545.808 659.816 545.819 654.129 544.881 654.253 544.899 641.941 543.461 642.048 543.472 628.861 542.472 629.001 542.479 615.439 542.166ZM745.342 560.943 761.112 569.389 744.893 576.937Z" fill="#A6A6A6"/><text font-family="Calibri,Calibri_MSFontService,sans-serif" font-weight="700" font-size="24" transform="translate(157.161 52)">Inboxes</text><text font-family="Calibri,Calibri_MSFontService,sans-serif" font-weight="700" font-size="24" transform="translate(1033.92 52)">Outboxes</text></g></svg>