<svg width="1280" height="720" xmlns="http://www.w3.org/2000/svg" xmlns:xlink="http://www.w3.org/1999/xlink" overflow="hidden"><defs><clipPath id="clip0"><rect x="0" y="0" width="1280" height="720"/></clipPath></defs><g clip-path="url(#clip0)"><rect x="0" y="0" width="1280" height="720" fill="#FFFFFF"/><rect x="60.5001" y="24.5001" width="167" height="459" stroke="#71B790" stroke-width="2.66667" stroke-miterlimit="8" fill="none"/><text font-family="Aptos,Aptos_MSFontService,sans-serif" font-weight="400" font-size="24" transform="translate(75.6926 51)">App Instance</text><rect x="1017.5" y="24.5001" width="216" height="459" stroke="#71B790" stroke-width="2.66667" stroke-miterlimit="8" fill="none"/><text font-family="Aptos,Aptos_MSFontService,sans-serif" font-weight="400" font-size="24" transform="translate(1078.32 51)">Endpoint</text><path d="M1019.5 60.5001C1036.9 60.5001 1051 71.581 1051 85.2501L1051 85.2501C1051 98.9191 1065.1 110 1082.5 110 1065.1 110 1051 121.081 1051 134.75L1051 134.75C1051 148.419 1036.9 159.5 1019.5 159.5" stroke="#A6A6A6" stroke-width="5.33333" stroke-linecap="square" stroke-miterlimit="8" stroke-dasharray="16 5.33333" fill="none" fill-rule="evenodd"/><text font-family="Aptos,Aptos_MSFontService,sans-serif" font-weight="400" font-size="24" transform="translate(1124.4 102)">Inbox</text><path d="M227.5 57.8334 1004.19 57.8335 1004.19 63.1668 227.5 63.1667ZM1001.52 52.5002 1017.52 60.5002 1001.52 68.5002Z" fill="#A6A6A6"/><path d="M3.54376e-07-2.66667 21.3333-2.66666 21.3333 2.66667-3.54376e-07 2.66667ZM37.3333-2.66666 58.6667-2.66666 58.6667 2.66667 37.3333 2.66667ZM74.6667-2.66666 96-2.66665 96 2.66668 74.6667 2.66668ZM112-2.66665 133.333-2.66665 133.333 2.66668 112 2.66668ZM149.333-2.66665 170.667-2.66664 170.667 2.66669 149.333 2.66669ZM186.667-2.66664 208-2.66664 208 2.66669 186.667 2.66669ZM224-2.66664 245.333-2.66663 245.333 2.6667 224 2.6667ZM261.333-2.66663 282.667-2.66663 282.667 2.6667 261.333 2.6667ZM298.667-2.66663 320-2.66662 320 2.66671 298.667 2.66671ZM336-2.66662 357.333-2.66662 357.333 2.66671 336 2.66671ZM373.333-2.66662 394.667-2.66661 394.667 2.66672 373.333 2.66672ZM410.667-2.66661 432-2.66661 432 2.66672 410.667 2.66672ZM448-2.66661 469.333-2.6666 469.333 2.66673 448 2.66673ZM485.333-2.6666 506.667-2.6666 506.667 2.66673 485.333 2.66673ZM522.667-2.6666 544-2.66659 544 2.66674 522.667 2.66674ZM560-2.66659 581.333-2.66659 581.333 2.66674 560 2.66674ZM597.333-2.66659 618.667-2.66658 618.667 2.66675 597.333 2.66675ZM634.667-2.66658 656-2.66658 656 2.66675 634.667 2.66675ZM672-2.66658 693.333-2.66657 693.333 2.66676 672 2.66676ZM709.333-2.66657 730.667-2.66657 730.667 2.66676 709.333 2.66676ZM746.667-2.66657 768-2.66656 768 2.66677 746.667 2.66677ZM774.022-7.9999 790.022 0.000104987 774.022 8.0001Z" fill="#A6A6A6" transform="matrix(-1 0 0 1 1017.52 159.5)"/><text font-family="Aptos,Aptos_MSFontService,sans-serif" font-weight="400" font-size="24" transform="translate(510.699 48)">Request: Send Message</text><text font-family="Aptos,Aptos_MSFontService,sans-serif" font-weight="400" font-size="24" transform="translate(512.862 147)">Response:</text><text font-family="Aptos,Aptos_MSFontService,sans-serif" font-weight="400" font-size="24" transform="translate(627.528 147)">Could</text><text font-family="Aptos,Aptos_MSFontService,sans-serif" font-weight="400" font-size="24" transform="translate(695.195 147)">be</text><text font-family="Aptos,Aptos_MSFontService,sans-serif" font-weight="400" font-size="24" transform="translate(726.195 147)">processed</text><text font-family="Aptos,Aptos_MSFontService,sans-serif" font-weight="400" font-size="24" transform="translate(835.368 147)">?</text><path d="M435 28.5C435 14.4167 449.103 3 466.5 3 483.897 3 498 14.4167 498 28.5 498 42.5833 483.897 54 466.5 54 449.103 54 435 42.5833 435 28.5Z" stroke="#000000" stroke-width="2" stroke-miterlimit="8" fill="#71B790" fill-rule="evenodd"/><text font-family="Aptos,Aptos_MSFontService,sans-serif" font-weight="400" font-size="24" transform="translate(450.207 36)">1.1</text><path d="M432 125C432 110.088 446.103 98 463.5 98 480.897 98 495 110.088 495 125 495 139.912 480.897 152 463.5 152 446.103 152 432 139.912 432 125Z" stroke="#000000" stroke-width="2" stroke-miterlimit="8" fill="#71B790" fill-rule="evenodd"/><text font-family="Aptos,Aptos_MSFontService,sans-serif" font-weight="400" font-size="24" transform="translate(447 132)">1.2</text><path d="M1018.5 250.5C1035.62 250.5 1049.5 261.581 1049.5 275.25L1049.5 275.25C1049.5 288.919 1063.38 300 1080.5 300 1063.38 300 1049.5 311.081 1049.5 324.75L1049.5 324.75C1049.5 338.419 1035.62 349.5 1018.5 349.5" stroke="#A6A6A6" stroke-width="5.33333" stroke-linecap="square" stroke-miterlimit="8" stroke-dasharray="16 5.33333" fill="none" fill-rule="evenodd"/><text font-family="Aptos,Aptos_MSFontService,sans-serif" font-weight="400" font-size="24" transform="translate(1122.8 293)">Outbox</text><rect x="84" y="406" width="119" height="52" stroke="#0C445E" stroke-width="2" stroke-miterlimit="8" fill="#A6A6A6"/><text fill="#FFFFFF" font-family="Aptos,Aptos_MSFontService,sans-serif" font-weight="400" font-size="16" transform="translate(109.696 428)">Send</text><text fill="#FFFFFF" font-family="Aptos,Aptos_MSFontService,sans-serif" font-weight="400" font-size="16" transform="translate(148.363 428)">next</text><text fill="#FFFFFF" font-family="Aptos,Aptos_MSFontService,sans-serif" font-weight="400" font-size="16" transform="translate(117.149 447)">request</text><path d="M3.54376e-07-2.66667 766.022-2.66656 766.022 2.66677-3.54376e-07 2.66667ZM763.355-13.3332 790.022 0.000104987 763.355 13.3334Z" fill="#A6A6A6" transform="matrix(-1 0 0 1 1017.52 345.5)"/><text font-family="Aptos,Aptos_MSFontService,sans-serif" font-weight="400" font-size="24" transform="translate(470.274 312)">Return</text><text font-family="Aptos,Aptos_MSFontService,sans-serif" font-weight="400" font-size="24" transform="translate(544.608 312)">Result</text><path d="M397 301C397 287.745 408.864 277 423.5 277 438.136 277 450 287.745 450 301 450 314.255 438.136 325 423.5 325 408.864 325 397 314.255 397 301Z" stroke="#000000" stroke-width="2" stroke-miterlimit="8" fill="#71B790" fill-rule="evenodd"/><text font-family="Aptos,Aptos_MSFontService,sans-serif" font-weight="400" font-size="21" transform="translate(418.191 308)">2</text><path d="M899 291.562C899 302.763 910.414 312.545 926.75 315.345L926.75 310.72 936 320.75 926.75 329.22 926.75 324.595C910.414 321.795 899 312.013 899 300.813Z" fill="#71B790" fill-rule="evenodd"/><path d="M936 276.25C918.252 276.25 903.004 284.616 899.662 296.188 895.814 282.865 908.964 269.994 929.033 267.439 931.329 267.147 933.662 267 936 267Z" fill="#5B9374" fill-rule="evenodd"/><path d="M899 291.562C899 302.763 910.414 312.545 926.75 315.345L926.75 310.72 936 320.75 926.75 329.22 926.75 324.595C910.414 321.795 899 312.013 899 300.813L899 291.562C899 277.997 915.565 267 936 267L936 276.25C918.252 276.25 903.004 284.616 899.662 296.188" stroke="#A6A6A6" stroke-width="2" stroke-miterlimit="8" fill="none" fill-rule="evenodd"/><path d="M981.847 307.491C982.488 296.38 971.89 286.033 956.08 282.334L955.819 286.855 947.343 276.517 956.863 268.769 956.602 273.291C972.412 276.99 983.01 287.337 982.369 298.448Z" fill="#71B790" fill-rule="evenodd"/><path d="M944.792 320.727C962.181 321.731 977.589 314.257 981.48 302.933 984.424 316.371 970.781 328.37 951.007 329.734 948.778 329.888 946.523 329.9 944.271 329.77Z" fill="#5B9374" fill-rule="evenodd"/><path d="M981.847 307.491C982.488 296.38 971.89 286.033 956.08 282.334L955.819 286.855 947.343 276.517 956.863 268.769 956.602 273.291C972.412 276.99 983.01 287.337 982.369 298.448L981.847 307.491C981.071 320.948 964.247 330.923 944.271 329.77L944.792 320.727C962.181 321.731 977.589 314.257 981.48 302.933" stroke="#A6A6A6" stroke-width="2" stroke-miterlimit="8" fill="none" fill-rule="evenodd"/><path d="M0-2.66667 86.2163-2.66667 86.2163 47.4233 80.8829 47.4233 80.8829 0 83.5496 2.66667 0 2.66667ZM91.5496 44.7566 83.5496 60.7566 75.5496 44.7566Z" fill="#A6A6A6" transform="matrix(-1 1.22465e-16 1.22465e-16 1 228.05 345.5)"/></g></svg>