<svg width="1280" height="720" xmlns="http://www.w3.org/2000/svg" xmlns:xlink="http://www.w3.org/1999/xlink" overflow="hidden"><defs><clipPath id="clip0"><rect x="0" y="0" width="1280" height="720"/></clipPath></defs><g clip-path="url(#clip0)"><rect x="0" y="0" width="1280" height="720" fill="#FFFFFF"/><rect x="60.5001" y="202.5" width="167" height="156" stroke="#71B790" stroke-width="2.66667" stroke-miterlimit="8" fill="none"/><text font-family="Aptos,Aptos_MSFontService,sans-serif" font-weight="400" font-size="24" transform="translate(75.6926 228)">App Instance</text><rect x="1017.5" y="213.5" width="193" height="145" stroke="#71B790" stroke-width="2.66667" stroke-miterlimit="8" fill="none"/><text font-family="Aptos,Aptos_MSFontService,sans-serif" font-weight="400" font-size="24" transform="translate(1075.65 240)">Outbox</text><path d="M3.54376e-07-2.66667 766.022-2.66656 766.022 2.66677-3.54376e-07 2.66667ZM763.355-13.3332 790.022 0.000104987 763.355 13.3334Z" fill="#A6A6A6" transform="matrix(-1 0 0 1 1017.52 288.5)"/><text font-family="Aptos,Aptos_MSFontService,sans-serif" font-weight="400" font-size="24" transform="translate(470.274 260)">Return</text><text font-family="Aptos,Aptos_MSFontService,sans-serif" font-weight="400" font-size="24" transform="translate(544.608 260)">Result</text><path d="M397 248.5C397 234.969 408.864 224 423.5 224 438.136 224 450 234.969 450 248.5 450 262.031 438.136 273 423.5 273 408.864 273 397 262.031 397 248.5Z" stroke="#000000" stroke-width="2" stroke-miterlimit="8" fill="#71B790" fill-rule="evenodd"/><text font-family="Aptos,Aptos_MSFontService,sans-serif" font-weight="400" font-size="21" transform="translate(418.191 256)">1</text><path d="M898 235.062C898 246.035 909.414 255.618 925.75 258.361L925.75 253.736 935 263.75 925.75 272.236 925.75 267.611C909.414 264.868 898 255.285 898 244.313Z" fill="#71B790" fill-rule="evenodd"/><path d="M935 220.25C917.307 220.25 902.091 228.396 898.69 239.688 894.762 226.646 907.835 214.003 927.888 211.449 930.231 211.15 932.613 211 935 211Z" fill="#5B9374" fill-rule="evenodd"/><path d="M898 235.062C898 246.035 909.414 255.618 925.75 258.361L925.75 253.736 935 263.75 925.75 272.236 925.75 267.611C909.414 264.868 898 255.285 898 244.313L898 235.062C898 221.773 914.565 211 935 211L935 220.25C917.307 220.25 902.091 228.396 898.69 239.688" stroke="#A6A6A6" stroke-width="2" stroke-miterlimit="8" fill="none" fill-rule="evenodd"/><path d="M980.785 250.545C981.426 239.434 970.827 229.087 955.018 225.388L954.757 229.909 946.28 219.571 955.8 211.824 955.539 216.345C971.349 220.044 981.947 230.392 981.306 241.503Z" fill="#71B790" fill-rule="evenodd"/><path d="M943.73 263.782C961.118 264.785 976.527 257.311 980.417 245.988 983.361 259.425 969.718 271.424 949.944 272.789 947.715 272.942 945.46 272.954 943.208 272.824Z" fill="#5B9374" fill-rule="evenodd"/><path d="M980.785 250.545C981.426 239.434 970.827 229.087 955.018 225.388L954.757 229.909 946.28 219.571 955.8 211.824 955.539 216.345C971.349 220.044 981.947 230.392 981.306 241.503L980.785 250.545C980.008 264.002 963.185 273.977 943.208 272.824L943.73 263.782C961.118 264.785 976.527 257.311 980.417 245.988" stroke="#A6A6A6" stroke-width="2" stroke-miterlimit="8" fill="none" fill-rule="evenodd"/></g></svg>