<svg width="1280" height="720" xmlns="http://www.w3.org/2000/svg" xmlns:xlink="http://www.w3.org/1999/xlink" overflow="hidden"><defs><clipPath id="clip0"><rect x="0" y="0" width="1280" height="720"/></clipPath></defs><g clip-path="url(#clip0)"><rect x="0" y="0" width="1280" height="720" fill="#FFFFFF"/><path d="M1063.5 581.667C1063.5 576.604 1067.6 572.5 1072.67 572.5L1150.33 572.5C1155.4 572.5 1159.5 576.604 1159.5 581.667L1159.5 618.333C1159.5 623.396 1155.4 627.5 1150.33 627.5L1072.67 627.5C1067.6 627.5 1063.5 623.396 1063.5 618.333Z" stroke="#71B790" stroke-width="2.66667" stroke-miterlimit="8" fill="#FFFFFF" fill-rule="evenodd"/><text font-family="Aptos,Aptos_MSFontService,sans-serif" font-weight="400" font-size="19" transform="translate(1090.17 594)">Send</text><text font-family="Aptos,Aptos_MSFontService,sans-serif" font-weight="400" font-size="19" transform="translate(1095.75 617)">&gt;&gt;&gt;</text><path d="M906.5 596.833 987.557 596.833 987.557 599.785 984.891 597.118 1049.95 597.118 1049.95 602.451 982.224 602.451 982.224 599.5 984.891 602.167 906.5 602.167ZM1047.28 591.785 1063.28 599.785 1047.28 607.785Z" fill="#A6A6A6"/><path d="M797.5 533.167C797.5 520.648 807.648 510.5 820.167 510.5L910.833 510.5C923.352 510.5 933.5 520.648 933.5 533.167L933.5 666.833C933.5 679.352 923.352 689.5 910.833 689.5L820.167 689.5C807.648 689.5 797.5 679.352 797.5 666.833Z" stroke="#71B790" stroke-width="1.33333" stroke-miterlimit="8" fill="#FFFFFF" fill-rule="evenodd"/><text font-family="Aptos,Aptos_MSFontService,sans-serif" font-weight="700" font-size="19" transform="translate(816.873 538)">Command/</text><text font-family="Aptos,Aptos_MSFontService,sans-serif" font-weight="700" font-size="19" transform="translate(827.653 561)">Message</text><rect x="820" y="564" width="88" height="35" stroke="#71B790" stroke-width="2" stroke-miterlimit="8" fill="none"/><text font-family="Aptos,Aptos_MSFontService,sans-serif" font-weight="400" font-size="19" transform="translate(834.3 588)">Header</text><path d="M817 610 908 610 908 668.542C862.5 668.542 862.5 690.848 817 678.174Z" stroke="#71B790" stroke-width="2" stroke-miterlimit="8" fill="none" fill-rule="evenodd"/><text font-family="Aptos,Aptos_MSFontService,sans-serif" font-weight="400" font-size="19" transform="translate(842.321 645)">Body</text><path d="M2.50005 192C2.50005 186.201 7.20114 181.5 13.0002 181.5L126 181.5C131.799 181.5 136.5 186.201 136.5 192L136.5 234C136.5 239.799 131.799 244.5 126 244.5L13.0002 244.5C7.20114 244.5 2.50005 239.799 2.50005 234Z" stroke="#71B790" stroke-width="2.66667" stroke-miterlimit="8" fill="#FFFFFF" fill-rule="evenodd"/><text font-family="Aptos,Aptos_MSFontService,sans-serif" font-weight="400" font-size="19" transform="translate(28.466 195)">Encode</text><text font-family="Aptos,Aptos_MSFontService,sans-serif" font-weight="400" font-size="19" transform="translate(93.466 195)">to</text><text font-family="Aptos,Aptos_MSFontService,sans-serif" font-weight="400" font-size="19" transform="translate(32.286 218)">format</text><text font-family="Aptos,Aptos_MSFontService,sans-serif" font-weight="400" font-size="19" transform="translate(89.8793 218)">of</text><text font-family="Aptos,Aptos_MSFontService,sans-serif" font-weight="400" font-size="19" transform="translate(52.7527 240)">TMT</text><path d="M57 138.5C57 131.596 62.3726 126 69 126 75.6274 126 81 131.596 81 138.5 81 145.404 75.6274 151 69 151 62.3726 151 57 145.404 57 138.5Z" stroke="#000000" stroke-width="4" stroke-miterlimit="8" fill="#71B790" fill-rule="evenodd"/><path d="M72.1661 151.443 72.5189 167.79 67.1868 167.905 66.834 151.558ZM77.7934 165.009 70.1405 181.178 61.7971 165.354Z" fill="#A6A6A6"/><path d="M247.5 667.334C247.5 661.35 252.35 656.5 258.334 656.5L353.667 656.5C359.65 656.5 364.5 661.35 364.5 667.334L364.5 710.667C364.5 716.65 359.65 721.5 353.667 721.5L258.334 721.5C252.35 721.5 247.5 716.65 247.5 710.667Z" stroke="#71B790" stroke-width="2.66667" stroke-miterlimit="8" fill="#FFFFFF" fill-rule="evenodd"/><text font-family="Aptos,Aptos_MSFontService,sans-serif" font-weight="400" font-size="19" transform="translate(289.124 683)">Add</text><text font-family="Aptos,Aptos_MSFontService,sans-serif" font-weight="400" font-size="19" transform="translate(259.798 706)">Timestamp</text><path d="M2.50005 284C2.50005 278.201 7.20114 273.5 13.0002 273.5L126 273.5C131.799 273.5 136.5 278.201 136.5 284L136.5 326C136.5 331.799 131.799 336.5 126 336.5L13.0002 336.5C7.20114 336.5 2.50005 331.799 2.50005 326Z" stroke="#71B790" stroke-width="2.66667" stroke-miterlimit="8" fill="#FFFFFF" fill-rule="evenodd"/><text font-family="Aptos,Aptos_MSFontService,sans-serif" font-weight="400" font-size="19" transform="translate(29.1693 299)">Encode</text><text font-family="Aptos,Aptos_MSFontService,sans-serif" font-weight="400" font-size="19" transform="translate(94.1693 299)">in</text><text font-family="Aptos,Aptos_MSFontService,sans-serif" font-weight="400" font-size="19" transform="translate(34.1827 322)">Protobuf</text><path d="M72.1667 244.5 72.1668 260.216 66.8334 260.216 66.8334 244.5ZM77.5001 257.55 69.5002 273.55 61.5001 257.55Z" fill="#A6A6A6"/><path d="M598 623.76 731.436 623.76 731.436 673.576C664.722 673.576 664.722 692.743 598 683.16ZM608.994 623.76 608.994 617.302 741.519 617.302 741.519 667.431C736.481 667.431 731.436 667.778 731.436 667.778M619.327 617.302 619.327 611 753 611 753 660.972C747.259 660.972 741.519 661.233 741.519 661.233" stroke="#71B790" stroke-width="2" stroke-miterlimit="8" fill="none" fill-rule="evenodd"/><text font-family="Aptos,Aptos_MSFontService,sans-serif" font-weight="400" font-size="19" transform="translate(621.617 648)">Messages/</text><text font-family="Aptos,Aptos_MSFontService,sans-serif" font-weight="400" font-size="19" transform="translate(617.297 671)">Commands</text><path d="M61 18 86.1667 18 86.1667 18 123.917 18 212 18 212 54.75 212 54.75 212 70.5 212 81 123.917 81 71.5066 127.447 86.1667 81 61 81 61 70.5 61 54.75 61 54.75Z" stroke="#000000" stroke-width="2" stroke-miterlimit="8" fill="#D9D9D9" fill-rule="evenodd"/><text font-family="Aptos,Aptos_MSFontService,sans-serif" font-weight="400" font-size="19" transform="translate(71.086 45)">A</text><text font-family="Aptos,Aptos_MSFontService,sans-serif" font-weight="400" font-size="19" transform="translate(85.9193 45)">message</text><text font-family="Aptos,Aptos_MSFontService,sans-serif" font-weight="400" font-size="19" transform="translate(162.279 45)">shall</text><text font-family="Aptos,Aptos_MSFontService,sans-serif" font-weight="400" font-size="19" transform="translate(93.2727 68)">be</text><text font-family="Aptos,Aptos_MSFontService,sans-serif" font-weight="400" font-size="19" transform="translate(117.439 68)">created</text><path d="M644 383 669.333 383 669.333 383 707.333 383 796 383 796 435.5 796 435.5 796 458 796 473 707.333 473 643.734 630.025 669.333 473 644 473 644 458 644 435.5 644 435.5Z" stroke="#000000" stroke-width="2" stroke-miterlimit="8" fill="#D9D9D9" fill-rule="evenodd"/><text font-family="Aptos,Aptos_MSFontService,sans-serif" font-weight="400" font-size="19" transform="translate(687.241 400)">Multiple</text><text font-family="Aptos,Aptos_MSFontService,sans-serif" font-weight="400" font-size="19" transform="translate(662.361 423)">messages</text><text font-family="Aptos,Aptos_MSFontService,sans-serif" font-weight="400" font-size="19" transform="translate(747.721 423)">can</text><text font-family="Aptos,Aptos_MSFontService,sans-serif" font-weight="400" font-size="19" transform="translate(672.075 445)">be</text><text font-family="Aptos,Aptos_MSFontService,sans-serif" font-weight="400" font-size="19" transform="translate(696.241 445)">sent</text><text font-family="Aptos,Aptos_MSFontService,sans-serif" font-weight="400" font-size="19" transform="translate(735.241 445)">as</text><text font-family="Aptos,Aptos_MSFontService,sans-serif" font-weight="400" font-size="19" transform="translate(758.075 445)">a</text><text font-family="Aptos,Aptos_MSFontService,sans-serif" font-weight="400" font-size="19" transform="translate(686.081 467)">package</text><path d="M165 398 201.167 398 201.167 398 255.417 398 382 398 382 455.75 382 455.75 382 480.5 382 497 255.417 497 188.212 545.284 201.167 497 165 497 165 480.5 165 455.75 165 455.75Z" stroke="#000000" stroke-width="2" stroke-miterlimit="8" fill="#D9D9D9" fill-rule="evenodd"/><text font-family="Aptos,Aptos_MSFontService,sans-serif" font-weight="700" font-size="19" transform="translate(174.934 420)">Envelope</text><text font-family="Aptos,Aptos_MSFontService,sans-serif" font-weight="700" font-size="19" transform="translate(256.994 420)">includes</text><text font-family="Arial,Arial_MSFontService,sans-serif" font-weight="400" font-size="19" transform="translate(174.934 443)">•</text><text font-family="Aptos,Aptos_MSFontService,sans-serif" font-weight="400" font-size="19" transform="translate(204.934 443)">Recipient</text><text font-family="Aptos,Aptos_MSFontService,sans-serif" font-weight="400" font-size="19" transform="translate(285.434 443)">List</text><text font-family="Arial,Arial_MSFontService,sans-serif" font-weight="400" font-size="19" transform="translate(174.934 465)">•</text><text font-family="Aptos,Aptos_MSFontService,sans-serif" font-weight="400" font-size="19" transform="translate(204.934 465)">TMT</text><text font-family="Aptos,Aptos_MSFontService,sans-serif" font-weight="400" font-size="19" transform="translate(241.434 465)">of</text><text font-family="Aptos,Aptos_MSFontService,sans-serif" font-weight="400" font-size="19" transform="translate(261.268 465)">the</text><text font-family="Aptos,Aptos_MSFontService,sans-serif" font-weight="400" font-size="19" transform="translate(204.934 487)">messages</text><text font-family="Arial,Arial_MSFontService,sans-serif" font-weight="400" font-size="19" transform="translate(174.934 510)">•</text><text font-family="Aptos,Aptos_MSFontService,sans-serif" font-weight="400" font-size="19" transform="translate(204.934 510)">A</text><text font-family="Aptos,Aptos_MSFontService,sans-serif" font-weight="400" font-size="19" transform="translate(219.768 510)">unique</text><text font-family="Aptos,Aptos_MSFontService,sans-serif" font-weight="400" font-size="19" transform="translate(279.768 510)">MSG ID</text><path d="M959.5 369.5 993.833 369.5 993.833 369.5 1045.33 369.5 1165.5 369.5 1165.5 437.75 1165.5 437.75 1165.5 467 1165.5 486.5 1045.33 486.5 930.736 594.4 993.833 486.5 959.5 486.5 959.5 467 959.5 437.75 959.5 437.75Z" stroke="#000000" stroke-width="2.66667" stroke-miterlimit="8" fill="#D9D9D9" fill-rule="evenodd"/><text font-family="Aptos,Aptos_MSFontService,sans-serif" font-weight="700" font-size="19" transform="translate(968.628 400)">The</text><text font-family="Aptos,Aptos_MSFontService,sans-serif" font-weight="700" font-size="19" transform="translate(1003.13 400)">header</text><text font-family="Aptos,Aptos_MSFontService,sans-serif" font-weight="700" font-size="19" transform="translate(1066.63 400)">includes</text><text font-family="Aptos,Aptos_MSFontService,sans-serif" font-weight="700" font-size="19" transform="translate(1139.96 400)">:</text><text font-family="Arial,Arial_MSFontService,sans-serif" font-weight="400" font-size="19" transform="translate(968.628 423)">•</text><text font-family="Aptos,Aptos_MSFontService,sans-serif" font-weight="400" font-size="19" transform="translate(998.628 423)">Certificates</text><text font-family="Arial,Arial_MSFontService,sans-serif" font-weight="400" font-size="19" transform="translate(968.628 445)">•</text><text font-family="Aptos,Aptos_MSFontService,sans-serif" font-weight="400" font-size="19" transform="translate(998.628 445)">Endpoint</text><text font-family="Aptos,Aptos_MSFontService,sans-serif" font-weight="400" font-size="19" transform="translate(1075.29 445)">ID</text><text font-family="Arial,Arial_MSFontService,sans-serif" font-weight="400" font-size="19" transform="translate(968.628 467)">•</text><text font-family="Aptos,Aptos_MSFontService,sans-serif" font-weight="400" font-size="19" transform="translate(998.628 467)">…</text><path d="M411 383 445.667 383 445.667 383 497.667 383 619 383 619 435.5 619 435.5 619 458 619 473 497.667 473 358.274 600.039 445.667 473 411 473 411 458 411 435.5 411 435.5Z" stroke="#000000" stroke-width="2" stroke-miterlimit="8" fill="#D9D9D9" fill-rule="evenodd"/><text font-family="Aptos,Aptos_MSFontService,sans-serif" font-weight="700" font-size="19" transform="translate(421.034 400)">Only</text><text font-family="Aptos,Aptos_MSFontService,sans-serif" font-weight="700" font-size="19" transform="translate(464.2 400)">required</text><text font-family="Aptos,Aptos_MSFontService,sans-serif" font-weight="700" font-size="19" transform="translate(539.787 400)">for</text><text font-family="Aptos,Aptos_MSFontService,sans-serif" font-weight="700" font-size="19" transform="translate(563.474 400)">:</text><text font-family="Arial,Arial_MSFontService,sans-serif" font-weight="400" font-size="19" transform="translate(421.034 423)">•</text><text font-family="Aptos,Aptos_MSFontService,sans-serif" font-weight="400" font-size="19" transform="translate(454.867 423)">MQTT</text><text font-family="Arial,Arial_MSFontService,sans-serif" font-weight="400" font-size="19" transform="translate(421.034 445)">•</text><text font-family="Aptos,Aptos_MSFontService,sans-serif" font-weight="400" font-size="19" transform="translate(451.034 445)">JSON REST</text><text font-family="Aptos,Aptos_MSFontService,sans-serif" font-weight="400" font-size="19" transform="translate(451.034 467)">communication</text><path d="M86 544 215 544 215 675.519C150.5 675.519 150.5 725.63 86 697.158Z" stroke="#71B790" stroke-width="2" stroke-miterlimit="8" fill="none" fill-rule="evenodd"/><rect x="103" y="550" width="98" height="52" stroke="#71B790" stroke-width="2" stroke-miterlimit="8" fill="none"/><text font-family="Aptos,Aptos_MSFontService,sans-serif" font-weight="400" font-size="19" transform="translate(114.56 582)">Envelope</text><path d="M105 613 201 613 201 666.73C153 666.73 153 687.203 105 675.571Z" stroke="#71B790" stroke-width="2" stroke-miterlimit="8" fill="none" fill-rule="evenodd"/><text font-family="Aptos,Aptos_MSFontService,sans-serif" font-weight="400" font-size="19" transform="translate(118.366 645)">PayLoad</text><path d="M67.5001 337.833 109.664 337.833 109.664 602.52 104.331 602.52 104.331 340.5 106.998 343.167 67.5001 343.167ZM114.998 599.853 106.998 615.853 98.9977 599.853Z" fill="#A6A6A6"/><path d="M0.93593-2.49703 36.7167 10.9142 34.8449 15.9083-0.93593 2.49703ZM36.0916 4.98426 48.2659 18.0909 30.476 19.9664Z" fill="#A6A6A6" transform="matrix(1 0 0 -1 215.5 626.591)"/><path d="M1.12164-2.4193 75.0285 31.8455 72.7852 36.6842-1.12164 2.4193ZM74.8525 25.8853 86.0034 39.8731 68.1226 40.4011Z" fill="#A6A6A6" transform="matrix(1 0 0 -1 364.5 689.373)"/><path d="M264.5 582.5C264.5 575.32 270.32 569.5 277.5 569.5L339.5 569.5C346.68 569.5 352.5 575.32 352.5 582.5L352.5 634.5C352.5 641.68 346.68 647.5 339.5 647.5L277.5 647.5C270.32 647.5 264.5 641.68 264.5 634.5Z" stroke="#71B790" stroke-width="2.66667" stroke-miterlimit="8" fill="#FFFFFF" fill-rule="evenodd"/><text font-family="Aptos,Aptos_MSFontService,sans-serif" font-weight="400" font-size="16" transform="translate(283.122 604)">Create</text><text font-family="Aptos,Aptos_MSFontService,sans-serif" font-weight="400" font-size="16" transform="translate(280.982 623)">base</text><text font-family="Aptos,Aptos_MSFontService,sans-serif" font-weight="400" font-size="16" transform="translate(318.149 623)">64</text><path d="M353.529 606.04 438.369 641.517 436.312 646.438 351.471 610.96ZM437.967 635.568 449.642 649.121 431.794 650.329Z" fill="#A6A6A6"/><path d="M0.0879026-2.66522 51.1073-0.982526 50.9315 4.34791-0.0879026 2.66522ZM48.6179-6.40086 64.3455 2.1222 48.0905 9.59044Z" fill="#A6A6A6" transform="matrix(1 0 0 -1 753.5 648.622)"/><path d="M450 606 557 606 557 674.165C503.5 674.165 503.5 700.138 450 685.381Z" stroke="#71B790" stroke-width="2" stroke-miterlimit="8" fill="none" fill-rule="evenodd"/><text font-family="Aptos,Aptos_MSFontService,sans-serif" font-weight="400" font-size="19" transform="translate(464.494 635)">Message/</text><text font-family="Aptos,Aptos_MSFontService,sans-serif" font-weight="400" font-size="19" transform="translate(460.174 658)">Command</text><path d="M6.75523e-06-2.66667 28.1109-2.6666 28.1109 2.66674-6.75523e-06 2.66667ZM25.4442-7.99994 41.4442 0.000104987 25.4442 8.00006Z" fill="#A6A6A6" transform="matrix(1 0 0 -1 557.5 649.5)"/></g></svg>