<svg width="1280" height="720" xmlns="http://www.w3.org/2000/svg" xmlns:xlink="http://www.w3.org/1999/xlink" overflow="hidden"><defs><clipPath id="clip0"><rect x="0" y="0" width="1280" height="720"/></clipPath><clipPath id="clip1"><rect x="666" y="50" width="580" height="595"/></clipPath><clipPath id="clip2"><rect x="666" y="50" width="580" height="595"/></clipPath><clipPath id="clip3"><rect x="666" y="49" width="580" height="597"/></clipPath></defs><g clip-path="url(#clip0)"><rect x="0" y="0" width="1280" height="720" fill="#FFFFFF"/><g clip-path="url(#clip1)"><g clip-path="url(#clip2)"><g clip-path="url(#clip3)"><path d="M538.571 280.401 556.254 298.084 573.937 280.401C568.885 131.359 449.146 11.115 300.105 6.06272L317.282 23.2404 299.599 40.9233C428.937 46.4808 533.014 150.557 538.571 280.401Z" fill="#71B790" fill-opacity="0.4" transform="matrix(1 0 0 1.02596 666 49.9702)"/><path d="M23.7456 262.718 41.4286 280.401C46.4808 151.063 150.557 46.9861 280.401 41.4286L298.084 23.7456 280.401 6.06272C131.864 11.115 11.6202 131.359 6.56794 280.401L23.7456 262.718Z" fill="#71B790" fill-opacity="0.4" transform="matrix(1 0 0 1.02596 666 49.9702)"/><path d="M556.254 317.282 538.571 299.599C536.55 357.7 513.815 411.254 478.449 452.683L402.665 318.798 419.338 318.798C460.767 318.798 494.617 284.948 494.617 243.519 494.617 202.091 460.767 168.24 419.338 168.24L319.808 168.24C310.209 168.24 302.125 176.324 302.125 185.923L302.125 350.122 202.596 176.829C199.564 171.272 193.502 168.24 187.439 168.24 181.376 168.24 175.314 171.777 172.282 176.829L57.0906 376.394C47.9965 352.648 42.9442 326.882 41.9338 300.105L24.2509 282.422 6.56794 300.105C11.6202 449.146 131.359 569.39 280.401 574.443L263.223 557.265 280.906 539.582C193.502 536.55 117.213 487.544 75.2787 416.307L187.439 222.3 304.652 424.39C308.693 431.463 316.777 434.495 324.355 432.474 331.934 430.453 337.491 423.38 337.491 415.296L337.491 203.101 418.833 203.101C441.063 203.101 458.746 221.289 458.746 243.014 458.746 264.739 440.557 282.927 418.833 282.927L371.847 282.927C365.784 282.927 359.721 286.463 356.69 291.516 353.659 297.073 353.659 303.641 356.69 309.199L452.178 477.439C410.749 513.31 357.7 535.54 299.599 537.561L281.916 555.244 299.599 572.927C448.641 567.875 568.885 448.136 573.937 299.094L556.254 317.282Z" fill="#71B790" fill-opacity="0.4" transform="matrix(1 0 0 1.02596 666 49.9702)"/></g></g></g><path d="M678 137 825.378 137C879.64 137 923.628 180.988 923.628 235.25L923.628 235.25 943 235.25 909.019 268 875.037 235.25 894.409 235.25 894.409 235.25C894.409 197.126 863.503 166.22 825.378 166.22L678 166.22Z" stroke="#000000" stroke-width="2" stroke-miterlimit="8" fill="none" fill-rule="evenodd"/><rect x="26" y="50" width="142" height="417" fill="#CDE4D9"/><text fill="#71B790" font-family="Aptos,Aptos_MSFontService,sans-serif" font-weight="400" font-size="48" transform="matrix(6.12323e-17 -1 1 6.12323e-17 79.6674 440)">Farming Software</text><rect x="26" y="50" width="357" height="470" stroke="#71B790" stroke-width="4" stroke-miterlimit="8" stroke-dasharray="4 4" fill="none"/><text font-family="Aptos,Aptos_MSFontService,sans-serif" font-weight="700" font-size="24" transform="translate(136.55 77)">Applicaton</text><text font-family="Aptos,Aptos_MSFontService,sans-serif" font-weight="700" font-size="24" transform="translate(259.91 77)">1</text><path d="M136.73 77.6201 204.73 77.6201 272.73 77.6201 272.73 78.6201 204.73 78.6201 136.73 78.6201Z" fill-rule="evenodd"/><rect x="84" y="118" width="212" height="316" stroke="#71B790" stroke-width="2" stroke-miterlimit="8" fill="#A6A6A6"/><text font-family="Aptos,Aptos_MSFontService,sans-serif" font-weight="700" font-size="24" transform="translate(110.125 145)">App Instance 1</text><rect x="868" y="85" width="102" height="74" stroke="#0C445E" stroke-width="2" stroke-miterlimit="8" fill="#71B790"/><text font-family="Aptos,Aptos_MSFontService,sans-serif" font-weight="400" font-size="24" transform="translate(879.568 112)">Routing</text><rect x="875" y="274" width="87" height="160" stroke="#0C445E" stroke-width="2" stroke-miterlimit="8" fill="#71B790"/><text font-family="Aptos,Aptos_MSFontService,sans-serif" font-weight="400" font-size="24" transform="translate(892.876 301)">Feed</text><path d="M887 399.5C887 395.91 901.327 393 919 393 936.673 393 951 395.91 951 399.5L951 425.5C951 429.09 936.673 432 919 432 901.327 432 887 429.09 887 425.5Z" fill="#71B790" fill-rule="evenodd"/><path d="M951 399.5C951 403.09 936.673 406 919 406 901.327 406 887 403.09 887 399.5" stroke="#000000" stroke-width="2" stroke-miterlimit="8" fill="none" fill-rule="evenodd"/><path d="M887 399.5C887 395.91 901.327 393 919 393 936.673 393 951 395.91 951 399.5L951 425.5C951 429.09 936.673 432 919 432 901.327 432 887 429.09 887 425.5Z" stroke="#000000" stroke-width="2" stroke-miterlimit="8" fill="none" fill-rule="evenodd"/><text font-family="Aptos,Aptos_MSFontService,sans-serif" font-weight="400" font-size="13" transform="translate(899.889 420)">MSG n</text><path d="M887 373.333C887 369.836 901.327 367 919 367 936.673 367 951 369.836 951 373.333L951 398.667C951 402.164 936.673 405 919 405 901.327 405 887 402.164 887 398.667Z" fill="#71B790" fill-rule="evenodd"/><path d="M951 373.333C951 376.831 936.673 379.667 919 379.667 901.327 379.667 887 376.831 887 373.333" stroke="#000000" stroke-width="2" stroke-miterlimit="8" fill="none" fill-rule="evenodd"/><path d="M887 373.333C887 369.836 901.327 367 919 367 936.673 367 951 369.836 951 373.333L951 398.667C951 402.164 936.673 405 919 405 901.327 405 887 402.164 887 398.667Z" stroke="#000000" stroke-width="2" stroke-miterlimit="8" fill="none" fill-rule="evenodd"/><text font-family="Aptos,Aptos_MSFontService,sans-serif" font-weight="400" font-size="13" transform="translate(896.805 393)">MSG …</text><path d="M887 348.5C887 344.91 901.327 342 919 342 936.673 342 951 344.91 951 348.5L951 374.5C951 378.09 936.673 381 919 381 901.327 381 887 378.09 887 374.5Z" fill="#71B790" fill-rule="evenodd"/><path d="M951 348.5C951 352.09 936.673 355 919 355 901.327 355 887 352.09 887 348.5" stroke="#000000" stroke-width="2" stroke-miterlimit="8" fill="none" fill-rule="evenodd"/><path d="M887 348.5C887 344.91 901.327 342 919 342 936.673 342 951 344.91 951 348.5L951 374.5C951 378.09 936.673 381 919 381 901.327 381 887 378.09 887 374.5Z" stroke="#000000" stroke-width="2" stroke-miterlimit="8" fill="none" fill-rule="evenodd"/><text font-family="Aptos,Aptos_MSFontService,sans-serif" font-weight="400" font-size="13" transform="translate(899.972 369)">MSG 2</text><path d="M886 326.333C886 322.836 900.551 320 918.5 320 936.449 320 951 322.836 951 326.333L951 351.667C951 355.164 936.449 358 918.5 358 900.551 358 886 355.164 886 351.667Z" fill="#71B790" fill-rule="evenodd"/><path d="M951 326.333C951 329.831 936.449 332.667 918.5 332.667 900.551 332.667 886 329.831 886 326.333" stroke="#000000" stroke-width="2" stroke-miterlimit="8" fill="none" fill-rule="evenodd"/><path d="M886 326.333C886 322.836 900.551 320 918.5 320 936.449 320 951 322.836 951 326.333L951 351.667C951 355.164 936.449 358 918.5 358 900.551 358 886 355.164 886 351.667Z" stroke="#000000" stroke-width="2" stroke-miterlimit="8" fill="none" fill-rule="evenodd"/><text font-family="Aptos,Aptos_MSFontService,sans-serif" font-weight="400" font-size="13" transform="translate(901.141 346)">MSG1</text><rect x="542" y="104" width="123" height="119" stroke="#000000" stroke-width="2" stroke-miterlimit="8" fill="#FFFFFF"/><text fill="#71B790" font-family="Aptos,Aptos_MSFontService,sans-serif" font-weight="400" font-size="24" transform="translate(574.914 171)">Inbox</text><rect x="540" y="308" width="125" height="118" stroke="#000000" stroke-width="2" stroke-miterlimit="8" fill="#FFFFFF"/><text fill="#71B790" font-family="Aptos,Aptos_MSFontService,sans-serif" font-weight="400" font-size="24" transform="translate(564.44 375)">Outbox</text><rect x="529" y="77" width="497" height="568" stroke="#71B790" stroke-width="4" stroke-miterlimit="8" stroke-dasharray="4 4" fill="none"/><text font-family="Aptos,Aptos_MSFontService,sans-serif" font-weight="400" font-size="24" transform="translate(585.289 54)">Endpoint App Instance 1</text><path d="M585.289 54.7993 837.289 54.7993 837.289 55.7993 585.289 55.7993Z" fill-rule="evenodd"/><path d="M678 96.5001 840 96.5001 840 86 861 107 840 128 840 117.5 678 117.5Z" stroke="#000000" stroke-width="2" stroke-miterlimit="8" fill="none" fill-rule="evenodd"/><text font-family="Aptos,Aptos_MSFontService,sans-serif" font-weight="400" font-size="19" transform="translate(724.07 113)">Messages</text><text font-family="Aptos,Aptos_MSFontService,sans-serif" font-weight="400" font-size="19" transform="translate(687.692 161)">Command:</text><text font-family="Aptos,Aptos_MSFontService,sans-serif" font-weight="400" font-size="19" transform="translate(783.025 161)">call</text><text font-family="Aptos,Aptos_MSFontService,sans-serif" font-weight="400" font-size="19" transform="translate(816.252 161)">for</text><text font-family="Aptos,Aptos_MSFontService,sans-serif" font-weight="400" font-size="19" transform="translate(842.012 161)">MSGs</text><path d="M680 187 798.142 187C825.066 187 846.892 208.826 846.892 235.75L846.892 235.75 861 235.75 830.511 252 800.022 235.75 814.131 235.75 814.131 235.75C814.131 226.92 806.972 219.761 798.142 219.761L680 219.761Z" stroke="#000000" stroke-width="2" stroke-miterlimit="8" fill="none" fill-rule="evenodd"/><text font-family="Aptos,Aptos_MSFontService,sans-serif" font-weight="400" font-size="19" transform="translate(689.83 209)">Other Command</text><path d="M823 266.5C823 258.492 828.596 252 835.5 252 842.404 252 848 258.492 848 266.5 848 274.508 842.404 281 835.5 281 828.596 281 823 274.508 823 266.5Z" stroke="#000000" stroke-width="4" stroke-miterlimit="8" fill="#71B790" fill-rule="evenodd"/><path d="M848 281 848 281C848 309.564 824.844 332.719 796.281 332.719L683.75 332.719 683.75 344 668 319.048 683.75 294.095 683.75 305.376 796.281 305.376C809.743 305.376 820.656 294.462 820.656 281L820.656 281Z" stroke="#000000" stroke-width="2" stroke-miterlimit="8" fill="none" fill-rule="evenodd"/><path d="M863 391.75 685.268 391.75 685.268 405 668 378.5 685.268 352 685.268 365.25 863 365.25Z" stroke="#000000" stroke-width="2" stroke-miterlimit="8" fill="none" fill-rule="evenodd"/><text font-family="Aptos,Aptos_MSFontService,sans-serif" font-weight="400" font-size="24" transform="translate(706.682 327)">Result</text><text font-family="Aptos,Aptos_MSFontService,sans-serif" font-weight="400" font-size="24" transform="translate(715.732 386)">Messages</text><path d="M0 0 232.999 38.7114" stroke="#A6A6A6" stroke-width="5.33333" stroke-miterlimit="8" stroke-dasharray="21.3333 16" fill="none" fill-rule="evenodd" transform="matrix(1 0 0 -1 296.5 118.211)"/><path d="M296.5 434.5 529.499 645.745" stroke="#A6A6A6" stroke-width="5.33333" stroke-miterlimit="8" stroke-dasharray="21.3333 16" fill="none" fill-rule="evenodd"/><path d="M0.244875-2.6554 232.687 18.7799 232.197 24.0907-0.244875 2.6554ZM230.522 13.2243 245.72 22.6597 229.053 29.1567Z" fill="#A6A6A6" transform="matrix(1 0 0 -1 296.5 186.16)"/><path d="M1095.5 591.5 990.875 591.5C950.766 591.5 918.25 558.985 918.25 518.875L918.25 467 897.5 467 939 425.5 980.5 467 959.75 467 959.75 518.875C959.75 536.065 973.685 550 990.875 550L1095.5 550Z" stroke="#000000" stroke-width="2.66667" stroke-miterlimit="8" stroke-dasharray="10.6667 8" fill="#71B790" fill-rule="evenodd" fill-opacity="0.458824"/><path d="M0.0112652-2.66664 228.115-1.70302 228.093 3.63026-0.0112652 2.66664ZM225.471-7.04757 241.437 1.01995 225.404 8.95228Z" fill="#A6A6A6" transform="matrix(-1 0 0 1 540.938 367.5)"/><path d="M319.225 147.73 535.172 128.661 540.572 189.817 324.625 208.886Z" fill="#FFFFFF" fill-rule="evenodd" fill-opacity="0.45098"/><text font-family="Aptos,Aptos_MSFontService,sans-serif" font-weight="400" font-size="21" transform="matrix(0.996124 -0.0879616 0.0879616 0.996124 330.969 172)">Send</text><text font-family="Aptos,Aptos_MSFontService,sans-serif" font-weight="400" font-size="21" transform="matrix(0.996124 -0.0879616 0.0879616 0.996124 333.168 196)">message</text><text font-family="Aptos,Aptos_MSFontService,sans-serif" font-weight="400" font-size="21" transform="matrix(0.996124 -0.0879616 0.0879616 0.996124 415.528 189)">/</text><text font-family="Aptos,Aptos_MSFontService,sans-serif" font-weight="400" font-size="21" transform="matrix(0.996124 -0.0879616 0.0879616 0.996124 421.392 189)">command</text><rect x="331" y="325" width="166" height="39" fill="#FFFFFF" fill-opacity="0.431373"/><text font-family="Aptos,Aptos_MSFontService,sans-serif" font-weight="400" font-size="24" transform="translate(340.815 352)">Receive</text><text font-family="Aptos,Aptos_MSFontService,sans-serif" font-weight="400" font-size="21" transform="translate(426.581 352)">Result</text><path d="M1082 384.25 1011.5 384.25 1011.5 407 966 361.5 1011.5 316 1011.5 338.75 1082 338.75Z" stroke="#6AAC87" stroke-width="2" stroke-linecap="square" stroke-miterlimit="8" stroke-dasharray="6 2" fill="#BFBFBF" fill-rule="evenodd"/><path d="M972 99.75 1040.5 99.75 1040.5 77 1086 122.5 1040.5 168 1040.5 145.25 972 145.25Z" stroke="#6AAC87" stroke-width="2" stroke-linecap="square" stroke-miterlimit="8" stroke-dasharray="6 2" fill="#BFBFBF" fill-rule="evenodd"/><rect x="1091" y="67" width="108" height="569" stroke="#0C445E" stroke-width="2" stroke-miterlimit="8" fill="#7F7F7F"/><text fill="#FFFFFF" font-family="Aptos,Aptos_MSFontService,sans-serif" font-weight="400" font-size="24" transform="translate(1105.25 345)">Routing</text><text fill="#FFFFFF" font-family="Aptos,Aptos_MSFontService,sans-serif" font-weight="400" font-size="24" transform="translate(1112.63 374)">tables</text><rect x="867" y="468" width="154" height="153" stroke="#0C445E" stroke-width="2" stroke-miterlimit="8" fill="#71B790"/><text font-family="Aptos,Aptos_MSFontService,sans-serif" font-weight="400" font-size="21" transform="translate(879.941 493)">Subscri</text><text font-family="Aptos,Aptos_MSFontService,sans-serif" font-weight="400" font-size="21" transform="translate(949.774 493)">p</text><text font-family="Aptos,Aptos_MSFontService,sans-serif" font-weight="400" font-size="21" transform="translate(961.774 493)">tions</text><rect x="878" y="501" width="128" height="40" stroke="#000000" stroke-width="2" stroke-miterlimit="8" fill="#71B790"/><text fill="#FFFFFF" font-family="Aptos,Aptos_MSFontService,sans-serif" font-weight="400" font-size="24" transform="translate(914.643 529)">TMT1</text><rect x="878" y="558" width="128" height="40" stroke="#000000" stroke-width="2" stroke-miterlimit="8" fill="#71B790"/><text fill="#FFFFFF" font-family="Aptos,Aptos_MSFontService,sans-serif" font-weight="400" font-size="24" transform="translate(914.643 585)">TMT2</text></g></svg>