<svg width="1280" height="720" xmlns="http://www.w3.org/2000/svg" xmlns:xlink="http://www.w3.org/1999/xlink" overflow="hidden"><defs><clipPath id="clip0"><rect x="0" y="0" width="1280" height="720"/></clipPath></defs><g clip-path="url(#clip0)"><rect x="0" y="0" width="1280" height="720" fill="#FFFFFF"/><rect x="15.5001" y="58.5001" width="173" height="162" stroke="#71B790" stroke-width="2.66667" stroke-miterlimit="8" fill="none"/><text font-family="Aptos,Aptos_MSFontService,sans-serif" font-weight="400" font-size="24" transform="translate(33.928 85)">App Instance</text><rect x="978.5" y="58.5001" width="193" height="145" stroke="#71B790" stroke-width="2.66667" stroke-miterlimit="8" fill="none"/><text font-family="Aptos,Aptos_MSFontService,sans-serif" font-weight="400" font-size="24" transform="translate(1046.49 85)">Inbox</text><path d="M188.5 78.8334 965.19 78.8335 965.19 84.1668 188.5 84.1667ZM962.522 73.5002 978.522 81.5002 962.522 89.5002Z" fill="#A6A6A6"/><path d="M3.54376e-07-2.66667 776.69-2.66656 776.69 2.66677-3.54376e-07 2.66667ZM774.022-7.9999 790.022 0.000104987 774.022 8.0001Z" fill="#A6A6A6" transform="matrix(-1 0 0 1 978.522 180.5)"/><text font-family="Aptos,Aptos_MSFontService,sans-serif" font-weight="400" font-size="24" transform="translate(471.875 69)">Request:</text><text font-family="Aptos,Aptos_MSFontService,sans-serif" font-weight="400" font-size="24" transform="translate(474.038 168)">Response:</text><text font-family="Aptos,Aptos_MSFontService,sans-serif" font-weight="400" font-size="24" transform="translate(588.705 168)">Could</text><text font-family="Aptos,Aptos_MSFontService,sans-serif" font-weight="400" font-size="24" transform="translate(656.371 168)">be</text><text font-family="Aptos,Aptos_MSFontService,sans-serif" font-weight="400" font-size="24" transform="translate(687.371 168)">processed</text><text font-family="Aptos,Aptos_MSFontService,sans-serif" font-weight="400" font-size="24" transform="translate(796.545 168)">?</text><path d="M396 49.5C396 35.4167 410.103 24 427.5 24 444.897 24 459 35.4167 459 49.5 459 63.5833 444.897 75 427.5 75 410.103 75 396 63.5833 396 49.5Z" stroke="#000000" stroke-width="2" stroke-miterlimit="8" fill="#71B790" fill-rule="evenodd"/><text font-family="Aptos,Aptos_MSFontService,sans-serif" font-weight="400" font-size="24" transform="translate(411.384 57)">1.1</text><path d="M393 146C393 131.088 407.103 119 424.5 119 441.897 119 456 131.088 456 146 456 160.912 441.897 173 424.5 173 407.103 173 393 160.912 393 146Z" stroke="#000000" stroke-width="2" stroke-miterlimit="8" fill="#71B790" fill-rule="evenodd"/><text font-family="Aptos,Aptos_MSFontService,sans-serif" font-weight="400" font-size="24" transform="translate(408.176 154)">1.2</text></g></svg>