<svg width="1280" height="720" xmlns="http://www.w3.org/2000/svg" xmlns:xlink="http://www.w3.org/1999/xlink" overflow="hidden"><defs><clipPath id="clip0"><rect x="0" y="0" width="1280" height="720"/></clipPath></defs><g clip-path="url(#clip0)"><rect x="0" y="0" width="1280" height="720" fill="#FFFFFF"/><rect x="60.5001" y="23.5001" width="168" height="696" stroke="#71B790" stroke-width="2.66667" stroke-miterlimit="8" fill="none"/><text font-family="Aptos,Aptos_MSFontService,sans-serif" font-weight="400" font-size="24" transform="translate(76.2808 50)">App Instance</text><rect x="1017.5" y="23.5001" width="216" height="696" stroke="#71B790" stroke-width="2.66667" stroke-miterlimit="8" fill="none"/><text font-family="Aptos,Aptos_MSFontService,sans-serif" font-weight="400" font-size="24" transform="translate(1078.32 50)">Endpoint</text><path d="M1018.5 81.5001C1035.62 81.5001 1049.5 92.6929 1049.5 106.5L1049.5 106.5C1049.5 120.307 1063.38 131.5 1080.5 131.5 1063.38 131.5 1049.5 142.693 1049.5 156.5L1049.5 156.5C1049.5 170.307 1035.62 181.5 1018.5 181.5" stroke="#A6A6A6" stroke-width="5.33333" stroke-linecap="square" stroke-miterlimit="8" stroke-dasharray="16 5.33333" fill="none" fill-rule="evenodd"/><text font-family="Aptos,Aptos_MSFontService,sans-serif" font-weight="400" font-size="24" transform="translate(1093.38 135)">Outbox</text><path d="M1018.5 377.5C1035.62 377.5 1049.5 388.581 1049.5 402.25L1049.5 402.25C1049.5 415.919 1063.38 427 1080.5 427 1063.38 427 1049.5 438.081 1049.5 451.75L1049.5 451.75C1049.5 465.419 1035.62 476.5 1018.5 476.5" stroke="#A6A6A6" stroke-width="5.33333" stroke-linecap="square" stroke-miterlimit="8" stroke-dasharray="16 5.33333" fill="none" fill-rule="evenodd"/><text font-family="Aptos,Aptos_MSFontService,sans-serif" font-weight="400" font-size="24" transform="translate(1092.21 433)">Inbox</text><path d="M226.5 376.833 1003.19 376.833 1003.19 382.167 226.5 382.167ZM1000.52 371.5 1016.52 379.5 1000.52 387.5Z" fill="#A6A6A6"/><path d="M3.54376e-07-2.66667 21.3333-2.66666 21.3333 2.66667-3.54376e-07 2.66667ZM37.3333-2.66666 58.6667-2.66666 58.6667 2.66667 37.3333 2.66667ZM74.6667-2.66666 96-2.66665 96 2.66668 74.6667 2.66668ZM112-2.66665 133.333-2.66665 133.333 2.66668 112 2.66668ZM149.333-2.66665 170.667-2.66664 170.667 2.66669 149.333 2.66669ZM186.667-2.66664 208-2.66664 208 2.66669 186.667 2.66669ZM224-2.66664 245.333-2.66663 245.333 2.6667 224 2.6667ZM261.333-2.66663 282.667-2.66663 282.667 2.6667 261.333 2.6667ZM298.667-2.66663 320-2.66662 320 2.66671 298.667 2.66671ZM336-2.66662 357.333-2.66662 357.333 2.66671 336 2.66671ZM373.333-2.66662 394.667-2.66661 394.667 2.66672 373.333 2.66672ZM410.667-2.66661 432-2.66661 432 2.66672 410.667 2.66672ZM448-2.66661 469.333-2.6666 469.333 2.66673 448 2.66673ZM485.333-2.6666 506.667-2.6666 506.667 2.66673 485.333 2.66673ZM522.667-2.6666 544-2.66659 544 2.66674 522.667 2.66674ZM560-2.66659 581.333-2.66659 581.333 2.66674 560 2.66674ZM597.333-2.66659 618.667-2.66658 618.667 2.66675 597.333 2.66675ZM634.667-2.66658 656-2.66658 656 2.66675 634.667 2.66675ZM672-2.66658 693.333-2.66657 693.333 2.66676 672 2.66676ZM709.333-2.66657 730.667-2.66657 730.667 2.66676 709.333 2.66676ZM746.667-2.66657 768-2.66656 768 2.66677 746.667 2.66677ZM774.022-7.9999 790.022 0.000104987 774.022 8.0001Z" fill="#A6A6A6" transform="matrix(-1 0 0 1 1016.52 478.5)"/><text font-family="Aptos,Aptos_MSFontService,sans-serif" font-weight="400" font-size="24" transform="translate(509.099 367)">Request:</text><text font-family="Aptos,Aptos_MSFontService,sans-serif" font-weight="400" font-size="24" transform="translate(606.792 367)">Confirm</text><text font-family="Aptos,Aptos_MSFontService,sans-serif" font-weight="400" font-size="24" transform="translate(695.959 367)">message</text><text font-family="Aptos,Aptos_MSFontService,sans-serif" font-weight="400" font-size="24" transform="translate(794.285 367)">reception</text><text font-family="Aptos,Aptos_MSFontService,sans-serif" font-weight="400" font-size="24" transform="translate(511.262 466)">Response:</text><text font-family="Aptos,Aptos_MSFontService,sans-serif" font-weight="400" font-size="24" transform="translate(630.762 466)">Could</text><text font-family="Aptos,Aptos_MSFontService,sans-serif" font-weight="400" font-size="24" transform="translate(698.428 466)">be</text><text font-family="Aptos,Aptos_MSFontService,sans-serif" font-weight="400" font-size="24" transform="translate(729.428 466)">processed</text><text font-family="Aptos,Aptos_MSFontService,sans-serif" font-weight="400" font-size="24" transform="translate(838.602 466)">?</text><path d="M433 348C433 334.193 447.103 323 464.5 323 481.897 323 496 334.193 496 348 496 361.807 481.897 373 464.5 373 447.103 373 433 361.807 433 348Z" stroke="#000000" stroke-width="2" stroke-miterlimit="8" fill="#71B790" fill-rule="evenodd"/><text font-family="Aptos,Aptos_MSFontService,sans-serif" font-weight="400" font-size="24" transform="translate(448.607 355)">2.1</text><path d="M430 444C430 429.088 444.103 417 461.5 417 478.897 417 493 429.088 493 444 493 458.912 478.897 471 461.5 471 444.103 471 430 458.912 430 444Z" stroke="#000000" stroke-width="2" stroke-miterlimit="8" fill="#71B790" fill-rule="evenodd"/><text font-family="Aptos,Aptos_MSFontService,sans-serif" font-weight="400" font-size="24" transform="translate(445.4 452)">2.2</text><rect x="73" y="240" width="141" height="101" stroke="#000000" stroke-width="2" stroke-miterlimit="8" fill="#FFFFFF"/><text font-family="Aptos,Aptos_MSFontService,sans-serif" font-weight="400" font-size="24" transform="translate(107.363 270)">Extract</text><text font-family="Aptos,Aptos_MSFontService,sans-serif" font-weight="400" font-size="24" transform="translate(97.5963 299)">Message</text><text font-family="Aptos,Aptos_MSFontService,sans-serif" font-weight="400" font-size="24" transform="translate(125.076 328)">List</text><rect x="0" y="448" width="74" height="132" stroke="#6AAC87" stroke-width="2" stroke-miterlimit="8" fill="#BFBFBF"/><text fill="#FFFFFF" font-family="Aptos,Aptos_MSFontService,sans-serif" font-weight="400" font-size="24" transform="translate(13.269 479)">Proc</text><text fill="#FFFFFF" font-family="Aptos,Aptos_MSFontService,sans-serif" font-weight="400" font-size="24" transform="translate(18.8224 508)">ess</text><text fill="#FFFFFF" font-family="Aptos,Aptos_MSFontService,sans-serif" font-weight="400" font-size="24" transform="translate(14.409 537)">mes</text><text fill="#FFFFFF" font-family="Aptos,Aptos_MSFontService,sans-serif" font-weight="400" font-size="24" transform="translate(12.4957 566)">sage</text><path d="M147.903 377.5 147.903 482.875 87.8334 482.875 87.8334 477.541 145.237 477.541 142.57 480.208 142.57 377.5ZM90.5001 488.208 74.5001 480.208 90.5001 472.208Z" fill="#A6A6A6"/><path d="M0-2.66667 41.4418-2.66667 41.4418 69.9192 36.1085 69.9192 36.1085 0 38.7751 2.66667 0 2.66667ZM46.7751 67.2525 38.7751 83.2525 30.7751 67.2525Z" fill="#A6A6A6" transform="matrix(1.83697e-16 1 1 -1.83697e-16 144.5 341.5)"/><path d="M0-2.66667 94.8525-2.66667 94.8525 39.5326 89.5192 39.5326 89.5192 0 92.1858 2.66667 0 2.66667ZM100.186 36.8659 92.1858 52.8659 84.1858 36.8659Z" fill="#A6A6A6" transform="matrix(-1 1.22465e-16 1.22465e-16 1 236.686 185.5)"/><rect x="84" y="637" width="119" height="53" stroke="#0C445E" stroke-width="2" stroke-miterlimit="8" fill="#A6A6A6"/><text fill="#FFFFFF" font-family="Aptos,Aptos_MSFontService,sans-serif" font-weight="400" font-size="16" transform="translate(109.63 659)">Send</text><text fill="#FFFFFF" font-family="Aptos,Aptos_MSFontService,sans-serif" font-weight="400" font-size="16" transform="translate(148.296 659)">next</text><text fill="#FFFFFF" font-family="Aptos,Aptos_MSFontService,sans-serif" font-weight="400" font-size="16" transform="translate(117.083 678)">request</text><path d="M0-2.66667 76.0698-2.66667 76.0698 42.4185 70.7365 42.4185 70.7365 0 73.4031 2.66667 0 2.66667ZM81.4031 39.7518 73.4031 55.7518 65.4031 39.7518Z" fill="#A6A6A6" transform="matrix(-1 1.22465e-16 1.22465e-16 1 221.903 579.5)"/><path d="M3.54376e-07-2.66667 766.022-2.66656 766.022 2.66677-3.54376e-07 2.66667ZM763.355-13.3332 790.022 0.000104987 763.355 13.3334Z" fill="#A6A6A6" transform="matrix(-1 0 0 1 1017.52 182.5)"/><text font-family="Aptos,Aptos_MSFontService,sans-serif" font-weight="400" font-size="24" transform="translate(470.274 149)">Return</text><text font-family="Aptos,Aptos_MSFontService,sans-serif" font-weight="400" font-size="24" transform="translate(544.608 149)">push</text><text font-family="Aptos,Aptos_MSFontService,sans-serif" font-weight="400" font-size="24" transform="translate(601.108 149)">Notification</text><path d="M397 138C397 124.745 408.864 114 423.5 114 438.136 114 450 124.745 450 138 450 151.255 438.136 162 423.5 162 408.864 162 397 151.255 397 138Z" stroke="#000000" stroke-width="2" stroke-miterlimit="8" fill="#71B790" fill-rule="evenodd"/><text font-family="Aptos,Aptos_MSFontService,sans-serif" font-weight="400" font-size="21" transform="translate(418.191 145)">1</text><path d="M899 130.062C899 141.035 910.414 150.618 926.75 153.361L926.75 148.736 936 158.75 926.75 167.236 926.75 162.611C910.414 159.868 899 150.285 899 139.313Z" fill="#71B790" fill-rule="evenodd"/><path d="M936 115.25C918.307 115.25 903.091 123.396 899.69 134.688 895.762 121.646 908.835 109.003 928.888 106.449 931.231 106.15 933.613 106 936 106Z" fill="#5B9374" fill-rule="evenodd"/><path d="M899 130.062C899 141.035 910.414 150.618 926.75 153.361L926.75 148.736 936 158.75 926.75 167.236 926.75 162.611C910.414 159.868 899 150.285 899 139.313L899 130.062C899 116.773 915.565 106 936 106L936 115.25C918.307 115.25 903.091 123.396 899.69 134.688" stroke="#A6A6A6" stroke-width="2" stroke-miterlimit="8" fill="none" fill-rule="evenodd"/><path d="M981.847 145.656C982.488 134.545 971.89 124.197 956.08 120.498L955.819 125.02 947.343 114.681 956.863 106.934 956.602 111.456C972.412 115.155 983.01 125.502 982.369 136.613Z" fill="#71B790" fill-rule="evenodd"/><path d="M944.792 158.892C962.181 159.895 977.589 152.422 981.48 141.098 984.424 154.535 970.781 166.534 951.007 167.899 948.778 168.053 946.523 168.065 944.271 167.935Z" fill="#5B9374" fill-rule="evenodd"/><path d="M981.847 145.656C982.488 134.545 971.89 124.197 956.08 120.498L955.819 125.02 947.343 114.681 956.863 106.934 956.602 111.456C972.412 115.155 983.01 125.502 982.369 136.613L981.847 145.656C981.071 159.113 964.247 169.087 944.271 167.935L944.792 158.892C962.181 159.895 977.589 152.422 981.48 141.098" stroke="#A6A6A6" stroke-width="2" stroke-miterlimit="8" fill="none" fill-rule="evenodd"/><path d="M3.54376e-07-2.66667 766.022-2.66656 766.022 2.66677-3.54376e-07 2.66667ZM763.355-13.3332 790.022 0.000104987 763.355 13.3334Z" fill="#A6A6A6" transform="matrix(-1 0 0 1 1017.52 579.5)"/><text font-family="Aptos,Aptos_MSFontService,sans-serif" font-weight="400" font-size="24" transform="translate(470.274 546)">Return</text><text font-family="Aptos,Aptos_MSFontService,sans-serif" font-weight="400" font-size="24" transform="translate(544.608 546)">Acknowledgement</text><path d="M397 534.5C397 520.969 408.864 510 423.5 510 438.136 510 450 520.969 450 534.5 450 548.031 438.136 559 423.5 559 408.864 559 397 548.031 397 534.5Z" stroke="#71B790" stroke-width="2" stroke-miterlimit="8" fill="#71B790" fill-rule="evenodd"/><text font-family="Aptos,Aptos_MSFontService,sans-serif" font-weight="400" font-size="21" transform="translate(418.191 542)">3</text><path d="M1023.5 479.5C1040.62 479.5 1054.5 490.693 1054.5 504.5L1054.5 504.5C1054.5 518.307 1068.38 529.5 1085.5 529.5 1068.38 529.5 1054.5 540.693 1054.5 554.5L1054.5 554.5C1054.5 568.307 1040.62 579.5 1023.5 579.5" stroke="#A6A6A6" stroke-width="5.33333" stroke-linecap="square" stroke-miterlimit="8" stroke-dasharray="16 5.33333" fill="none" fill-rule="evenodd"/><text font-family="Aptos,Aptos_MSFontService,sans-serif" font-weight="400" font-size="24" transform="translate(1087.6 537)">Outbox</text><path d="M904 529.062C904 540.035 915.414 549.618 931.75 552.361L931.75 547.736 941 557.75 931.75 566.236 931.75 561.611C915.414 558.868 904 549.285 904 538.312Z" fill="#71B790" fill-rule="evenodd"/><path d="M941 514.25C923.307 514.25 908.091 522.396 904.69 533.688 900.762 520.646 913.835 508.003 933.888 505.449 936.231 505.15 938.613 505 941 505Z" fill="#5B9374" fill-rule="evenodd"/><path d="M904 529.062C904 540.035 915.414 549.618 931.75 552.361L931.75 547.736 941 557.75 931.75 566.236 931.75 561.611C915.414 558.868 904 549.285 904 538.312L904 529.062C904 515.773 920.565 505 941 505L941 514.25C923.307 514.25 908.091 522.396 904.69 533.688" stroke="#A6A6A6" stroke-width="2" stroke-miterlimit="8" fill="none" fill-rule="evenodd"/><path d="M986.647 544.903C987.288 533.792 976.69 523.444 960.88 519.745L960.619 524.267 952.143 513.929 961.663 506.181 961.402 510.703C977.212 514.402 987.81 524.749 987.169 535.86Z" fill="#71B790" fill-rule="evenodd"/><path d="M949.592 558.139C966.981 559.142 982.389 551.669 986.28 540.345 989.224 553.782 975.581 565.781 955.807 567.146 953.578 567.3 951.323 567.312 949.071 567.182Z" fill="#5B9374" fill-rule="evenodd"/><path d="M986.647 544.903C987.288 533.792 976.69 523.444 960.88 519.745L960.619 524.267 952.143 513.929 961.663 506.181 961.402 510.703C977.212 514.402 987.81 524.749 987.169 535.86L986.647 544.903C985.871 558.36 969.047 568.334 949.071 567.182L949.592 558.139C966.981 559.142 982.389 551.669 986.28 540.345" stroke="#A6A6A6" stroke-width="2" stroke-miterlimit="8" fill="none" fill-rule="evenodd"/></g></svg>