<svg width="1280" height="720" xmlns="http://www.w3.org/2000/svg" xmlns:xlink="http://www.w3.org/1999/xlink" overflow="hidden"><defs><clipPath id="clip0"><rect x="0" y="0" width="1280" height="720"/></clipPath><clipPath id="clip1"><rect x="411" y="138" width="527" height="496"/></clipPath><clipPath id="clip2"><rect x="411" y="138" width="527" height="496"/></clipPath><clipPath id="clip3"><rect x="411" y="138" width="527" height="496"/></clipPath><clipPath id="clip4"><rect x="200" y="340" width="53" height="99"/></clipPath><clipPath id="clip5"><rect x="200" y="340" width="53" height="99"/></clipPath><clipPath id="clip6"><rect x="200" y="340" width="53" height="99"/></clipPath><clipPath id="clip7"><rect x="411" y="346" width="68" height="93"/></clipPath><clipPath id="clip8"><rect x="411" y="346" width="68" height="93"/></clipPath><clipPath id="clip9"><rect x="411" y="346" width="68" height="93"/></clipPath></defs><g clip-path="url(#clip0)"><rect x="0" y="0" width="1280" height="720" fill="#FFFFFF"/><g clip-path="url(#clip1)"><g clip-path="url(#clip2)"><g clip-path="url(#clip3)"><path d="M465.148 239.456 480.811 255.12 496 239.931C491.728 109.642 386.595 4.50909 256.544 0L271.732 15.1885 256.069 30.8517C369.271 35.1234 460.639 126.255 465.148 239.456Z" fill="#D5EADE" transform="matrix(1.0625 0 0 1 411 138)"/><path d="M15.1885 224.268 30.8517 239.931C35.1234 126.729 126.255 35.3608 239.456 30.8517L255.12 15.1885 239.694 0C109.642 4.27177 4.50909 109.405 0 239.456L15.1885 224.268Z" fill="#D5EADE" transform="matrix(1.0625 0 0 1 411 138)"/><path d="M480.811 271.732 465.148 256.069C463.25 307.093 443.789 353.608 412.463 389.918L346.013 272.919 360.727 272.919C397.037 272.919 426.465 243.491 426.465 207.181 426.465 170.871 397.037 141.443 360.727 141.443L274.105 141.443C265.562 141.443 258.679 148.325 258.679 156.869L258.679 300.448 171.345 149.275C168.498 144.528 163.514 141.68 158.055 141.68 152.597 141.68 147.376 144.528 144.766 149.275L44.1416 323.468C36.31 302.584 31.801 280.038 30.8517 256.544L15.1885 240.88 0 256.306C4.27177 386.595 109.405 491.728 239.456 496L224.268 480.811 239.931 465.148C163.277 462.3 96.5895 419.583 60.2794 357.167L158.293 187.483 261.053 365.474C264.612 371.407 271.732 374.492 278.377 372.593 285.022 370.695 289.768 364.762 289.768 357.642L289.768 172.295 360.965 172.295C380.188 172.295 395.851 187.958 395.851 207.181 395.851 226.404 380.188 242.067 360.965 242.067L319.671 242.067C314.212 242.067 309.229 244.915 306.381 249.661 303.533 254.408 303.533 260.341 306.381 265.087L390.155 412.463C354.082 443.552 307.805 463.25 256.781 465.148L241.118 480.811 256.306 496C386.595 491.728 491.728 386.595 496 256.544L480.811 271.732Z" fill="#D5EADE" transform="matrix(1.0625 0 0 1 411 138)"/></g></g></g><text font-family="Aptos,Aptos_MSFontService,sans-serif" font-weight="400" font-size="27" transform="translate(147.844 148)">Local</text><text font-family="Aptos,Aptos_MSFontService,sans-serif" font-weight="400" font-size="27" transform="translate(216.424 148)">Communication</text><text font-family="Aptos,Aptos_MSFontService,sans-serif" font-weight="400" font-size="27" transform="translate(408.371 148)">channel</text><text font-family="Aptos,Aptos_MSFontService,sans-serif" font-weight="400" font-size="27" transform="translate(862.138 148)">Local</text><text font-family="Aptos,Aptos_MSFontService,sans-serif" font-weight="400" font-size="27" transform="translate(930.718 148)">Communication</text><text font-family="Aptos,Aptos_MSFontService,sans-serif" font-weight="400" font-size="27" transform="translate(1122.66 148)">channel</text><rect x="14" y="207" width="190" height="320" stroke="#042433" stroke-width="2" stroke-miterlimit="8" fill="#7F7F7F"/><text fill="#FFFFFF" font-family="Aptos,Aptos_MSFontService,sans-serif" font-weight="400" font-size="24" transform="translate(55.6305 233)">Telemetry</text><text fill="#FFFFFF" font-family="Aptos,Aptos_MSFontService,sans-serif" font-weight="400" font-size="24" transform="translate(64.1972 262)">Platform</text><rect x="33" y="295" width="151" height="44" stroke="#000000" stroke-width="2" stroke-miterlimit="8" fill="#71B790"/><text font-family="Aptos,Aptos_MSFontService,sans-serif" font-weight="400" font-size="24" transform="translate(56.0663 324)">Account</text><text font-family="Aptos,Aptos_MSFontService,sans-serif" font-weight="400" font-size="24" transform="translate(147.9 324)">1</text><rect x="33" y="344" width="151" height="45" stroke="#000000" stroke-width="2" stroke-miterlimit="8" fill="#71B790"/><text font-family="Aptos,Aptos_MSFontService,sans-serif" font-weight="400" font-size="24" transform="translate(56.0662 374)">Account</text><text font-family="Aptos,Aptos_MSFontService,sans-serif" font-weight="400" font-size="24" transform="translate(147.9 374)">2</text><rect x="33" y="394" width="151" height="44" stroke="#000000" stroke-width="2" stroke-miterlimit="8" fill="#71B790"/><text font-family="Aptos,Aptos_MSFontService,sans-serif" font-weight="400" font-size="24" transform="translate(56.0662 424)">Account</text><text font-family="Aptos,Aptos_MSFontService,sans-serif" font-weight="400" font-size="24" transform="translate(147.9 424)">3</text><rect x="33" y="447" width="151" height="44" stroke="#000000" stroke-width="2" stroke-miterlimit="8" fill="#71B790"/><text font-family="Aptos,Aptos_MSFontService,sans-serif" font-weight="400" font-size="24" transform="translate(55.8995 477)">Account</text><text font-family="Aptos,Aptos_MSFontService,sans-serif" font-weight="400" font-size="24" transform="translate(147.733 477)">n</text><rect x="244" y="317" width="173" height="129" stroke="#000000" stroke-width="2" stroke-miterlimit="8" fill="#71B790"/><text fill="#FFFFFF" font-family="Aptos,Aptos_MSFontService,sans-serif" font-weight="400" font-size="19" transform="translate(275.906 358)">Router</text><text fill="#FFFFFF" font-family="Aptos,Aptos_MSFontService,sans-serif" font-weight="400" font-size="19" transform="translate(333.813 358)">device</text><text fill="#FFFFFF" font-family="Aptos,Aptos_MSFontService,sans-serif" font-weight="400" font-size="19" transform="translate(390.626 358)">*</text><text fill="#FFFFFF" font-family="Aptos,Aptos_MSFontService,sans-serif" font-weight="400" font-size="19" transform="translate(275.906 381)">1</text><text fill="#FFFFFF" font-family="Aptos,Aptos_MSFontService,sans-serif" font-weight="400" font-size="19" transform="translate(289.74 381)">MQTT</text><text fill="#FFFFFF" font-family="Aptos,Aptos_MSFontService,sans-serif" font-weight="400" font-size="19" transform="translate(339.393 381)">chanel</text><text fill="#FFFFFF" font-family="Aptos,Aptos_MSFontService,sans-serif" font-weight="400" font-size="19" transform="translate(279.74 403)">for</text><text fill="#FFFFFF" font-family="Aptos,Aptos_MSFontService,sans-serif" font-weight="400" font-size="19" transform="translate(305.5 403)">multiple</text><text fill="#FFFFFF" font-family="Aptos,Aptos_MSFontService,sans-serif" font-weight="400" font-size="19" transform="translate(279.74 425)">acounts</text><text font-family="Aptos,Aptos_MSFontService,sans-serif" font-weight="700" font-size="27" transform="translate(302.124 299)">multi</text><text font-family="Aptos,Aptos_MSFontService,sans-serif" font-weight="400" font-size="21" transform="translate(246.243 482)">*</text><text font-family="Aptos,Aptos_MSFontService,sans-serif" font-weight="400" font-size="21" transform="translate(256.077 482)">Optional</text><text font-family="Aptos,Aptos_MSFontService,sans-serif" font-weight="400" font-size="21" transform="translate(340.577 482)">multiple</text><text font-family="Aptos,Aptos_MSFontService,sans-serif" font-weight="400" font-size="21" transform="translate(268.37 507)">router</text><text font-family="Aptos,Aptos_MSFontService,sans-serif" font-weight="400" font-size="21" transform="translate(328.47 507)">devices</text><g clip-path="url(#clip4)"><g clip-path="url(#clip5)"><g clip-path="url(#clip6)"><path d="M41.5868 25.7823C42.0305 26.2005 42.0512 26.8994 41.6329 27.3431 41.6254 27.3511 41.6178 27.359 41.61 27.3668L38.1986 30.7786C37.7675 31.2099 37.0684 31.21 36.6371 30.7789 36.6165 30.7583 36.5967 30.7368 36.5777 30.7146 36.2093 30.2488 36.2558 29.5793 36.6848 29.1688L38.1876 27.6654 23.3531 27.6654C17.7793 27.6837 13.2661 32.1987 13.25 37.7724L13.25 41.9583C13.25 42.5682 12.7557 43.0625 12.1458 43.0625L12.1458 43.0625C11.536 43.0625 11.0417 42.5682 11.0417 41.9583L11.0417 37.2204C11.0486 32.6443 13.7075 28.4872 17.8588 26.5618 13.7075 24.6368 11.0486 20.4798 11.0417 15.9039L11.0417 11.5938C11.0417 10.9839 11.536 10.4896 12.1458 10.4896L12.1458 10.4896C12.7557 10.4896 13.25 10.9839 13.25 11.5938L13.25 15.9039C13.25 21.1718 18.0885 25.4577 23.3564 25.4577L38.0385 25.4577 36.7064 24.2216C36.292 23.8533 36.2013 23.241 36.4911 22.7685 36.8246 22.258 37.5088 22.1145 38.0193 22.448 38.0718 22.4823 38.1213 22.521 38.1672 22.5636Z" stroke="#A6A6A6" stroke-width="0.552083" fill="#A6A6A6" transform="matrix(1 0 0 1.86792 200 340)"/></g></g></g><g clip-path="url(#clip7)"><g clip-path="url(#clip8)"><g clip-path="url(#clip9)"><path d="M18.9833 28.9708C19.0542 28.9 19.125 28.9 19.1958 28.8292 19.8333 28.4042 20.7542 28.6167 21.1792 29.2542 21.5333 29.8917 21.4625 30.6708 20.8958 31.0958L19.1958 32.6542 38.0375 32.6542C44.7667 32.6542 51 27.1292 51 20.4L51 14.875C51 14.0958 51.6375 13.4583 52.4167 13.4583L52.4167 13.4583C53.1958 13.4583 53.8333 14.0958 53.8333 14.875L53.8333 20.4C53.8333 26.2792 50.4333 31.5917 45.1208 34.0708 50.4333 36.55 53.8333 41.8625 53.8333 47.7417L53.8333 53.8333C53.8333 54.6125 53.1958 55.25 52.4167 55.25L52.4167 55.25C51.6375 55.25 51 54.6125 51 53.8333L51 48.45C51 41.2958 45.1917 35.4875 38.0375 35.4875L18.9833 35.4875 20.8958 37.4C21.4625 37.8958 21.5333 38.8167 21.0375 39.3833 21.0375 39.3833 20.9667 39.4542 20.9667 39.4542 20.4 40.0208 19.55 40.0208 18.9833 39.4542L14.5917 35.0625C14.5917 35.0625 14.5917 35.0625 14.5917 35.0625 14.025 34.4958 14.0958 33.575 14.6625 33.0792L18.9833 28.9708Z" stroke="#A6A6A6" stroke-width="0.708333" fill="#A6A6A6" transform="matrix(1 0 0 1.36765 411 346)"/></g></g></g><rect x="470" y="199" width="253" height="320" stroke="#71B790" stroke-width="2" stroke-miterlimit="8" fill="none"/><rect x="485" y="234" width="223" height="260" stroke="#6AAC87" stroke-width="2" stroke-miterlimit="8" stroke-dasharray="8 6" fill="#FFFFFF"/><text font-family="Aptos,Aptos_MSFontService,sans-serif" font-weight="700" font-size="27" transform="translate(528.064 222)">agrirouter</text><rect x="493" y="248" width="209" height="42" stroke="#FFFFFF" stroke-width="2" stroke-miterlimit="8" fill="#FFFFFF"/><text fill="#71B790" font-family="Aptos,Aptos_MSFontService,sans-serif" font-weight="400" font-size="27" transform="translate(523.402 278)">inbox</text><text fill="#71B790" font-family="Aptos,Aptos_MSFontService,sans-serif" font-weight="400" font-size="27" transform="translate(585.475 278)">/</text><text fill="#71B790" font-family="Aptos,Aptos_MSFontService,sans-serif" font-weight="400" font-size="27" transform="translate(592.875 278)">outbox</text><path d="M523.095 279.076 560.345 279.076 597.595 279.076 634.845 279.076 672.095 279.076 672.095 280.076 634.845 280.076 597.595 280.076 560.345 280.076 523.095 280.076Z" fill="#71B790" fill-rule="evenodd"/><rect x="522" y="295" width="152" height="44" stroke="#000000" stroke-width="2" stroke-miterlimit="8" fill="#71B790"/><text font-family="Aptos,Aptos_MSFontService,sans-serif" font-weight="400" font-size="24" transform="translate(545.721 324)">Account</text><text font-family="Aptos,Aptos_MSFontService,sans-serif" font-weight="400" font-size="24" transform="translate(637.555 324)">1</text><rect x="522" y="344" width="152" height="45" stroke="#000000" stroke-width="2" stroke-miterlimit="8" fill="#71B790"/><text font-family="Aptos,Aptos_MSFontService,sans-serif" font-weight="400" font-size="24" transform="translate(545.721 374)">Account</text><text font-family="Aptos,Aptos_MSFontService,sans-serif" font-weight="400" font-size="24" transform="translate(637.555 374)">2</text><rect x="522" y="394" width="152" height="44" stroke="#000000" stroke-width="2" stroke-miterlimit="8" fill="#71B790"/><text font-family="Aptos,Aptos_MSFontService,sans-serif" font-weight="400" font-size="24" transform="translate(545.721 424)">Account</text><text font-family="Aptos,Aptos_MSFontService,sans-serif" font-weight="400" font-size="24" transform="translate(637.555 424)">3</text><rect x="522" y="444" width="152" height="45" stroke="#000000" stroke-width="2" stroke-miterlimit="8" fill="#71B790"/><text font-family="Aptos,Aptos_MSFontService,sans-serif" font-weight="400" font-size="24" transform="translate(545.555 474)">Account</text><text font-family="Aptos,Aptos_MSFontService,sans-serif" font-weight="400" font-size="24" transform="translate(637.388 474)">n</text><rect x="776" y="201" width="253" height="320" stroke="#71B790" stroke-width="2" stroke-miterlimit="8" fill="none"/><rect x="791" y="236" width="223" height="259" stroke="#6AAC87" stroke-width="2" stroke-miterlimit="8" stroke-dasharray="8 6" fill="#FFFFFF"/><text font-family="Aptos,Aptos_MSFontService,sans-serif" font-weight="700" font-size="27" transform="translate(846.685 224)">agrirouter</text><rect x="800" y="250" width="208" height="42" stroke="#FFFFFF" stroke-width="2" stroke-miterlimit="8" fill="#FFFFFF"/><text fill="#71B790" font-family="Aptos,Aptos_MSFontService,sans-serif" font-weight="400" font-size="27" transform="translate(829.609 279)">inbox</text><text fill="#71B790" font-family="Aptos,Aptos_MSFontService,sans-serif" font-weight="400" font-size="27" transform="translate(891.682 279)">/</text><text fill="#71B790" font-family="Aptos,Aptos_MSFontService,sans-serif" font-weight="400" font-size="27" transform="translate(899.082 279)">outbox</text><path d="M829.302 280.455 866.552 280.455 903.802 280.455 941.052 280.455 978.302 280.455 978.302 281.455 941.052 281.455 903.802 281.455 866.552 281.455 829.302 281.455Z" fill="#71B790" fill-rule="evenodd"/><rect x="829" y="296" width="151" height="44" stroke="#000000" stroke-width="2" stroke-miterlimit="8" fill="#71B790"/><text font-family="Aptos,Aptos_MSFontService,sans-serif" font-weight="400" font-size="24" transform="translate(851.928 326)">Account</text><text font-family="Aptos,Aptos_MSFontService,sans-serif" font-weight="400" font-size="24" transform="translate(943.762 326)">1</text><rect x="829" y="346" width="151" height="44" stroke="#000000" stroke-width="2" stroke-miterlimit="8" fill="#71B790"/><text font-family="Aptos,Aptos_MSFontService,sans-serif" font-weight="400" font-size="24" transform="translate(851.928 376)">Account</text><text font-family="Aptos,Aptos_MSFontService,sans-serif" font-weight="400" font-size="24" transform="translate(943.761 376)">2</text><rect x="829" y="395" width="151" height="45" stroke="#000000" stroke-width="2" stroke-miterlimit="8" fill="#71B790"/><text font-family="Aptos,Aptos_MSFontService,sans-serif" font-weight="400" font-size="24" transform="translate(851.928 425)">Account</text><text font-family="Aptos,Aptos_MSFontService,sans-serif" font-weight="400" font-size="24" transform="translate(943.761 425)">3</text><rect x="829" y="446" width="151" height="44" stroke="#000000" stroke-width="2" stroke-miterlimit="8" fill="#71B790"/><text font-family="Aptos,Aptos_MSFontService,sans-serif" font-weight="400" font-size="24" transform="translate(851.761 475)">Account</text><text font-family="Aptos,Aptos_MSFontService,sans-serif" font-weight="400" font-size="24" transform="translate(943.595 475)">n</text><path d="M722 319 731 310 731 314.5 764 314.5 764 310 773 319 764 328 764 323.5 731 323.5 731 328Z" stroke="#E8E8E8" stroke-width="2" stroke-miterlimit="8" fill="#A6A6A6" fill-rule="evenodd"/><path d="M722 370 731 361 731 365.5 764 365.5 764 361 773 370 764 379 764 374.5 731 374.5 731 379Z" stroke="#FFFFFF" stroke-width="2" stroke-miterlimit="8" fill="#A6A6A6" fill-rule="evenodd"/><path d="M722 417 731 408 731 412.5 764 412.5 764 408 773 417 764 426 764 421.5 731 421.5 731 426Z" stroke="#FFFFFF" stroke-width="2" stroke-miterlimit="8" fill="#A6A6A6" fill-rule="evenodd"/><path d="M722 466 731 457 731 461.5 764 461.5 764 457 773 466 764 475 764 470.5 731 470.5 731 475Z" stroke="#FFFFFF" stroke-width="2" stroke-miterlimit="8" fill="#A6A6A6" fill-rule="evenodd"/><path d="M1034.2 306.127 1041.32 286.584 1044.42 293.248 1108.4 263.416 1105.29 256.752 1124.84 263.865 1117.72 283.408 1114.61 276.744 1050.64 306.576 1053.75 313.24Z" stroke="#FFFFFF" stroke-width="2" stroke-miterlimit="8" fill="#A6A6A6" fill-rule="evenodd"/><path d="M1027.26 372.42 1037.25 355.129 1039.07 361.948 1122.03 339.72 1120.2 332.901 1137.49 342.884 1127.51 360.175 1125.68 353.356 1042.73 375.584 1044.55 382.403Z" stroke="#FFFFFF" stroke-width="2" stroke-miterlimit="8" fill="#A6A6A6" fill-rule="evenodd"/><path d="M1025 414 1043 396 1043 405 1124 405 1124 396 1142 414 1124 432 1124 423 1043 423 1043 432Z" stroke="#FFFFFF" stroke-width="2" stroke-miterlimit="8" fill="#A6A6A6" fill-rule="evenodd"/><path d="M1020.65 467.479 1038.13 459.696 1035.71 466.012 1118.08 497.633 1120.51 491.317 1128.29 508.797 1110.81 516.579 1113.24 510.263 1030.86 478.643 1028.44 484.958Z" stroke="#FFFFFF" stroke-width="2" stroke-miterlimit="8" fill="#A6A6A6" fill-rule="evenodd"/><rect x="1142" y="245" width="134" height="40" stroke="#71B790" stroke-width="2" stroke-miterlimit="8" stroke-dasharray="8 6" fill="#A6A6A6"/><rect x="1139" y="328" width="134" height="40" stroke="#71B790" stroke-width="2" stroke-miterlimit="8" stroke-dasharray="8 6" fill="#A6A6A6"/><rect x="1142" y="397" width="134" height="40" stroke="#71B790" stroke-width="2" stroke-miterlimit="8" stroke-dasharray="8 6" fill="#A6A6A6"/><rect x="1142" y="487" width="134" height="40" stroke="#71B790" stroke-width="2" stroke-miterlimit="8" stroke-dasharray="8 6" fill="#A6A6A6"/><text font-family="Aptos,Aptos_MSFontService,sans-serif" font-weight="700" font-size="27" transform="translate(1047.53 223)">single</text><text font-family="Aptos,Aptos_MSFontService,sans-serif" font-weight="700" font-size="27" transform="translate(1180.98 272)">CU</text><text font-family="Aptos,Aptos_MSFontService,sans-serif" font-weight="700" font-size="27" transform="translate(1223.82 272)">1</text><text font-family="Aptos,Aptos_MSFontService,sans-serif" font-weight="700" font-size="27" transform="translate(1178.34 361)">CU 2</text><text font-family="Aptos,Aptos_MSFontService,sans-serif" font-weight="700" font-size="27" transform="translate(1182.87 426)">CU3</text><text font-family="Aptos,Aptos_MSFontService,sans-serif" font-weight="700" font-size="27" transform="translate(1186.16 515)">CUn</text></g></svg>