<svg width="1280" height="720" xmlns="http://www.w3.org/2000/svg" xmlns:xlink="http://www.w3.org/1999/xlink" overflow="hidden"><defs><clipPath id="clip0"><rect x="0" y="0" width="1280" height="720"/></clipPath><clipPath id="clip1"><rect x="714" y="112" width="552" height="557"/></clipPath><clipPath id="clip2"><rect x="714" y="112" width="552" height="557"/></clipPath><clipPath id="clip3"><rect x="713" y="112" width="554" height="557"/></clipPath></defs><g clip-path="url(#clip0)"><rect x="0" y="0" width="1280" height="720" fill="#FFFFFF"/><g clip-path="url(#clip1)"><g clip-path="url(#clip2)"><g clip-path="url(#clip3)"><path d="M517.748 266.535 535.182 283.969 552.088 267.063C547.333 122.041 430.312 5.01898 285.554 0L302.46 16.9061 285.026 34.3404C411.028 39.0953 512.729 140.532 517.748 266.535Z" fill="#D5EADE" transform="matrix(1 0 0 1.0089 713.917 112)"/><path d="M16.9061 249.628 34.3404 267.063C39.0953 141.06 140.532 39.3594 266.535 34.3404L283.969 16.9061 266.799 0C122.041 4.75483 5.01898 121.776 0 266.535L16.9061 249.628Z" fill="#D5EADE" transform="matrix(1 0 0 1.0089 713.917 112)"/><path d="M535.182 302.46 517.748 285.026C515.635 341.819 493.974 393.594 459.105 434.01L385.141 303.781 401.519 303.781C441.935 303.781 474.69 271.025 474.69 230.609 474.69 190.193 441.935 157.438 401.519 157.438L305.101 157.438C295.592 157.438 287.931 165.098 287.931 174.608L287.931 334.423 190.721 166.155C187.552 160.872 182.004 157.702 175.929 157.702 169.853 157.702 164.042 160.872 161.136 166.155L49.1332 360.046C40.416 336.8 35.3971 311.705 34.3404 285.554L16.9061 268.119 0 285.29C4.75483 430.312 121.776 547.333 266.535 552.088L249.628 535.182 267.063 517.748C181.74 514.578 107.512 467.03 67.0959 397.556L176.193 208.684 290.573 406.802C294.535 413.406 302.46 416.84 309.856 414.727 317.253 412.613 322.536 406.009 322.536 398.085L322.536 191.778 401.783 191.778C423.18 191.778 440.614 209.212 440.614 230.609 440.614 252.006 423.18 269.44 401.783 269.44L355.82 269.44C349.744 269.44 344.197 272.61 341.027 277.893 337.857 283.176 337.857 289.78 341.027 295.063L434.274 459.105C394.122 493.71 342.612 515.635 285.818 517.748L268.384 535.182 285.29 552.088C430.312 547.333 547.333 430.312 552.088 285.554L535.182 302.46Z" fill="#D5EADE" transform="matrix(1 0 0 1.0089 713.917 112)"/></g></g></g><path d="M253.965 204.958C248.298 141.976 277.477 83.9751 319.137 75.4081 336.019 71.9367 353.182 77.1261 367.882 90.146 383.458 45.7585 419.856 28.8889 449.179 52.4669 454.306 56.5898 459.012 61.8152 463.15 67.9805 475.281 31.1866 504.829 16.2382 529.148 34.5922 535.879 39.6721 541.75 47.019 546.311 56.0683 565.864 21.273 600.415 16.975 623.482 46.4683 633.178 58.8643 639.712 75.9617 641.965 94.8291 674.002 108.045 692.902 158.104 684.178 206.639 683.445 210.72 682.525 214.718 681.425 218.604 707.119 269.178 700.829 341.664 667.376 380.507 656.963 392.599 644.663 400.427 631.665 403.237 631.376 457.646 601.945 501.4 565.928 500.963 553.895 500.818 542.124 495.645 531.916 486.018 519.734 547.018 477.243 581.495 437.008 563.026 420.147 555.286 405.578 538.917 395.787 516.711 354.592 554.279 301.123 534.07 276.36 471.574 276.048 470.786 275.741 469.994 275.44 469.196 248.48 473.968 224.059 444.881 220.895 404.229 219.208 382.561 223.939 360.873 233.826 344.944 210.483 324.166 202.641 278.558 216.312 243.077 224.198 222.608 238.031 209.076 253.555 206.643Z" stroke="#7F7F7F" stroke-width="2" stroke-miterlimit="8" fill="#E8E8E8" fill-rule="evenodd"/><path d="M262.905 352.818C252.939 353.998 242.974 350.515 234.349 342.837M288.1 462.045C284.093 464.458 279.892 466.064 275.606 466.822M395.759 514.53C392.745 507.694 390.221 500.389 388.231 492.739M534.971 460.192C534.528 468.3 533.52 476.315 531.965 484.102M594.741 312.456C617.337 329.084 631.597 363.848 631.395 401.817M681.195 217.28C677.536 230.209 671.949 241.678 664.874 250.788M642.032 92.9506C642.656 98.1716 642.944 103.471 642.894 108.776M537.801 74.4915C539.927 67.1907 542.743 60.3929 546.162 54.3098M459.599 84.1093C460.466 78.0759 461.827 72.2293 463.648 66.704M367.824 90.0202C373.143 94.7312 378.063 100.401 382.478 106.906M256.524 222.728C255.363 216.917 254.508 210.977 253.967 204.962" stroke="#7F7F7F" stroke-width="2" stroke-miterlimit="8" fill="none" fill-rule="evenodd"/><rect x="721" y="222" width="276" height="211" stroke="#6AAC87" stroke-width="4" stroke-miterlimit="8" stroke-dasharray="4 4" fill="none"/><rect x="278" y="101" width="373" height="61" stroke="#71B790" stroke-width="2" stroke-miterlimit="8" fill="none"/><text fill="#6AAC87" font-family="Aptos,Aptos_MSFontService,sans-serif" font-weight="400" font-size="43" transform="translate(291.207 145)">Telemetry</text><text fill="#6AAC87" font-family="Aptos,Aptos_MSFontService,sans-serif" font-weight="400" font-size="43" transform="translate(480.101 145)">platform</text><rect x="361" y="188" width="176" height="285" stroke="#6AAC87" stroke-width="2" stroke-miterlimit="8" fill="#A6A6A6"/><text font-family="Aptos,Aptos_MSFontService,sans-serif" font-weight="700" font-size="21" transform="translate(377.62 213)">App Instance 1</text><text font-family="Aptos,Aptos_MSFontService,sans-serif" font-weight="700" font-size="21" transform="translate(373.013 238)">Account „John“</text><rect x="739" y="241" width="39" height="78" stroke="#71B790" stroke-width="2" stroke-miterlimit="8" fill="#FFFFFF"/><text fill="#6AAC87" font-family="Aptos,Aptos_MSFontService,sans-serif" font-weight="400" font-size="24" transform="matrix(6.12323e-17 1 -1 6.12323e-17 750.655 252)">Inbox</text><rect x="741.5" y="329.5" width="39" height="97" stroke="#000000" stroke-width="0.333333" stroke-miterlimit="8" fill="#FFFFFF"/><text fill="#6AAC87" font-family="Aptos,Aptos_MSFontService,sans-serif" font-weight="400" font-size="24" transform="matrix(6.12323e-17 1 -1 6.12323e-17 753.316 340)">Outbox</text><text font-family="Aptos,Aptos_MSFontService,sans-serif" font-weight="400" font-size="24" transform="translate(738.729 203)">Endpoint App Instance 1</text><path d="M738.729 204.013 990.729 204.013 990.729 205.013 738.729 205.013Z" fill-rule="evenodd"/><path d="M13.3992-2.31345 203.392 2.70818 203.251 8.03965 13.2583 3.01802ZM15.783 8.41995 0 0 16.2058-7.57446ZM200.866-2.69376 216.649 5.72619 200.444 13.3007Z" transform="matrix(-1 0 0 1 729.149 322.5)"/><rect x="375" y="343" width="148" height="40" stroke="#0C445E" stroke-width="2" stroke-miterlimit="8" fill="#E8E8E8"/><text font-family="Aptos,Aptos_MSFontService,sans-serif" font-weight="400" font-size="24" transform="translate(387.43 371)">Virtual CU 1</text><rect x="377" y="395" width="147" height="41" stroke="#0C445E" stroke-width="2" stroke-miterlimit="8" fill="#E8E8E8"/><text font-family="Aptos,Aptos_MSFontService,sans-serif" font-weight="400" font-size="24" transform="translate(389.108 423)">Virtual CU 2</text><rect x="805" y="240" width="167" height="45" stroke="#7F7F7F" stroke-width="2" stroke-miterlimit="8" fill="#71B790"/><text fill="#FFFFFF" font-family="Aptos,Aptos_MSFontService,sans-serif" font-weight="400" font-size="21" transform="translate(818.38 265)">Cloud</text><text fill="#FFFFFF" font-family="Aptos,Aptos_MSFontService,sans-serif" font-weight="400" font-size="21" transform="translate(878.88 265)">Platform</text><rect x="803" y="308" width="167" height="45" stroke="#7F7F7F" stroke-width="2" stroke-miterlimit="8" fill="#71B790"/><text fill="#FFFFFF" font-family="Aptos,Aptos_MSFontService,sans-serif" font-weight="400" font-size="24" transform="translate(824.628 335)">Virtual CU 1</text><rect x="804" y="370" width="168" height="44" stroke="#7F7F7F" stroke-width="2" stroke-miterlimit="8" fill="#71B790"/><text fill="#FFFFFF" font-family="Aptos,Aptos_MSFontService,sans-serif" font-weight="400" font-size="24" transform="translate(826.129 396)">Virtual CU 2</text><rect x="31" y="235" width="127" height="72" stroke="#0C445E" stroke-width="2" stroke-miterlimit="8" fill="#71B790"/><text font-family="Aptos,Aptos_MSFontService,sans-serif" font-weight="400" font-size="24" transform="translate(43.9962 264)">Telemetry</text><text font-family="Aptos,Aptos_MSFontService,sans-serif" font-weight="400" font-size="24" transform="translate(66.8295 293)">Box 1</text><rect x="28" y="391" width="126" height="72" stroke="#0C445E" stroke-width="2" stroke-miterlimit="8" fill="#71B790"/><text font-family="Aptos,Aptos_MSFontService,sans-serif" font-weight="400" font-size="24" transform="translate(40.4904 420)">Telemetry</text><text font-family="Aptos,Aptos_MSFontService,sans-serif" font-weight="400" font-size="24" transform="translate(63.3238 449)">Box 2</text><path d="M13.4558-1.95753 209.429 8.42495 209.147 13.7508 13.1736 3.36833ZM15.5544 8.83527 0 0 16.4008-7.14232ZM207.048 2.95801 222.603 11.7933 206.202 18.9356Z" transform="matrix(1 0 0 -1 154.5 427.293)"/><path d="M171.818 274.246 364.682 355.948 362.602 360.859 169.737 279.156ZM170.112 285.107 158.5 271.5 176.353 270.375ZM364.307 349.997 375.919 363.605 358.066 364.73Z"/></g></svg>