<svg width="1280" height="720" xmlns="http://www.w3.org/2000/svg" xmlns:xlink="http://www.w3.org/1999/xlink" overflow="hidden"><defs><clipPath id="clip0"><rect x="0" y="0" width="1280" height="720"/></clipPath><clipPath id="clip1"><rect x="767" y="11" width="538" height="537"/></clipPath><clipPath id="clip2"><rect x="767" y="11" width="538" height="538"/></clipPath><clipPath id="clip3"><rect x="767" y="10" width="538" height="539"/></clipPath></defs><g clip-path="url(#clip0)"><rect x="0" y="0" width="1280" height="720" fill="#FFFFFF"/><rect x="395" y="49" width="616" height="660" stroke="#71B790" stroke-width="4" stroke-miterlimit="8" stroke-dasharray="4 4" fill="none"/><path d="M262 451.834C262 424.312 284.312 402 311.834 402L487.75 402 487.75 402 584.5 402 599.166 402C626.688 402 649 424.312 649 451.834L649 576.417 747.646 623.768 649 651.167 649 651.166C649 678.688 626.688 701 599.166 701L584.5 701 487.75 701 487.75 701 311.834 701C284.312 701 262 678.688 262 651.166L262 651.167 262 576.417 262 576.417Z" stroke="#0C445E" stroke-width="2" stroke-miterlimit="8" fill="#E8E8E8" fill-rule="evenodd"/><g clip-path="url(#clip1)"><g clip-path="url(#clip2)"><g clip-path="url(#clip3)"><path d="M498.693 259.638 515.066 276.012 531.44 259.638C526.762 121.632 415.889 10.292 277.883 5.6138L293.789 21.5196 277.415 37.8932C397.176 43.0391 493.547 139.409 498.693 259.638Z" fill="#71B790" fill-opacity="0.3" transform="matrix(1.00176 0 0 1 767 10.9731)"/><path d="M21.9874 243.265 38.361 259.638C43.0391 139.877 139.409 43.507 259.638 38.361L276.012 21.9874 259.638 5.6138C122.1 10.292 10.7598 121.632 6.08162 259.638L21.9874 243.265Z" fill="#71B790" fill-opacity="0.3" transform="matrix(1.00176 0 0 1 767 10.9731)"/><path d="M515.066 293.789 498.693 277.415C496.821 331.214 475.77 380.803 443.023 419.164L372.85 295.192 388.288 295.192C426.649 295.192 457.993 263.849 457.993 225.488 457.993 187.127 426.649 155.783 388.288 155.783L296.128 155.783C287.24 155.783 279.754 163.268 279.754 172.157L279.754 324.197 187.595 163.736C184.788 158.59 179.174 155.783 173.56 155.783 167.946 155.783 162.332 159.058 159.526 163.736L52.8633 348.524C44.4426 326.536 39.7644 302.677 38.8288 277.883L22.4552 261.51 6.08162 277.883C10.7598 415.889 121.632 527.23 259.638 531.908L243.733 516.002 260.106 499.628C179.174 496.821 108.534 451.443 69.7047 385.481L173.56 205.839 282.094 392.966C285.836 399.516 293.321 402.322 300.338 400.451 307.356 398.58 312.502 392.031 312.502 384.545L312.502 188.062 387.82 188.062C408.404 188.062 424.778 204.904 424.778 225.02 424.778 245.136 407.936 261.977 387.82 261.977L344.313 261.977C338.699 261.977 333.086 265.252 330.279 269.93 327.472 275.076 327.472 281.158 330.279 286.304L418.696 442.087C380.335 475.302 331.214 495.886 277.415 497.757L261.042 514.131 277.415 530.504C415.421 525.826 526.762 414.954 531.44 276.948L515.066 293.789Z" fill="#71B790" fill-opacity="0.3" transform="matrix(1.00176 0 0 1 767 10.9731)"/></g></g></g><path d="M292 458 468.051 458C516.928 458 556.551 497.623 556.551 546.5L556.551 546.5 574 546.5 543.391 576 512.782 546.5 530.231 546.5 530.231 546.5C530.231 512.159 502.392 484.32 468.051 484.32L292 484.32Z" stroke="#000000" stroke-width="2" stroke-miterlimit="8" fill="none" fill-rule="evenodd"/><rect x="0" y="19" width="152" height="424" fill="#CDE4D9"/><text fill="#71B790" font-family="Aptos,Aptos_MSFontService,sans-serif" font-weight="400" font-size="48" transform="matrix(6.12323e-17 -1 1 6.12323e-17 53.6 426)">Telemetry platform</text><rect x="0" y="3" width="244" height="556" stroke="#71B790" stroke-width="4" stroke-miterlimit="8" stroke-dasharray="4 4" fill="none"/><text font-family="Aptos,Aptos_MSFontService,sans-serif" font-weight="700" font-size="24" transform="translate(53.8317 29)">Applicaton 1</text><path d="M53.6784 30.4486 99.0117 30.4486 144.345 30.4486 189.678 30.4486 189.678 31.4486 144.345 31.4486 99.0117 31.4486 53.6784 31.4486Z" fill-rule="evenodd"/><rect x="62" y="89" width="171" height="285" stroke="#6AAC87" stroke-width="2" stroke-miterlimit="8" fill="#A6A6A6"/><text font-family="Aptos,Aptos_MSFontService,sans-serif" font-weight="700" font-size="24" transform="translate(76.0779 115)">App Instance</text><text font-family="Aptos,Aptos_MSFontService,sans-serif" font-weight="700" font-size="24" transform="translate(140.965 144)">1</text><rect x="502" y="415" width="104" height="41" stroke="#0C445E" stroke-width="2" stroke-miterlimit="8" fill="#71B790"/><text font-family="Aptos,Aptos_MSFontService,sans-serif" font-weight="400" font-size="24" transform="translate(514.198 442)">Routing</text><rect x="499" y="576" width="94" height="105" stroke="#0C445E" stroke-width="2" stroke-miterlimit="8" fill="#71B790"/><text font-family="Aptos,Aptos_MSFontService,sans-serif" font-weight="400" font-size="24" transform="translate(520.064 602)">Feed</text><path d="M512 645.833C512 642.612 527.222 640 546 640 564.778 640 580 642.612 580 645.833L580 669.167C580 672.388 564.778 675 546 675 527.222 675 512 672.388 512 669.167Z" fill="#71B790" fill-rule="evenodd"/><path d="M580 645.833C580 649.055 564.778 651.667 546 651.667 527.222 651.667 512 649.055 512 645.833" stroke="#000000" stroke-width="2" stroke-miterlimit="8" fill="none" fill-rule="evenodd"/><path d="M512 645.833C512 642.612 527.222 640 546 640 564.778 640 580 642.612 580 645.833L580 669.167C580 672.388 564.778 675 546 675 527.222 675 512 672.388 512 669.167Z" stroke="#000000" stroke-width="2" stroke-miterlimit="8" fill="none" fill-rule="evenodd"/><text font-family="Aptos,Aptos_MSFontService,sans-serif" font-weight="400" font-size="13" transform="translate(527.088 665)">MSG n</text><path d="M511 622.833C511 619.612 526.446 617 545.5 617 564.554 617 580 619.612 580 622.833L580 646.167C580 649.388 564.554 652 545.5 652 526.446 652 511 649.388 511 646.167Z" fill="#71B790" fill-rule="evenodd"/><path d="M580 622.833C580 626.055 564.554 628.667 545.5 628.667 526.446 628.667 511 626.055 511 622.833" stroke="#000000" stroke-width="2" stroke-miterlimit="8" fill="none" fill-rule="evenodd"/><path d="M511 622.833C511 619.612 526.446 617 545.5 617 564.554 617 580 619.612 580 622.833L580 646.167C580 649.388 564.554 652 545.5 652 526.446 652 511 649.388 511 646.167Z" stroke="#000000" stroke-width="2" stroke-miterlimit="8" fill="none" fill-rule="evenodd"/><text font-family="Aptos,Aptos_MSFontService,sans-serif" font-weight="400" font-size="13" transform="translate(528.329 641)">MSG1</text><rect x="407" y="71" width="98" height="130" stroke="#000000" stroke-width="2" stroke-miterlimit="8" fill="#FFFFFF"/><text fill="#71B790" font-family="Aptos,Aptos_MSFontService,sans-serif" font-weight="400" font-size="24" transform="translate(427.651 144)">Inbox</text><rect x="408" y="249" width="97" height="141" stroke="#000000" stroke-width="2" stroke-miterlimit="8" fill="#FFFFFF"/><text fill="#71B790" font-family="Aptos,Aptos_MSFontService,sans-serif" font-weight="400" font-size="24" transform="translate(418.644 327)">Outbox</text><text font-family="Aptos,Aptos_MSFontService,sans-serif" font-weight="400" font-size="24" transform="translate(597.278 25)">Endpoint App Instance 1</text><path d="M597.278 26.192 849.278 26.192 849.278 27.192 597.278 27.192Z" fill-rule="evenodd"/><path d="M292 427.5 468 427.5 468 418 487 437 468 456 468 446.5 292 446.5Z" stroke="#000000" stroke-width="2" stroke-miterlimit="8" fill="none" fill-rule="evenodd"/><text font-family="Aptos,Aptos_MSFontService,sans-serif" font-weight="400" font-size="19" transform="translate(344.512 443)">Messages</text><text font-family="Aptos,Aptos_MSFontService,sans-serif" font-weight="400" font-size="19" transform="translate(301.3 480)">Command:</text><text font-family="Aptos,Aptos_MSFontService,sans-serif" font-weight="400" font-size="19" transform="translate(396.633 480)">call</text><text font-family="Aptos,Aptos_MSFontService,sans-serif" font-weight="400" font-size="19" transform="translate(429.86 480)">for</text><text font-family="Aptos,Aptos_MSFontService,sans-serif" font-weight="400" font-size="19" transform="translate(455.62 480)">MSGs</text><path d="M294 494 429.944 494C454.383 494 474.194 513.811 474.194 538.25L474.194 538.25 487 538.25 459.325 553 431.651 538.25 444.457 538.25 444.457 538.25C444.457 530.235 437.959 523.737 429.944 523.737L294 523.737Z" stroke="#000000" stroke-width="2" stroke-miterlimit="8" fill="none" fill-rule="evenodd"/><text font-family="Aptos,Aptos_MSFontService,sans-serif" font-weight="400" font-size="19" transform="translate(303.585 515)">Other Command</text><path d="M447 565.5C447 558.596 452.82 553 460 553 467.18 553 473 558.596 473 565.5 473 572.404 467.18 578 460 578 452.82 578 447 572.404 447 565.5Z" stroke="#000000" stroke-width="4" stroke-miterlimit="8" fill="#71B790" fill-rule="evenodd"/><path d="M473 578 473 578C473 604.297 451.682 625.615 425.385 625.615L295.5 625.615 295.5 636 281 613.028 295.5 590.056 295.5 600.441 425.385 600.441C437.779 600.441 447.826 590.394 447.826 578L447.826 578Z" stroke="#000000" stroke-width="2" stroke-miterlimit="8" fill="none" fill-rule="evenodd"/><path d="M489 675 296.639 675 296.639 687 281 663 296.639 639 296.639 651 489 651Z" stroke="#000000" stroke-width="2" stroke-miterlimit="8" fill="none" fill-rule="evenodd"/><text font-family="Aptos,Aptos_MSFontService,sans-serif" font-weight="400" font-size="24" transform="translate(321.604 619)">Result</text><text font-family="Aptos,Aptos_MSFontService,sans-serif" font-weight="400" font-size="24" transform="translate(331.281 671)">Messages</text><path d="M0 0 151.55 30.0544" stroke="#A6A6A6" stroke-width="5.33333" stroke-miterlimit="8" stroke-dasharray="21.3333 16" fill="none" fill-rule="evenodd" transform="matrix(1 0 0 -1 238.5 90.5544)"/><path d="M237.5 374.5 408.812 385.359" stroke="#A6A6A6" stroke-width="5.33333" stroke-miterlimit="8" stroke-dasharray="21.3333 16" fill="none" fill-rule="evenodd"/><path d="M0.520924-2.61529 174.46 32.0305 173.418 37.2611-0.520924 2.61529ZM172.886 26.279 187.015 37.2504 169.761 41.9707Z" fill="#7F7F7F" transform="matrix(1 0 0 -1 220.5 173.75)"/><path d="M408.116 323.295 233.771 319.459 233.889 314.127 408.234 317.963ZM236.32 324.85 220.5 316.5 236.672 308.854Z" fill="#7F7F7F"/><path d="M234.282 105.663 367.415 75.9368 379.385 129.548 246.252 159.274Z" fill="#FFFFFF" fill-rule="evenodd" fill-opacity="0.45098"/><text font-family="Aptos,Aptos_MSFontService,sans-serif" font-weight="400" font-size="19" transform="matrix(0.975968 -0.217916 0.217916 0.975968 248.402 125)">Send</text><text font-family="Aptos,Aptos_MSFontService,sans-serif" font-weight="400" font-size="19" transform="matrix(0.975968 -0.217916 0.217916 0.975968 253.414 147)">message</text><text font-family="Aptos,Aptos_MSFontService,sans-serif" font-weight="400" font-size="19" transform="matrix(0.975968 -0.217916 0.217916 0.975968 324.197 131)">/</text><text font-family="Aptos,Aptos_MSFontService,sans-serif" font-weight="400" font-size="19" transform="matrix(0.975968 -0.217916 0.217916 0.975968 258.208 169)">command</text><rect x="262" y="271" width="130" height="32" fill="#FFFFFF" fill-opacity="0.431373"/><text font-family="Aptos,Aptos_MSFontService,sans-serif" font-weight="400" font-size="19" transform="translate(272.047 293)">Receive</text><text font-family="Aptos,Aptos_MSFontService,sans-serif" font-weight="400" font-size="19" transform="translate(339.367 293)">Result</text><path d="M1130 280.5 1037 280.5 1037 296 1006 265 1037 234 1037 249.5 1130 249.5Z" stroke="#6AAC87" stroke-width="2" stroke-linecap="square" stroke-miterlimit="8" stroke-dasharray="6 2" fill="#BFBFBF" fill-rule="evenodd"/><path d="M1017 51.5 1102 51.5 1102 36 1133 67.0001 1102 98 1102 82.5 1017 82.5Z" stroke="#6AAC87" stroke-width="2" stroke-linecap="square" stroke-miterlimit="8" stroke-dasharray="6 2" fill="#BFBFBF" fill-rule="evenodd"/><rect x="1139" y="27" width="115" height="513" stroke="#0C445E" stroke-width="2" stroke-miterlimit="8" fill="#7F7F7F"/><text fill="#FFFFFF" font-family="Aptos,Aptos_MSFontService,sans-serif" font-weight="400" font-size="24" transform="translate(1156.65 276)">Routing</text><text fill="#FFFFFF" font-family="Aptos,Aptos_MSFontService,sans-serif" font-weight="400" font-size="24" transform="translate(1164.03 305)">tables</text><rect x="73" y="153" width="147" height="41" stroke="#0C445E" stroke-width="2" stroke-miterlimit="8" fill="#E8E8E8"/><text font-family="Aptos,Aptos_MSFontService,sans-serif" font-weight="400" font-size="24" transform="translate(84.5605 181)">Virtual CU 1</text><rect x="73" y="295" width="147" height="41" stroke="#0C445E" stroke-width="2" stroke-miterlimit="8" fill="#E8E8E8"/><text font-family="Aptos,Aptos_MSFontService,sans-serif" font-weight="400" font-size="24" transform="translate(84.5605 323)">Virtual CU 2</text><rect x="725" y="67" width="262" height="134" stroke="#0C445E" stroke-width="2" stroke-miterlimit="8" fill="#71B790"/><text fill="#71B790" font-family="Aptos,Aptos_MSFontService,sans-serif" font-weight="400" font-size="24" transform="translate(777.506 94)">Cloud Platform</text><rect x="724" y="222" width="261" height="134" stroke="#0C445E" stroke-width="2" stroke-miterlimit="8" fill="#71B790"/><text font-family="Aptos,Aptos_MSFontService,sans-serif" font-weight="400" font-size="24" transform="translate(792.801 249)">Virtual CU 1</text><rect x="724" y="378" width="261" height="135" stroke="#0C445E" stroke-width="2" stroke-miterlimit="8" fill="#71B790"/><text font-family="Aptos,Aptos_MSFontService,sans-serif" font-weight="400" font-size="24" transform="translate(792.801 405)">Virtual CU 2</text><path d="M746.003 622.845 746.448 621.657 747.921 620.479 749.321 619.866 750.911 619.288 754.941 618.297 760.205 617.334 766.728 616.448 774.282 615.566 782.894 614.749 792.431 613.996 802.774 613.307 813.868 612.68 825.574 612.179 837.781 611.678 850.372 611.302 863.337 611.052 889.662 610.802 889.587 610.804 902.774 610.304 902.597 610.316 915.722 608.941 915.543 608.966 928.481 606.716 928.294 606.756 940.856 603.631 940.716 603.67 952.903 599.92 952.729 599.98 964.417 595.48 964.249 595.551 975.249 590.426 975.098 590.502 985.411 584.877 985.243 584.977 994.743 578.852 994.565 578.977 1003.13 572.414 1002.94 572.574 1010.5 565.574 1010.31 565.77 1016.68 558.52 1016.49 558.768 1021.62 551.33 1021.42 551.659 1025.24 543.971 1025.11 544.277 1026.48 540.339 1026.42 540.552 1027.42 536.677 1027.37 536.925 1027.99 532.988 1027.96 533.279 1028.15 529.342 1028.15 529.553 1027.9 521.678 1027.91 521.848 1027.16 514.036 1027.18 514.188 1025.99 506.5 1026.02 506.679 1024.34 499.179 1024.37 499.308 1022.37 492.121 1022.42 492.283 1019.98 485.283 1020.03 485.417 1017.34 478.854 1017.42 479.016 1014.42 472.891 1014.51 473.072 1011.2 467.447 1011.3 467.597 1007.8 462.472 1007.94 462.659 1004.25 458.159 1004.44 458.369 1000.57 454.557 1001.16 454.999 997.042 452.758 999.59 448.072 1004.04 450.492 1008.28 454.668 1012.14 459.368 1015.75 464.663 1019.16 470.453 1022.25 476.75 1024.99 483.461 1027.48 490.609 1029.52 497.943 1031.25 505.597 1032.46 513.45 1033.23 521.424 1033.48 529.49 1033.28 533.679 1032.61 537.887 1031.55 541.992 1030.09 546.192 1026.12 554.199 1020.79 561.924 1014.22 569.395 1006.47 576.572 997.724 583.276 988.05 589.513 977.578 595.225 966.418 600.424 954.56 604.99 942.215 608.789 929.489 611.954 916.368 614.236 903.065 615.63 889.751 616.135 863.4 616.385 863.427 616.385 850.489 616.635 850.517 616.634 837.955 617.009 837.984 617.008 825.802 617.508 814.114 618.008 814.151 618.006 803.088 618.631 803.115 618.629 792.802 619.317 792.835 619.314 783.335 620.064 783.377 620.061 774.814 620.873 774.872 620.867 767.372 621.742 767.422 621.736 760.984 622.611 761.105 622.592 755.98 623.529 756.137 623.495 752.324 624.433 752.599 624.349 751.224 624.849 751.381 624.786 750.381 625.224 750.978 624.863 750.353 625.363 751.184 624.217 750.997 624.717ZM997.846 458.835 985.922 445.5 1003.74 443.962Z"/><path d="M746.418 622.371 746.967 621.684 748.313 620.877 749.82 620.458 751.463 620.047 753.547 619.711 755.926 619.39 761.674 618.758 768.783 618.129 777.197 617.501 786.733 616.937 797.254 616.436 808.707 615.935 820.914 615.497 833.868 615.121 847.383 614.808 861.334 614.558 875.662 614.37 904.795 614.183 904.721 614.184 912.034 613.934 911.875 613.944 919.188 613.257 919.032 613.276 926.345 612.151 926.162 612.186 933.35 610.561 933.223 610.593 940.41 608.593 940.262 608.639 947.387 606.201 947.275 606.242 954.275 603.492 954.137 603.551 961.074 600.364 960.901 600.451 974.401 593.014 974.189 593.144 987.064 584.394 986.889 584.523 999.139 574.648 998.959 574.808 1010.4 563.745 1010.25 563.901 1020.75 551.963 1020.61 552.136 1030.11 539.324 1029.98 539.514 1038.29 526.014 1038.18 526.219 1045.24 512.094 1045.14 512.32 1050.83 497.695 1050.77 497.87 1053.08 490.433 1053.04 490.557 1054.98 483.057 1054.95 483.21 1056.45 475.585 1056.42 475.71 1057.55 468.085 1057.53 468.257 1058.15 460.632 1058.15 460.763 1058.4 453.075 1058.4 453.238 1057.96 437.926 1057.97 438.067 1056.72 422.817 1056.73 422.953 1054.73 408.016 1054.75 408.155 1052 393.53 1052.03 393.668 1048.6 379.543 1048.63 379.669 1044.63 366.169 1044.68 366.307 1040.11 353.494 1040.17 353.636 1035.11 341.636 1035.18 341.792 1029.68 330.792 1029.77 330.957 1023.89 321.019 1024.02 321.209 1017.83 312.521 1017.99 312.729 1011.49 305.292 1011.65 305.458 1008.34 302.271 1008.48 302.398 1005.11 299.586 1005.3 299.731 1001.86 297.356 1002.34 297.62 997.695 295.666 999.763 290.75 1004.66 292.811 1008.43 295.411 1011.97 298.362 1015.43 301.695 1022.1 309.319 1028.43 318.207 1034.41 328.323 1039.99 339.484 1045.11 351.633 1049.72 364.585 1053.76 378.217 1057.23 392.475 1060.01 407.238 1062.03 422.313 1063.29 437.702 1063.73 453.167 1063.48 461.002 1062.84 468.778 1061.69 476.552 1060.16 484.316 1058.19 491.954 1055.83 499.542 1050.07 514.369 1042.9 528.71 1034.46 542.408 1024.83 555.402 1014.18 567.504 1002.58 578.725 990.151 588.744 977.083 597.625 963.389 605.169 956.295 608.429 949.17 611.228 941.915 613.71 934.589 615.749 927.247 617.408 919.765 618.56 912.296 619.262 904.867 619.516 875.705 619.704 875.723 619.703 861.41 619.891 861.423 619.891 847.485 620.141 847.499 620.14 833.999 620.453 834.015 620.452 821.077 620.827 821.096 620.827 808.908 621.264 808.929 621.264 797.492 621.764 797.502 621.763 787.002 622.263 787.033 622.261 777.533 622.824 777.574 622.821 769.199 623.446 769.235 623.443 762.173 624.068 762.229 624.063 756.541 624.688 756.607 624.68 754.295 624.992 754.362 624.982 752.425 625.295 752.647 625.249 751.147 625.624 751.214 625.606 750.089 625.919 750.747 625.636 750.122 626.011 750.832 625.39 750.582 625.703ZM999.066 301.634 985.922 289.5 1003.52 286.265Z" fill="#A6A6A6"/><path d="M746.281 622.451 746.896 621.529 748.332 620.746 749.85 620.187 751.638 619.758 753.809 619.363 756.309 618.978 759.194 618.594 762.427 618.277 769.951 617.524 778.814 616.833 788.905 616.206 800.051 615.58 812.137 615.016 825.094 614.516 838.797 614.078 853.067 613.702 867.83 613.452 882.97 613.202 913.796 613.014 913.684 613.017 921.434 612.642 921.221 612.661 928.971 611.661 928.741 611.701 936.428 610.013 936.226 610.066 943.851 607.754 943.649 607.824 951.274 604.824 951.122 604.889 958.622 601.389 958.457 601.474 965.894 597.349 965.749 597.436 973.061 592.748 972.948 592.824 980.198 587.637 980.078 587.729 987.14 582.041 987.029 582.136 993.904 575.949 993.811 576.036 1000.56 569.349 1000.48 569.428 1007.05 562.365 1006.97 562.454 1013.34 554.954 1013.27 555.041 1019.46 547.104 1019.4 547.185 1025.34 538.935 1025.24 539.076 1036.3 521.451 1036.21 521.61 1046.27 502.798 1046.19 502.975 1055 483.1 1054.93 483.274 1062.43 462.524 1062.38 462.669 1065.57 451.981 1065.54 452.072 1068.36 441.259 1068.33 441.351 1070.77 430.413 1070.75 430.519 1072.75 419.456 1072.74 419.545 1074.36 408.42 1074.35 408.524 1075.54 397.337 1075.53 397.456 1076.21 386.206 1076.21 386.309 1076.46 374.997 1076.46 375.115 1075.96 352.615 1075.96 352.741 1074.4 330.366 1074.41 330.482 1071.91 308.482 1071.93 308.588 1068.61 287.15 1068.64 287.271 1064.45 266.521 1064.47 266.628 1059.6 246.753 1059.63 246.872 1054.07 227.997 1054.11 228.129 1047.92 210.567 1047.96 210.674 1044.65 202.424 1044.67 202.474 1041.3 194.537 1041.34 194.637 1037.78 187.137 1037.82 187.211 1034.19 180.148 1034.24 180.235 1030.49 173.547 1030.55 173.659 1026.68 167.471 1026.73 167.557 1022.86 161.87 1022.95 161.997 1018.95 156.809 1019.05 156.927 1014.98 152.24 1015.13 152.393 1010.94 148.268 1011.09 148.402 1006.96 144.902 1007.15 145.047 1002.9 142.047 1003.47 142.351 999.129 140.653 1001.07 135.687 1005.71 137.503 1010.32 140.758 1014.61 144.399 1018.95 148.667 1023.13 153.492 1027.22 158.802 1031.17 164.597 1035.11 170.883 1038.91 177.669 1042.58 184.812 1046.18 192.399 1049.59 200.412 1052.93 208.74 1059.16 226.423 1064.76 245.423 1069.67 265.412 1073.88 286.276 1077.21 307.826 1079.72 329.937 1081.29 352.433 1081.79 375.056 1081.54 386.479 1080.85 397.84 1079.65 409.139 1078.01 420.361 1075.99 431.521 1073.53 442.557 1070.69 453.46 1067.47 464.266 1059.91 485.176 1051.02 505.227 1040.87 524.207 1029.71 541.982 1023.7 550.342 1017.44 558.365 1010.99 565.953 1004.35 573.099 997.519 579.87 990.542 586.149 983.364 591.93 975.997 597.201 968.555 601.971 960.962 606.183 953.303 609.757 945.502 612.826 937.674 615.2 929.77 616.935 921.798 617.964 913.885 618.347 883.016 618.535 883.044 618.534 867.92 618.784 853.17 619.034 853.195 619.034 838.945 619.409 838.96 619.408 825.273 619.846 825.291 619.845 812.353 620.345 812.374 620.344 800.312 620.907 800.337 620.906 789.212 621.531 789.228 621.53 779.165 622.155 779.208 622.152 770.395 622.839 770.453 622.834 762.948 623.585 759.76 623.897 759.853 623.886 757.04 624.261 757.093 624.254 754.656 624.629 754.727 624.617 752.665 624.992 752.81 624.961 751.247 625.336 751.547 625.245 750.359 625.683 750.715 625.522 750.027 625.897 750.969 625.035 750.719 625.41ZM1000.46 146.595 987.284 134.5 1004.87 131.213Z" fill="#A6A6A6"/><path d="M746.418 622.371 746.967 621.684 748.313 620.877 749.82 620.458 751.463 620.047 753.547 619.711 755.926 619.39 761.674 618.758 768.783 618.129 777.197 617.501 786.733 616.937 797.254 616.436 808.707 615.935 820.914 615.497 833.868 615.121 847.383 614.808 861.334 614.558 875.662 614.37 904.795 614.183 904.721 614.184 912.034 613.934 911.875 613.944 919.188 613.257 919.032 613.276 926.345 612.151 926.162 612.186 933.35 610.561 933.223 610.593 940.41 608.593 940.262 608.639 947.387 606.201 947.275 606.242 954.275 603.492 954.137 603.551 961.074 600.364 960.901 600.451 974.401 593.014 974.189 593.144 987.064 584.394 986.889 584.523 999.139 574.648 998.959 574.808 1010.4 563.745 1010.25 563.901 1020.75 551.963 1020.61 552.136 1030.11 539.324 1029.98 539.514 1038.29 526.014 1038.18 526.219 1045.24 512.094 1045.14 512.32 1050.83 497.695 1050.77 497.87 1053.08 490.433 1053.04 490.557 1054.98 483.057 1054.95 483.21 1056.45 475.585 1056.42 475.71 1057.55 468.085 1057.53 468.257 1058.15 460.632 1058.15 460.763 1058.4 453.075 1058.4 453.238 1057.96 437.926 1057.97 438.067 1056.72 422.817 1056.73 422.953 1054.73 408.016 1054.75 408.155 1052 393.53 1052.03 393.668 1048.6 379.543 1048.63 379.669 1044.63 366.169 1044.68 366.307 1040.11 353.494 1040.17 353.636 1035.11 341.636 1035.18 341.792 1029.68 330.792 1029.77 330.957 1023.89 321.019 1024.02 321.209 1017.83 312.521 1017.99 312.729 1011.49 305.292 1011.65 305.458 1008.34 302.271 1008.48 302.398 1005.11 299.586 1005.3 299.731 1001.86 297.356 1002.34 297.62 997.695 295.666 999.763 290.75 1004.66 292.811 1008.43 295.411 1011.97 298.362 1015.43 301.695 1022.1 309.319 1028.43 318.207 1034.41 328.323 1039.99 339.484 1045.11 351.633 1049.72 364.585 1053.76 378.217 1057.23 392.475 1060.01 407.238 1062.03 422.313 1063.29 437.702 1063.73 453.167 1063.48 461.002 1062.84 468.778 1061.69 476.552 1060.16 484.316 1058.19 491.954 1055.83 499.542 1050.07 514.369 1042.9 528.71 1034.46 542.408 1024.83 555.402 1014.18 567.504 1002.58 578.725 990.151 588.744 977.083 597.625 963.389 605.169 956.295 608.429 949.17 611.228 941.915 613.71 934.589 615.749 927.247 617.408 919.765 618.56 912.296 619.262 904.867 619.516 875.705 619.704 875.723 619.703 861.41 619.891 861.423 619.891 847.485 620.141 847.499 620.14 833.999 620.453 834.015 620.452 821.077 620.827 821.096 620.827 808.908 621.264 808.929 621.264 797.492 621.764 797.502 621.763 787.002 622.263 787.033 622.261 777.533 622.824 777.574 622.821 769.199 623.446 769.235 623.443 762.173 624.068 762.229 624.063 756.541 624.688 756.607 624.68 754.295 624.992 754.362 624.982 752.425 625.295 752.647 625.249 751.147 625.624 751.214 625.606 750.089 625.919 750.747 625.636 750.122 626.011 750.832 625.39 750.582 625.703ZM999.066 301.634 985.922 289.5 1003.52 286.265Z"/><path d="M746.281 622.451 746.896 621.529 748.332 620.746 749.85 620.187 751.638 619.758 753.809 619.363 756.309 618.978 759.194 618.594 762.427 618.277 769.951 617.524 778.814 616.833 788.905 616.206 800.051 615.58 812.137 615.016 825.094 614.516 838.797 614.078 853.067 613.702 867.83 613.452 882.97 613.202 913.796 613.014 913.684 613.017 921.434 612.642 921.221 612.661 928.971 611.661 928.741 611.701 936.428 610.013 936.226 610.066 943.851 607.754 943.649 607.824 951.274 604.824 951.122 604.889 958.622 601.389 958.457 601.474 965.894 597.349 965.749 597.436 973.061 592.748 972.948 592.824 980.198 587.637 980.078 587.729 987.14 582.041 987.029 582.136 993.904 575.949 993.811 576.036 1000.56 569.349 1000.48 569.428 1007.05 562.365 1006.97 562.454 1013.34 554.954 1013.27 555.041 1019.46 547.104 1019.4 547.185 1025.34 538.935 1025.24 539.076 1036.3 521.451 1036.21 521.61 1046.27 502.798 1046.19 502.975 1055 483.1 1054.93 483.274 1062.43 462.524 1062.38 462.669 1065.57 451.981 1065.54 452.072 1068.36 441.259 1068.33 441.351 1070.77 430.413 1070.75 430.519 1072.75 419.456 1072.74 419.545 1074.36 408.42 1074.35 408.524 1075.54 397.337 1075.53 397.456 1076.21 386.206 1076.21 386.309 1076.46 374.997 1076.46 375.115 1075.96 352.615 1075.96 352.741 1074.4 330.366 1074.41 330.482 1071.91 308.482 1071.93 308.588 1068.61 287.15 1068.64 287.271 1064.45 266.521 1064.47 266.628 1059.6 246.753 1059.63 246.872 1054.07 227.997 1054.11 228.129 1047.92 210.567 1047.96 210.674 1044.65 202.424 1044.67 202.474 1041.3 194.537 1041.34 194.637 1037.78 187.137 1037.82 187.211 1034.19 180.148 1034.24 180.235 1030.49 173.547 1030.55 173.659 1026.68 167.471 1026.73 167.557 1022.86 161.87 1022.95 161.997 1018.95 156.809 1019.05 156.927 1014.98 152.24 1015.13 152.393 1010.94 148.268 1011.09 148.402 1006.96 144.902 1007.15 145.047 1002.9 142.047 1003.47 142.351 999.129 140.653 1001.07 135.687 1005.71 137.503 1010.32 140.758 1014.61 144.399 1018.95 148.667 1023.13 153.492 1027.22 158.802 1031.17 164.597 1035.11 170.883 1038.91 177.669 1042.58 184.812 1046.18 192.399 1049.59 200.412 1052.93 208.74 1059.16 226.423 1064.76 245.423 1069.67 265.412 1073.88 286.276 1077.21 307.826 1079.72 329.937 1081.29 352.433 1081.79 375.056 1081.54 386.479 1080.85 397.84 1079.65 409.139 1078.01 420.361 1075.99 431.521 1073.53 442.557 1070.69 453.46 1067.47 464.266 1059.91 485.176 1051.02 505.227 1040.87 524.207 1029.71 541.982 1023.7 550.342 1017.44 558.365 1010.99 565.953 1004.35 573.099 997.519 579.87 990.542 586.149 983.364 591.93 975.997 597.201 968.555 601.971 960.962 606.183 953.303 609.757 945.502 612.826 937.674 615.2 929.77 616.935 921.798 617.964 913.885 618.347 883.016 618.535 883.044 618.534 867.92 618.784 853.17 619.034 853.195 619.034 838.945 619.409 838.96 619.408 825.273 619.846 825.291 619.845 812.353 620.345 812.374 620.344 800.312 620.907 800.337 620.906 789.212 621.531 789.228 621.53 779.165 622.155 779.208 622.152 770.395 622.839 770.453 622.834 762.948 623.585 759.76 623.897 759.853 623.886 757.04 624.261 757.093 624.254 754.656 624.629 754.727 624.617 752.665 624.992 752.81 624.961 751.247 625.336 751.547 625.245 750.359 625.683 750.715 625.522 750.027 625.897 750.969 625.035 750.719 625.41ZM1000.46 146.595 987.284 134.5 1004.87 131.213Z"/><path d="M506.783 96.1621 574.39 133.25 571.824 137.926 504.217 100.838ZM574.617 127.291 584.797 142 566.921 141.319Z" fill="#A6A6A6"/><path d="M0.600445-2.59819 113.646 23.5267 112.445 28.7231-0.600445 2.59819ZM112.248 17.7299 126.036 29.1271 108.646 33.319Z" fill="#A6A6A6" transform="matrix(1 0 0 -1 610.5 141.627)"/><path d="M612.394 139.623 727.681 255.92 723.894 259.675 608.606 143.377ZM729.591 250.272 735.174 267.267 718.229 261.536Z" fill="#A6A6A6"/><path d="M584 141.5C584 134.596 589.82 129 597 129 604.18 129 610 134.596 610 141.5 610 148.404 604.18 154 597 154 589.82 154 584 148.404 584 141.5Z" stroke="#000000" stroke-width="4" stroke-miterlimit="8" fill="#71B790" fill-rule="evenodd"/><path d="M582 326.5C582 319.596 587.82 314 595 314 602.18 314 608 319.596 608 326.5 608 333.404 602.18 339 595 339 587.82 339 582 333.404 582 326.5Z" stroke="#000000" stroke-width="4" stroke-miterlimit="8" fill="#71B790" fill-rule="evenodd"/><path d="M581.737 329.81 518.552 324.312 519.014 318.999 582.199 324.497ZM520.746 329.857 505.5 320.5 522.133 313.917Z" fill="#CDE4D9"/><path d="M1.92988-1.84029 123.435 125.581 119.576 129.261-1.92988 1.84029ZM125.455 119.97 130.707 137.071 113.876 131.012Z" fill="#CDE4D9" transform="matrix(-1 0 0 1 735.207 180.5)"/><path d="M733.794 337.981 621.614 330.095 621.988 324.775 734.168 332.661ZM623.9 335.602 608.5 326.5 625.022 319.642Z" fill="#CDE4D9"/><path d="M731.792 493.277 610.955 347.468 615.061 344.064 735.898 489.874ZM608.55 352.924 604.5 335.5 620.869 342.715Z" fill="#CDE4D9"/><path d="M612.939 140.422 732.222 410.25 727.344 412.406 608.061 142.578ZM736.022 405.654 735.174 423.523 721.388 412.123Z" fill="#A6A6A6"/><rect x="733" y="413" width="242" height="23" stroke="#0C445E" stroke-width="2" stroke-miterlimit="8" fill="#7F7F7F"/><text fill="#FFFFFF" font-family="Aptos,Aptos_MSFontService,sans-serif" font-weight="400" font-size="19" transform="translate(816.762 430)">Incoming</text><rect x="733" y="436" width="98" height="19" stroke="#0C445E" stroke-width="2" stroke-miterlimit="8" fill="#C04F15"/><text fill="#FFFFFF" font-family="Aptos,Aptos_MSFontService,sans-serif" font-weight="400" font-size="16" transform="translate(765.105 451)">Feed</text><rect x="831" y="436" width="145" height="19" stroke="#0C445E" stroke-width="2" stroke-miterlimit="8" fill="#C04F15"/><text fill="#FFFFFF" font-family="Aptos,Aptos_MSFontService,sans-serif" font-weight="400" font-size="16" transform="translate(859.605 451)">EndpointList</text><rect x="733" y="455" width="114" height="18" stroke="#0C445E" stroke-width="2" stroke-miterlimit="8" fill="#C04F15"/><text fill="#FFFFFF" font-family="Aptos,Aptos_MSFontService,sans-serif" font-weight="400" font-size="16" transform="translate(748.654 469)">Capabilities</text><rect x="847" y="455" width="128" height="19" stroke="#0C445E" stroke-width="2" stroke-miterlimit="8" fill="#C04F15"/><text fill="#FFFFFF" font-family="Aptos,Aptos_MSFontService,sans-serif" font-weight="400" font-size="16" transform="translate(863.29 469)">Subscriptions</text><rect x="733" y="473" width="242" height="23" stroke="#0C445E" stroke-width="2" stroke-miterlimit="8" fill="#7F7F7F"/><text fill="#FFFFFF" font-family="Aptos,Aptos_MSFontService,sans-serif" font-weight="400" font-size="19" transform="translate(817.725 490)">Outgoing</text><rect x="733" y="258" width="242" height="23" stroke="#0C445E" stroke-width="2" stroke-miterlimit="8" fill="#7F7F7F"/><text fill="#FFFFFF" font-family="Aptos,Aptos_MSFontService,sans-serif" font-weight="400" font-size="19" transform="translate(816.615 275)">Incoming</text><rect x="733" y="281" width="98" height="19" stroke="#0C445E" stroke-width="2" stroke-miterlimit="8" fill="#C04F15"/><text fill="#FFFFFF" font-family="Aptos,Aptos_MSFontService,sans-serif" font-weight="400" font-size="16" transform="translate(764.958 296)">Feed</text><rect x="831" y="281" width="144" height="19" stroke="#0C445E" stroke-width="2" stroke-miterlimit="8" fill="#C04F15"/><text fill="#FFFFFF" font-family="Aptos,Aptos_MSFontService,sans-serif" font-weight="400" font-size="16" transform="translate(859.458 296)">EndpointList</text><rect x="733" y="299" width="114" height="19" stroke="#0C445E" stroke-width="2" stroke-miterlimit="8" fill="#C04F15"/><text fill="#FFFFFF" font-family="Aptos,Aptos_MSFontService,sans-serif" font-weight="400" font-size="16" transform="translate(748.506 314)">Capabilities</text><rect x="847" y="300" width="128" height="18" stroke="#0C445E" stroke-width="2" stroke-miterlimit="8" fill="#C04F15"/><text fill="#FFFFFF" font-family="Aptos,Aptos_MSFontService,sans-serif" font-weight="400" font-size="16" transform="translate(863.143 314)">Subscriptions</text><rect x="733" y="318" width="242" height="23" stroke="#0C445E" stroke-width="2" stroke-miterlimit="8" fill="#7F7F7F"/><text fill="#FFFFFF" font-family="Aptos,Aptos_MSFontService,sans-serif" font-weight="400" font-size="19" transform="translate(817.578 335)">Outgoing</text><rect x="734" y="104" width="242" height="22" stroke="#0C445E" stroke-width="2" stroke-miterlimit="8" fill="#7F7F7F"/><text fill="#FFFFFF" font-family="Aptos,Aptos_MSFontService,sans-serif" font-weight="400" font-size="19" transform="translate(817.003 121)">Incoming</text><rect x="734" y="126" width="97" height="19" stroke="#0C445E" stroke-width="2" stroke-miterlimit="8" fill="#C04F15"/><text fill="#FFFFFF" font-family="Aptos,Aptos_MSFontService,sans-serif" font-weight="400" font-size="16" transform="translate(765.346 141)">Feed</text><rect x="831" y="126" width="145" height="19" stroke="#0C445E" stroke-width="2" stroke-miterlimit="8" fill="#C04F15"/><text fill="#FFFFFF" font-family="Aptos,Aptos_MSFontService,sans-serif" font-weight="400" font-size="16" transform="translate(859.846 141)">EndpointList</text><rect x="734" y="145" width="113" height="19" stroke="#0C445E" stroke-width="2" stroke-miterlimit="8" fill="#C04F15"/><text fill="#FFFFFF" font-family="Aptos,Aptos_MSFontService,sans-serif" font-weight="400" font-size="16" transform="translate(748.895 160)">Capabilities</text><rect x="847" y="145" width="129" height="19" stroke="#0C445E" stroke-width="2" stroke-miterlimit="8" fill="#C04F15"/><text fill="#FFFFFF" font-family="Aptos,Aptos_MSFontService,sans-serif" font-weight="400" font-size="16" transform="translate(863.531 160)">Subscriptions</text><rect x="733" y="164" width="242" height="22" stroke="#0C445E" stroke-width="2" stroke-miterlimit="8" fill="#7F7F7F"/><text fill="#FFFFFF" font-family="Aptos,Aptos_MSFontService,sans-serif" font-weight="400" font-size="19" transform="translate(817.578 181)">Outgoing</text></g></svg>