<?xml version="1.0" encoding="utf-8"?>
<!-- Generator: Adobe Illustrator 24.0.2, SVG Export Plug-In . SVG Version: 6.00 Build 0)  -->
<svg version="1.1" id="Ebene_1" xmlns="http://www.w3.org/2000/svg" xmlns:xlink="http://www.w3.org/1999/xlink" x="0px" y="0px" viewBox="0 0 114.8 114.8" style="enable-background:new 0 0 114.8 114.8;" xml:space="preserve">
	<style type="text/css">
	.st0{fill:#FFFFFF;}
</style>
	<g>
		<g>
			<path class="st0" d="M106.6,55.5l3.5,3.5l3.5-3.5c-1-29.5-24.7-53.3-54.2-54.3l3.4,3.4l-3.5,3.5C84.9,9.2,105.5,29.8,106.6,55.5z" />
			<path class="st0" d="M4.7,52l3.5,3.5C9.2,29.9,29.8,9.3,55.5,8.2L59,4.7l-3.5-3.5C26.1,2.2,2.3,26,1.3,55.5L4.7,52z" />
			<path class="st0" d="M110.1,62.8l-3.5-3.5c-0.4,11.5-4.9,22.1-11.9,30.3l-15-26.5h3.3c8.2,0,14.9-6.7,14.9-14.9
			c0-8.2-6.7-14.9-14.9-14.9H63.3c-1.9,0-3.5,1.6-3.5,3.5v32.5L40.1,35c-0.6-1.1-1.8-1.7-3-1.7c-1.2,0-2.4,0.7-3,1.7L11.3,74.5
			c-1.8-4.7-2.8-9.8-3-15.1l-3.5-3.5l-3.5,3.5c1,29.5,24.7,53.3,54.2,54.3l-3.4-3.4l3.5-3.5c-17.3-0.6-32.4-10.3-40.7-24.4
			l22.2-38.4L60.3,84c0.8,1.4,2.4,2,3.9,1.6c1.5-0.4,2.6-1.8,2.6-3.4v-42h16.1c4.4,0,7.9,3.6,7.9,7.9s-3.6,7.9-7.9,7.9h-9.3
			c-1.2,0-2.4,0.7-3,1.7c-0.6,1.1-0.6,2.4,0,3.5l18.9,33.3c-8.2,7.1-18.7,11.5-30.2,11.9l-3.5,3.5l3.5,3.5
			c29.5-1,53.3-24.7,54.3-54.2L110.1,62.8z" />
		</g>
	</g>
</svg>
