<?xml version="1.0" encoding="UTF-8" standalone="no"?>
<!-- Created with Inkscape (http://www.inkscape.org/) -->

<svg
   width="193.07529mm"
   height="25.876167mm"
   viewBox="0 0 193.07529 25.876167"
   version="1.1"
   id="svg5"
   inkscape:version="1.2.2 (b0a8486541, 2022-12-01)"
   sodipodi:docname="integration-steps.svg"
   xmlns:inkscape="http://www.inkscape.org/namespaces/inkscape"
   xmlns:sodipodi="http://sodipodi.sourceforge.net/DTD/sodipodi-0.dtd"
   xmlns="http://www.w3.org/2000/svg"
   xmlns:svg="http://www.w3.org/2000/svg">
  <sodipodi:namedview
     id="namedview7"
     pagecolor="#ffffff"
     bordercolor="#000000"
     borderopacity="0.25"
     inkscape:showpageshadow="2"
     inkscape:pageopacity="0.0"
     inkscape:pagecheckerboard="0"
     inkscape:deskcolor="#d1d1d1"
     inkscape:document-units="mm"
     showgrid="false"
     inkscape:zoom="1.1893044"
     inkscape:cx="401.91561"
     inkscape:cy="105.10345"
     inkscape:window-width="3840"
     inkscape:window-height="1009"
     inkscape:window-x="-8"
     inkscape:window-y="1432"
     inkscape:window-maximized="1"
     inkscape:current-layer="layer1" />
  <defs
     id="defs2" />
  <g
     inkscape:label="Layer 1"
     inkscape:groupmode="layer"
     id="layer1"
     transform="translate(-4.7545605,-48.730268)">
    <path
       id="rect111"
       style="fill:#72b790;fill-opacity:1;stroke:#72b790;stroke-width:0.264583;stroke-opacity:1"
       d="M 5.0564925,48.943175 H 47.770536 L 59.412203,61.679756 47.770536,74.304636 H 5.0564925 L 16.69816,61.568522 Z"
       sodipodi:nodetypes="ccscccc" />
    <g
       aria-label="create
developer
account"
       id="text7656"
       style="font-size:4.23333px;font-family:Roboto;-inkscape-font-specification:'Roboto, Normal';text-align:center;text-anchor:middle;fill:#72b790;stroke:#72b790;stroke-width:0.264583">
      <path
         d="m 27.509896,57.722337 q -0.194304,0.09302 -0.370003,0.144694 -0.173633,0.05168 -0.370003,0.05168 -0.250114,0 -0.458887,-0.07235 -0.208772,-0.07441 -0.3576,-0.223242 -0.150895,-0.148828 -0.233578,-0.376205 -0.08268,-0.227376 -0.08268,-0.531233 0,-0.566373 0.310059,-0.888834 0.312125,-0.32246 0.822688,-0.32246 0.198437,0 0.388606,0.05581 0.192236,0.05581 0.3514,0.136426 v 0.432014 h -0.02067 q -0.177767,-0.138492 -0.367936,-0.212906 -0.188102,-0.07441 -0.367936,-0.07441 -0.330729,0 -0.522965,0.223242 -0.190169,0.221175 -0.190169,0.651122 0,0.417545 0.186035,0.642854 0.188102,0.223242 0.527099,0.223242 0.117822,0 0.239779,-0.03101 0.121956,-0.03101 0.219108,-0.08062 0.08475,-0.04341 0.159163,-0.09095 0.07441,-0.04961 0.117822,-0.08475 h 0.02067 z"
         style="fill:#ffffff;stroke:none"
         id="path183" />
      <path
         d="m 29.448794,55.981876 h -0.02067 q -0.08682,-0.02067 -0.169498,-0.02894 -0.08062,-0.01034 -0.192237,-0.01034 -0.179833,0 -0.347265,0.08062 -0.167431,0.07855 -0.322461,0.204638 v 1.639175 H 28.008056 V 55.55813 h 0.388606 v 0.341064 q 0.231511,-0.186035 0.40721,-0.262516 0.177767,-0.07855 0.361735,-0.07855 0.101286,0 0.146761,0.0062 0.04547,0.0041 0.136426,0.0186 z"
         style="fill:#ffffff;stroke:none"
         id="path185" />
      <path
         d="m 31.747359,56.752888 h -1.701187 q 0,0.212907 0.06408,0.37207 0.06408,0.157096 0.1757,0.258382 0.107487,0.09922 0.254248,0.148828 0.148828,0.04961 0.326595,0.04961 0.235644,0 0.473355,-0.09302 0.239779,-0.09508 0.341064,-0.186035 h 0.02067 v 0.423746 q -0.19637,0.08268 -0.401009,0.138493 -0.204638,0.05581 -0.429947,0.05581 -0.574642,0 -0.897102,-0.310059 -0.322461,-0.312125 -0.322461,-0.8847 0,-0.566373 0.307991,-0.899169 0.310058,-0.332796 0.81442,-0.332796 0.467155,0 0.719335,0.272852 0.254248,0.272851 0.254248,0.775145 z m -0.378271,-0.297656 q -0.0021,-0.305924 -0.155029,-0.473356 -0.150895,-0.167431 -0.460954,-0.167431 -0.312125,0 -0.49816,0.183968 -0.183968,0.183968 -0.208773,0.456819 z"
         style="fill:#ffffff;stroke:none"
         id="path187" />
      <path
         d="m 34.130674,57.867031 h -0.386539 v -0.24598 q -0.05168,0.03514 -0.14056,0.09922 -0.08682,0.06201 -0.169499,0.09922 -0.09715,0.04754 -0.223242,0.07855 -0.12609,0.03307 -0.295588,0.03307 -0.312126,0 -0.529167,-0.206706 -0.217041,-0.206705 -0.217041,-0.527099 0,-0.262516 0.111621,-0.423746 0.113689,-0.163298 0.322461,-0.256315 0.21084,-0.09302 0.506429,-0.126091 0.295589,-0.03307 0.634586,-0.04961 v -0.05994 q 0,-0.132291 -0.04754,-0.219107 -0.04548,-0.08682 -0.132292,-0.136426 -0.08268,-0.04754 -0.198437,-0.06408 -0.115755,-0.01654 -0.241846,-0.01654 -0.152962,0 -0.341064,0.04134 -0.188102,0.03927 -0.388606,0.115755 h -0.02067 v -0.394808 q 0.113688,-0.03101 0.328662,-0.06821 0.214974,-0.03721 0.423746,-0.03721 0.243913,0 0.423747,0.04134 0.1819,0.03927 0.314192,0.136425 0.130225,0.09508 0.198437,0.24598 0.06821,0.150895 0.06821,0.374137 z m -0.386539,-0.56844 v -0.642854 q -0.177767,0.01033 -0.419612,0.03101 -0.239779,0.02067 -0.380339,0.05994 -0.167431,0.04754 -0.270784,0.148828 -0.103353,0.09922 -0.103353,0.274918 0,0.198438 0.119889,0.299723 0.11989,0.09922 0.365869,0.09922 0.204639,0 0.374137,-0.07855 0.169499,-0.08062 0.314193,-0.192236 z"
         style="fill:#ffffff;stroke:none"
         id="path189" />
      <path
         d="m 36.077841,57.846361 q -0.109554,0.02894 -0.239779,0.04754 -0.128157,0.0186 -0.229443,0.0186 -0.353466,0 -0.537434,-0.190169 -0.183968,-0.190169 -0.183968,-0.609781 V 55.884725 H 34.624701 V 55.55813 h 0.262516 v -0.663525 h 0.388606 v 0.663525 h 0.802018 v 0.326595 h -0.802018 v 1.052131 q 0,0.181901 0.0083,0.285254 0.0083,0.101285 0.05788,0.190169 0.04548,0.08268 0.124023,0.121956 0.08062,0.03721 0.243913,0.03721 0.09508,0 0.198437,-0.02687 0.103353,-0.02894 0.148828,-0.04754 h 0.02067 z"
         style="fill:#ffffff;stroke:none"
         id="path191" />
      <path
         d="m 38.479759,56.752888 h -1.701187 q 0,0.212907 0.06408,0.37207 0.06408,0.157096 0.1757,0.258382 0.107487,0.09922 0.254248,0.148828 0.148828,0.04961 0.326594,0.04961 0.235645,0 0.473356,-0.09302 0.239779,-0.09508 0.341064,-0.186035 h 0.02067 v 0.423746 q -0.19637,0.08268 -0.401009,0.138493 -0.204638,0.05581 -0.429947,0.05581 -0.574642,0 -0.897103,-0.310059 -0.32246,-0.312125 -0.32246,-0.8847 0,-0.566373 0.307991,-0.899169 0.310058,-0.332796 0.81442,-0.332796 0.467155,0 0.719335,0.272852 0.254248,0.272851 0.254248,0.775145 z m -0.378271,-0.297656 q -0.0021,-0.305924 -0.155029,-0.473356 -0.150895,-0.167431 -0.460954,-0.167431 -0.312125,0 -0.49816,0.183968 -0.183968,0.183968 -0.208773,0.456819 z"
         style="fill:#ffffff;stroke:none"
         id="path193" />
      <path
         d="m 23.885314,63.158693 h -0.388607 v -0.241845 q -0.167431,0.144694 -0.349332,0.225309 -0.181901,0.08062 -0.394808,0.08062 -0.413411,0 -0.657323,-0.318327 -0.241846,-0.318326 -0.241846,-0.882632 0,-0.293522 0.08268,-0.522965 0.08475,-0.229443 0.227376,-0.390674 0.14056,-0.157096 0.326595,-0.239778 0.188102,-0.08268 0.388607,-0.08268 0.181901,0 0.32246,0.03927 0.14056,0.03721 0.295589,0.117822 v -1.000455 h 0.388607 z m -0.388607,-0.56844 V 61.26527 q -0.157096,-0.07028 -0.281119,-0.09715 -0.124024,-0.02687 -0.270785,-0.02687 -0.326594,0 -0.508495,0.227376 -0.181901,0.227376 -0.181901,0.644922 0,0.411344 0.14056,0.626317 0.140559,0.212907 0.450618,0.212907 0.165364,0 0.334863,-0.07235 0.169498,-0.07441 0.316259,-0.190169 z"
         style="fill:#ffffff;stroke:none"
         id="path195" />
      <path
         d="m 26.582821,62.04455 h -1.701186 q 0,0.212907 0.06408,0.37207 0.06408,0.157097 0.1757,0.258382 0.107487,0.09922 0.254248,0.148828 0.148828,0.04961 0.326595,0.04961 0.235644,0 0.473355,-0.09302 0.239779,-0.09508 0.341064,-0.186035 h 0.02067 v 0.423747 q -0.19637,0.08268 -0.401009,0.138492 -0.204638,0.05581 -0.429947,0.05581 -0.574642,0 -0.897102,-0.310059 -0.322461,-0.312125 -0.322461,-0.884699 0,-0.566374 0.307991,-0.89917 0.310059,-0.332795 0.81442,-0.332795 0.467155,0 0.719335,0.272851 0.254248,0.272851 0.254248,0.775146 z M 26.20455,61.746894 q -0.0021,-0.305924 -0.155029,-0.473355 -0.150895,-0.167432 -0.460953,-0.167432 -0.312126,0 -0.498161,0.183968 -0.183968,0.183968 -0.208772,0.456819 z"
         style="fill:#ffffff;stroke:none"
         id="path197" />
      <path
         d="m 29.168707,60.849792 -0.934309,2.308901 h -0.390673 l -0.928108,-2.308901 h 0.421679 l 0.715201,1.837613 0.709,-1.837613 z"
         style="fill:#ffffff;stroke:none"
         id="path199" />
      <path
         d="m 31.572693,62.04455 h -1.701187 q 0,0.212907 0.06408,0.37207 0.06408,0.157097 0.1757,0.258382 0.107487,0.09922 0.254248,0.148828 0.148828,0.04961 0.326594,0.04961 0.235645,0 0.473356,-0.09302 0.239779,-0.09508 0.341064,-0.186035 h 0.02067 v 0.423747 q -0.19637,0.08268 -0.401009,0.138492 -0.204638,0.05581 -0.429948,0.05581 -0.574641,0 -0.897102,-0.310059 -0.32246,-0.312125 -0.32246,-0.884699 0,-0.566374 0.307991,-0.89917 0.310058,-0.332795 0.81442,-0.332795 0.467154,0 0.719335,0.272851 0.254248,0.272851 0.254248,0.775146 z m -0.378271,-0.297656 q -0.0021,-0.305924 -0.155029,-0.473355 -0.150895,-0.167432 -0.460954,-0.167432 -0.312125,0 -0.49816,0.183968 -0.183968,0.183968 -0.208773,0.456819 z"
         style="fill:#ffffff;stroke:none"
         id="path201" />
      <path
         d="m 32.554544,63.158693 h -0.388606 v -3.216338 h 0.388606 z"
         style="fill:#ffffff;stroke:none"
         id="path203" />
      <path
         d="m 35.291327,62.005276 q 0,0.564306 -0.289388,0.890901 -0.289388,0.326595 -0.775146,0.326595 -0.489892,0 -0.77928,-0.326595 -0.287321,-0.326595 -0.287321,-0.890901 0,-0.564306 0.287321,-0.890901 0.289388,-0.328661 0.77928,-0.328661 0.485758,0 0.775146,0.328661 0.289388,0.326595 0.289388,0.890901 z m -0.401009,0 q 0,-0.448551 -0.1757,-0.665592 -0.1757,-0.219107 -0.487825,-0.219107 -0.31626,0 -0.491959,0.219107 -0.173633,0.217041 -0.173633,0.665592 0,0.434082 0.1757,0.659391 0.1757,0.223242 0.489892,0.223242 0.310058,0 0.485758,-0.221175 0.177767,-0.223242 0.177767,-0.661458 z"
         style="fill:#ffffff;stroke:none"
         id="path205" />
      <path
         d="m 37.924755,61.976338 q 0,0.281119 -0.08062,0.514696 -0.08062,0.231511 -0.227376,0.392741 -0.136425,0.152962 -0.32246,0.237711 -0.183968,0.08268 -0.390674,0.08268 -0.179834,0 -0.326595,-0.03928 -0.144694,-0.03927 -0.295589,-0.121956 v 0.967382 h -0.388606 v -3.160528 h 0.388606 v 0.241846 q 0.15503,-0.130225 0.347266,-0.217041 0.194303,-0.08888 0.413411,-0.08888 0.417545,0 0.649055,0.316259 0.233578,0.314192 0.233578,0.874365 z m -0.401009,0.01034 q 0,-0.417545 -0.142627,-0.624251 -0.142627,-0.206706 -0.438216,-0.206706 -0.167431,0 -0.33693,0.07235 -0.169498,0.07235 -0.324528,0.19017 v 1.308446 q 0.165365,0.07441 0.283187,0.101285 0.119889,0.02687 0.270784,0.02687 0.324528,0 0.506429,-0.219108 0.181901,-0.219108 0.181901,-0.649055 z"
         style="fill:#ffffff;stroke:none"
         id="path207" />
      <path
         d="m 40.4631,62.04455 h -1.701187 q 0,0.212907 0.06408,0.37207 0.06408,0.157097 0.175699,0.258382 0.107487,0.09922 0.254248,0.148828 0.148828,0.04961 0.326595,0.04961 0.235644,0 0.473356,-0.09302 0.239778,-0.09508 0.341064,-0.186035 h 0.02067 v 0.423747 q -0.19637,0.08268 -0.401008,0.138492 -0.204639,0.05581 -0.429948,0.05581 -0.574641,0 -0.897102,-0.310059 -0.322461,-0.312125 -0.322461,-0.884699 0,-0.566374 0.307992,-0.89917 0.310058,-0.332795 0.814419,-0.332795 0.467155,0 0.719336,0.272851 0.254248,0.272851 0.254248,0.775146 z m -0.378272,-0.297656 q -0.0021,-0.305924 -0.155029,-0.473355 -0.150895,-0.167432 -0.460953,-0.167432 -0.312125,0 -0.49816,0.183968 -0.183968,0.183968 -0.208773,0.456819 z"
         style="fill:#ffffff;stroke:none"
         id="path209" />
      <path
         d="m 42.492947,61.273539 h -0.02067 q -0.08682,-0.02067 -0.169499,-0.02894 -0.08062,-0.01033 -0.192236,-0.01033 -0.179834,0 -0.347265,0.08062 -0.167432,0.07855 -0.322461,0.204638 v 1.639175 h -0.388607 v -2.308901 h 0.388607 v 0.341064 q 0.23151,-0.186035 0.40721,-0.262516 0.177767,-0.07855 0.361735,-0.07855 0.101285,0 0.14676,0.0062 0.04548,0.0041 0.136426,0.0186 z"
         style="fill:#ffffff;stroke:none"
         id="path211" />
      <path
         d="m 25.95547,68.450356 h -0.38654 v -0.24598 q -0.05168,0.03514 -0.140559,0.09922 -0.08682,0.06201 -0.169499,0.09922 -0.09715,0.04754 -0.223242,0.07855 -0.12609,0.03307 -0.295589,0.03307 -0.312125,0 -0.529166,-0.206705 -0.217041,-0.206706 -0.217041,-0.527099 0,-0.262517 0.111621,-0.423747 0.113688,-0.163297 0.322461,-0.256315 0.210839,-0.09302 0.506428,-0.12609 0.295589,-0.03307 0.634586,-0.04961 v -0.05994 q 0,-0.132292 -0.04754,-0.219108 -0.04548,-0.08682 -0.132291,-0.136426 -0.08268,-0.04754 -0.198438,-0.06408 -0.115755,-0.01654 -0.241845,-0.01654 -0.152962,0 -0.341064,0.04134 -0.188102,0.03927 -0.388607,0.115755 h -0.02067 v -0.394807 q 0.113688,-0.03101 0.328661,-0.06821 0.214974,-0.03721 0.423747,-0.03721 0.243912,0 0.423746,0.04134 0.181901,0.03927 0.314193,0.136426 0.130224,0.09508 0.198437,0.245979 0.06821,0.150895 0.06821,0.374137 z m -0.38654,-0.568441 v -0.642854 q -0.177766,0.01033 -0.419612,0.03101 -0.239778,0.02067 -0.380338,0.05994 -0.167432,0.04754 -0.270784,0.148828 -0.103353,0.09922 -0.103353,0.274919 0,0.198437 0.119889,0.299723 0.119889,0.09922 0.365869,0.09922 0.204638,0 0.374137,-0.07855 0.169499,-0.08061 0.314192,-0.192236 z"
         style="fill:#ffffff;stroke:none"
         id="path213" />
      <path
         d="m 28.411132,68.305662 q -0.194303,0.09302 -0.370003,0.144694 -0.173633,0.05168 -0.370003,0.05168 -0.250114,0 -0.458886,-0.07235 -0.208773,-0.07441 -0.357601,-0.223242 -0.150895,-0.148828 -0.233577,-0.376204 -0.08268,-0.227376 -0.08268,-0.531233 0,-0.566374 0.310059,-0.888834 0.312125,-0.322461 0.822688,-0.322461 0.198437,0 0.388606,0.05581 0.192237,0.05581 0.3514,0.136425 v 0.432015 h -0.02067 q -0.177767,-0.138493 -0.367936,-0.212907 -0.188102,-0.07441 -0.367936,-0.07441 -0.330728,0 -0.522965,0.223242 -0.190169,0.221175 -0.190169,0.651123 0,0.417545 0.186035,0.642854 0.188102,0.223242 0.527099,0.223242 0.117823,0 0.239779,-0.03101 0.121956,-0.03101 0.219108,-0.08061 0.08475,-0.04341 0.159163,-0.09095 0.07441,-0.04961 0.117822,-0.08475 h 0.02067 z"
         style="fill:#ffffff;stroke:none"
         id="path215" />
      <path
         d="m 30.61668,68.305662 q -0.194303,0.09302 -0.370003,0.144694 -0.173632,0.05168 -0.370003,0.05168 -0.250113,0 -0.458886,-0.07235 -0.208773,-0.07441 -0.357601,-0.223242 -0.150895,-0.148828 -0.233577,-0.376204 -0.08268,-0.227376 -0.08268,-0.531233 0,-0.566374 0.310058,-0.888834 0.312126,-0.322461 0.822688,-0.322461 0.198438,0 0.388607,0.05581 0.192236,0.05581 0.351399,0.136425 v 0.432015 h -0.02067 q -0.177767,-0.138493 -0.367936,-0.212907 -0.188102,-0.07441 -0.367936,-0.07441 -0.330729,0 -0.522965,0.223242 -0.190169,0.221175 -0.190169,0.651123 0,0.417545 0.186035,0.642854 0.188102,0.223242 0.527099,0.223242 0.117822,0 0.239778,-0.03101 0.121957,-0.03101 0.219108,-0.08061 0.08475,-0.04341 0.159164,-0.09095 0.07441,-0.04961 0.117822,-0.08475 h 0.02067 z"
         style="fill:#ffffff;stroke:none"
         id="path217" />
      <path
         d="m 33.082678,67.296939 q 0,0.564306 -0.289388,0.8909 -0.289388,0.326595 -0.775146,0.326595 -0.489892,0 -0.77928,-0.326595 -0.287321,-0.326594 -0.287321,-0.8909 0,-0.564307 0.287321,-0.890901 0.289388,-0.328662 0.77928,-0.328662 0.485758,0 0.775146,0.328662 0.289388,0.326594 0.289388,0.890901 z m -0.401009,0 q 0,-0.448552 -0.1757,-0.665592 -0.1757,-0.219108 -0.487825,-0.219108 -0.316259,0 -0.491959,0.219108 -0.173633,0.21704 -0.173633,0.665592 0,0.434081 0.1757,0.65939 0.1757,0.223242 0.489892,0.223242 0.310058,0 0.485758,-0.221175 0.177767,-0.223242 0.177767,-0.661457 z"
         style="fill:#ffffff;stroke:none"
         id="path219" />
      <path
         d="m 35.598283,68.450356 h -0.388606 v -0.256315 q -0.19637,0.155029 -0.376204,0.237711 -0.179834,0.08268 -0.396875,0.08268 -0.363802,0 -0.566373,-0.221175 -0.202571,-0.223242 -0.202571,-0.653189 v -1.498616 h 0.388606 v 1.314648 q 0,0.1757 0.01654,0.30179 0.01654,0.124023 0.07028,0.212907 0.05581,0.09095 0.144694,0.132291 0.08888,0.04134 0.258382,0.04134 0.150895,0 0.328662,-0.07855 0.179834,-0.07855 0.334863,-0.200504 v -1.723925 h 0.388606 z"
         style="fill:#ffffff;stroke:none"
         id="path221" />
      <path
         d="m 38.293724,68.450356 h -0.388606 v -1.314648 q 0,-0.159163 -0.0186,-0.297656 -0.0186,-0.14056 -0.06821,-0.219108 -0.05168,-0.08682 -0.148828,-0.128157 -0.09715,-0.04341 -0.252181,-0.04341 -0.159163,0 -0.332796,0.07855 -0.173633,0.07855 -0.332796,0.200504 v 1.723925 h -0.388606 v -2.308902 h 0.388606 v 0.256315 q 0.181901,-0.150895 0.376204,-0.235644 0.194303,-0.08475 0.398942,-0.08475 0.374137,0 0.570507,0.225309 0.19637,0.225309 0.19637,0.649055 z"
         style="fill:#ffffff;stroke:none"
         id="path223" />
      <path
         d="m 40.240891,68.429685 q -0.109554,0.02894 -0.239778,0.04754 -0.128158,0.0186 -0.229443,0.0186 -0.353467,0 -0.537435,-0.190169 -0.183968,-0.190169 -0.183968,-0.609782 v -1.227831 h -0.262516 v -0.326595 h 0.262516 V 65.47793 h 0.388607 v 0.663524 h 0.802017 v 0.326595 h -0.802017 v 1.052132 q 0,0.1819 0.0083,0.285253 0.0083,0.101286 0.05788,0.190169 0.04547,0.08268 0.124023,0.121957 0.08061,0.03721 0.243912,0.03721 0.09509,0 0.198438,-0.02687 0.103353,-0.02894 0.148828,-0.04754 h 0.02067 z"
         style="fill:#ffffff;stroke:none"
         id="path225" />
    </g>
    <path
       id="rect111-9"
       style="fill:#72b790;fill-opacity:1;stroke:#72b790;stroke-width:0.264583;stroke-opacity:1"
       d="M 51.135845,48.862559 H 93.849888 L 105.49156,61.59914 93.849888,74.22402 H 51.135845 L 62.777512,61.487906 Z"
       sodipodi:nodetypes="ccscccc" />
    <g
       aria-label="register &amp; 
submit 
your solution"
       id="text7656-9"
       style="font-size:4.23333px;font-family:Roboto;-inkscape-font-specification:'Roboto, Normal';text-align:center;text-anchor:middle;fill:#72b790;stroke:#72b790;stroke-width:0.264583">
      <path
         d="m 68.764741,55.90126 h -0.02067 q -0.08682,-0.02067 -0.169499,-0.02894 -0.08062,-0.01034 -0.192236,-0.01034 -0.179834,0 -0.347265,0.08062 -0.167432,0.07855 -0.322461,0.204638 v 1.639175 h -0.388606 v -2.308901 h 0.388606 v 0.341064 q 0.23151,-0.186035 0.40721,-0.262516 0.177767,-0.07855 0.361735,-0.07855 0.101285,0 0.146761,0.0062 0.04547,0.0041 0.136425,0.0186 z"
         style="fill:#ffffff;stroke:none"
         id="path228" />
      <path
         d="M 71.063307,56.672272 H 69.36212 q 0,0.212907 0.06408,0.37207 0.06408,0.157096 0.1757,0.258382 0.107487,0.09922 0.254248,0.148828 0.148828,0.04961 0.326594,0.04961 0.235645,0 0.473356,-0.09302 0.239779,-0.09508 0.341064,-0.186035 h 0.02067 v 0.423746 q -0.19637,0.08268 -0.401009,0.138493 -0.204638,0.05581 -0.429948,0.05581 -0.574641,0 -0.897102,-0.310059 -0.32246,-0.312125 -0.32246,-0.8847 0,-0.566373 0.307991,-0.899169 0.310058,-0.332796 0.81442,-0.332796 0.467154,0 0.719335,0.272852 0.254248,0.272851 0.254248,0.775145 z m -0.378271,-0.297656 q -0.0021,-0.305924 -0.155029,-0.473356 -0.150895,-0.167431 -0.460954,-0.167431 -0.312125,0 -0.49816,0.183968 -0.183968,0.183968 -0.208773,0.456819 z"
         style="fill:#ffffff;stroke:none"
         id="path230" />
      <path
         d="m 73.52517,57.523899 q 0,0.587044 -0.26665,0.861962 -0.266651,0.274919 -0.820621,0.274919 -0.183968,0 -0.359668,-0.02687 -0.173633,-0.02481 -0.343131,-0.07235 v -0.396875 h 0.02067 q 0.09508,0.03721 0.30179,0.09095 0.206706,0.05581 0.413411,0.05581 0.198438,0 0.328662,-0.04754 0.130225,-0.04754 0.202572,-0.132292 0.07235,-0.08062 0.103353,-0.194303 0.031,-0.113688 0.031,-0.254248 v -0.210839 q -0.175699,0.140559 -0.33693,0.210839 -0.159163,0.06821 -0.40721,0.06821 -0.413411,0 -0.657323,-0.297656 -0.241846,-0.299723 -0.241846,-0.843359 0,-0.297656 0.08268,-0.512629 0.08475,-0.217041 0.229444,-0.374137 0.134358,-0.146761 0.326594,-0.227376 0.192237,-0.08268 0.382406,-0.08268 0.200504,0 0.334863,0.04134 0.136425,0.03927 0.28732,0.121957 l 0.02481,-0.09922 h 0.363802 z m -0.388607,-0.37207 v -1.258837 q -0.155029,-0.07028 -0.289387,-0.09922 -0.132292,-0.03101 -0.264584,-0.03101 -0.320393,0 -0.504361,0.214973 -0.183968,0.214974 -0.183968,0.624251 0,0.388607 0.136426,0.589111 0.136425,0.200504 0.452685,0.200504 0.169498,0 0.338997,-0.06408 0.171566,-0.06615 0.314192,-0.1757 z"
         style="fill:#ffffff;stroke:none"
         id="path232" />
      <path
         d="M 74.707526,55.090975 H 74.26931 v -0.403076 h 0.438216 z m -0.02481,2.69544 h -0.388606 v -2.308901 h 0.388606 z"
         style="fill:#ffffff;stroke:none"
         id="path234" />
      <path
         d="m 77.101177,57.120823 q 0,0.31626 -0.262517,0.518831 -0.260449,0.202572 -0.713134,0.202572 -0.256315,0 -0.471288,-0.05994 -0.212907,-0.06201 -0.357601,-0.134359 v -0.436148 h 0.02067 q 0.183968,0.138492 0.409277,0.221175 0.225309,0.08062 0.432014,0.08062 0.256315,0 0.401009,-0.08268 0.144694,-0.08268 0.144694,-0.260449 0,-0.136426 -0.07855,-0.206706 -0.07855,-0.07028 -0.30179,-0.119889 -0.08268,-0.0186 -0.217041,-0.04341 -0.132292,-0.02481 -0.241846,-0.05374 -0.303857,-0.08061 -0.432014,-0.235644 -0.126091,-0.157096 -0.126091,-0.384473 0,-0.142626 0.05788,-0.268717 0.05994,-0.12609 0.179834,-0.225309 0.115755,-0.09715 0.293522,-0.152962 0.179833,-0.05788 0.401008,-0.05788 0.206706,0 0.417546,0.05168 0.212906,0.04961 0.353466,0.121956 v 0.415478 h -0.02067 q -0.148828,-0.109554 -0.361735,-0.183968 -0.212907,-0.07648 -0.417545,-0.07648 -0.212907,0 -0.359668,0.08268 -0.146761,0.08062 -0.146761,0.241845 0,0.142627 0.08888,0.214974 0.08682,0.07235 0.28112,0.117822 0.107487,0.02481 0.239778,0.04961 0.134359,0.02481 0.223242,0.04548 0.270785,0.06201 0.417546,0.212906 0.146761,0.152962 0.146761,0.405143 z"
         style="fill:#ffffff;stroke:none"
         id="path236" />
      <path
         d="m 78.856107,57.765745 q -0.109554,0.02894 -0.239779,0.04754 -0.128157,0.0186 -0.229443,0.0186 -0.353466,0 -0.537434,-0.190169 -0.183968,-0.190169 -0.183968,-0.609781 v -1.227831 h -0.262516 v -0.326595 h 0.262516 v -0.663525 h 0.388606 v 0.663525 h 0.802018 v 0.326595 h -0.802018 v 1.052131 q 0,0.181901 0.0083,0.285254 0.0083,0.101285 0.05788,0.190169 0.04548,0.08268 0.124023,0.121956 0.08061,0.03721 0.243913,0.03721 0.09508,0 0.198437,-0.02687 0.103353,-0.02894 0.148828,-0.04754 h 0.02067 z"
         style="fill:#ffffff;stroke:none"
         id="path238" />
      <path
         d="m 81.258025,56.672272 h -1.701187 q 0,0.212907 0.06408,0.37207 0.06408,0.157096 0.1757,0.258382 0.107487,0.09922 0.254248,0.148828 0.148828,0.04961 0.326594,0.04961 0.235645,0 0.473356,-0.09302 0.239779,-0.09508 0.341064,-0.186035 h 0.02067 v 0.423746 q -0.19637,0.08268 -0.401009,0.138493 -0.204638,0.05581 -0.429947,0.05581 -0.574642,0 -0.897103,-0.310059 -0.32246,-0.312125 -0.32246,-0.8847 0,-0.566373 0.307991,-0.899169 0.310058,-0.332796 0.81442,-0.332796 0.467155,0 0.719335,0.272852 0.254248,0.272851 0.254248,0.775145 z m -0.378271,-0.297656 q -0.0021,-0.305924 -0.155029,-0.473356 -0.150895,-0.167431 -0.460954,-0.167431 -0.312125,0 -0.49816,0.183968 -0.183968,0.183968 -0.208773,0.456819 z"
         style="fill:#ffffff;stroke:none"
         id="path240" />
      <path
         d="m 83.287874,55.90126 h -0.02067 q -0.08682,-0.02067 -0.169499,-0.02894 -0.08061,-0.01034 -0.192236,-0.01034 -0.179834,0 -0.347265,0.08062 -0.167432,0.07855 -0.322461,0.204638 v 1.639175 h -0.388606 v -2.308901 h 0.388606 v 0.341064 q 0.231511,-0.186035 0.40721,-0.262516 0.177767,-0.07855 0.361735,-0.07855 0.101286,0 0.146761,0.0062 0.04547,0.0041 0.136426,0.0186 z"
         style="fill:#ffffff;stroke:none"
         id="path242" />
      <path
         d="m 86.396724,55.324552 q 0,-0.19637 -0.117822,-0.307991 -0.115755,-0.113688 -0.297656,-0.113688 -0.190169,0 -0.310058,0.128157 -0.11989,0.12609 -0.11989,0.310058 0,0.15503 0.08062,0.274919 0.08268,0.119889 0.353466,0.283186 0.202572,-0.07235 0.305924,-0.210839 0.10542,-0.14056 0.10542,-0.363802 z m 0.401009,1.810741 -0.988053,-0.963248 q -0.06408,0.03101 -0.128157,0.08268 -0.06408,0.04961 -0.128157,0.136426 -0.05788,0.08061 -0.09508,0.194303 -0.03721,0.113688 -0.03721,0.256315 0,0.30179 0.1757,0.487825 0.177766,0.183968 0.502294,0.183968 0.192236,0 0.380338,-0.09302 0.19017,-0.09508 0.318327,-0.285253 z m 0.622184,-1.227831 v 0.198437 q 0,0.198437 -0.05168,0.446484 -0.05168,0.248047 -0.175699,0.473356 l 0.781347,0.760676 h -0.508496 l -0.473356,-0.46302 q -0.237711,0.293522 -0.485758,0.411344 -0.248047,0.115755 -0.510563,0.115755 -0.429947,0 -0.715201,-0.250114 -0.283186,-0.252181 -0.283186,-0.659391 0,-0.190169 0.05374,-0.328661 0.05374,-0.138493 0.12609,-0.239779 0.07235,-0.09715 0.179834,-0.181901 0.107487,-0.08682 0.217041,-0.150895 -0.227376,-0.148828 -0.328662,-0.299723 -0.09922,-0.150895 -0.09922,-0.380338 0,-0.138493 0.05374,-0.262516 0.05581,-0.126091 0.165364,-0.229443 0.103353,-0.09922 0.268718,-0.161231 0.167431,-0.06201 0.367936,-0.06201 0.3576,0 0.578775,0.181901 0.221175,0.179833 0.221175,0.456819 0,0.09095 -0.02481,0.206705 -0.0248,0.113688 -0.08475,0.204639 -0.06615,0.101286 -0.188102,0.194303 -0.121956,0.09302 -0.316259,0.159163 l 0.766877,0.748274 q 0.02894,-0.08268 0.04341,-0.1819 0.01447,-0.09922 0.01654,-0.206706 0.0041,-0.115755 0.0021,-0.258382 0,-0.142627 0,-0.241845 z"
         style="fill:#ffffff;stroke:none"
         id="path244" />
      <path
         d="m 72.185718,62.412485 q 0,0.31626 -0.262516,0.518831 -0.260449,0.202572 -0.713134,0.202572 -0.256315,0 -0.471289,-0.05994 -0.212906,-0.06201 -0.3576,-0.134358 v -0.436149 h 0.02067 q 0.183968,0.138493 0.409277,0.221175 0.225309,0.08061 0.432015,0.08061 0.256315,0 0.401009,-0.08268 0.144694,-0.08268 0.144694,-0.260449 0,-0.136426 -0.07855,-0.206706 -0.07855,-0.07028 -0.30179,-0.119889 -0.08268,-0.0186 -0.217041,-0.04341 -0.132291,-0.02481 -0.241845,-0.05374 -0.303857,-0.08062 -0.432015,-0.235644 -0.12609,-0.157096 -0.12609,-0.384472 0,-0.142627 0.05788,-0.268718 0.05994,-0.12609 0.179833,-0.225309 0.115755,-0.09715 0.293522,-0.152962 0.179834,-0.05788 0.401009,-0.05788 0.206706,0 0.417545,0.05168 0.212907,0.04961 0.353467,0.121956 v 0.415479 h -0.02067 q -0.148828,-0.109554 -0.361735,-0.183968 -0.212906,-0.07648 -0.417545,-0.07648 -0.212906,0 -0.359667,0.08268 -0.146761,0.08062 -0.146761,0.241845 0,0.142627 0.08888,0.214974 0.08682,0.07235 0.28112,0.117822 0.107486,0.02481 0.239778,0.04961 0.134359,0.0248 0.223242,0.04547 0.270784,0.06201 0.417545,0.212907 0.146761,0.152962 0.146761,0.405142 z"
         style="fill:#ffffff;stroke:none"
         id="path246" />
      <path
         d="m 74.65585,63.078077 h -0.388607 v -0.256315 q -0.19637,0.15503 -0.376204,0.237712 -0.179834,0.08268 -0.396875,0.08268 -0.363801,0 -0.566373,-0.221175 -0.202571,-0.223242 -0.202571,-0.653189 v -1.498616 h 0.388606 v 1.314648 q 0,0.175699 0.01654,0.30179 0.01654,0.124023 0.07028,0.212906 0.05581,0.09095 0.144694,0.132292 0.08888,0.04134 0.258382,0.04134 0.150895,0 0.328662,-0.07855 0.179834,-0.07855 0.334863,-0.200504 v -1.723925 h 0.388607 z"
         style="fill:#ffffff;stroke:none"
         id="path248" />
      <path
         d="m 77.452576,61.906057 q 0,0.289388 -0.08268,0.520898 -0.08062,0.23151 -0.219108,0.388606 -0.146761,0.163298 -0.322461,0.24598 -0.1757,0.08062 -0.386539,0.08062 -0.196371,0 -0.343132,-0.04754 -0.146761,-0.04548 -0.289387,-0.124024 l -0.02481,0.107487 H 75.42066 v -3.216338 h 0.388607 v 1.149283 q 0.163297,-0.134359 0.347265,-0.219108 0.183968,-0.08682 0.413411,-0.08682 0.409277,0 0.644921,0.314192 0.237712,0.314192 0.237712,0.886767 z m -0.401009,0.01034 q 0,-0.413411 -0.136426,-0.626318 -0.136425,-0.214974 -0.440282,-0.214974 -0.169499,0 -0.343132,0.07441 -0.173632,0.07235 -0.32246,0.188103 v 1.322915 q 0.165364,0.07441 0.283186,0.103353 0.119889,0.02894 0.270785,0.02894 0.32246,0 0.504361,-0.21084 0.183968,-0.212907 0.183968,-0.665592 z"
         style="fill:#ffffff;stroke:none"
         id="path250" />
      <path
         d="M 81.427524,63.078077 H 81.038918 V 61.76343 q 0,-0.148828 -0.01447,-0.287321 -0.0124,-0.138492 -0.05581,-0.221175 -0.04754,-0.08888 -0.136426,-0.134358 -0.08888,-0.04548 -0.256315,-0.04548 -0.163297,0 -0.326595,0.08268 -0.163297,0.08061 -0.326594,0.206705 0.0062,0.04754 0.01033,0.111621 0.0041,0.06201 0.0041,0.124024 v 1.477944 H 79.54857 V 61.76343 q 0,-0.152962 -0.01447,-0.289388 -0.0124,-0.138493 -0.05581,-0.221175 -0.04754,-0.08888 -0.136426,-0.132291 -0.08888,-0.04548 -0.256315,-0.04548 -0.159163,0 -0.320394,0.07855 -0.159163,0.07855 -0.318326,0.200504 v 1.723924 h -0.388607 v -2.308901 h 0.388607 v 0.256315 q 0.181901,-0.150895 0.361735,-0.235644 0.1819,-0.08475 0.386539,-0.08475 0.235644,0 0.398942,0.09922 0.165364,0.09922 0.245979,0.274919 0.235645,-0.198438 0.429948,-0.285254 0.194303,-0.08888 0.415478,-0.08888 0.380338,0 0.560172,0.23151 0.181901,0.229443 0.181901,0.642854 z"
         style="fill:#ffffff;stroke:none"
         id="path252" />
      <path
         d="m 82.593343,60.382637 h -0.438215 v -0.403076 h 0.438215 z m -0.0248,2.69544 h -0.388607 v -2.308901 h 0.388607 z"
         style="fill:#ffffff;stroke:none"
         id="path254" />
      <path
         d="m 84.536375,63.057407 q -0.109554,0.02894 -0.239778,0.04754 -0.128158,0.0186 -0.229443,0.0186 -0.353467,0 -0.537435,-0.19017 -0.183968,-0.190169 -0.183968,-0.609781 v -1.227831 h -0.262516 v -0.326595 h 0.262516 v -0.663525 h 0.388607 v 0.663525 h 0.802017 v 0.326595 h -0.802017 v 1.052131 q 0,0.181901 0.0083,0.285254 0.0083,0.101286 0.05788,0.190169 0.04547,0.08268 0.124023,0.121956 0.08062,0.03721 0.243912,0.03721 0.09508,0 0.198438,-0.02687 0.103353,-0.02894 0.148828,-0.04754 h 0.02067 z"
         style="fill:#ffffff;stroke:none"
         id="path256" />
      <path
         d="m 66.659445,66.060838 -1.34772,3.160528 h -0.415478 l 0.429947,-0.963247 -0.919839,-2.197281 h 0.421679 l 0.709,1.711522 0.715201,-1.711522 z"
         style="fill:#ffffff;stroke:none"
         id="path258" />
      <path
         d="m 69.098571,67.216323 q 0,0.564306 -0.289388,0.8909 -0.289388,0.326595 -0.775146,0.326595 -0.489892,0 -0.77928,-0.326595 -0.287321,-0.326594 -0.287321,-0.8909 0,-0.564307 0.287321,-0.890901 0.289388,-0.328662 0.77928,-0.328662 0.485758,0 0.775146,0.328662 0.289388,0.326594 0.289388,0.890901 z m -0.401009,0 q 0,-0.448552 -0.1757,-0.665592 -0.1757,-0.219108 -0.487825,-0.219108 -0.316259,0 -0.491959,0.219108 -0.173633,0.21704 -0.173633,0.665592 0,0.434081 0.1757,0.65939 0.1757,0.223242 0.489892,0.223242 0.310058,0 0.485758,-0.221175 0.177767,-0.223242 0.177767,-0.661457 z"
         style="fill:#ffffff;stroke:none"
         id="path260" />
      <path
         d="m 71.614178,68.36974 h -0.388607 v -0.256315 q -0.19637,0.155029 -0.376204,0.237711 -0.179834,0.08268 -0.396875,0.08268 -0.363801,0 -0.566373,-0.221175 -0.202571,-0.223242 -0.202571,-0.653189 v -1.498616 h 0.388606 v 1.314648 q 0,0.1757 0.01654,0.30179 0.01654,0.124023 0.07028,0.212907 0.05581,0.09095 0.144694,0.132291 0.08888,0.04134 0.258382,0.04134 0.150895,0 0.328662,-0.07855 0.179834,-0.07855 0.334863,-0.200504 v -1.723925 h 0.388607 z"
         style="fill:#ffffff;stroke:none"
         id="path262" />
      <path
         d="m 73.819725,66.484585 h -0.02067 q -0.08682,-0.02067 -0.169499,-0.02894 -0.08061,-0.01033 -0.192236,-0.01033 -0.179834,0 -0.347265,0.08061 -0.167432,0.07855 -0.322461,0.204638 v 1.639176 h -0.388606 v -2.308902 h 0.388606 v 0.341065 q 0.23151,-0.186035 0.40721,-0.262516 0.177767,-0.07855 0.361735,-0.07855 0.101285,0 0.146761,0.0062 0.04547,0.0041 0.136425,0.0186 z"
         style="fill:#ffffff;stroke:none"
         id="path264" />
      <path
         d="m 77.323385,67.704148 q 0,0.316259 -0.262516,0.518831 -0.260449,0.202571 -0.713135,0.202571 -0.256315,0 -0.471288,-0.05994 -0.212907,-0.06201 -0.357601,-0.134358 v -0.436149 h 0.02067 q 0.183968,0.138493 0.409277,0.221175 0.225309,0.08062 0.432014,0.08062 0.256315,0 0.401009,-0.08268 0.144694,-0.08268 0.144694,-0.260449 0,-0.136426 -0.07855,-0.206706 -0.07855,-0.07028 -0.30179,-0.119889 -0.08268,-0.0186 -0.217041,-0.04341 -0.132292,-0.02481 -0.241846,-0.05374 -0.303857,-0.08062 -0.432014,-0.235645 -0.126091,-0.157096 -0.126091,-0.384472 0,-0.142627 0.05788,-0.268717 0.05994,-0.126091 0.179834,-0.225309 0.115755,-0.09715 0.293522,-0.152962 0.179833,-0.05788 0.401008,-0.05788 0.206706,0 0.417546,0.05168 0.212906,0.04961 0.353466,0.121957 v 0.415478 h -0.02067 q -0.148828,-0.109554 -0.361735,-0.183968 -0.212907,-0.07648 -0.417545,-0.07648 -0.212907,0 -0.359668,0.08268 -0.146761,0.08062 -0.146761,0.241846 0,0.142626 0.08888,0.214973 0.08682,0.07235 0.28112,0.117822 0.107487,0.02481 0.239778,0.04961 0.134359,0.0248 0.223242,0.04548 0.270785,0.06201 0.417546,0.212907 0.146761,0.152962 0.146761,0.405143 z"
         style="fill:#ffffff;stroke:none"
         id="path266" />
      <path
         d="m 79.847259,67.216323 q 0,0.564306 -0.289387,0.8909 -0.289388,0.326595 -0.775146,0.326595 -0.489892,0 -0.77928,-0.326595 -0.287321,-0.326594 -0.287321,-0.8909 0,-0.564307 0.287321,-0.890901 0.289388,-0.328662 0.77928,-0.328662 0.485758,0 0.775146,0.328662 0.289387,0.326594 0.289387,0.890901 z m -0.401008,0 q 0,-0.448552 -0.1757,-0.665592 -0.1757,-0.219108 -0.487825,-0.219108 -0.31626,0 -0.491959,0.219108 -0.173633,0.21704 -0.173633,0.665592 0,0.434081 0.1757,0.65939 0.175699,0.223242 0.489892,0.223242 0.310058,0 0.485758,-0.221175 0.177767,-0.223242 0.177767,-0.661457 z"
         style="fill:#ffffff;stroke:none"
         id="path268" />
      <path
         d="m 80.841513,68.36974 h -0.388606 v -3.216339 h 0.388606 z"
         style="fill:#ffffff;stroke:none"
         id="path270" />
      <path
         d="m 83.524551,68.36974 h -0.388606 v -0.256315 q -0.196371,0.155029 -0.376204,0.237711 -0.179834,0.08268 -0.396875,0.08268 -0.363802,0 -0.566373,-0.221175 -0.202572,-0.223242 -0.202572,-0.653189 v -1.498616 h 0.388607 v 1.314648 q 0,0.1757 0.01654,0.30179 0.01654,0.124023 0.07028,0.212907 0.05581,0.09095 0.144694,0.132291 0.08888,0.04134 0.258382,0.04134 0.150895,0 0.328662,-0.07855 0.179834,-0.07855 0.334863,-0.200504 v -1.723925 h 0.388606 z"
         style="fill:#ffffff;stroke:none"
         id="path272" />
      <path
         d="m 85.488254,68.349069 q -0.109554,0.02894 -0.239779,0.04754 -0.128157,0.0186 -0.229443,0.0186 -0.353467,0 -0.537435,-0.190169 -0.183967,-0.190169 -0.183967,-0.609782 v -1.227831 h -0.262517 v -0.326595 h 0.262517 v -0.663524 h 0.388606 v 0.663524 h 0.802018 v 0.326595 h -0.802018 v 1.052132 q 0,0.1819 0.0083,0.285253 0.0083,0.101286 0.05788,0.190169 0.04547,0.08268 0.124023,0.121957 0.08061,0.03721 0.243913,0.03721 0.09508,0 0.198437,-0.02687 0.103353,-0.02894 0.148828,-0.04754 h 0.02067 z"
         style="fill:#ffffff;stroke:none"
         id="path274" />
      <path
         d="m 86.37502,65.674299 h -0.438216 v -0.403076 h 0.438216 z m -0.0248,2.695441 h -0.388607 v -2.308902 h 0.388607 z"
         style="fill:#ffffff;stroke:none"
         id="path276" />
      <path
         d="m 89.086998,67.216323 q 0,0.564306 -0.289388,0.8909 -0.289388,0.326595 -0.775146,0.326595 -0.489892,0 -0.77928,-0.326595 -0.28732,-0.326594 -0.28732,-0.8909 0,-0.564307 0.28732,-0.890901 0.289388,-0.328662 0.77928,-0.328662 0.485758,0 0.775146,0.328662 0.289388,0.326594 0.289388,0.890901 z m -0.401009,0 q 0,-0.448552 -0.1757,-0.665592 -0.175699,-0.219108 -0.487825,-0.219108 -0.316259,0 -0.491959,0.219108 -0.173633,0.21704 -0.173633,0.665592 0,0.434081 0.1757,0.65939 0.1757,0.223242 0.489892,0.223242 0.310059,0 0.485758,-0.221175 0.177767,-0.223242 0.177767,-0.661457 z"
         style="fill:#ffffff;stroke:none"
         id="path278" />
      <path
         d="m 91.61914,68.36974 h -0.388606 v -1.314648 q 0,-0.159163 -0.0186,-0.297656 -0.0186,-0.14056 -0.06821,-0.219108 -0.05168,-0.08682 -0.148828,-0.128157 -0.09715,-0.04341 -0.25218,-0.04341 -0.159164,0 -0.332796,0.07855 -0.173633,0.07855 -0.332796,0.200504 V 68.36974 H 89.68851 v -2.308902 h 0.388607 v 0.256315 q 0.181901,-0.150895 0.376204,-0.235644 0.194303,-0.08475 0.398942,-0.08475 0.374137,0 0.570507,0.225309 0.19637,0.225309 0.19637,0.649055 z"
         style="fill:#ffffff;stroke:none"
         id="path280" />
    </g>
    <path
       id="rect111-9-7"
       style="fill:#72b790;fill-opacity:1;stroke:#72b790;stroke-width:0.264583;stroke-opacity:1"
       d="m 97.215197,49.112675 h 42.714053 l 11.64166,12.736583 -11.64166,12.62488 H 97.215197 l 11.641673,-12.73612 z"
       sodipodi:nodetypes="ccscccc" />
    <g
       aria-label="develop
your
integration"
       id="text7656-9-9"
       style="font-size:4.23333px;font-family:Roboto;-inkscape-font-specification:'Roboto, Normal';text-align:center;text-anchor:middle;fill:#72b790;stroke:#72b790;stroke-width:0.264583">
      <path
         d="m 118.20823,58.03653 h -0.38861 v -0.241846 q -0.16743,0.144694 -0.34933,0.225309 -0.1819,0.08062 -0.39481,0.08062 -0.41341,0 -0.65732,-0.318326 -0.24185,-0.318327 -0.24185,-0.882633 0,-0.293522 0.0827,-0.522965 0.0847,-0.229443 0.22738,-0.390674 0.14056,-0.157096 0.3266,-0.239778 0.1881,-0.08268 0.3886,-0.08268 0.1819,0 0.32246,0.03927 0.14056,0.03721 0.29559,0.117822 v -1.000455 h 0.38861 z m -0.38861,-0.568441 v -1.324982 q -0.1571,-0.07028 -0.28112,-0.09715 -0.12402,-0.02687 -0.27078,-0.02687 -0.3266,0 -0.5085,0.227376 -0.1819,0.227377 -0.1819,0.644922 0,0.411344 0.14056,0.626318 0.14056,0.212906 0.45062,0.212906 0.16536,0 0.33486,-0.07235 0.1695,-0.07441 0.31626,-0.190169 z"
         style="fill:#ffffff;stroke:none"
         id="path283" />
      <path
         d="m 120.90574,56.922387 h -1.70119 q 0,0.212906 0.0641,0.37207 0.0641,0.157096 0.1757,0.258382 0.10748,0.09922 0.25424,0.148828 0.14883,0.04961 0.3266,0.04961 0.23564,0 0.47336,-0.09302 0.23977,-0.09508 0.34106,-0.186035 h 0.0207 v 0.423747 q -0.19637,0.08268 -0.40101,0.138492 -0.20464,0.05581 -0.42995,0.05581 -0.57464,0 -0.8971,-0.310058 -0.32246,-0.312126 -0.32246,-0.8847 0,-0.566373 0.30799,-0.899169 0.31006,-0.332796 0.81442,-0.332796 0.46716,0 0.71934,0.272851 0.25425,0.272851 0.25425,0.775146 z m -0.37828,-0.297656 q -0.002,-0.305925 -0.15503,-0.473356 -0.15089,-0.167432 -0.46095,-0.167432 -0.31212,0 -0.49816,0.183968 -0.18397,0.183968 -0.20877,0.45682 z"
         style="fill:#ffffff;stroke:none"
         id="path285" />
      <path
         d="m 123.49162,55.727628 -0.93431,2.308902 h -0.39067 l -0.92811,-2.308902 h 0.42168 l 0.7152,1.837613 0.709,-1.837613 z"
         style="fill:#ffffff;stroke:none"
         id="path287" />
      <path
         d="m 125.89561,56.922387 h -1.70119 q 0,0.212906 0.0641,0.37207 0.0641,0.157096 0.1757,0.258382 0.10749,0.09922 0.25425,0.148828 0.14882,0.04961 0.32659,0.04961 0.23565,0 0.47336,-0.09302 0.23978,-0.09508 0.34106,-0.186035 h 0.0207 v 0.423747 q -0.19637,0.08268 -0.40101,0.138492 -0.20464,0.05581 -0.42994,0.05581 -0.57465,0 -0.89711,-0.310058 -0.32246,-0.312126 -0.32246,-0.8847 0,-0.566373 0.30799,-0.899169 0.31006,-0.332796 0.81442,-0.332796 0.46716,0 0.71934,0.272851 0.25425,0.272851 0.25425,0.775146 z m -0.37827,-0.297656 q -0.002,-0.305925 -0.15503,-0.473356 -0.1509,-0.167432 -0.46096,-0.167432 -0.31212,0 -0.49816,0.183968 -0.18397,0.183968 -0.20877,0.45682 z"
         style="fill:#ffffff;stroke:none"
         id="path289" />
      <path
         d="m 126.87746,58.03653 h -0.38861 v -3.216339 h 0.38861 z"
         style="fill:#ffffff;stroke:none"
         id="path291" />
      <path
         d="m 129.61424,56.883113 q 0,0.564306 -0.28939,0.8909 -0.28939,0.326595 -0.77514,0.326595 -0.4899,0 -0.77928,-0.326595 -0.28732,-0.326594 -0.28732,-0.8909 0,-0.564307 0.28732,-0.890901 0.28938,-0.328662 0.77928,-0.328662 0.48575,0 0.77514,0.328662 0.28939,0.326594 0.28939,0.890901 z m -0.40101,0 q 0,-0.448552 -0.1757,-0.665592 -0.1757,-0.219108 -0.48782,-0.219108 -0.31626,0 -0.49196,0.219108 -0.17364,0.21704 -0.17364,0.665592 0,0.434081 0.1757,0.65939 0.1757,0.223242 0.4899,0.223242 0.31006,0 0.48575,-0.221175 0.17777,-0.223242 0.17777,-0.661457 z"
         style="fill:#ffffff;stroke:none"
         id="path293" />
      <path
         d="m 132.24767,56.854174 q 0,0.281119 -0.0806,0.514697 -0.0806,0.23151 -0.22737,0.39274 -0.13643,0.152962 -0.32246,0.237712 -0.18397,0.08268 -0.39068,0.08268 -0.17983,0 -0.32659,-0.03927 -0.1447,-0.03927 -0.29559,-0.121957 v 0.967382 h -0.38861 v -3.160528 h 0.38861 v 0.241846 q 0.15503,-0.130225 0.34726,-0.217041 0.19431,-0.08888 0.41342,-0.08888 0.41754,0 0.64905,0.316259 0.23358,0.314193 0.23358,0.874365 z m -0.40101,0.01033 q 0,-0.417545 -0.14263,-0.624251 -0.14262,-0.206705 -0.43821,-0.206705 -0.16743,0 -0.33693,0.07235 -0.1695,0.07235 -0.32453,0.190169 v 1.308446 q 0.16536,0.07441 0.28319,0.101286 0.11989,0.02687 0.27078,0.02687 0.32453,0 0.50643,-0.219108 0.1819,-0.219107 0.1819,-0.649055 z"
         style="fill:#ffffff;stroke:none"
         id="path295" />
      <path
         d="m 121.82971,61.019291 -1.34772,3.160528 h -0.41548 l 0.42995,-0.963248 -0.91984,-2.19728 h 0.42168 l 0.709,1.711522 0.7152,-1.711522 z"
         style="fill:#ffffff;stroke:none"
         id="path297" />
      <path
         d="m 124.26883,62.174775 q 0,0.564306 -0.28938,0.890901 -0.28939,0.326594 -0.77515,0.326594 -0.48989,0 -0.77928,-0.326594 -0.28732,-0.326595 -0.28732,-0.890901 0,-0.564306 0.28732,-0.890901 0.28939,-0.328662 0.77928,-0.328662 0.48576,0 0.77515,0.328662 0.28938,0.326595 0.28938,0.890901 z m -0.401,0 q 0,-0.448551 -0.1757,-0.665592 -0.1757,-0.219108 -0.48783,-0.219108 -0.31626,0 -0.49196,0.219108 -0.17363,0.217041 -0.17363,0.665592 0,0.434081 0.1757,0.65939 0.1757,0.223242 0.48989,0.223242 0.31006,0 0.48576,-0.221174 0.17777,-0.223242 0.17777,-0.661458 z"
         style="fill:#ffffff;stroke:none"
         id="path299" />
      <path
         d="m 126.78444,63.328192 h -0.38861 v -0.256315 q -0.19637,0.155029 -0.3762,0.237711 -0.17983,0.08268 -0.39687,0.08268 -0.36381,0 -0.56638,-0.221174 -0.20257,-0.223242 -0.20257,-0.65319 v -1.498615 h 0.38861 v 1.314647 q 0,0.1757 0.0165,0.30179 0.0165,0.124023 0.0703,0.212907 0.0558,0.09095 0.1447,0.132291 0.0889,0.04134 0.25838,0.04134 0.15089,0 0.32866,-0.07855 0.17984,-0.07855 0.33486,-0.200504 v -1.723924 h 0.38861 z"
         style="fill:#ffffff;stroke:none"
         id="path301" />
      <path
         d="m 128.98999,61.443037 h -0.0207 q -0.0868,-0.02067 -0.1695,-0.02894 -0.0806,-0.01034 -0.19224,-0.01034 -0.17983,0 -0.34726,0.08062 -0.16743,0.07855 -0.32246,0.204639 v 1.639175 h -0.38861 v -2.308901 h 0.38861 v 0.341064 q 0.23151,-0.186035 0.40721,-0.262516 0.17776,-0.07855 0.36173,-0.07855 0.10129,0 0.14676,0.0062 0.0455,0.0041 0.13643,0.0186 z"
         style="fill:#ffffff;stroke:none"
         id="path303" />
      <path
         d="m 113.50154,65.924414 h -0.43821 v -0.403076 h 0.43821 z m -0.0248,2.69544 h -0.38861 v -2.308901 h 0.38861 z"
         style="fill:#ffffff;stroke:none"
         id="path305" />
      <path
         d="m 116.17631,68.619854 h -0.3886 v -1.314647 q 0,-0.159164 -0.0186,-0.297656 -0.0186,-0.14056 -0.0682,-0.219108 -0.0517,-0.08682 -0.14883,-0.128158 -0.0971,-0.04341 -0.25218,-0.04341 -0.15916,0 -0.3328,0.07855 -0.17363,0.07855 -0.33279,0.200505 v 1.723924 h -0.38861 v -2.308901 h 0.38861 v 0.256315 q 0.1819,-0.150895 0.3762,-0.235645 0.19431,-0.08475 0.39894,-0.08475 0.37414,0 0.57051,0.225309 0.19637,0.225309 0.19637,0.649056 z"
         style="fill:#ffffff;stroke:none"
         id="path307" />
      <path
         d="m 118.12348,68.599183 q -0.10956,0.02894 -0.23978,0.04754 -0.12816,0.0186 -0.22944,0.0186 -0.35347,0 -0.53744,-0.190169 -0.18397,-0.190169 -0.18397,-0.609781 v -1.227831 h -0.26251 v -0.326595 h 0.26251 v -0.663525 h 0.38861 v 0.663525 h 0.80202 v 0.326595 h -0.80202 v 1.052131 q 0,0.181901 0.008,0.285254 0.008,0.101285 0.0579,0.190169 0.0455,0.08268 0.12402,0.121956 0.0806,0.03721 0.24391,0.03721 0.0951,0 0.19844,-0.02687 0.10335,-0.02894 0.14883,-0.04754 h 0.0207 z"
         style="fill:#ffffff;stroke:none"
         id="path309" />
      <path
         d="m 120.5254,67.505711 h -1.70119 q 0,0.212907 0.0641,0.37207 0.0641,0.157096 0.1757,0.258382 0.10749,0.09922 0.25425,0.148828 0.14882,0.04961 0.32659,0.04961 0.23565,0 0.47336,-0.09302 0.23978,-0.09509 0.34106,-0.186035 h 0.0207 v 0.423746 q -0.19637,0.08268 -0.40101,0.138493 -0.20464,0.05581 -0.42994,0.05581 -0.57465,0 -0.89711,-0.310058 -0.32246,-0.312125 -0.32246,-0.8847 0,-0.566373 0.30799,-0.899169 0.31006,-0.332796 0.81442,-0.332796 0.46716,0 0.71934,0.272852 0.25425,0.272851 0.25425,0.775145 z m -0.37827,-0.297656 q -0.002,-0.305924 -0.15503,-0.473356 -0.1509,-0.167431 -0.46096,-0.167431 -0.31212,0 -0.49816,0.183968 -0.18397,0.183968 -0.20877,0.456819 z"
         style="fill:#ffffff;stroke:none"
         id="path311" />
      <path
         d="m 122.98726,68.357338 q 0,0.587044 -0.26665,0.861962 -0.26665,0.274918 -0.82062,0.274918 -0.18397,0 -0.35967,-0.02687 -0.17363,-0.02481 -0.34313,-0.07235 v -0.396875 h 0.0207 q 0.0951,0.03721 0.30179,0.09095 0.20671,0.05581 0.41341,0.05581 0.19844,0 0.32866,-0.04754 0.13023,-0.04754 0.20257,-0.132292 0.0724,-0.08061 0.10336,-0.194303 0.031,-0.113688 0.031,-0.254248 v -0.210839 q -0.1757,0.140559 -0.33693,0.210839 -0.15916,0.06821 -0.40721,0.06821 -0.41341,0 -0.65732,-0.297656 -0.24185,-0.299723 -0.24185,-0.843359 0,-0.297656 0.0827,-0.512629 0.0847,-0.217041 0.22944,-0.374137 0.13436,-0.146761 0.32659,-0.227377 0.19224,-0.08268 0.38241,-0.08268 0.2005,0 0.33486,0.04134 0.13643,0.03927 0.28732,0.121957 l 0.0248,-0.09922 h 0.3638 z m -0.38861,-0.37207 v -1.258837 q -0.15503,-0.07028 -0.28938,-0.09922 -0.1323,-0.031 -0.26459,-0.031 -0.32039,0 -0.50436,0.214973 -0.18397,0.214974 -0.18397,0.624251 0,0.388607 0.13643,0.589111 0.13642,0.200504 0.45268,0.200504 0.1695,0 0.339,-0.06408 0.17157,-0.06615 0.31419,-0.1757 z"
         style="fill:#ffffff;stroke:none"
         id="path313" />
      <path
         d="m 125.19281,66.734699 h -0.0207 q -0.0868,-0.02067 -0.1695,-0.02894 -0.0806,-0.01034 -0.19224,-0.01034 -0.17983,0 -0.34726,0.08061 -0.16743,0.07855 -0.32246,0.204639 v 1.639175 h -0.38861 v -2.308901 h 0.38861 v 0.341064 q 0.23151,-0.186035 0.40721,-0.262516 0.17776,-0.07855 0.36173,-0.07855 0.10129,0 0.14676,0.0062 0.0455,0.0041 0.13643,0.0186 z"
         style="fill:#ffffff;stroke:none"
         id="path315" />
      <path
         d="m 127.27847,68.619854 h -0.38654 v -0.24598 q -0.0517,0.03514 -0.14056,0.09922 -0.0868,0.06201 -0.1695,0.09922 -0.0971,0.04754 -0.22324,0.07855 -0.12609,0.03307 -0.29559,0.03307 -0.31213,0 -0.52917,-0.206706 -0.21704,-0.206705 -0.21704,-0.527099 0,-0.262516 0.11162,-0.423746 0.11369,-0.163298 0.32246,-0.256315 0.21084,-0.09302 0.50643,-0.126091 0.29559,-0.03307 0.63459,-0.04961 v -0.05994 q 0,-0.132291 -0.0475,-0.219108 -0.0455,-0.08682 -0.1323,-0.136425 -0.0827,-0.04754 -0.19843,-0.06408 -0.11576,-0.01654 -0.24185,-0.01654 -0.15296,0 -0.34106,0.04134 -0.1881,0.03927 -0.38861,0.115755 h -0.0207 v -0.394808 q 0.11369,-0.03101 0.32866,-0.06821 0.21498,-0.03721 0.42375,-0.03721 0.24391,0 0.42375,0.04134 0.1819,0.03927 0.31419,0.136425 0.13022,0.09509 0.19843,0.24598 0.0682,0.150895 0.0682,0.374137 z m -0.38654,-0.56844 v -0.642855 q -0.17777,0.01034 -0.41961,0.03101 -0.23978,0.02067 -0.38034,0.05994 -0.16743,0.04754 -0.27079,0.148828 -0.10335,0.09922 -0.10335,0.274918 0,0.198438 0.11989,0.299723 0.11989,0.09922 0.36587,0.09922 0.20464,0 0.37414,-0.07855 0.16949,-0.08062 0.31419,-0.192236 z"
         style="fill:#ffffff;stroke:none"
         id="path317" />
      <path
         d="m 129.22563,68.599183 q -0.10955,0.02894 -0.23978,0.04754 -0.12815,0.0186 -0.22944,0.0186 -0.35346,0 -0.53743,-0.190169 -0.18397,-0.190169 -0.18397,-0.609781 v -1.227831 h -0.26252 v -0.326595 h 0.26252 v -0.663525 h 0.38861 v 0.663525 h 0.80201 v 0.326595 h -0.80201 v 1.052131 q 0,0.181901 0.008,0.285254 0.008,0.101285 0.0579,0.190169 0.0455,0.08268 0.12402,0.121956 0.0806,0.03721 0.24392,0.03721 0.0951,0 0.19843,-0.02687 0.10336,-0.02894 0.14883,-0.04754 h 0.0207 z"
         style="fill:#ffffff;stroke:none"
         id="path319" />
      <path
         d="m 130.1124,65.924414 h -0.43821 v -0.403076 h 0.43821 z m -0.0248,2.69544 h -0.38861 v -2.308901 h 0.38861 z"
         style="fill:#ffffff;stroke:none"
         id="path321" />
      <path
         d="m 132.82438,67.466437 q 0,0.564306 -0.28939,0.890901 -0.28939,0.326595 -0.77515,0.326595 -0.48989,0 -0.77928,-0.326595 -0.28732,-0.326595 -0.28732,-0.890901 0,-0.564306 0.28732,-0.890901 0.28939,-0.328662 0.77928,-0.328662 0.48576,0 0.77515,0.328662 0.28939,0.326595 0.28939,0.890901 z m -0.40101,0 q 0,-0.448551 -0.1757,-0.665592 -0.1757,-0.219108 -0.48783,-0.219108 -0.31626,0 -0.49196,0.219108 -0.17363,0.217041 -0.17363,0.665592 0,0.434082 0.1757,0.659391 0.1757,0.223242 0.48989,0.223242 0.31006,0 0.48576,-0.221175 0.17777,-0.223242 0.17777,-0.661458 z"
         style="fill:#ffffff;stroke:none"
         id="path323" />
      <path
         d="m 135.35652,68.619854 h -0.38861 v -1.314647 q 0,-0.159164 -0.0186,-0.297656 -0.0186,-0.14056 -0.0682,-0.219108 -0.0517,-0.08682 -0.14883,-0.128158 -0.0971,-0.04341 -0.25218,-0.04341 -0.15916,0 -0.3328,0.07855 -0.17363,0.07855 -0.33279,0.200505 v 1.723924 h -0.38861 v -2.308901 h 0.38861 v 0.256315 q 0.1819,-0.150895 0.3762,-0.235645 0.1943,-0.08475 0.39894,-0.08475 0.37414,0 0.57051,0.225309 0.19637,0.225309 0.19637,0.649056 z"
         style="fill:#ffffff;stroke:none"
         id="path325" />
    </g>
    <path
       id="rect111-9-7-8"
       style="fill:#72b790;fill-opacity:1;stroke:#72b790;stroke-width:0.264583;stroke-opacity:1"
       d="m 143.29455,49.112676 h 42.71405 l 11.64166,12.736578 -11.64166,12.62489 h -42.71405 l 11.64167,-12.73612 z"
       sodipodi:nodetypes="ccscccc" />
    <g
       aria-label="certify
solution"
       id="text7656-9-9-7"
       style="font-size:4.23333px;font-family:Roboto;-inkscape-font-specification:'Roboto, Normal';text-align:center;text-anchor:middle;fill:#72b790;stroke:#72b790;stroke-width:0.264583">
      <path
         d="m 165.90196,60.589349 q -0.19431,0.09302 -0.37001,0.144694 -0.17363,0.05168 -0.37,0.05168 -0.25011,0 -0.45889,-0.07235 -0.20877,-0.07441 -0.3576,-0.223242 -0.15089,-0.148828 -0.23357,-0.376205 -0.0827,-0.227376 -0.0827,-0.531233 0,-0.566373 0.31006,-0.888834 0.31213,-0.32246 0.82269,-0.32246 0.19844,0 0.38861,0.05581 0.19223,0.05581 0.3514,0.136426 v 0.432014 h -0.0207 q -0.17777,-0.138492 -0.36794,-0.212906 -0.1881,-0.07441 -0.36794,-0.07441 -0.33073,0 -0.52296,0.223242 -0.19017,0.221175 -0.19017,0.651122 0,0.417545 0.18603,0.642854 0.18811,0.223242 0.5271,0.223242 0.11783,0 0.23978,-0.03101 0.12196,-0.03101 0.21911,-0.08062 0.0848,-0.04341 0.15916,-0.09095 0.0744,-0.04961 0.11783,-0.08475 h 0.0207 z"
         style="fill:#ffffff;stroke:none"
         id="path328" />
      <path
         d="m 168.33281,59.6199 h -1.70118 q 0,0.212907 0.0641,0.37207 0.0641,0.157096 0.1757,0.258382 0.10748,0.09922 0.25424,0.148828 0.14883,0.04961 0.3266,0.04961 0.23564,0 0.47335,-0.09302 0.23978,-0.09509 0.34107,-0.186035 h 0.0207 v 0.423746 q -0.19637,0.08268 -0.40101,0.138493 -0.20464,0.05581 -0.42995,0.05581 -0.57464,0 -0.8971,-0.310059 -0.32246,-0.312125 -0.32246,-0.8847 0,-0.566373 0.30799,-0.899169 0.31006,-0.332796 0.81442,-0.332796 0.46715,0 0.71934,0.272852 0.25424,0.272851 0.25424,0.775146 z m -0.37827,-0.297656 q -0.002,-0.305924 -0.15503,-0.473356 -0.15089,-0.167431 -0.46095,-0.167431 -0.31213,0 -0.49816,0.183968 -0.18397,0.183968 -0.20877,0.456819 z"
         style="fill:#ffffff;stroke:none"
         id="path330" />
      <path
         d="m 170.36266,58.848888 h -0.0207 q -0.0868,-0.02067 -0.1695,-0.02894 -0.0806,-0.01034 -0.19223,-0.01034 -0.17984,0 -0.34727,0.08062 -0.16743,0.07855 -0.32246,0.204638 v 1.639175 h -0.38861 v -2.308901 h 0.38861 v 0.341064 q 0.23151,-0.186035 0.40721,-0.262516 0.17777,-0.07855 0.36174,-0.07855 0.10128,0 0.14676,0.0062 0.0455,0.0041 0.13642,0.0186 z"
         style="fill:#ffffff;stroke:none"
         id="path332" />
      <path
         d="m 171.92742,60.713373 q -0.10955,0.02894 -0.23978,0.04754 -0.12815,0.0186 -0.22944,0.0186 -0.35347,0 -0.53743,-0.190169 -0.18397,-0.190169 -0.18397,-0.609781 v -1.227831 h -0.26252 v -0.326595 h 0.26252 v -0.663525 h 0.3886 v 0.663525 h 0.80202 v 0.326595 h -0.80202 v 1.052131 q 0,0.181901 0.008,0.285254 0.008,0.101286 0.0579,0.190169 0.0455,0.08268 0.12402,0.121956 0.0806,0.03721 0.24392,0.03721 0.0951,0 0.19843,-0.02687 0.10336,-0.02894 0.14883,-0.04754 h 0.0207 z"
         style="fill:#ffffff;stroke:none"
         id="path334" />
      <path
         d="m 172.81419,58.038603 h -0.43822 v -0.403076 h 0.43822 z m -0.0248,2.69544 h -0.3886 v -2.308901 h 0.3886 z"
         style="fill:#ffffff;stroke:none"
         id="path336" />
      <path
         d="m 174.80063,57.893909 h -0.0207 q -0.0641,-0.0186 -0.16743,-0.03721 -0.10335,-0.02067 -0.1819,-0.02067 -0.25012,0 -0.3638,0.111621 -0.11163,0.109554 -0.11163,0.398942 v 0.07855 h 0.70074 v 0.326595 h -0.68833 v 1.982306 H 173.579 v -1.982306 h -0.26252 v -0.326595 h 0.26252 v -0.07648 q 0,-0.411344 0.20464,-0.630452 0.20464,-0.221175 0.59118,-0.221175 0.13022,0 0.23357,0.0124 0.10542,0.0124 0.19224,0.02894 z"
         style="fill:#ffffff;stroke:none"
         id="path338" />
      <path
         d="m 177.02272,58.425142 -1.34773,3.160528 h -0.41547 l 0.42994,-0.963248 -0.91984,-2.19728 h 0.42168 l 0.709,1.711522 0.71521,-1.711522 z"
         style="fill:#ffffff;stroke:none"
         id="path340" />
      <path
         d="m 164.16563,65.360113 q 0,0.31626 -0.26252,0.518831 -0.26045,0.202572 -0.71313,0.202572 -0.25632,0 -0.47129,-0.05994 -0.21291,-0.06201 -0.3576,-0.134358 v -0.436149 h 0.0207 q 0.18397,0.138493 0.40928,0.221175 0.22531,0.08061 0.43201,0.08061 0.25632,0 0.40101,-0.08268 0.14469,-0.08268 0.14469,-0.260449 0,-0.136426 -0.0785,-0.206706 -0.0786,-0.07028 -0.30179,-0.119889 -0.0827,-0.0186 -0.21704,-0.04341 -0.1323,-0.02481 -0.24185,-0.05374 -0.30386,-0.08061 -0.43201,-0.235644 -0.12609,-0.157096 -0.12609,-0.384472 0,-0.142627 0.0579,-0.268717 0.0599,-0.126091 0.17984,-0.22531 0.11575,-0.09715 0.29352,-0.152962 0.17983,-0.05788 0.40101,-0.05788 0.2067,0 0.41754,0.05168 0.21291,0.04961 0.35347,0.121956 v 0.415479 h -0.0207 q -0.14883,-0.109554 -0.36174,-0.183968 -0.2129,-0.07648 -0.41754,-0.07648 -0.21291,0 -0.35967,0.08268 -0.14676,0.08061 -0.14676,0.241845 0,0.142627 0.0889,0.214974 0.0868,0.07235 0.28112,0.117822 0.10749,0.02481 0.23978,0.04961 0.13436,0.0248 0.22324,0.04547 0.27079,0.06201 0.41755,0.212907 0.14676,0.152962 0.14676,0.405142 z"
         style="fill:#ffffff;stroke:none"
         id="path342" />
      <path
         d="m 166.6895,64.872288 q 0,0.564307 -0.28938,0.890901 -0.28939,0.326595 -0.77515,0.326595 -0.48989,0 -0.77928,-0.326595 -0.28732,-0.326594 -0.28732,-0.890901 0,-0.564306 0.28732,-0.890901 0.28939,-0.328661 0.77928,-0.328661 0.48576,0 0.77515,0.328661 0.28938,0.326595 0.28938,0.890901 z m -0.401,0 q 0,-0.448551 -0.1757,-0.665592 -0.1757,-0.219107 -0.48783,-0.219107 -0.31626,0 -0.49196,0.219107 -0.17363,0.217041 -0.17363,0.665592 0,0.434082 0.1757,0.659391 0.1757,0.223242 0.48989,0.223242 0.31006,0 0.48576,-0.221175 0.17777,-0.223242 0.17777,-0.661458 z"
         style="fill:#ffffff;stroke:none"
         id="path344" />
      <path
         d="m 167.68376,66.025705 h -0.38861 v -3.216338 h 0.38861 z"
         style="fill:#ffffff;stroke:none"
         id="path346" />
      <path
         d="m 170.3668,66.025705 h -0.38861 V 65.76939 q -0.19637,0.15503 -0.3762,0.237712 -0.17984,0.08268 -0.39688,0.08268 -0.3638,0 -0.56637,-0.221175 -0.20257,-0.223242 -0.20257,-0.653189 v -1.498616 h 0.3886 v 1.314648 q 0,0.175699 0.0165,0.30179 0.0165,0.124023 0.0703,0.212906 0.0558,0.09095 0.14469,0.132292 0.0889,0.04134 0.25838,0.04134 0.1509,0 0.32867,-0.07855 0.17983,-0.07855 0.33486,-0.200504 v -1.723925 h 0.38861 z"
         style="fill:#ffffff;stroke:none"
         id="path348" />
      <path
         d="m 172.3305,66.005035 q -0.10955,0.02894 -0.23978,0.04754 -0.12816,0.0186 -0.22944,0.0186 -0.35347,0 -0.53744,-0.19017 -0.18396,-0.190169 -0.18396,-0.609781 v -1.227831 h -0.26252 v -0.326595 h 0.26252 v -0.663525 h 0.3886 v 0.663525 h 0.80202 v 0.326595 h -0.80202 v 1.052131 q 0,0.181901 0.008,0.285254 0.008,0.101286 0.0579,0.190169 0.0455,0.08268 0.12402,0.121956 0.0806,0.03721 0.24391,0.03721 0.0951,0 0.19844,-0.02687 0.10335,-0.02894 0.14883,-0.04754 h 0.0207 z"
         style="fill:#ffffff;stroke:none"
         id="path350" />
      <path
         d="m 173.21727,63.330265 h -0.43822 v -0.403076 h 0.43822 z m -0.0248,2.69544 h -0.38861 v -2.308901 h 0.38861 z"
         style="fill:#ffffff;stroke:none"
         id="path352" />
      <path
         d="m 175.92924,64.872288 q 0,0.564307 -0.28939,0.890901 -0.28938,0.326595 -0.77514,0.326595 -0.48989,0 -0.77928,-0.326595 -0.28732,-0.326594 -0.28732,-0.890901 0,-0.564306 0.28732,-0.890901 0.28939,-0.328661 0.77928,-0.328661 0.48576,0 0.77514,0.328661 0.28939,0.326595 0.28939,0.890901 z m -0.40101,0 q 0,-0.448551 -0.1757,-0.665592 -0.1757,-0.219107 -0.48782,-0.219107 -0.31626,0 -0.49196,0.219107 -0.17363,0.217041 -0.17363,0.665592 0,0.434082 0.1757,0.659391 0.1757,0.223242 0.48989,0.223242 0.31006,0 0.48576,-0.221175 0.17776,-0.223242 0.17776,-0.661458 z"
         style="fill:#ffffff;stroke:none"
         id="path354" />
      <path
         d="m 178.46139,66.025705 h -0.38861 v -1.314647 q 0,-0.159163 -0.0186,-0.297656 -0.0186,-0.14056 -0.0682,-0.219108 -0.0517,-0.08682 -0.14882,-0.128157 -0.0972,-0.04341 -0.25219,-0.04341 -0.15916,0 -0.33279,0.07855 -0.17363,0.07855 -0.3328,0.200504 v 1.723924 h -0.3886 v -2.308901 h 0.3886 v 0.256315 q 0.1819,-0.150895 0.37621,-0.235644 0.1943,-0.08475 0.39894,-0.08475 0.37414,0 0.57051,0.225309 0.19637,0.225309 0.19637,0.649055 z"
         style="fill:#ffffff;stroke:none"
         id="path356" />
    </g>
  </g>
</svg>
