<?xml version="1.0" encoding="UTF-8" standalone="no"?>
<!-- Created with Inkscape (http://www.inkscape.org/) -->

<svg
   xmlns:dc="http://purl.org/dc/elements/1.1/"
   xmlns:cc="http://creativecommons.org/ns#"
   xmlns:rdf="http://www.w3.org/1999/02/22-rdf-syntax-ns#"
   xmlns:svg="http://www.w3.org/2000/svg"
   xmlns="http://www.w3.org/2000/svg"
   xmlns:sodipodi="http://sodipodi.sourceforge.net/DTD/sodipodi-0.dtd"
   xmlns:inkscape="http://www.inkscape.org/namespaces/inkscape"
   width="416.49826mm"
   height="258.32999mm"
   viewBox="0 0 416.49826 258.32999"
   version="1.1"
   id="svg7710"
   inkscape:version="0.92.5 (2060ec1f9f, 2020-04-08)"
   sodipodi:docname="architecture.svg">
  <defs
     id="defs7704">
    <clipPath
       id="clip0">
      <rect
         id="rect7712"
         height="989"
         width="1367"
         y="-226"
         x="15" />
    </clipPath>
    <clipPath
       id="clip1">
      <rect
         id="rect7715"
         height="675"
         width="675"
         y="88"
         x="385" />
    </clipPath>
    <clipPath
       id="clip2">
      <rect
         id="rect7718"
         height="675"
         width="675"
         y="88"
         x="385" />
    </clipPath>
    <clipPath
       id="clip3">
      <rect
         id="rect7721"
         height="675"
         width="675"
         y="88"
         x="385" />
    </clipPath>
    <clipPath
       id="clip4">
      <rect
         id="rect7724"
         height="675"
         width="186"
         y="75"
         x="1196" />
    </clipPath>
    <clipPath
       id="clip5">
      <rect
         id="rect7727"
         height="675"
         width="186"
         y="75"
         x="1196" />
    </clipPath>
    <clipPath
       id="clip6">
      <rect
         id="rect7730"
         height="675"
         width="679"
         y="75"
         x="1196" />
    </clipPath>
    <clipPath
       id="clip0-7">
      <rect
         id="rect8390"
         height="989"
         width="1576"
         y="-226"
         x="-194" />
    </clipPath>
    <clipPath
       id="clip1-7">
      <rect
         id="rect8393"
         height="675"
         width="675"
         y="88"
         x="385" />
    </clipPath>
    <clipPath
       id="clip2-1">
      <rect
         id="rect8396"
         height="675"
         width="675"
         y="88"
         x="385" />
    </clipPath>
    <clipPath
       id="clip3-4">
      <rect
         id="rect8399"
         height="675"
         width="675"
         y="88"
         x="385" />
    </clipPath>
    <clipPath
       id="clip4-0">
      <rect
         id="rect8402"
         height="675"
         width="186"
         y="75"
         x="1196" />
    </clipPath>
    <clipPath
       id="clip5-4">
      <rect
         id="rect8405"
         height="675"
         width="186"
         y="75"
         x="1196" />
    </clipPath>
    <clipPath
       id="clip6-1">
      <rect
         id="rect8408"
         height="675"
         width="679"
         y="75"
         x="1196" />
    </clipPath>
  </defs>
  <sodipodi:namedview
     id="base"
     pagecolor="#ffffff"
     bordercolor="#666666"
     borderopacity="1.0"
     inkscape:pageopacity="0.0"
     inkscape:pageshadow="2"
     inkscape:zoom="0.35"
     inkscape:cx="175.65475"
     inkscape:cy="933.89693"
     inkscape:document-units="mm"
     inkscape:current-layer="layer1"
     showgrid="false"
     inkscape:window-width="1920"
     inkscape:window-height="1017"
     inkscape:window-x="-8"
     inkscape:window-y="114"
     inkscape:window-maximized="1" />
  <metadata
     id="metadata7707">
    <rdf:RDF>
      <cc:Work
         rdf:about="">
        <dc:format>image/svg+xml</dc:format>
        <dc:type
           rdf:resource="http://purl.org/dc/dcmitype/StillImage" />
        <dc:title></dc:title>
      </cc:Work>
    </rdf:RDF>
  </metadata>
  <g
     inkscape:label="Layer 1"
     inkscape:groupmode="layer"
     id="layer1"
     transform="translate(-59.358014,-137.5969)">
    <g
       id="g8749"
       transform="matrix(0.26458333,0,0,0.26458333,110.20211,195.76114)"
       clip-path="url(#clip0-7)">
      <g
         id="g8423"
         clip-path="url(#clip1-7)">
        <g
           id="g8421"
           clip-path="url(#clip2-1)">
          <g
             id="g8419"
             clip-path="url(#clip3-4)">
            <path
               id="path8413"
               d="m 1011.79,414.328 20.57,20.58 20.58,-20.58 C 1047.06,240.875 907.713,100.936 734.26,95.0557 l 19.991,19.9913 -20.579,20.579 c 150.522,6.468 271.648,127.592 278.118,278.702 z"
               inkscape:connector-curvature="0"
               style="fill:#71b790;fill-opacity:0.4" />
            <path
               id="path8415"
               d="m 412.635,393.749 20.579,20.579 c 5.88,-150.522 127.004,-271.646 278.114,-278.114 l 20.58,-20.579 -20.58,-20.5793 C 538.463,100.936 398.524,240.875 392.644,414.328 Z"
               inkscape:connector-curvature="0"
               style="fill:#71b790;fill-opacity:0.4" />
            <path
               id="path8417"
               d="m 1032.36,457.251 -20.57,-20.579 c -2.36,67.617 -28.815,129.943 -69.974,178.157 L 853.619,459.015 h 19.404 c 48.214,0 87.609,-39.395 87.609,-87.609 0,-48.214 -39.395,-87.609 -87.609,-87.609 H 757.191 c -11.172,0 -20.58,9.408 -20.58,20.579 V 495.47 L 620.78,293.793 c -3.528,-6.468 -10.584,-9.996 -17.64,-9.996 -7.056,0 -14.111,4.116 -17.639,9.996 L 451.442,526.044 c -10.584,-27.635 -16.464,-57.622 -17.64,-88.784 l -20.579,-20.58 -20.579,20.58 c 5.88,173.453 145.231,313.392 318.684,319.272 l -19.991,-19.991 20.579,-20.579 C 610.196,712.434 521.411,655.4 472.609,572.495 L 603.14,346.711 739.551,581.902 c 4.704,8.232 14.112,11.76 22.932,9.408 8.819,-2.352 15.287,-10.584 15.287,-19.991 V 324.368 h 94.665 c 25.871,0 46.45,21.167 46.45,46.45 0,25.283 -21.167,46.45 -46.45,46.45 h -54.682 c -7.056,0 -14.112,4.116 -17.64,9.996 -3.528,6.468 -3.528,14.111 0,20.579 L 911.241,643.64 c -48.214,41.747 -109.952,67.618 -177.569,69.97 l -20.58,20.579 20.58,20.579 c 173.453,-5.88 313.388,-145.231 319.268,-318.684 z"
               inkscape:connector-curvature="0"
               style="fill:#71b790;fill-opacity:0.4" />
          </g>
        </g>
      </g>
      <path
         id="path8425"
         stroke-miterlimit="8"
         d="M 21.5001,-218.5 H 283.5 v 161.1908 c -131,0 -131,61.41665 -261.9999,26.5208 z"
         inkscape:connector-curvature="0"
         style="fill:#d9d9d9;fill-rule:evenodd;stroke:#000000;stroke-width:1.33333004;stroke-miterlimit:8" />
      <text
         id="text8441"
         transform="translate(56.18,-179)"
         font-size="37"
         font-weight="700"
         style="font-weight:700;font-size:37px;font-family:Calibri, Calibri_MSFontService, sans-serif">Applications<tspan
   id="tspan8427"
   y="32"
   x="-25.780001"
   font-size="24"
   font-weight="400"
   style="font-weight:400;font-size:24px">-</tspan>
<tspan
   id="tspan8429"
   y="32"
   x="4.2199998"
   font-size="24"
   font-weight="400"
   style="font-weight:400;font-size:24px">Communication Units</tspan>
<tspan
   id="tspan8431"
   y="61"
   x="-25.780001"
   font-size="24"
   font-weight="400"
   style="font-weight:400;font-size:24px">-</tspan>
<tspan
   id="tspan8433"
   y="61"
   x="4.2199998"
   font-size="24"
   font-weight="400"
   style="font-weight:400;font-size:24px">Telemetry</tspan>
<tspan
   id="tspan8435"
   y="61"
   x="107.08"
   font-size="24"
   font-weight="400"
   style="font-weight:400;font-size:24px">Platforms</tspan>
<tspan
   id="tspan8437"
   y="90"
   x="-25.780001"
   font-size="24"
   font-weight="400"
   style="font-weight:400;font-size:24px">-</tspan>
<tspan
   id="tspan8439"
   y="90"
   x="4.2199998"
   font-size="24"
   font-weight="400"
   style="font-weight:400;font-size:24px">Farming Software</tspan>
</text>
      <path
         id="path8443"
         d="M 46.5001,224.441 C 127.858,244.885 127.858,203.996 209.206,203.996 V 97.7223 H 46.5001 Z M 59.9051,97.7223 V 83.9445 H 221.5 V 190.885 c -6.142,0 -12.294,0.741 -12.294,0.741 V 97.7223 Z m 12.6,-13.7778 V 70.5001 H 235.5 V 177.107 c -7,0 -14,0.556 -14,0.556 V 83.9445 Z"
         inkscape:connector-curvature="0"
         style="fill:#d9d9d9;fill-rule:evenodd" />
      <path
         id="path8445"
         stroke-miterlimit="8"
         d="M 46.5001,97.7223 H 209.206 V 203.996 c -81.348,0 -81.348,40.889 -162.7059,20.445 z m 13.405,0 V 83.9445 H 221.5 V 190.885 c -6.142,0 -12.294,0.741 -12.294,0.741 M 72.5051,83.9445 V 70.5001 H 235.5 V 177.107 c -7,0 -14,0.556 -14,0.556"
         inkscape:connector-curvature="0"
         style="fill:none;fill-rule:evenodd;stroke:#000000;stroke-width:1.33333004;stroke-miterlimit:8" />
      <text
         id="text8449"
         transform="translate(100.837,153)"
         font-size="32"
         font-weight="700"
         style="font-weight:700;font-size:32px;font-family:Calibri, Calibri_MSFontService, sans-serif">App <tspan
   id="tspan8447"
   y="38"
   x="-35.333302"
   font-size="32"
   style="font-size:32px">Instances</tspan>
</text>
      <path
         id="path8451"
         stroke-miterlimit="8"
         d="m 106,52.0001 h 18 V -43 h 36 v 95.0001 h 18 L 142,88 Z"
         inkscape:connector-curvature="0"
         style="fill:#71b790;fill-rule:evenodd;stroke:#000000;stroke-width:4;stroke-miterlimit:8;stroke-dasharray:12, 4" />
      <path
         id="path8453"
         stroke-miterlimit="8"
         d="M 42.5001,326.5 H 198.5 v 104.253 c -78,0 -78,39.722 -155.9999,17.153 z"
         inkscape:connector-curvature="0"
         style="fill:#d9d9d9;fill-rule:evenodd;stroke:#000000;stroke-width:1.33333004;stroke-miterlimit:8" />
      <text
         id="text8457"
         transform="translate(93.1572,370)"
         font-size="32"
         font-weight="700"
         style="font-weight:700;font-size:32px;font-family:Calibri, Calibri_MSFontService, sans-serif">App <tspan
   id="tspan8455"
   y="38"
   x="-28.9133"
   font-size="32"
   style="font-size:32px">Instance</tspan>
</text>
      <rect
         id="rect8459"
         stroke-miterlimit="8"
         height="67"
         width="94"
         y="289.5"
         x="326.5"
         style="fill:#cde4d9;stroke:#2f528f;stroke-width:1.33333004;stroke-miterlimit:8" />
      <text
         id="text8461"
         transform="translate(345.911,316)"
         font-size="24"
         font-weight="400"
         style="font-weight:400;font-size:24px;font-family:Calibri, Calibri_MSFontService, sans-serif">Inbox</text>
      <rect
         id="rect8463"
         stroke-miterlimit="8"
         height="129"
         width="94"
         y="413.5"
         x="469.5"
         style="fill:#cde4d9;stroke:#2f528f;stroke-width:1.33333004;stroke-miterlimit:8" />
      <text
         id="text8465"
         transform="translate(491.914,440)"
         font-size="24"
         font-weight="400"
         style="font-weight:400;font-size:24px;font-family:Calibri, Calibri_MSFontService, sans-serif">Feed</text>
      <path
         id="path8467"
         d="m 481.5,504.667 c 0,-3.406 15.446,-6.167 34.5,-6.167 19.054,0 34.5,2.761 34.5,6.167 v 24.666 c 0,3.406 -15.446,6.167 -34.5,6.167 -19.054,0 -34.5,-2.761 -34.5,-6.167 z"
         inkscape:connector-curvature="0"
         style="fill:#71b790;fill-rule:evenodd" />
      <path
         id="path8469"
         stroke-miterlimit="8"
         d="m 550.5,504.667 c 0,3.405 -15.446,6.166 -34.5,6.166 -19.054,0 -34.5,-2.761 -34.5,-6.166"
         inkscape:connector-curvature="0"
         style="fill:none;fill-rule:evenodd;stroke:#000000;stroke-width:1.33333004;stroke-miterlimit:8" />
      <path
         id="path8471"
         stroke-miterlimit="8"
         d="m 481.5,504.667 c 0,-3.406 15.446,-6.167 34.5,-6.167 19.054,0 34.5,2.761 34.5,6.167 v 24.666 c 0,3.406 -15.446,6.167 -34.5,6.167 -19.054,0 -34.5,-2.761 -34.5,-6.167 z"
         inkscape:connector-curvature="0"
         style="fill:none;fill-rule:evenodd;stroke:#000000;stroke-width:1.33333004;stroke-miterlimit:8" />
      <text
         id="text8473"
         transform="translate(497.831,524)"
         font-size="13"
         font-weight="400"
         style="font-weight:400;font-size:13px;font-family:Calibri, Calibri_MSFontService, sans-serif">MSG n</text>
      <path
         id="path8475"
         d="m 481.5,483.833 c 0,-3.497 15.446,-6.333 34.5,-6.333 19.054,0 34.5,2.836 34.5,6.333 v 25.334 c 0,3.498 -15.446,6.333 -34.5,6.333 -19.054,0 -34.5,-2.835 -34.5,-6.333 z"
         inkscape:connector-curvature="0"
         style="fill:#71b790;fill-rule:evenodd" />
      <path
         id="path8477"
         stroke-miterlimit="8"
         d="m 550.5,483.833 c 0,3.498 -15.446,6.334 -34.5,6.334 -19.054,0 -34.5,-2.836 -34.5,-6.334"
         inkscape:connector-curvature="0"
         style="fill:none;fill-rule:evenodd;stroke:#000000;stroke-width:1.33333004;stroke-miterlimit:8" />
      <path
         id="path8479"
         stroke-miterlimit="8"
         d="m 481.5,483.833 c 0,-3.497 15.446,-6.333 34.5,-6.333 19.054,0 34.5,2.836 34.5,6.333 v 25.334 c 0,3.498 -15.446,6.333 -34.5,6.333 -19.054,0 -34.5,-2.835 -34.5,-6.333 z"
         inkscape:connector-curvature="0"
         style="fill:none;fill-rule:evenodd;stroke:#000000;stroke-width:1.33333004;stroke-miterlimit:8" />
      <text
         id="text8481"
         transform="translate(495.248,503)"
         font-size="13"
         font-weight="400"
         style="font-weight:400;font-size:13px;font-family:Calibri, Calibri_MSFontService, sans-serif">MSG …</text>
      <path
         id="path8483"
         d="m 481.5,459.833 c 0,-3.497 15.446,-6.333 34.5,-6.333 19.054,0 34.5,2.836 34.5,6.333 v 25.334 c 0,3.498 -15.446,6.333 -34.5,6.333 -19.054,0 -34.5,-2.835 -34.5,-6.333 z"
         inkscape:connector-curvature="0"
         style="fill:#71b790;fill-rule:evenodd" />
      <path
         id="path8485"
         stroke-miterlimit="8"
         d="m 550.5,459.833 c 0,3.498 -15.446,6.334 -34.5,6.334 -19.054,0 -34.5,-2.836 -34.5,-6.334"
         inkscape:connector-curvature="0"
         style="fill:none;fill-rule:evenodd;stroke:#000000;stroke-width:1.33333004;stroke-miterlimit:8" />
      <path
         id="path8487"
         stroke-miterlimit="8"
         d="m 481.5,459.833 c 0,-3.497 15.446,-6.333 34.5,-6.333 19.054,0 34.5,2.836 34.5,6.333 v 25.334 c 0,3.498 -15.446,6.333 -34.5,6.333 -19.054,0 -34.5,-2.835 -34.5,-6.333 z"
         inkscape:connector-curvature="0"
         style="fill:none;fill-rule:evenodd;stroke:#000000;stroke-width:1.33333004;stroke-miterlimit:8" />
      <text
         id="text8489"
         transform="translate(497.915,479)"
         font-size="13"
         font-weight="400"
         style="font-weight:400;font-size:13px;font-family:Calibri, Calibri_MSFontService, sans-serif">MSG 2</text>
      <rect
         id="rect8491"
         stroke-miterlimit="8"
         height="129"
         width="121"
         y="413.5"
         x="307.5"
         style="fill:#a6a6a6;stroke:#000000;stroke-width:1.33333004;stroke-miterlimit:8" />
      <text
         id="text8493"
         transform="translate(331.728,440)"
         font-size="24"
         font-weight="400"
         style="font-weight:400;font-size:24px;font-family:Calibri, Calibri_MSFontService, sans-serif">OutBox</text>
      <path
         id="path8495"
         d="m 325.5,492.833 c 0,-3.497 15.446,-6.333 34.5,-6.333 19.054,0 34.5,2.836 34.5,6.333 v 25.334 c 0,3.498 -15.446,6.333 -34.5,6.333 -19.054,0 -34.5,-2.835 -34.5,-6.333 z"
         inkscape:connector-curvature="0"
         style="fill:#71b790;fill-rule:evenodd" />
      <path
         id="path8497"
         stroke-miterlimit="8"
         d="m 394.5,492.833 c 0,3.498 -15.446,6.334 -34.5,6.334 -19.054,0 -34.5,-2.836 -34.5,-6.334"
         inkscape:connector-curvature="0"
         style="fill:none;fill-rule:evenodd;stroke:#000000;stroke-width:1.33333004;stroke-miterlimit:8" />
      <path
         id="path8499"
         stroke-miterlimit="8"
         d="m 325.5,492.833 c 0,-3.497 15.446,-6.333 34.5,-6.333 19.054,0 34.5,2.836 34.5,6.333 v 25.334 c 0,3.498 -15.446,6.333 -34.5,6.333 -19.054,0 -34.5,-2.835 -34.5,-6.333 z"
         inkscape:connector-curvature="0"
         style="fill:none;fill-rule:evenodd;stroke:#000000;stroke-width:1.33333004;stroke-miterlimit:8" />
      <text
         id="text8501"
         transform="translate(341.886,512)"
         font-size="13"
         font-weight="400"
         style="font-weight:400;font-size:13px;font-family:Calibri, Calibri_MSFontService, sans-serif">MSG 2</text>
      <path
         id="path8503"
         transform="matrix(1,0,0,-1,200.5,370.212)"
         d="M 0.925071,-2.50107 114.713,39.5856 112.862,44.5877 -0.925071,2.50107 Z M 114.062,33.6584 126.293,46.712 108.511,48.6648 Z"
         inkscape:connector-curvature="0" />
      <path
         id="path8505"
         transform="matrix(-1,0,0,1,468.835,478.5)"
         d="M 6.94097e-6,-2.66667 27.0018,-2.6666 V 2.66674 L -6.94097e-6,2.66667 Z M 24.3351,-7.99994 l 16,8.000044987 -16,7.999955013 z"
         inkscape:connector-curvature="0"
         style="fill:#a6a6a6" />
      <path
         id="path8507"
         d="m 324.419,507.524 -118.028,-91.736 3.273,-4.211 118.028,91.736 z M 205.224,421.635 197.5,405.5 l 17.542,3.502 z"
         inkscape:connector-curvature="0" />
      <path
         id="path8509"
         d="m 198.311,375.96 5.081,1.622 -1.623,5.081 -5.08,-1.623 z m 10.161,3.245 5.081,1.623 -1.623,5.08 -5.08,-1.622 z m 10.161,3.245 5.081,1.623 -1.623,5.08 -5.08,-1.622 z m 10.161,3.246 5.081,1.622 -1.623,5.081 -5.08,-1.623 z m 10.161,3.245 5.081,1.622 -1.623,5.081 -5.08,-1.623 z m 10.161,3.245 5.081,1.623 -1.623,5.08 -5.08,-1.622 z m 10.161,3.245 5.081,1.623 -1.623,5.08 -5.08,-1.622 z m 10.161,3.245 5.081,1.623 -1.623,5.081 -5.08,-1.623 z m 10.161,3.246 5.081,1.622 -1.623,5.081 -5.08,-1.623 z m 10.161,3.245 5.081,1.623 -1.623,5.08 -5.08,-1.623 z m 5.255,-3.921 12.807,12.489 -17.675,2.753 z"
         inkscape:connector-curvature="0"
         style="fill:#71b790" />
      <rect
         id="rect8511"
         stroke-miterlimit="8"
         height="481"
         width="293"
         y="234.5"
         x="282.5"
         style="fill:none;stroke:#71b790;stroke-width:2.66667008;stroke-miterlimit:8" />
      <text
         id="text8513"
         transform="translate(368.489,268)"
         font-size="32"
         font-weight="700"
         style="font-weight:700;font-size:32px;font-family:Calibri, Calibri_MSFontService, sans-serif">Endpoint</text>
      <rect
         id="rect8515"
         stroke-miterlimit="8"
         height="129"
         width="157"
         y="573.5"
         x="413.5"
         style="fill:#d9d9d9;stroke:#7f7f7f;stroke-width:1.33333004;stroke-miterlimit:8;stroke-dasharray:5.33333, 4" />
      <text
         id="text8517"
         transform="translate(426.063,600)"
         font-size="24"
         font-weight="400"
         style="font-weight:400;font-size:24px;font-family:Calibri, Calibri_MSFontService, sans-serif">Subscriptions</text>
      <path
         id="path8519"
         d="m 428.092,611.635 h 81.067 v 25.6 h -81.067 z"
         inkscape:connector-curvature="0"
         style="fill-rule:evenodd" />
      <path
         id="path8521"
         d="m 428.092,637.235 h 81.067 v 25.6 h -81.067 z"
         inkscape:connector-curvature="0"
         style="fill:#cbcbcb;fill-rule:evenodd" />
      <path
         id="path8523"
         d="m 428.092,662.835 h 81.067 v 25.6 h -81.067 z"
         inkscape:connector-curvature="0"
         style="fill:#e7e7e7;fill-rule:evenodd" />
      <path
         id="path8525"
         stroke-miterlimit="10"
         d="m 427.425,637.235 h 82.4"
         inkscape:connector-curvature="0"
         style="fill:none;fill-rule:evenodd;stroke:#ffffff;stroke-width:4;stroke-linejoin:round;stroke-miterlimit:10" />
      <path
         id="path8527"
         stroke-miterlimit="10"
         d="m 427.425,662.835 h 82.4"
         inkscape:connector-curvature="0"
         style="fill:none;fill-rule:evenodd;stroke:#ffffff;stroke-width:1.33333004;stroke-linejoin:round;stroke-miterlimit:10" />
      <path
         id="path8529"
         stroke-miterlimit="10"
         d="m 428.092,610.969 v 78.133"
         inkscape:connector-curvature="0"
         style="fill:none;fill-rule:evenodd;stroke:#ffffff;stroke-width:1.33333004;stroke-linejoin:round;stroke-miterlimit:10" />
      <path
         id="path8531"
         stroke-miterlimit="10"
         d="m 509.159,610.969 v 78.133"
         inkscape:connector-curvature="0"
         style="fill:none;fill-rule:evenodd;stroke:#ffffff;stroke-width:1.33333004;stroke-linejoin:round;stroke-miterlimit:10" />
      <path
         id="path8533"
         stroke-miterlimit="10"
         d="m 427.425,611.635 h 82.4"
         inkscape:connector-curvature="0"
         style="fill:none;fill-rule:evenodd;stroke:#ffffff;stroke-width:1.33333004;stroke-linejoin:round;stroke-miterlimit:10" />
      <path
         id="path8535"
         stroke-miterlimit="10"
         d="m 427.425,688.435 h 82.4"
         inkscape:connector-curvature="0"
         style="fill:none;fill-rule:evenodd;stroke:#ffffff;stroke-width:1.33333004;stroke-linejoin:round;stroke-miterlimit:10" />
      <text
         id="text8541"
         transform="translate(456.125,628)"
         font-size="13"
         font-weight="700"
         style="font-weight:700;font-size:13px;font-family:Calibri, Calibri_MSFontService, sans-serif;fill:#ffffff">TMT<tspan
   id="tspan8537"
   y="26"
   x="-3.08337"
   font-size="13"
   font-weight="400"
   style="font-weight:400;font-size:13px;fill:#000000">TMT1</tspan>
<tspan
   id="tspan8539"
   y="52"
   x="-3.08337"
   font-size="13"
   font-weight="400"
   style="font-weight:400;font-size:13px;fill:#000000">TMT2</tspan>
</text>
      <path
         id="path8543"
         stroke-miterlimit="8"
         d="m 83,285 h 18 v -49 h 36 v 49 h 18 l -36,36 z"
         inkscape:connector-curvature="0"
         style="fill:#71b790;fill-rule:evenodd;stroke:#000000;stroke-width:4;stroke-miterlimit:8;stroke-dasharray:12, 4" />
      <rect
         id="rect8545"
         stroke-miterlimit="8"
         height="176"
         width="850"
         y="-218.5"
         x="350.5"
         style="fill:#cde4d9;stroke:#71b790;stroke-width:2.66667008;stroke-miterlimit:8" />
      <text
         id="text8547"
         transform="translate(583.63,-179)"
         font-size="37"
         font-weight="700"
         style="font-weight:700;font-size:37px;font-family:Calibri, Calibri_MSFontService, sans-serif">agrirouter User Interface</text>
      <path
         id="path8549"
         stroke-miterlimit="8"
         d="m 407.797,193.676 10.149,1.248 35.348,-287.5161 20.299,2.4956 -35.347,287.5155 10.149,1.248 -22.794,17.803 z"
         inkscape:connector-curvature="0"
         style="fill:#d9d9d9;fill-rule:evenodd;stroke:#000000;stroke-width:1.33333004;stroke-miterlimit:8" />
      <rect
         id="rect8551"
         height="79"
         width="217"
         y="-133"
         x="378"
         style="fill:#d9d9d9" />
      <text
         id="text8555"
         transform="translate(427.827,-102)"
         font-size="32"
         font-weight="400"
         style="font-weight:400;font-size:32px;font-family:Calibri, Calibri_MSFontService, sans-serif">Endpoint <tspan
   id="tspan8553"
   y="38"
   x="-27.4533"
   font-size="32"
   style="font-size:32px">management</tspan>
</text>
      <path
         id="path8557"
         stroke-miterlimit="8"
         d="M 721.5,16.5002 H 735 V -83.5001 h 27 V 16.5002 h 13.5 l -27,26.9999 z"
         inkscape:connector-curvature="0"
         style="fill:#71b790;fill-rule:evenodd;stroke:#000000;stroke-width:1.33333004;stroke-miterlimit:8" />
      <rect
         id="rect8559"
         height="79"
         width="217"
         y="-133"
         x="641"
         style="fill:#71b790" />
      <text
         id="text8563"
         transform="translate(699.755,-102)"
         font-size="32"
         font-weight="400"
         style="font-weight:400;font-size:32px;font-family:Calibri, Calibri_MSFontService, sans-serif">Routing<tspan
   id="tspan8561"
   y="38"
   x="-36.126598"
   font-size="32"
   style="font-size:32px">management</tspan>
</text>
      <path
         id="path8565"
         d="m 654.034,90.7786 h 71.599 v 28.8004 h -71.599 z"
         inkscape:connector-curvature="0"
         style="fill:#000000;fill-opacity:0.47843101;fill-rule:evenodd" />
      <path
         id="path8567"
         d="m 725.633,90.7786 h 71.599 v 28.8004 h -71.599 z"
         inkscape:connector-curvature="0"
         style="fill:#000000;fill-opacity:0.47843101;fill-rule:evenodd" />
      <path
         id="path8569"
         d="m 797.232,90.7786 h 71.599 v 28.8004 h -71.599 z"
         inkscape:connector-curvature="0"
         style="fill:#000000;fill-opacity:0.47843101;fill-rule:evenodd" />
      <path
         id="path8571"
         d="m 654.034,119.579 h 71.599 v 28.8 h -71.599 z"
         inkscape:connector-curvature="0"
         style="fill:#cbcbcb;fill-opacity:0.47843101;fill-rule:evenodd" />
      <path
         id="path8573"
         d="m 725.633,119.579 h 71.599 v 28.8 h -71.599 z"
         inkscape:connector-curvature="0"
         style="fill:#cbcbcb;fill-opacity:0.47843101;fill-rule:evenodd" />
      <path
         id="path8575"
         d="m 797.232,119.579 h 71.599 v 28.8 h -71.599 z"
         inkscape:connector-curvature="0"
         style="fill:#cbcbcb;fill-opacity:0.47843101;fill-rule:evenodd" />
      <path
         id="path8577"
         d="m 654.034,148.379 h 71.599 v 28.8 h -71.599 z"
         inkscape:connector-curvature="0"
         style="fill:#e7e7e7;fill-opacity:0.47843101;fill-rule:evenodd" />
      <path
         id="path8579"
         d="m 725.633,148.379 h 71.599 v 28.8 h -71.599 z"
         inkscape:connector-curvature="0"
         style="fill:#e7e7e7;fill-opacity:0.47843101;fill-rule:evenodd" />
      <path
         id="path8581"
         d="m 797.232,148.379 h 71.599 v 28.8 h -71.599 z"
         inkscape:connector-curvature="0"
         style="fill:#e7e7e7;fill-opacity:0.47843101;fill-rule:evenodd" />
      <path
         id="path8583"
         d="m 654.034,177.179 h 71.599 v 28.8 h -71.599 z"
         inkscape:connector-curvature="0"
         style="fill:#cbcbcb;fill-opacity:0.47843101;fill-rule:evenodd" />
      <path
         id="path8585"
         d="m 725.633,177.179 h 71.599 v 28.8 h -71.599 z"
         inkscape:connector-curvature="0"
         style="fill:#cbcbcb;fill-opacity:0.47843101;fill-rule:evenodd" />
      <path
         id="path8587"
         d="m 797.232,177.179 h 71.599 v 28.8 h -71.599 z"
         inkscape:connector-curvature="0"
         style="fill:#cbcbcb;fill-opacity:0.47843101;fill-rule:evenodd" />
      <path
         id="path8589"
         d="m 654.034,205.979 h 71.599 v 28.8 h -71.599 z"
         inkscape:connector-curvature="0"
         style="fill:#cbcbcb;fill-opacity:0.47843101;fill-rule:evenodd" />
      <path
         id="path8591"
         d="m 725.633,205.979 h 71.599 v 28.8 h -71.599 z"
         inkscape:connector-curvature="0"
         style="fill:#cbcbcb;fill-opacity:0.47843101;fill-rule:evenodd" />
      <path
         id="path8593"
         d="m 797.232,205.979 h 71.599 v 28.8 h -71.599 z"
         inkscape:connector-curvature="0"
         style="fill:#cbcbcb;fill-opacity:0.47843101;fill-rule:evenodd" />
      <path
         id="path8595"
         stroke-miterlimit="10"
         d="M 725.633,90.1119 V 235.445"
         inkscape:connector-curvature="0"
         style="fill:none;fill-rule:evenodd;stroke:#ffffff;stroke-width:1.33333004;stroke-linejoin:round;stroke-miterlimit:10" />
      <path
         id="path8597"
         stroke-miterlimit="10"
         d="M 797.232,90.1119 V 235.445"
         inkscape:connector-curvature="0"
         style="fill:none;fill-rule:evenodd;stroke:#ffffff;stroke-width:1.33333004;stroke-linejoin:round;stroke-miterlimit:10" />
      <path
         id="path8599"
         stroke-miterlimit="10"
         d="M 653.367,119.579 H 869.498"
         inkscape:connector-curvature="0"
         style="fill:none;fill-rule:evenodd;stroke:#ffffff;stroke-width:4;stroke-linejoin:round;stroke-miterlimit:10" />
      <path
         id="path8601"
         stroke-miterlimit="10"
         d="M 653.367,148.379 H 869.498"
         inkscape:connector-curvature="0"
         style="fill:none;fill-rule:evenodd;stroke:#ffffff;stroke-width:1.33333004;stroke-linejoin:round;stroke-miterlimit:10" />
      <path
         id="path8603"
         stroke-miterlimit="10"
         d="M 653.367,177.179 H 869.498"
         inkscape:connector-curvature="0"
         style="fill:none;fill-rule:evenodd;stroke:#ffffff;stroke-width:1.33333004;stroke-linejoin:round;stroke-miterlimit:10" />
      <path
         id="path8605"
         stroke-miterlimit="10"
         d="M 653.367,205.979 H 869.498"
         inkscape:connector-curvature="0"
         style="fill:none;fill-rule:evenodd;stroke:#ffffff;stroke-width:1.33333004;stroke-linejoin:round;stroke-miterlimit:10" />
      <path
         id="path8607"
         stroke-miterlimit="10"
         d="M 654.034,90.1119 V 235.445"
         inkscape:connector-curvature="0"
         style="fill:none;fill-rule:evenodd;stroke:#ffffff;stroke-width:1.33333004;stroke-linejoin:round;stroke-miterlimit:10" />
      <path
         id="path8609"
         stroke-miterlimit="10"
         d="M 868.831,90.1119 V 235.445"
         inkscape:connector-curvature="0"
         style="fill:none;fill-rule:evenodd;stroke:#ffffff;stroke-width:1.33333004;stroke-linejoin:round;stroke-miterlimit:10" />
      <path
         id="path8611"
         stroke-miterlimit="10"
         d="M 653.367,90.7786 H 869.498"
         inkscape:connector-curvature="0"
         style="fill:none;fill-rule:evenodd;stroke:#ffffff;stroke-width:1.33333004;stroke-linejoin:round;stroke-miterlimit:10" />
      <path
         id="path8613"
         stroke-miterlimit="10"
         d="M 653.367,234.779 H 869.498"
         inkscape:connector-curvature="0"
         style="fill:none;fill-rule:evenodd;stroke:#ffffff;stroke-width:1.33333004;stroke-linejoin:round;stroke-miterlimit:10" />
      <text
         id="text8647"
         transform="translate(663.633,111)"
         font-size="16"
         font-weight="700"
         style="font-weight:700;font-size:16px;font-family:Calibri, Calibri_MSFontService, sans-serif;fill:#ffffff">FROM<tspan
   id="tspan8615"
   y="0"
   x="71.599197"
   font-size="16"
   style="font-size:16px">TMT</tspan>
<tspan
   id="tspan8617"
   y="0"
   x="143.198"
   font-size="16"
   style="font-size:16px">TO</tspan>
<tspan
   id="tspan8619"
   y="28"
   x="0"
   font-size="16"
   font-weight="400"
   style="font-weight:400;font-size:16px;fill:#000000">EP1</tspan>
<tspan
   id="tspan8621"
   y="28"
   x="71.599197"
   font-size="16"
   font-weight="400"
   style="font-weight:400;font-size:16px;fill:#000000">TMT1</tspan>
<tspan
   id="tspan8623"
   y="28"
   x="143.198"
   font-size="16"
   font-weight="400"
   style="font-weight:400;font-size:16px;fill:#000000">EP3</tspan>
<tspan
   id="tspan8625"
   y="57"
   x="0"
   font-size="16"
   font-weight="400"
   style="font-weight:400;font-size:16px;fill:#000000">EP1</tspan>
<tspan
   id="tspan8627"
   y="57"
   x="71.599197"
   font-size="16"
   font-weight="400"
   style="font-weight:400;font-size:16px;fill:#000000">TMT7</tspan>
<tspan
   id="tspan8629"
   y="57"
   x="143.198"
   font-size="16"
   font-weight="400"
   style="font-weight:400;font-size:16px;fill:#000000">EP2</tspan>
<tspan
   id="tspan8631"
   y="86"
   x="0"
   font-size="16"
   font-weight="400"
   style="font-weight:400;font-size:16px;fill:#000000">EP3</tspan>
<tspan
   id="tspan8633"
   y="86"
   x="71.599197"
   font-size="16"
   font-weight="400"
   style="font-weight:400;font-size:16px;fill:#000000">TMT5</tspan>
<tspan
   id="tspan8635"
   y="86"
   x="143.198"
   font-size="16"
   font-weight="400"
   style="font-weight:400;font-size:16px;fill:#000000">EP8</tspan>
<tspan
   id="tspan8637"
   y="115"
   x="0"
   font-size="16"
   font-weight="400"
   style="font-weight:400;font-size:16px;fill:#000000">…</tspan>
<tspan
   id="tspan8639"
   y="115"
   x="71.599197"
   font-size="16"
   font-weight="400"
   style="font-weight:400;font-size:16px;fill:#000000">…</tspan>
<tspan
   id="tspan8641"
   y="115"
   x="143.198"
   font-size="16"
   font-weight="400"
   style="font-weight:400;font-size:16px;fill:#000000">…</tspan>
<tspan
   id="tspan8643"
   y="-29"
   x="-0.36956799"
   font-size="32"
   style="font-size:32px;fill:#000000">Routing</tspan>
<tspan
   id="tspan8645"
   y="-29"
   x="109.904"
   font-size="32"
   style="font-size:32px;fill:#000000">Tables</tspan>
</text>
      <path
         id="path8649"
         stroke-miterlimit="8"
         d="m 1114.5,30.0001 h 8.75 V -76.5001 h 17.5 V 30.0001 h 8.75 l -17.5,17.5 z"
         inkscape:connector-curvature="0"
         style="fill:#d9d9d9;fill-rule:evenodd;stroke:#000000;stroke-width:1.33333004;stroke-miterlimit:8" />
      <rect
         id="rect8651"
         height="79"
         width="283"
         y="-133"
         x="899"
         style="fill:#d9d9d9" />
      <text
         id="text8655"
         transform="translate(909.509,-102)"
         font-size="32"
         font-weight="400"
         style="font-weight:400;font-size:32px;font-family:Calibri, Calibri_MSFontService, sans-serif">Account Connection <tspan
   id="tspan8653"
   y="38"
   x="44.753399"
   font-size="32"
   style="font-size:32px">management</tspan>
</text>
      <rect
         id="rect8657"
         stroke-miterlimit="8"
         height="244"
         width="147"
         y="311.5"
         x="954.5"
         style="fill:none;stroke:#71b790;stroke-width:2.66667008;stroke-miterlimit:8" />
      <text
         id="text8659"
         transform="translate(967.736,346)"
         font-size="32"
         font-weight="700"
         style="font-weight:700;font-size:32px;font-family:Calibri, Calibri_MSFontService, sans-serif">Endpoint</text>
      <rect
         id="rect8661"
         stroke-miterlimit="8"
         height="244"
         width="147"
         y="312.5"
         x="1186.5"
         style="fill:none;stroke:#71b790;stroke-width:2.66667008;stroke-miterlimit:8" />
      <text
         id="text8663"
         transform="translate(1199.79,347)"
         font-size="32"
         font-weight="700"
         style="font-weight:700;font-size:32px;font-family:Calibri, Calibri_MSFontService, sans-serif">Endpoint</text>
      <rect
         id="rect8665"
         stroke-miterlimit="8"
         height="67"
         width="93.999901"
         y="365.5"
         x="982.5"
         style="fill:#cde4d9;stroke:#2f528f;stroke-width:1.33333004;stroke-miterlimit:8" />
      <text
         id="text8667"
         transform="translate(1002.06,392)"
         font-size="24"
         font-weight="400"
         style="font-weight:400;font-size:24px;font-family:Calibri, Calibri_MSFontService, sans-serif">Inbox</text>
      <rect
         id="rect8669"
         stroke-miterlimit="8"
         height="75"
         width="93.999901"
         y="455.5"
         x="981.5"
         style="fill:#cde4d9;stroke:#2f528f;stroke-width:1.33333004;stroke-miterlimit:8" />
      <text
         id="text8671"
         transform="translate(991.986,482)"
         font-size="24"
         font-weight="400"
         style="font-weight:400;font-size:24px;font-family:Calibri, Calibri_MSFontService, sans-serif">Outbox</text>
      <rect
         id="rect8673"
         stroke-miterlimit="8"
         height="67"
         width="94"
         y="365.5"
         x="1198.5"
         style="fill:#cde4d9;stroke:#2f528f;stroke-width:1.33333004;stroke-miterlimit:8" />
      <text
         id="text8675"
         transform="translate(1218.11,392)"
         font-size="24"
         font-weight="400"
         style="font-weight:400;font-size:24px;font-family:Calibri, Calibri_MSFontService, sans-serif">Inbox</text>
      <rect
         id="rect8677"
         stroke-miterlimit="8"
         height="75"
         width="94"
         y="455.5"
         x="1197.5"
         style="fill:#cde4d9;stroke:#2f528f;stroke-width:1.33333004;stroke-miterlimit:8" />
      <text
         id="text8679"
         transform="translate(1208.03,482)"
         font-size="24"
         font-weight="400"
         style="font-weight:400;font-size:24px;font-family:Calibri, Calibri_MSFontService, sans-serif">Outbox</text>
      <rect
         id="rect8681"
         height="39"
         width="119"
         y="70"
         x="982"
         style="fill:#71b790" />
      <text
         id="text8683"
         transform="translate(991.651,97)"
         font-size="24"
         font-weight="400"
         style="font-weight:400;font-size:24px;font-family:Calibri, Calibri_MSFontService, sans-serif">Account A</text>
      <rect
         id="rect8685"
         height="39"
         width="119"
         y="70"
         x="1167"
         style="fill:#71b790" />
      <text
         id="text8687"
         transform="translate(1176.17,97)"
         font-size="24"
         font-weight="400"
         style="font-weight:400;font-size:24px;font-family:Calibri, Calibri_MSFontService, sans-serif">Account B</text>
      <path
         id="path8689"
         stroke-miterlimit="8"
         d="m 1101,90 c 0,-10.4934 9.63,-19 21.5,-19 11.87,0 21.5,8.5066 21.5,19 0,10.493 -9.63,19 -21.5,19 -11.87,0 -21.5,-8.507 -21.5,-19 z"
         inkscape:connector-curvature="0"
         style="fill:none;fill-rule:evenodd;stroke:#000000;stroke-width:4;stroke-miterlimit:8" />
      <path
         id="path8691"
         stroke-miterlimit="8"
         d="m 1120,90 c 0,-10.4934 9.85,-19 22,-19 12.15,0 22,8.5066 22,19 0,10.493 -9.85,19 -22,19 -12.15,0 -22,-8.507 -22,-19 z"
         inkscape:connector-curvature="0"
         style="fill:none;fill-rule:evenodd;stroke:#000000;stroke-width:4;stroke-miterlimit:8" />
      <path
         id="path8693"
         transform="matrix(-1,0,0,1,1020.64,109.5)"
         d="M 2.08834,-1.6583 31.9396,35.9342 27.7629,39.2508 -2.08834,1.6583 Z M 34.458,30.5293 38.1428,48.0342 21.928,40.4791 Z"
         inkscape:connector-curvature="0"
         style="fill:#71b790" />
      <path
         id="path8695"
         d="m 1236.21,107.458 47.02,39.462 -3.43,4.085 -47.01,-39.462 z m 48.41,33.662 7.11,16.414 -17.4,-4.159 z"
         inkscape:connector-curvature="0"
         style="fill:#71b790" />
      <path
         id="path8697"
         transform="matrix(1,0,0,-1,1075.5,493.725)"
         d="M 1.61904,-2.11892 114.341,84.0105 111.103,88.2484 -1.61904,2.11892 Z M 115.46,78.1536 l 7.857,16.071 -17.571,-3.3575 z"
         inkscape:connector-curvature="0"
         style="fill:#a6a6a6" />
      <path
         id="path8699"
         d="m 1195.86,495.829 -110.48,-86.033 3.28,-4.208 110.47,86.033 z m -111.65,-80.186 -7.71,-16.143 17.54,3.519 z"
         inkscape:connector-curvature="0"
         style="fill:#a6a6a6" />
      <path
         id="path8701"
         stroke-miterlimit="8"
         d="m 613.5,358.501 c 0,-18.778 15.223,-34.001 34.001,-34.001 H 862.5 c 18.777,0 34,15.223 34,34.001 v 135.998 c 0,18.778 -15.223,34.001 -34,34.001 H 647.501 c -18.778,0 -34.001,-15.223 -34.001,-34.001 z"
         inkscape:connector-curvature="0"
         style="fill:#a6a6a6;fill-opacity:0.36078401;fill-rule:evenodd;stroke:#8f993e;stroke-width:1.33333004;stroke-miterlimit:8" />
      <text
         id="text8705"
         transform="translate(658.33,410)"
         font-size="61"
         font-weight="400"
         style="font-weight:400;font-size:61px;font-family:Calibri, Calibri_MSFontService, sans-serif;fill:#595959">Routing <tspan
   id="tspan8703"
   y="74"
   x="-0.79998797"
   font-size="61"
   style="font-size:61px">Module</tspan>
</text>
      <path
         id="path8707"
         stroke-miterlimit="8"
         d="m 721,280 h 15.5 v -44 h 31 v 44 H 783 l -31,31 z"
         inkscape:connector-curvature="0"
         style="fill:#71b790;fill-rule:evenodd;stroke:#7f7f7f;stroke-width:4;stroke-miterlimit:8;stroke-dasharray:12, 4" />
      <path
         id="path8709"
         d="m 421.17,320.919 177.48,46.051 -1.34,5.162 -177.48,-46.051 z m 176.238,40.219 13.478,11.762 -17.496,3.725 z"
         inkscape:connector-curvature="0"
         style="fill:#a6a6a6" />
      <path
         id="path8711"
         transform="matrix(-1,0,0,1,613.611,429.5)"
         d="M 1.50322,-2.2026 53.6008,33.3529 50.5944,37.7581 -1.50322,2.2026 Z M 54.4046,27.4445 63.1105,43.0716 45.3853,40.66 Z"
         inkscape:connector-curvature="0"
         style="fill:#a6a6a6" />
      <path
         id="path8713"
         d="m 901.088,430.358 71.628,53.086 -3.176,4.285 -71.628,-53.087 z m 72.661,47.213 8.091,15.954 -17.618,-3.099 z"
         inkscape:connector-curvature="0"
         style="fill:#a6a6a6" />
      <path
         id="path8715"
         d="m 982.577,401.544 -70.335,-11.297 0.846,-5.266 70.335,11.297 z M 914.029,395.936 899.5,385.5 l 17.066,-5.362 z"
         inkscape:connector-curvature="0"
         style="fill:#a6a6a6" />
      <g
         id="g8727"
         clip-path="url(#clip4-0)">
        <g
           id="g8725"
           clip-path="url(#clip5-4)">
          <g
             id="g8723"
             clip-path="url(#clip6-1)">
            <path
               id="path8717"
               transform="matrix(1.00494,0,0,1,1196,75)"
               d="m 626.786,326.328 20.579,20.58 20.579,-20.58 C 662.064,152.875 522.713,12.9355 349.26,7.05575 L 369.251,27.047 348.672,47.6263 C 499.194,54.0941 620.318,175.218 626.786,326.328 Z"
               inkscape:connector-curvature="0"
               style="fill:#71b790;fill-opacity:0.4" />
            <path
               id="path8719"
               transform="matrix(1.00494,0,0,1,1196,75)"
               d="m 27.635,305.749 20.5793,20.579 C 54.0941,175.806 175.218,54.6821 326.328,48.2143 L 346.908,27.635 326.328,7.05575 C 153.463,12.9355 13.5235,152.875 7.64373,326.328 Z"
               inkscape:connector-curvature="0"
               style="fill:#71b790;fill-opacity:0.4" />
            <path
               id="path8721"
               transform="matrix(1.00494,0,0,1,1196,75)"
               d="m 647.365,369.251 -20.579,-20.579 c -2.352,67.617 -28.811,129.943 -69.97,178.157 L 468.619,371.015 h 19.404 c 48.214,0 87.609,-39.395 87.609,-87.609 0,-48.214 -39.395,-87.609 -87.609,-87.609 H 372.191 c -11.172,0 -20.58,9.408 -20.58,20.579 V 407.47 L 235.78,205.793 c -3.528,-6.468 -10.584,-9.996 -17.64,-9.996 -7.055,0 -14.111,4.116 -17.639,9.996 L 66.4416,438.044 C 55.858,410.409 49.9782,380.422 48.8023,349.26 L 28.223,328.68 7.64373,349.26 C 13.5235,522.713 152.875,662.652 326.328,668.532 l -19.991,-19.991 20.579,-20.579 C 225.196,624.434 136.411,567.4 87.6089,484.495 L 218.14,258.711 354.551,493.902 c 4.704,8.232 14.112,11.76 22.932,9.408 8.819,-2.352 15.287,-10.584 15.287,-19.991 V 236.368 h 94.665 c 25.871,0 46.45,21.167 46.45,46.45 0,25.283 -21.167,46.45 -46.45,46.45 h -54.682 c -7.056,0 -14.112,4.116 -17.64,9.996 -3.528,6.468 -3.528,14.111 0,20.579 L 526.241,555.64 c -48.214,41.747 -109.952,67.618 -177.569,69.97 l -20.58,20.579 20.58,20.579 c 173.453,-5.88 313.392,-145.231 319.272,-318.684 z"
               inkscape:connector-curvature="0"
               style="fill:#71b790;fill-opacity:0.4" />
          </g>
        </g>
      </g>
      <rect
         id="rect8729"
         stroke-miterlimit="8"
         height="70"
         width="155"
         y="516.5"
         x="42.500099"
         style="fill:#d9d9d9;stroke:#000000;stroke-width:1.33333004;stroke-miterlimit:8" />
      <text
         id="text8731"
         transform="translate(62.5871,562)"
         font-size="32"
         font-weight="700"
         style="font-weight:700;font-size:32px;font-family:Calibri, Calibri_MSFontService, sans-serif">TeamSet</text>
      <path
         id="path8733"
         transform="matrix(1,0,0,-1,119.5,516.867)"
         d="M 2.66652,-0.0280649 3.25627,56.006 -2.07676,56.0621 -2.66652,0.0280649 Z M 8.56125,53.2833 0.730079,69.3666 -7.43787,53.4517 Z"
         inkscape:connector-curvature="0" />
      <rect
         id="rect8735"
         stroke-miterlimit="8"
         height="70"
         width="175"
         y="517.5"
         x="-191.5"
         style="fill:#d9d9d9;stroke:#000000;stroke-width:1.33333004;stroke-miterlimit:8" />
      <text
         id="text8737"
         transform="translate(-174.063,562)"
         font-size="32"
         font-weight="700"
         style="font-weight:700;font-size:32px;font-family:Calibri, Calibri_MSFontService, sans-serif">Machine 1</text>
      <rect
         id="rect8739"
         stroke-miterlimit="8"
         height="69"
         width="175"
         y="633.5"
         x="-191.5"
         style="fill:#d9d9d9;stroke:#000000;stroke-width:1.33333004;stroke-miterlimit:8" />
      <text
         id="text8743"
         transform="translate(-174.486,678)"
         font-size="32"
         font-weight="700"
         style="font-weight:700;font-size:32px;font-family:Calibri, Calibri_MSFontService, sans-serif">Machine n<tspan
   id="tspan8741"
   y="-60"
   x="57.556599"
   font-size="24"
   font-weight="400"
   style="font-weight:400;font-size:24px">...</tspan>
</text>
      <path
         id="path8745"
         transform="matrix(1,0,0,-1,-16.5001,551.701)"
         d="M 0.00912038,-2.66665 45.5517,-2.51089 45.5334,2.82241 -0.00912038,2.66665 Z M 42.9033,-7.85331 58.8758,0.201365 42.8485,8.1466 Z"
         inkscape:connector-curvature="0"
         style="fill:#a6a6a6" />
      <path
         id="path8747"
         transform="matrix(1,0,0,-1,-16.5001,667.583)"
         d="M 0,-2.66667 H 32.0658 V 116.083 l -2.6667,-2.667 h 16.0657 v 5.334 H 26.7325 V 0 l 2.6666,2.66667 H 0 Z m 42.7981,110.74967 16,8 -16,8 z"
         inkscape:connector-curvature="0"
         style="fill:#a6a6a6" />
    </g>
  </g>
</svg>
