<?xml version="1.0" encoding="UTF-8" standalone="no"?>
<!-- Created with Inkscape (http://www.inkscape.org/) -->

<svg
   xmlns:dc="http://purl.org/dc/elements/1.1/"
   xmlns:cc="http://creativecommons.org/ns#"
   xmlns:rdf="http://www.w3.org/1999/02/22-rdf-syntax-ns#"
   xmlns:svg="http://www.w3.org/2000/svg"
   xmlns="http://www.w3.org/2000/svg"
   xmlns:sodipodi="http://sodipodi.sourceforge.net/DTD/sodipodi-0.dtd"
   xmlns:inkscape="http://www.inkscape.org/namespaces/inkscape"
   width="304.28848mm"
   height="173.92174mm"
   viewBox="0 0 304.28848 173.92174"
   version="1.1"
   id="svg5139"
   inkscape:version="0.92.5 (2060ec1f9f, 2020-04-08)"
   sodipodi:docname="message_structure_telemetry.svg">
  <defs
     id="defs5133">
    <clipPath
       id="clip0">
      <rect
         id="rect5684"
         height="672"
         width="1165"
         y="32"
         x="21" />
    </clipPath>
    <clipPath
       id="clip1">
      <rect
         id="rect5687"
         height="536"
         width="536"
         y="166"
         x="355" />
    </clipPath>
    <clipPath
       id="clip2">
      <rect
         id="rect5690"
         height="537"
         width="537"
         y="166"
         x="355" />
    </clipPath>
    <clipPath
       id="clip3">
      <rect
         id="rect5693"
         height="537"
         width="537"
         y="166"
         x="355" />
    </clipPath>
  </defs>
  <sodipodi:namedview
     id="base"
     pagecolor="#ffffff"
     bordercolor="#666666"
     borderopacity="1.0"
     inkscape:pageopacity="0.0"
     inkscape:pageshadow="2"
     inkscape:zoom="0.35"
     inkscape:cx="16.461916"
     inkscape:cy="-202.75758"
     inkscape:document-units="mm"
     inkscape:current-layer="layer1"
     showgrid="false"
     inkscape:window-width="1920"
     inkscape:window-height="1017"
     inkscape:window-x="-8"
     inkscape:window-y="114"
     inkscape:window-maximized="1" />
  <metadata
     id="metadata5136">
    <rdf:RDF>
      <cc:Work
         rdf:about="">
        <dc:format>image/svg+xml</dc:format>
        <dc:type
           rdf:resource="http://purl.org/dc/dcmitype/StillImage" />
        <dc:title></dc:title>
      </cc:Work>
    </rdf:RDF>
  </metadata>
  <g
     inkscape:label="Layer 1"
     inkscape:groupmode="layer"
     id="layer1"
     transform="translate(-88.248618,78.734677)">
    <g
       id="g5878"
       transform="matrix(0.26458333,0,0,0.26458333,78.741266,-90.819727)"
       clip-path="url(#clip0)">
      <g
         id="g5708"
         clip-path="url(#clip1)">
        <g
           id="g5706"
           clip-path="url(#clip2)">
          <g
             id="g5704"
             clip-path="url(#clip3)">
            <path
               id="path5698"
               d="m 852.714,425.129 16.342,16.341 16.341,-16.341 C 880.728,287.394 770.073,176.272 632.338,171.603 l 15.875,15.874 -16.342,16.342 c 119.526,5.136 215.707,101.317 220.843,221.31 z"
               inkscape:connector-curvature="0"
               style="fill:#71b790;fill-opacity:0.4" />
            <path
               id="path5700"
               d="m 376.944,408.787 16.342,16.342 C 397.955,305.603 494.136,209.422 614.129,204.286 L 630.47,187.944 614.129,171.603 C 476.861,176.272 365.739,287.394 361.07,425.129 Z"
               inkscape:connector-curvature="0"
               style="fill:#71b790;fill-opacity:0.4" />
            <path
               id="path5702"
               d="m 869.056,459.213 -16.342,-16.342 c -1.867,53.693 -22.878,103.185 -55.561,141.47 L 727.118,460.613 h 15.408 c 38.286,0 69.568,-31.282 69.568,-69.568 0,-38.285 -31.282,-69.568 -69.568,-69.568 h -91.979 c -8.871,0 -16.341,7.471 -16.341,16.342 v 151.742 l -91.98,-160.146 c -2.801,-5.136 -8.404,-7.938 -14.007,-7.938 -5.602,0 -11.205,3.269 -14.006,7.938 L 407.76,513.84 c -8.405,-21.945 -13.074,-45.756 -14.007,-70.502 l -16.342,-16.341 -16.341,16.341 c 4.669,137.735 115.324,248.857 253.059,253.526 L 598.254,680.99 614.596,664.648 C 533.822,661.847 463.321,616.557 424.568,550.725 L 528.219,371.436 636.54,558.195 c 3.735,6.537 11.206,9.338 18.209,7.471 7.004,-1.868 12.14,-8.405 12.14,-15.875 V 353.693 h 75.17 c 20.544,0 36.885,16.809 36.885,36.885 0,20.077 -16.808,36.885 -36.885,36.885 h -43.421 c -5.603,0 -11.206,3.269 -14.007,7.938 -2.802,5.136 -2.802,11.205 0,16.341 l 88.244,155.477 c -38.286,33.15 -87.311,53.694 -141.004,55.562 l -16.341,16.341 16.341,16.341 C 769.606,690.794 880.728,580.139 885.397,442.404 Z"
               inkscape:connector-curvature="0"
               style="fill:#71b790;fill-opacity:0.4" />
          </g>
        </g>
      </g>
      <path
         id="path5710"
         stroke-miterlimit="8"
         d="m 781.005,507.679 277.595,96.335 -33.77,97.307 -277.594,-96.335 z"
         inkscape:connector-curvature="0"
         style="fill:#ffffff;fill-rule:evenodd;stroke:#9dc3e6;stroke-width:2.66667008;stroke-miterlimit:8" />
      <path
         id="path5712"
         stroke-miterlimit="8"
         d="m 737.688,269.145 311.352,-158.41 50.94,100.12 -311.353,158.41 z"
         inkscape:connector-curvature="0"
         style="fill:#ffffff;fill-rule:evenodd;stroke:#9dc3e6;stroke-width:2.66667008;stroke-miterlimit:8" />
      <rect
         id="rect5714"
         stroke-miterlimit="8"
         height="112"
         width="295"
         y="362.5"
         x="176.5"
         style="fill:#ffffff;stroke:#9dc3e6;stroke-width:2.66667008;stroke-miterlimit:8" />
      <rect
         id="rect5716"
         stroke-miterlimit="8"
         height="114"
         width="134"
         y="362.5"
         x="44.500099"
         style="fill:#cde4d9;stroke:#000000;stroke-width:1.33333004;stroke-miterlimit:8" />
      <text
         id="text5720"
         transform="translate(87.1667,412)"
         font-size="24"
         font-weight="400"
         style="font-weight:400;font-size:24px;font-family:Calibri, Calibri_MSFontService, sans-serif">EP 1;<tspan
   id="tspan5718"
   y="29"
   x="-14"
   font-size="24"
   style="font-size:24px">sending</tspan>
</text>
      <rect
         id="rect5722"
         stroke-miterlimit="8"
         height="39"
         width="293"
         y="419.5"
         x="178.5"
         style="fill:#ffffff;stroke:#000000;stroke-width:1.33333004;stroke-miterlimit:8" />
      <path
         id="path5724"
         stroke-miterlimit="8"
         d="m 761.112,317.662 301.978,-154.046 17.8,34.889 -301.98,154.046 z"
         inkscape:connector-curvature="0"
         style="fill:#ffffff;fill-rule:evenodd;stroke:#000000;stroke-width:1.33333004;stroke-miterlimit:8" />
      <path
         id="path5726"
         stroke-miterlimit="8"
         d="M 765.387,556.031 1046.14,656.935 1032.95,693.636 752.196,592.732 Z"
         inkscape:connector-curvature="0"
         style="fill:#ffffff;fill-rule:evenodd;stroke:#000000;stroke-width:1.33333004;stroke-miterlimit:8" />
      <rect
         id="rect5728"
         stroke-miterlimit="8"
         height="30"
         width="92"
         y="423.5"
         x="256.5"
         style="fill:#71b790;stroke:#2f528f;stroke-width:1.33333004;stroke-miterlimit:8" />
      <text
         id="text5730"
         transform="translate(265.6,444)"
         font-size="19"
         font-weight="400"
         style="font-weight:400;font-size:19px;font-family:Calibri, Calibri_MSFontService, sans-serif;fill:#ffffff">EFDI</text>
      <rect
         id="rect5732"
         stroke-miterlimit="8"
         height="39"
         width="293"
         y="380.5"
         x="178.5"
         style="fill:#ffffff;stroke:#000000;stroke-width:1.33333004;stroke-miterlimit:8" />
      <path
         id="path5734"
         stroke-miterlimit="8"
         d="M 361.5,437.25 H 398 v -3.75 l 7.5,7.5 -7.5,7.5 v -3.75 h -36.5 z"
         inkscape:connector-curvature="0"
         style="fill:none;fill-rule:evenodd;stroke:#71b790;stroke-width:1.33333004;stroke-miterlimit:8" />
      <path
         id="path5736"
         stroke-miterlimit="8"
         d="M 745.076,283.76 1054.63,125.851 1072.42,160.74 762.874,318.649 Z"
         inkscape:connector-curvature="0"
         style="fill:#ffffff;fill-rule:evenodd;stroke:#000000;stroke-width:1.33333004;stroke-miterlimit:8" />
      <path
         id="path5738"
         stroke-miterlimit="8"
         d="M 777.803,518.051 1061.22,619.914 1048.03,656.615 764.613,554.753 Z"
         inkscape:connector-curvature="0"
         style="fill:#ffffff;fill-rule:evenodd;stroke:#000000;stroke-width:1.33333004;stroke-miterlimit:8" />
      <rect
         id="rect5740"
         stroke-miterlimit="8"
         height="98"
         width="134"
         y="601.5"
         x="1023.5"
         style="fill:#cde4d9;stroke:#000000;stroke-width:1.33333004;stroke-miterlimit:8" />
      <text
         id="text5746"
         transform="translate(1065.91,643)"
         font-size="24"
         font-weight="400"
         style="font-weight:400;font-size:24px;font-family:Calibri, Calibri_MSFontService, sans-serif">EP 3;<tspan
   id="tspan5742"
   y="29"
   x="-28.52"
   font-size="24"
   style="font-size:24px">subscribed</tspan>
<tspan
   id="tspan5744"
   y="-308"
   x="-524.31299"
   font-size="24"
   style="font-size:24px">EP1</tspan>
</text>
      <rect
         id="rect5748"
         height="39"
         width="56"
         y="497"
         x="520"
         style="fill:#ffffff" />
      <text
         id="text5752"
         transform="translate(529.433,524)"
         font-size="24"
         font-weight="400"
         style="font-weight:400;font-size:24px;font-family:Calibri, Calibri_MSFontService, sans-serif">EP1<tspan
   id="tspan5750"
   y="-187"
   x="134.33299"
   font-size="24"
   style="font-size:24px">EP2</tspan>
</text>
      <path
         id="path5754"
         stroke-miterlimit="8"
         d="M 596.5,326.25 H 633 v -3.75 l 7.5,7.5 -7.5,7.5 v -3.75 h -36.5 z"
         inkscape:connector-curvature="0"
         style="fill:none;fill-rule:evenodd;stroke:#71b790;stroke-width:1.33333004;stroke-miterlimit:8" />
      <path
         id="path5756"
         stroke-miterlimit="8"
         d="M 586.5,512.25 H 623 v -3.75 l 7.5,7.5 -7.5,7.5 v -3.75 h -36.5 z"
         inkscape:connector-curvature="0"
         style="fill:none;fill-rule:evenodd;stroke:#71b790;stroke-width:1.33333004;stroke-miterlimit:8" />
      <text
         id="text5774"
         transform="translate(230.267,62)"
         font-size="24"
         font-weight="400"
         style="font-weight:400;font-size:24px;font-family:Calibri, Calibri_MSFontService, sans-serif">1<tspan
   id="tspan5758"
   y="0"
   x="12.1667"
   font-size="24"
   style="font-size:24px">:</tspan>
<tspan
   id="tspan5760"
   y="0"
   x="24.1667"
   font-size="24"
   style="font-size:24px">Sending</tspan>
<tspan
   id="tspan5762"
   y="0"
   x="226.698"
   font-size="24"
   style="font-size:24px">2</tspan>
<tspan
   id="tspan5764"
   y="0"
   x="238.86501"
   font-size="24"
   style="font-size:24px">:</tspan>
<tspan
   id="tspan5766"
   y="0"
   x="250.86501"
   font-size="24"
   style="font-size:24px">Addressing</tspan>
, Routing and Selection<tspan
   id="tspan5768"
   y="0"
   x="728.5"
   font-size="24"
   style="font-size:24px">3</tspan>
:<tspan
   id="tspan5770"
   y="0"
   x="752.66699"
   font-size="24"
   style="font-size:24px">Receiving</tspan>
<tspan
   id="tspan5772"
   y="156"
   x="-194.33299"
   font-size="24"
   style="font-size:24px">The onion principle:</tspan>
</text>
      <path
         id="path5776"
         d="m 35.9333,221.3 h 48.75 48.7497 48.75 48.75 v 2 h -48.75 -48.75 -48.7497 -48.75 z"
         inkscape:connector-curvature="0"
         style="fill-rule:evenodd" />
      <text
         id="text5792"
         transform="translate(35.9333,247)"
         font-size="24"
         font-weight="400"
         style="font-weight:400;font-size:24px;font-family:Calibri, Calibri_MSFontService, sans-serif">1.<tspan
   id="tspan5778"
   y="0"
   x="36"
   font-size="24"
   style="font-size:24px">Protocol layer</tspan>
<tspan
   id="tspan5780"
   y="29"
   x="0"
   font-size="24"
   style="font-size:24px">2.</tspan>
<tspan
   id="tspan5782"
   y="29"
   x="36"
   font-size="24"
   style="font-size:24px">Endpoint</tspan>
layer<tspan
   id="tspan5784"
   y="58"
   x="0"
   font-size="24"
   style="font-size:24px">3.</tspan>
<tspan
   id="tspan5786"
   y="58"
   x="36"
   font-size="24"
   style="font-size:24px">Message layer</tspan>
<tspan
   id="tspan5788"
   y="87"
   x="0"
   font-size="24"
   style="font-size:24px">4.</tspan>
<tspan
   id="tspan5790"
   y="87"
   x="36"
   font-size="24"
   style="font-size:24px">Content layer</tspan>
</text>
      <rect
         id="rect5794"
         stroke-miterlimit="8"
         height="100"
         width="134"
         y="111.5"
         x="1051.5"
         style="fill:#cde4d9;stroke:#000000;stroke-width:1.33333004;stroke-miterlimit:8" />
      <text
         id="text5798"
         transform="translate(1093.67,154)"
         font-size="24"
         font-weight="400"
         style="font-weight:400;font-size:24px;font-family:Calibri, Calibri_MSFontService, sans-serif">EP 2;<tspan
   id="tspan5796"
   y="29"
   x="-26.0133"
   font-size="24"
   style="font-size:24px">addressed</tspan>
</text>
      <path
         id="path5800"
         stroke-miterlimit="8"
         d="M 230.5,285.5 383.333,418.333"
         inkscape:connector-curvature="0"
         style="fill:none;fill-rule:evenodd;stroke:#000000;stroke-width:0.66666698;stroke-miterlimit:8;stroke-dasharray:2.66667, 2" />
      <path
         id="path5802"
         stroke-miterlimit="8"
         d="m 241.5,241.5 154,123"
         inkscape:connector-curvature="0"
         style="fill:none;fill-rule:evenodd;stroke:#000000;stroke-width:0.66666698;stroke-miterlimit:8;stroke-dasharray:2.66667, 2" />
      <path
         id="path5804"
         stroke-miterlimit="8"
         d="m 210.5,299.5 133.667,124"
         inkscape:connector-curvature="0"
         style="fill:none;fill-rule:evenodd;stroke:#000000;stroke-width:0.66666698;stroke-miterlimit:8;stroke-dasharray:2.66667, 2" />
      <text
         id="text5806"
         transform="translate(653.433,525)"
         font-size="24"
         font-weight="400"
         style="font-weight:400;font-size:24px;font-family:Calibri, Calibri_MSFontService, sans-serif">EP3</text>
      <rect
         id="rect5808"
         stroke-miterlimit="8"
         height="21"
         width="17"
         y="429.5"
         x="302.5"
         style="fill:#4472c4;stroke:#2f528f;stroke-width:1.33333004;stroke-miterlimit:8" />
      <rect
         id="rect5810"
         stroke-miterlimit="8"
         height="21"
         width="17"
         y="428.5"
         x="323.5"
         style="fill:#ffc000;stroke:#2f528f;stroke-width:1.33333004;stroke-miterlimit:8" />
      <path
         id="path5812"
         stroke-miterlimit="8"
         d="m 210.5,330.5 100,98.667"
         inkscape:connector-curvature="0"
         style="fill:none;fill-rule:evenodd;stroke:#000000;stroke-width:0.66666698;stroke-miterlimit:8;stroke-dasharray:2.66667, 2" />
      <path
         id="path5814"
         stroke-miterlimit="8"
         d="m 212.5,328.5 119.333,99.667"
         inkscape:connector-curvature="0"
         style="fill:none;fill-rule:evenodd;stroke:#000000;stroke-width:0.66666698;stroke-miterlimit:8;stroke-dasharray:2.66667, 2" />
      <rect
         id="rect5816"
         stroke-miterlimit="8"
         height="21"
         width="16"
         y="526.5"
         x="587.5"
         style="fill:#4472c4;stroke:#2f528f;stroke-width:1.33333004;stroke-miterlimit:8" />
      <rect
         id="rect5818"
         stroke-miterlimit="8"
         height="21"
         width="16"
         y="527.5"
         x="608.5"
         style="fill:#ffc000;stroke:#2f528f;stroke-width:1.33333004;stroke-miterlimit:8" />
      <rect
         id="rect5820"
         stroke-miterlimit="8"
         height="21"
         width="16"
         y="298.5"
         x="604.5"
         style="fill:#ffc000;stroke:#2f528f;stroke-width:1.33333004;stroke-miterlimit:8" />
      <rect
         id="rect5822"
         stroke-miterlimit="8"
         height="30"
         width="92"
         y="350.5"
         x="567.5"
         style="fill:#71b790;stroke:#2f528f;stroke-width:1.33333004;stroke-miterlimit:8" />
      <text
         id="text5824"
         transform="translate(576.6,371)"
         font-size="19"
         font-weight="400"
         style="font-weight:400;font-size:19px;font-family:Calibri, Calibri_MSFontService, sans-serif;fill:#ffffff">EFDI</text>
      <rect
         id="rect5826"
         stroke-miterlimit="8"
         height="21"
         width="16"
         y="356"
         x="613"
         style="fill:#4472c4;fill-opacity:0.63137297;stroke:#2f528f;stroke-width:3.66667008;stroke-miterlimit:8;stroke-opacity:0.63137297" />
      <rect
         id="rect5828"
         stroke-miterlimit="8"
         height="21"
         width="16"
         y="357.5"
         x="634.5"
         style="fill:#ffc000;fill-opacity:0.63137297;stroke:#2f528f;stroke-width:0.66666698;stroke-miterlimit:8;stroke-opacity:0.63137297" />
      <rect
         id="rect5830"
         stroke-miterlimit="8"
         height="30"
         width="92"
         y="465.5"
         x="564.5"
         style="fill:#71b790;stroke:#2f528f;stroke-width:1.33333004;stroke-miterlimit:8" />
      <text
         id="text5832"
         transform="translate(573.767,486)"
         font-size="19"
         font-weight="400"
         style="font-weight:400;font-size:19px;font-family:Calibri, Calibri_MSFontService, sans-serif;fill:#ffffff">EFDI</text>
      <rect
         id="rect5834"
         stroke-miterlimit="8"
         height="20"
         width="17"
         y="471.5"
         x="610.5"
         style="fill:#4472c4;fill-opacity:0.63137297;stroke:#2f528f;stroke-width:1.33333004;stroke-miterlimit:8;stroke-opacity:0.63137297" />
      <rect
         id="rect5836"
         stroke-miterlimit="8"
         height="20"
         width="17"
         y="472.5"
         x="631.5"
         style="fill:#ffc000;fill-opacity:0.63137297;stroke:#2f528f;stroke-width:1.33333004;stroke-miterlimit:8;stroke-opacity:0.63137297" />
      <path
         id="path5838"
         transform="matrix(1,0,0,-1,471.5,439)"
         d="m 0.0693842,-1.66522 4.5818958,0.19091 4.58867,0.646293 4.51215,1.031349 4.4674,1.424388 8.3272,3.71522 7.4728,4.83156 6.3042,5.7252 2.6882,3.1472 2.2918,3.3394 1.8373,3.4779 1.3906,3.5095 0.871,3.6851 0.2597,3.5703 0.25,3.4375 -0.0403,-0.2625 0.8125,3.4375 -0.0725,-0.2305 1.3125,3.3125 -0.0758,-0.1646 1.75,3.3125 -0.0995,-0.1646 2.1875,3.1875 -0.1069,-0.1394 2.5625,3 -0.1468,-0.1513 6.125,5.5625 -0.2156,-0.1658 7.25,4.6875 -0.2258,-0.1225 8.125,3.625 -0.1728,-0.0658 4.3125,1.375 -0.1987,-0.0501 5.0246,0.9434 -0.6152,3.2761 -5.1255,-0.9624 -4.4985,-1.4343 -8.3272,-3.7152 -7.4728,-4.8316 -6.3042,-5.7252 -2.6882,-3.1472 -2.2918,-3.3394 -1.8373,-3.4779 -1.3906,-3.5095 -0.871,-3.6851 -0.2597,-3.5703 -0.25,-3.4375 0.0403,0.2625 -0.8125,-3.4375 0.0725,0.2305 -1.3125,-3.3125 0.0758,0.1646 -1.75,-3.3125 0.0995,0.1646 -2.1875,-3.1875 0.1069,0.1394 -2.5625,-3 0.1468,0.1513 -6.125,-5.5625 0.2156,0.1658 -7.25,-4.68749 0.2258,0.12244 -8.125,-3.625 0.1728,0.06586 -4.3125,-1.375 0.1349,0.03685 -4.37498,-1 0.13893,0.02562 -4.4375,-0.625 0.16307,0.01484 -4.5000042,-0.1875 z M 86.576,67.4844 96,73.5 85.5331,77.4298 Z"
         inkscape:connector-curvature="0"
         style="fill:#71b790" />
      <path
         id="path5840"
         transform="matrix(1,0,0,-1,659.5,365.296)"
         d="m 0.128722,-1.66169 9.007438,0.697761 8.80204,2.120189 8.2184,3.21032 7.4666,4.24827 6.2538,4.96435 2.6374,2.7693 2.3005,2.9577 1.7909,2.9848 1.4046,3.1437 0.8875,3.2089 0.263,3.1555 0.25,3 -0.0546,-0.3059 0.8125,2.9375 -0.0846,-0.2356 1.3125,2.9375 -0.0925,-0.1776 1.6875,2.8125 -0.1249,-0.18 2.1875,2.75 -0.0974,-0.1119 2.5,2.625 -0.169,-0.1546 6.125,4.875 -0.2178,-0.1469 7.1875,4.0625 -0.2137,-0.1015 8,3.125 -0.257,-0.0772 9.1417,1.9603 -0.6989,3.2592 -9.2732,-1.9885 -8.2359,-3.2171 -7.4054,-4.1857 -6.3179,-5.0285 -2.6304,-2.762 -2.3021,-2.894 -1.7956,-2.9926 -1.4046,-3.1437 -0.8875,-3.2089 -0.263,-3.1555 -0.25,-3 0.0545,0.3059 -0.8125,-2.9375 0.0847,0.2356 -1.3125,-2.9375 0.0925,0.1776 -1.6875,-2.8125 0.1136,0.1657 -2.1875,-2.8125 0.1087,0.1262 -2.5,-2.625 0.1707,0.156 -6.0625,-4.8125 0.212,0.1432 -7.25,-4.12499 0.2178,0.10382 -8,-3.125 0.2161,0.06789 -8.5625,-2.0625 0.26158,0.04137 -8.875002,-0.6875 z M 85.5188,57.8874 95,63.8125 84.5712,67.8424 Z"
         inkscape:connector-curvature="0"
         style="fill:#71b790" />
      <path
         id="path5842"
         d="m 471.584,437.836 8.78,0.442 8.601,1.401 8.038,2.042 7.247,2.757 6.107,3.215 2.653,1.791 2.27,1.935 1.844,1.982 1.414,2.12 0.961,2.292 0.279,2.161 0.25,1.938 -0.116,-0.431 0.813,1.937 -0.151,-0.28 1.25,1.875 -0.167,-0.211 1.688,1.812 -0.138,-0.132 2.125,1.812 -0.133,-0.102 2.437,1.688 -0.179,-0.108 6,3.125 -0.172,-0.078 7,2.688 -0.187,-0.06 7.875,2 -0.172,-0.034 8.809,1.273 -0.477,3.299 -8.896,-1.285 -8.055,-2.046 -7.18,-2.757 -6.177,-3.217 -2.593,-1.795 -2.261,-1.929 -1.845,-1.982 -1.414,-2.12 -0.961,-2.292 -0.279,-2.161 -0.25,-1.938 0.116,0.432 -0.812,-1.938 0.15,0.28 -1.25,-1.875 0.167,0.211 -1.688,-1.812 0.138,0.132 -2.125,-1.812 0.15,0.113 -2.5,-1.688 0.156,0.094 -5.938,-3.125 0.184,0.083 -7.063,-2.688 0.183,0.058 -7.875,-2 0.142,0.03 -8.438,-1.375 0.185,0.019 -8.688,-0.437 z m 83.449,37.402 9.655,5.637 -10.303,4.342 z"
         inkscape:connector-curvature="0"
         style="fill:#71b790" />
      <path
         id="path5844"
         d="m 656.597,478.836 10.845,0.631 10.559,1.844 9.928,2.864 8.848,3.692 3.995,2.127 3.62,2.262 3.188,2.472 2.751,2.555 2.289,2.693 1.641,2.872 1.12,2.938 0.337,2.83 0.312,2.625 -0.097,-0.397 1,2.625 -0.111,-0.233 1.5,2.625 -0.177,-0.253 2.125,2.5 -0.136,-0.142 2.625,2.438 -0.113,-0.096 3.063,2.375 -0.138,-0.096 3.5,2.187 -0.1,-0.058 3.875,2.063 -0.142,-0.067 8.688,3.625 -0.177,-0.063 9.687,2.813 -0.178,-0.041 10.375,1.812 -0.19,-0.022 2.431,0.142 -0.193,3.327 -2.527,-0.147 -10.559,-1.844 -9.866,-2.865 -8.846,-3.691 -3.996,-2.126 -3.62,-2.263 -3.188,-2.472 -2.751,-2.555 -2.289,-2.693 -1.641,-2.872 -1.12,-2.938 -0.336,-2.829 -0.313,-2.625 0.098,0.396 -1,-2.625 0.11,0.233 -1.5,-2.625 0.177,0.253 -2.125,-2.5 0.136,0.142 -2.625,-2.438 0.113,0.096 -3.063,-2.375 0.138,0.096 -3.5,-2.187 0.1,0.058 -3.875,-2.063 0.142,0.067 -8.688,-3.625 0.18,0.063 -9.75,-2.812 0.175,0.04 -10.375,-1.812 0.19,0.022 -10.75,-0.625 z m 105.273,52.717 9.693,5.572 -10.274,4.411 z"
         inkscape:connector-curvature="0"
         style="fill:#71b790" />
      <path
         id="path5846"
         stroke-miterlimit="8"
         d="m 880.595,218.375 81.658,-42.378 13.819,26.628 -81.658,42.378 z"
         inkscape:connector-curvature="0"
         style="fill:#71b790;fill-rule:evenodd;stroke:#2f528f;stroke-width:1.33333004;stroke-miterlimit:8" />
      <text
         id="text5848"
         transform="rotate(-27.427902,924.69733,-1725.3528)"
         font-size="19"
         font-weight="400"
         style="font-weight:400;font-size:19px;font-family:Calibri, Calibri_MSFontService, sans-serif;fill:#ffffff">EFDI</text>
      <path
         id="path5850"
         stroke-miterlimit="8"
         d="m 984.639,177.658 32.251,-17.096 -1.76,-3.313 10.14,3.114 -3.11,10.139 -1.76,-3.313 -32.248,17.095 z"
         inkscape:connector-curvature="0"
         style="fill:none;fill-rule:evenodd;stroke:#71b790;stroke-width:1.33333004;stroke-miterlimit:8" />
      <path
         id="path5852"
         stroke-miterlimit="8"
         d="m 937.052,193.979 14.146,-8.167 10.416,18.042 -14.145,8.167 z"
         inkscape:connector-curvature="0"
         style="fill:#ffc000;fill-rule:evenodd;stroke:#2f528f;stroke-width:1.33333004;stroke-miterlimit:8" />
      <path
         id="path5854"
         stroke-miterlimit="8"
         d="m 852.921,551.15 86.434,31.515 -10.276,28.185 -86.434,-31.515 z"
         inkscape:connector-curvature="0"
         style="fill:#71b790;fill-rule:evenodd;stroke:#2f528f;stroke-width:1.33333004;stroke-miterlimit:8" />
      <text
         id="text5856"
         transform="rotate(20.03243,-1197.562,2706.9429)"
         font-size="19"
         font-weight="400"
         style="font-weight:400;font-size:19px;font-family:Calibri, Calibri_MSFontService, sans-serif;fill:#ffffff">EFDI</text>
      <path
         id="path5858"
         stroke-miterlimit="8"
         d="m 956.8,601.039 34.459,12.035 1.236,-3.54 4.608,9.553 -9.553,4.608 1.236,-3.54 -34.459,-12.035 z"
         inkscape:connector-curvature="0"
         style="fill:none;fill-rule:evenodd;stroke:#71b790;stroke-width:1.33333004;stroke-miterlimit:8" />
      <path
         id="path5860"
         stroke-miterlimit="8"
         d="m 899.221,571.683 15.361,5.551 -7.137,19.75 -15.361,-5.551 z"
         inkscape:connector-curvature="0"
         style="fill:#4472c4;fill-rule:evenodd;stroke:#2f528f;stroke-width:1.33333004;stroke-miterlimit:8" />
      <path
         id="path5862"
         stroke-miterlimit="8"
         d="m 919.238,579.469 15.5,5.658 -7.143,19.57 -15.5,-5.657 z"
         inkscape:connector-curvature="0"
         style="fill:#ffc000;fill-rule:evenodd;stroke:#2f528f;stroke-width:1.33333004;stroke-miterlimit:8" />
      <text
         id="text5864"
         transform="translate(413.697,448)"
         font-size="19"
         font-weight="400"
         style="font-weight:400;font-size:19px;font-family:Calibri, Calibri_MSFontService, sans-serif;fill:#71b790">INBOX</text>
      <text
         id="text5866"
         transform="rotate(18.976664,-1366.8667,2585.4791)"
         font-size="19"
         font-weight="400"
         style="font-weight:400;font-size:19px;font-family:Calibri, Calibri_MSFontService, sans-serif;fill:#71b790">INBOX</text>
      <text
         id="text5868"
         transform="rotate(-27.797891,1070.5876,-1423.4831)"
         font-size="19"
         font-weight="400"
         style="font-weight:400;font-size:19px;font-family:Calibri, Calibri_MSFontService, sans-serif;fill:#71b790">INBOX</text>
      <text
         id="text5870"
         transform="translate(394.454,406)"
         font-size="19"
         font-weight="400"
         style="font-weight:400;font-size:19px;font-family:Calibri, Calibri_MSFontService, sans-serif;fill:#71b790">OUTBOX</text>
      <text
         id="text5872"
         transform="rotate(-27.080448,1014.796,-1440.9728)"
         font-size="19"
         font-weight="400"
         style="font-weight:400;font-size:19px;font-family:Calibri, Calibri_MSFontService, sans-serif;fill:#71b790">OUTBOX</text>
      <text
         id="text5874"
         transform="rotate(18.997864,-1234.9067,2606.9343)"
         font-size="19"
         font-weight="400"
         style="font-weight:400;font-size:19px;font-family:Calibri, Calibri_MSFontService, sans-serif;fill:#71b790">OUTBOX</text>
      <path
         id="path5876"
         stroke-miterlimit="8"
         d="m 602.5,346.5 h 32 l -9.626,12.203 V 386.5 l -11.187,-6.78 v -19.661 z"
         inkscape:connector-curvature="0"
         style="fill:#a6a6a6;fill-rule:evenodd;stroke:#8f993e;stroke-width:1.33333004;stroke-miterlimit:8" />
    </g>
  </g>
</svg>
